<svg width="728" height="449" viewBox="0 0 728 449" fill="none" xmlns="http://www.w3.org/2000/svg">
<path d="M256.128 318.569H199.13V451.868H256.128V318.569Z" fill="#333333"/>
<path d="M225.038 311.844H199.13V319.431H225.038V311.844Z" fill="#333333"/>
<path d="M214.157 307.532H199.13V311.844H214.157V307.532Z" fill="#333333"/>
<path opacity="0.06" d="M232.293 327.881H222.966V334.779H232.293V327.881Z" fill="white"/>
<path opacity="0.12" d="M232.293 344.953H222.966V351.85H232.293V344.953Z" fill="white"/>
<path opacity="0.19" d="M232.293 379.097H222.966V385.995H232.293V379.097Z" fill="white"/>
<path opacity="0.14" d="M232.293 413.241H222.966V420.139H232.293V413.241Z" fill="white"/>
<path opacity="0.1" d="M232.293 430.313H222.966V437.211H232.293V430.313Z" fill="white"/>
<path d="M113.116 333.054H35.0461V404.446H113.116V333.054Z" fill="#333333"/>
<path d="M100.853 326.673H47.482V357.368H100.853V326.673Z" fill="#333333"/>
<path d="M118.815 378.062H40.7458V449.454H118.815V378.062Z" fill="#333333"/>
<path d="M106.38 371.681H53.009V402.376H106.38V371.681Z" fill="#333333"/>
<path d="M222.793 368.577H144.724V450.833H222.793V368.577Z" fill="#333333"/>
<path d="M210.53 361.334H157.159V396.858H210.53V361.334Z" fill="#333333"/>
<path d="M484.119 393.582H406.049V473.079H484.119V393.582Z" fill="#333333"/>
<path d="M471.856 386.512H418.485V420.828H471.856V386.512Z" fill="#333333"/>
<path d="M314.853 229.415H227.629V450.661H314.853V229.415Z" fill="#333333"/>
<path opacity="0.46" d="M253.019 239.417H231.947V243.383H253.019V239.417Z" fill="#E6E6E6"/>
<path opacity="0.34" d="M281.863 239.417H260.792V243.383H281.863V239.417Z" fill="#E6E6E6"/>
<path opacity="0.52" d="M310.535 239.417H289.463V243.383H310.535V239.417Z" fill="#E6E6E6"/>
<path opacity="0.54" d="M253.019 248.557H231.947V252.523H253.019V248.557Z" fill="#E6E6E6"/>
<path opacity="0.3" d="M281.863 248.557H260.792V252.523H281.863V248.557Z" fill="#E6E6E6"/>
<path opacity="0.06" d="M310.535 248.557H289.463V252.523H310.535V248.557Z" fill="#E6E6E6"/>
<path opacity="0.15" d="M253.019 257.696H231.947V261.662H253.019V257.696Z" fill="#E6E6E6"/>
<path opacity="0.42" d="M281.863 257.696H260.792V261.662H281.863V257.696Z" fill="#E6E6E6"/>
<path opacity="0.48" d="M310.535 257.696H289.463V261.662H310.535V257.696Z" fill="#E6E6E6"/>
<path opacity="0.18" d="M253.019 266.835H231.947V270.802H253.019V266.835Z" fill="#E6E6E6"/>
<path opacity="0.28" d="M310.535 266.835H289.463V270.802H310.535V266.835Z" fill="#E6E6E6"/>
<path opacity="0.29" d="M253.019 275.975H231.947V279.941H253.019V275.975Z" fill="#E6E6E6"/>
<path opacity="0.28" d="M281.863 275.975H260.792V279.941H281.863V275.975Z" fill="#E6E6E6"/>
<path opacity="0.56" d="M310.535 275.975H289.463V279.941H310.535V275.975Z" fill="#E6E6E6"/>
<path opacity="0.41" d="M253.019 285.115H231.947V289.081H253.019V285.115Z" fill="#E6E6E6"/>
<path opacity="0.16" d="M281.863 285.115H260.792V289.081H281.863V285.115Z" fill="#E6E6E6"/>
<path opacity="0.4" d="M310.535 285.115H289.463V289.081H310.535V285.115Z" fill="#E6E6E6"/>
<path opacity="0.1" d="M253.019 294.254H231.947V298.221H253.019V294.254Z" fill="#E6E6E6"/>
<path opacity="0.17" d="M281.863 294.254H260.792V298.221H281.863V294.254Z" fill="#E6E6E6"/>
<path opacity="0.08" d="M310.535 294.254H289.463V298.221H310.535V294.254Z" fill="#E6E6E6"/>
<path opacity="0.49" d="M253.019 303.394H231.947V307.36H253.019V303.394Z" fill="#E6E6E6"/>
<path opacity="0.58" d="M281.863 303.394H260.792V307.36H281.863V303.394Z" fill="#E6E6E6"/>
<path opacity="0.58" d="M310.535 303.394H289.463V307.36H310.535V303.394Z" fill="#E6E6E6"/>
<path opacity="0.26" d="M253.019 312.533H231.947V316.5H253.019V312.533Z" fill="#E6E6E6"/>
<path opacity="0.37" d="M281.863 312.533H260.792V316.5H281.863V312.533Z" fill="#E6E6E6"/>
<path opacity="0.34" d="M310.535 312.533H289.463V316.5H310.535V312.533Z" fill="#E6E6E6"/>
<path opacity="0.55" d="M253.019 321.673H231.947V325.639H253.019V321.673Z" fill="#E6E6E6"/>
<path opacity="0.12" d="M281.863 321.673H260.792V325.639H281.863V321.673Z" fill="#E6E6E6"/>
<path opacity="0.6" d="M310.535 321.673H289.463V325.639H310.535V321.673Z" fill="#E6E6E6"/>
<path opacity="0.02" d="M253.019 330.812H231.947V334.779H253.019V330.812Z" fill="#E6E6E6"/>
<path opacity="0.28" d="M281.863 330.812H260.792V334.779H281.863V330.812Z" fill="#E6E6E6"/>
<path opacity="0.21" d="M310.535 330.812H289.463V334.779H310.535V330.812Z" fill="#E6E6E6"/>
<path opacity="0.57" d="M253.019 339.952H231.947V343.918H253.019V339.952Z" fill="#E6E6E6"/>
<path opacity="0.38" d="M281.863 339.952H260.792V343.918H281.863V339.952Z" fill="#E6E6E6"/>
<path opacity="0.25" d="M310.535 339.952H289.463V343.918H310.535V339.952Z" fill="#E6E6E6"/>
<path opacity="0.15" d="M253.019 349.092H231.947V353.058H253.019V349.092Z" fill="#E6E6E6"/>
<path opacity="0.47" d="M281.863 349.092H260.792V353.058H281.863V349.092Z" fill="#E6E6E6"/>
<path opacity="0.3" d="M310.535 349.092H289.463V353.058H310.535V349.092Z" fill="#E6E6E6"/>
<path opacity="0.4" d="M253.019 358.231H231.947V362.197H253.019V358.231Z" fill="#E6E6E6"/>
<path opacity="0.39" d="M281.863 358.231H260.792V362.197H281.863V358.231Z" fill="#E6E6E6"/>
<path opacity="0.24" d="M310.535 358.231H289.463V362.197H310.535V358.231Z" fill="#E6E6E6"/>
<path opacity="0.46" d="M253.019 367.371H231.947V371.337H253.019V367.371Z" fill="#E6E6E6"/>
<path opacity="0.22" d="M281.863 367.371H260.792V371.337H281.863V367.371Z" fill="#E6E6E6"/>
<path opacity="0.11" d="M310.535 367.371H289.463V371.337H310.535V367.371Z" fill="#E6E6E6"/>
<path opacity="0.11" d="M281.863 376.51H260.792V380.477H281.863V376.51Z" fill="#E6E6E6"/>
<path opacity="0.02" d="M310.535 376.51H289.463V380.477H310.535V376.51Z" fill="#E6E6E6"/>
<path opacity="0.27" d="M253.019 385.65H231.947V389.616H253.019V385.65Z" fill="#E6E6E6"/>
<path opacity="0.21" d="M281.863 385.65H260.792V389.616H281.863V385.65Z" fill="#E6E6E6"/>
<path opacity="0.49" d="M310.535 385.65H289.463V389.616H310.535V385.65Z" fill="#E6E6E6"/>
<path opacity="0.6" d="M253.019 394.79H231.947V398.756H253.019V394.79Z" fill="#E6E6E6"/>
<path opacity="0.31" d="M281.863 394.79H260.792V398.756H281.863V394.79Z" fill="#E6E6E6"/>
<path opacity="0.22" d="M310.535 394.79H289.463V398.756H310.535V394.79Z" fill="#E6E6E6"/>
<path opacity="0.54" d="M253.019 403.929H231.947V407.895H253.019V403.929Z" fill="#E6E6E6"/>
<path opacity="0.6" d="M281.863 403.929H260.792V407.895H281.863V403.929Z" fill="#E6E6E6"/>
<path opacity="0.08" d="M310.535 403.929H289.463V407.895H310.535V403.929Z" fill="#E6E6E6"/>
<path opacity="0.55" d="M281.863 413.069H260.792V417.035H281.863V413.069Z" fill="#E6E6E6"/>
<path d="M310.535 413.069H289.463V417.035H310.535V413.069Z" fill="#E6E6E6"/>
<path opacity="0.6" d="M254.401 239.417H253.019V417.035H254.401V239.417Z" fill="#E6E6E6"/>
<path opacity="0.6" d="M289.463 239.417H288.081V417.035H289.463V239.417Z" fill="#E6E6E6"/>
<path d="M358.378 229.415H314.853V450.661H358.378V229.415Z" fill="#4D4D4D"/>
<path opacity="0.69" d="M351.988 239.417H319.171V243.383H351.988V239.417Z" fill="#E6E6E6"/>
<path opacity="0.79" d="M351.988 248.557H319.171V252.523H351.988V248.557Z" fill="#E6E6E6"/>
<path opacity="0.19" d="M351.988 257.696H319.171V261.662H351.988V257.696Z" fill="#E6E6E6"/>
<path opacity="0.88" d="M351.988 266.835H319.171V270.802H351.988V266.835Z" fill="#E6E6E6"/>
<path opacity="0.5" d="M351.988 275.975H319.171V279.941H351.988V275.975Z" fill="#E6E6E6"/>
<path opacity="0.25" d="M351.988 285.115H319.171V289.081H351.988V285.115Z" fill="#E6E6E6"/>
<path opacity="0.91" d="M351.988 294.254H319.171V298.221H351.988V294.254Z" fill="#E6E6E6"/>
<path opacity="0.02" d="M351.988 303.394H319.171V307.36H351.988V303.394Z" fill="#E6E6E6"/>
<path opacity="0.53" d="M351.988 312.533H319.171V316.5H351.988V312.533Z" fill="#E6E6E6"/>
<path opacity="0.65" d="M351.988 321.673H319.171V325.639H351.988V321.673Z" fill="#E6E6E6"/>
<path d="M351.988 330.812H319.171V334.779H351.988V330.812Z" fill="#E6E6E6"/>
<path opacity="0.8" d="M351.988 339.952H319.171V343.918H351.988V339.952Z" fill="#E6E6E6"/>
<path opacity="0.82" d="M351.988 349.092H319.171V353.058H351.988V349.092Z" fill="#E6E6E6"/>
<path opacity="0.75" d="M351.988 358.231H319.171V362.197H351.988V358.231Z" fill="#E6E6E6"/>
<path opacity="0.31" d="M351.988 367.371H319.171V371.337H351.988V367.371Z" fill="#E6E6E6"/>
<path opacity="0.22" d="M351.988 376.51H319.171V380.477H351.988V376.51Z" fill="#E6E6E6"/>
<path opacity="0.43" d="M351.988 385.65H319.171V389.616H351.988V385.65Z" fill="#E6E6E6"/>
<path opacity="0.68" d="M351.988 394.79H319.171V398.756H351.988V394.79Z" fill="#E6E6E6"/>
<path opacity="0.38" d="M351.988 403.929H319.171V407.895H351.988V403.929Z" fill="#E6E6E6"/>
<path opacity="0.84" d="M351.988 413.069H319.171V417.035H351.988V413.069Z" fill="#E6E6E6"/>
<path d="M243.001 217.689V229.415H299.481V217.689H243.001ZM255.61 225.621H249.737V221.655H255.61V225.621ZM264.764 225.621H259.064V221.655H264.764V225.621ZM274.091 225.621H268.391V221.655H274.091V225.621ZM283.418 225.621H277.545V221.655H283.418V225.621ZM292.745 225.621H286.872V221.655H292.745V225.621Z" fill="#333333"/>
<path d="M309.844 221.655H308.29V225.621H309.844V221.655Z" fill="#333333"/>
<path d="M299.481 217.689V229.415H326.08V217.689H299.481ZM309.844 225.621H304.144V221.655H309.844V225.621ZM322.107 225.621H316.408V221.655H322.107V225.621Z" fill="#4D4D4D"/>
<path d="M321.935 221.655H320.38V225.621H321.935V221.655Z" fill="#333333"/>
<path d="M326.425 465.663H208.976L326.425 379.096V465.663Z" fill="#333333"/>
<path d="M151.287 182.51H141.787V218.551H151.287V182.51Z" fill="#4D4D4D"/>
<path d="M141.96 182.51H132.288V218.551H141.96V182.51Z" fill="#333333"/>
<path d="M161.132 182.51H151.46V218.551H161.132V182.51Z" fill="#666666"/>
<path d="M189.113 243.21H162.168V448.764H189.113V243.21Z" fill="#666666"/>
<path d="M130.561 243.21H107.071V448.764H130.561V243.21Z" fill="#333333"/>
<path d="M162.168 243.21H130.388V448.764H162.168V243.21Z" fill="#4D4D4D"/>
<path opacity="0.6" d="M113.807 249.246H110.352V446.005H113.807V249.246Z" fill="#E6E6E6"/>
<path opacity="0.6" d="M120.543 249.246H117.088V446.005H120.543V249.246Z" fill="#E6E6E6"/>
<path opacity="0.6" d="M127.279 249.246H123.825V446.005H127.279V249.246Z" fill="#E6E6E6"/>
<path d="M167.523 249.246H164.068V446.005H167.523V249.246Z" fill="#E6E6E6"/>
<path d="M174.259 249.246H170.804V446.005H174.259V249.246Z" fill="#E6E6E6"/>
<path d="M187.385 249.246H183.931V446.005H187.385V249.246Z" fill="#E6E6E6"/>
<path d="M180.995 249.246H177.54V446.005H180.995V249.246Z" fill="#E6E6E6"/>
<path opacity="0.8" d="M134.36 446.005H158.196V249.246H134.36V446.005ZM138.16 252.695H154.396V442.556H138.16V252.695Z" fill="#E6E6E6"/>
<path opacity="0.8" d="M141.269 439.28H151.46V255.799H141.269V439.28ZM144.724 260.11H145.933H146.624H148.005V434.968H146.624H145.933H144.724V260.11Z" fill="#E6E6E6"/>
<path opacity="0.8" d="M146.624 260.11H145.933V434.969H146.624V260.11Z" fill="#E6E6E6"/>
<path d="M158.541 207.169H134.706V243.21H158.541V207.169Z" fill="#4D4D4D"/>
<path d="M158.541 207.169H134.706V243.21H158.541V207.169Z" fill="#4D4D4D"/>
<path d="M182.377 207.169H158.541V243.21H182.377V207.169Z" fill="#666666"/>
<path d="M134.706 207.169H110.87V243.21H134.706V207.169Z" fill="#333333"/>
<path d="M160.959 182.51H132.288L141.787 189.063H151.46L160.959 182.51Z" fill="#808080"/>
<path d="M673.42 169.232H659.603V209.756H673.42V169.232Z" fill="#4D4D4D"/>
<path d="M659.43 169.232H645.612V209.756H659.43V169.232Z" fill="#333333"/>
<path d="M687.238 169.232H673.42V209.756H687.238V169.232Z" fill="#666666"/>
<path d="M728 237.692H688.965V469.285H728V237.692Z" fill="#666666"/>
<path d="M643.021 237.692H609.168V469.285H643.021V237.692Z" fill="#333333"/>
<path d="M688.965 237.692H643.022V469.285H688.965V237.692Z" fill="#4D4D4D"/>
<path opacity="0.4" d="M618.841 244.59H613.832V466.181H618.841V244.59Z" fill="#E6E6E6"/>
<path opacity="0.4" d="M628.686 244.59H623.677V466.181H628.686V244.59Z" fill="#E6E6E6"/>
<path opacity="0.4" d="M638.531 244.59H633.522V466.181H638.531V244.59Z" fill="#E6E6E6"/>
<path d="M696.738 244.59H691.729V466.181H696.738V244.59Z" fill="#E6E6E6"/>
<path d="M706.583 244.59H701.574V466.181H706.583V244.59Z" fill="#E6E6E6"/>
<path d="M725.409 244.59H720.4V466.181H725.409V244.59Z" fill="#E6E6E6"/>
<path d="M716.255 244.59H711.246V466.181H716.255V244.59Z" fill="#E6E6E6"/>
<path d="M648.894 466.181H683.438V244.59H648.894V466.181ZM654.248 248.384H677.738V462.387H654.248V248.384Z" fill="#E6E6E6"/>
<path d="M658.566 458.766H673.42V252.005H658.566V458.766ZM663.748 256.834H665.648H666.512H668.411V453.938H666.512H665.648H663.748V256.834Z" fill="#E6E6E6"/>
<path d="M666.512 256.833H665.648V453.937H666.512V256.833Z" fill="#E6E6E6"/>
<path d="M683.784 197.168H649.24V237.692H683.784V197.168Z" fill="#4D4D4D"/>
<path d="M683.784 197.168H649.24V237.692H683.784V197.168Z" fill="#4D4D4D"/>
<path d="M718.328 197.168H683.784V237.692H718.328V197.168Z" fill="#666666"/>
<path d="M649.412 197.168H614.868V237.692H649.412V197.168Z" fill="#333333"/>
<path d="M687.411 169.232H645.612L659.603 176.647H673.42L687.411 169.232Z" fill="#808080"/>
<path d="M573.761 269.766H479.283V301.151H573.761V269.766Z" fill="#E6E6E6"/>
<path d="M516.418 269.766H479.283V301.151H516.418V269.766Z" fill="#B3B3B3"/>
<path d="M516.418 301.324H443.011V453.765H516.418V301.324Z" fill="#333333"/>
<path d="M631.104 301.324H516.418V453.765H631.104V301.324Z" fill="#4D4D4D"/>
<path d="M507.436 285.803H450.957V301.323H507.436V285.803Z" fill="#333333"/>
<path d="M614.005 285.803H533.344V301.323H614.005V285.803Z" fill="#4D4D4D"/>
<path d="M548.716 257.867H516.418V269.766H548.716V257.867Z" fill="#E6E6E6"/>
<path d="M532.481 245.796H516.418V257.695H532.481V245.796Z" fill="#4D4D4D"/>
<path d="M516.245 245.796H500.182V257.695H516.245V245.796Z" fill="#333333"/>
<path d="M516.418 257.867H491.719V269.766H516.418V257.867Z" fill="#B3B3B3"/>
<path d="M515.381 245.796L516.418 218.205L517.281 245.796H515.381Z" fill="#333333"/>
<path opacity="0.12" d="M466.156 307.531H460.111V313.567H466.156V307.531Z" fill="white"/>
<path opacity="0.25" d="M474.447 307.531H468.401V313.567H474.447V307.531Z" fill="white"/>
<path opacity="0.36" d="M482.737 307.531H476.692V313.567H482.737V307.531Z" fill="white"/>
<path opacity="0.12" d="M491.028 307.531H484.982V313.567H491.028V307.531Z" fill="white"/>
<path opacity="0.14" d="M499.318 307.531H493.273V313.567H499.318V307.531Z" fill="white"/>
<path opacity="0.28" d="M466.156 315.464H460.111V321.499H466.156V315.464Z" fill="white"/>
<path opacity="0.4" d="M474.447 315.464H468.401V321.499H474.447V315.464Z" fill="white"/>
<path opacity="0.16" d="M482.737 315.464H476.692V321.499H482.737V315.464Z" fill="white"/>
<path opacity="0.17" d="M499.318 315.464H493.273V321.499H499.318V315.464Z" fill="white"/>
<path opacity="0.27" d="M466.156 323.396H460.111V329.432H466.156V323.396Z" fill="white"/>
<path opacity="0.45" d="M474.447 323.396H468.401V329.432H474.447V323.396Z" fill="white"/>
<path opacity="0.45" d="M482.737 323.396H476.692V329.432H482.737V323.396Z" fill="white"/>
<path opacity="0.48" d="M491.028 323.396H484.982V329.432H491.028V323.396Z" fill="white"/>
<path opacity="0.25" d="M499.318 323.396H493.273V329.432H499.318V323.396Z" fill="white"/>
<path opacity="0.28" d="M466.156 331.329H460.111V337.364H466.156V331.329Z" fill="white"/>
<path opacity="0.13" d="M474.447 331.329H468.401V337.364H474.447V331.329Z" fill="white"/>
<path opacity="0.07" d="M482.737 331.329H476.692V337.364H482.737V331.329Z" fill="white"/>
<path opacity="0.39" d="M491.028 331.329H484.982V337.364H491.028V331.329Z" fill="white"/>
<path opacity="0.47" d="M499.318 331.329H493.273V337.364H499.318V331.329Z" fill="white"/>
<path opacity="0.28" d="M466.156 339.261H460.111V345.296H466.156V339.261Z" fill="white"/>
<path opacity="0.2" d="M474.447 339.261H468.401V345.296H474.447V339.261Z" fill="white"/>
<path opacity="0.04" d="M482.737 339.261H476.692V345.296H482.737V339.261Z" fill="white"/>
<path opacity="0.43" d="M491.028 339.261H484.982V345.296H491.028V339.261Z" fill="white"/>
<path opacity="0.48" d="M499.318 339.261H493.273V345.296H499.318V339.261Z" fill="white"/>
<path opacity="0.28" d="M466.156 347.193H460.111V353.229H466.156V347.193Z" fill="white"/>
<path opacity="0.19" d="M474.447 347.193H468.401V353.229H474.447V347.193Z" fill="white"/>
<path opacity="0.01" d="M482.737 347.193H476.692V353.229H482.737V347.193Z" fill="white"/>
<path opacity="0.27" d="M491.028 347.193H484.982V353.229H491.028V347.193Z" fill="white"/>
<path opacity="0.24" d="M499.318 347.193H493.273V353.229H499.318V347.193Z" fill="white"/>
<path opacity="0.07" d="M466.156 355.298H460.111V361.334H466.156V355.298Z" fill="white"/>
<path opacity="0.25" d="M474.447 355.298H468.401V361.334H474.447V355.298Z" fill="white"/>
<path opacity="0.26" d="M482.737 355.298H476.692V361.334H482.737V355.298Z" fill="white"/>
<path opacity="0.39" d="M491.028 355.298H484.982V361.334H491.028V355.298Z" fill="white"/>
<path opacity="0.22" d="M499.318 355.298H493.273V361.334H499.318V355.298Z" fill="white"/>
<path opacity="0.15" d="M466.156 363.231H460.111V369.266H466.156V363.231Z" fill="white"/>
<path opacity="0.23" d="M474.447 363.231H468.401V369.266H474.447V363.231Z" fill="white"/>
<path opacity="0.05" d="M482.737 363.231H476.692V369.266H482.737V363.231Z" fill="white"/>
<path opacity="0.2" d="M491.028 363.231H484.982V369.266H491.028V363.231Z" fill="white"/>
<path opacity="0.31" d="M499.318 363.231H493.273V369.266H499.318V363.231Z" fill="white"/>
<path opacity="0.15" d="M466.156 371.163H460.111V377.199H466.156V371.163Z" fill="white"/>
<path opacity="0.33" d="M474.447 371.163H468.401V377.199H474.447V371.163Z" fill="white"/>
<path opacity="0.46" d="M482.737 371.163H476.692V377.199H482.737V371.163Z" fill="white"/>
<path opacity="0.25" d="M491.028 371.163H484.982V377.199H491.028V371.163Z" fill="white"/>
<path opacity="0.43" d="M499.318 371.163H493.273V377.199H499.318V371.163Z" fill="white"/>
<path opacity="0.4" d="M466.156 379.096H460.111V385.131H466.156V379.096Z" fill="white"/>
<path opacity="0.39" d="M474.447 379.096H468.401V385.131H474.447V379.096Z" fill="white"/>
<path opacity="0.01" d="M482.737 379.096H476.692V385.131H482.737V379.096Z" fill="white"/>
<path opacity="0.12" d="M491.028 379.096H484.982V385.131H491.028V379.096Z" fill="white"/>
<path opacity="0.07" d="M499.318 379.096H493.273V385.131H499.318V379.096Z" fill="white"/>
<path opacity="0.07" d="M466.156 387.028H460.111V393.064H466.156V387.028Z" fill="white"/>
<path opacity="0.02" d="M474.447 387.028H468.401V393.064H474.447V387.028Z" fill="white"/>
<path opacity="0.12" d="M482.737 387.028H476.692V393.064H482.737V387.028Z" fill="white"/>
<path opacity="0.23" d="M491.028 387.028H484.982V393.064H491.028V387.028Z" fill="white"/>
<path opacity="0.26" d="M499.318 387.028H493.273V393.064H499.318V387.028Z" fill="white"/>
<path opacity="0.27" d="M466.156 394.961H460.111V400.996H466.156V394.961Z" fill="white"/>
<path opacity="0.38" d="M474.447 394.961H468.401V400.996H474.447V394.961Z" fill="white"/>
<path opacity="0.05" d="M482.737 394.961H476.692V400.996H482.737V394.961Z" fill="white"/>
<path opacity="0.45" d="M491.028 394.961H484.982V400.996H491.028V394.961Z" fill="white"/>
<path opacity="0.15" d="M499.318 394.961H493.273V400.996H499.318V394.961Z" fill="white"/>
<path opacity="0.06" d="M466.156 402.893H460.111V408.929H466.156V402.893Z" fill="white"/>
<path opacity="0.47" d="M474.447 402.893H468.401V408.929H474.447V402.893Z" fill="white"/>
<path opacity="0.15" d="M482.737 402.893H476.692V408.929H482.737V402.893Z" fill="white"/>
<path opacity="0.44" d="M491.028 402.893H484.982V408.929H491.028V402.893Z" fill="white"/>
<path opacity="0.14" d="M499.318 402.893H493.273V408.929H499.318V402.893Z" fill="white"/>
<path opacity="0.15" d="M466.156 410.826H460.111V416.861H466.156V410.826Z" fill="white"/>
<path opacity="0.43" d="M474.447 410.826H468.401V416.861H474.447V410.826Z" fill="white"/>
<path opacity="0.07" d="M482.737 410.826H476.692V416.861H482.737V410.826Z" fill="white"/>
<path opacity="0.47" d="M491.028 410.826H484.982V416.861H491.028V410.826Z" fill="white"/>
<path opacity="0.11" d="M499.318 410.826H493.273V416.861H499.318V410.826Z" fill="white"/>
<path opacity="0.07" d="M466.156 418.758H460.111V424.794H466.156V418.758Z" fill="white"/>
<path opacity="0.34" d="M474.447 418.758H468.401V424.794H474.447V418.758Z" fill="white"/>
<path opacity="0.5" d="M482.737 418.758H476.692V424.794H482.737V418.758Z" fill="white"/>
<path opacity="0.36" d="M491.028 418.758H484.982V424.794H491.028V418.758Z" fill="white"/>
<path opacity="0.34" d="M499.318 418.758H493.273V424.794H499.318V418.758Z" fill="white"/>
<path opacity="0.47" d="M466.156 426.69H460.111V432.726H466.156V426.69Z" fill="white"/>
<path opacity="0.41" d="M474.447 426.69H468.401V432.726H474.447V426.69Z" fill="white"/>
<path opacity="0.3" d="M482.737 426.69H476.692V432.726H482.737V426.69Z" fill="white"/>
<path opacity="0.33" d="M491.028 426.69H484.982V432.726H491.028V426.69Z" fill="white"/>
<path opacity="0.12" d="M499.318 426.69H493.273V432.726H499.318V426.69Z" fill="white"/>
<path opacity="0.24" d="M466.156 434.623H460.111V440.658H466.156V434.623Z" fill="white"/>
<path opacity="0.29" d="M474.447 434.623H468.401V440.658H474.447V434.623Z" fill="white"/>
<path opacity="0.27" d="M491.028 434.623H484.982V440.658H491.028V434.623Z" fill="white"/>
<path opacity="0.04" d="M499.318 434.623H493.273V440.658H499.318V434.623Z" fill="white"/>
<path opacity="0.11" d="M466.156 442.555H460.111V448.591H466.156V442.555Z" fill="white"/>
<path opacity="0.05" d="M474.447 442.555H468.401V448.591H474.447V442.555Z" fill="white"/>
<path opacity="0.04" d="M482.737 442.555H476.692V448.591H482.737V442.555Z" fill="white"/>
<path opacity="0.02" d="M491.028 442.555H484.982V448.591H491.028V442.555Z" fill="white"/>
<path opacity="0.3" d="M536.453 307.531H530.408V313.567H536.453V307.531Z" fill="white"/>
<path opacity="0.72" d="M544.398 307.531H538.353V313.567H544.398V307.531Z" fill="white"/>
<path opacity="0.7" d="M552.516 307.531H546.471V313.567H552.516V307.531Z" fill="white"/>
<path opacity="0.52" d="M560.634 307.531H554.589V313.567H560.634V307.531Z" fill="white"/>
<path opacity="0.2" d="M568.752 307.531H562.706V313.567H568.752V307.531Z" fill="white"/>
<path opacity="0.32" d="M576.697 307.531H570.652V313.567H576.697V307.531Z" fill="white"/>
<path opacity="0.13" d="M584.815 307.531H578.77V313.567H584.815V307.531Z" fill="white"/>
<path opacity="0.38" d="M592.933 307.531H586.887V313.567H592.933V307.531Z" fill="white"/>
<path opacity="0.61" d="M600.878 307.531H594.833V313.567H600.878V307.531Z" fill="white"/>
<path d="M608.996 307.531H602.95V313.567H608.996V307.531Z" fill="white"/>
<path opacity="0.91" d="M617.113 307.531H611.068V313.567H617.113V307.531Z" fill="white"/>
<path opacity="0.66" d="M536.453 315.464H530.408V321.499H536.453V315.464Z" fill="white"/>
<path opacity="0.31" d="M544.398 315.464H538.353V321.499H544.398V315.464Z" fill="white"/>
<path opacity="0.95" d="M552.516 315.464H546.471V321.499H552.516V315.464Z" fill="white"/>
<path opacity="0.7" d="M560.634 315.464H554.589V321.499H560.634V315.464Z" fill="white"/>
<path opacity="0.12" d="M568.752 315.464H562.706V321.499H568.752V315.464Z" fill="white"/>
<path opacity="0.24" d="M576.697 315.464H570.652V321.499H576.697V315.464Z" fill="white"/>
<path opacity="0.66" d="M584.815 315.464H578.77V321.499H584.815V315.464Z" fill="white"/>
<path opacity="0.71" d="M592.933 315.464H586.887V321.499H592.933V315.464Z" fill="white"/>
<path opacity="0.42" d="M600.878 315.464H594.833V321.499H600.878V315.464Z" fill="white"/>
<path opacity="0.09" d="M608.996 315.464H602.95V321.499H608.996V315.464Z" fill="white"/>
<path opacity="0.32" d="M617.113 315.464H611.068V321.499H617.113V315.464Z" fill="white"/>
<path opacity="0.65" d="M536.453 323.396H530.408V329.432H536.453V323.396Z" fill="white"/>
<path d="M544.398 323.396H538.353V329.432H544.398V323.396Z" fill="white"/>
<path d="M552.516 323.396H546.471V329.432H552.516V323.396Z" fill="white"/>
<path opacity="0.71" d="M560.634 323.396H554.589V329.432H560.634V323.396Z" fill="white"/>
<path opacity="0.2" d="M568.752 323.396H562.706V329.432H568.752V323.396Z" fill="white"/>
<path opacity="0.19" d="M576.697 323.396H570.652V329.432H576.697V323.396Z" fill="white"/>
<path opacity="0.62" d="M584.815 323.396H578.77V329.432H584.815V323.396Z" fill="white"/>
<path opacity="0.93" d="M592.933 323.396H586.887V329.432H592.933V323.396Z" fill="white"/>
<path opacity="0.56" d="M600.878 323.396H594.833V329.432H600.878V323.396Z" fill="white"/>
<path opacity="0.57" d="M608.996 323.396H602.95V329.432H608.996V323.396Z" fill="white"/>
<path opacity="0.52" d="M617.113 323.396H611.068V329.432H617.113V323.396Z" fill="white"/>
<path opacity="0.74" d="M536.453 331.329H530.408V337.364H536.453V331.329Z" fill="white"/>
<path opacity="0.56" d="M544.398 331.329H538.353V337.364H544.398V331.329Z" fill="white"/>
<path opacity="0.78" d="M552.516 331.329H546.471V337.364H552.516V331.329Z" fill="white"/>
<path opacity="0.41" d="M560.634 331.329H554.589V337.364H560.634V331.329Z" fill="white"/>
<path opacity="0.14" d="M568.752 331.329H562.706V337.364H568.752V331.329Z" fill="white"/>
<path opacity="0.28" d="M576.697 331.329H570.652V337.364H576.697V331.329Z" fill="white"/>
<path opacity="0.36" d="M584.815 331.329H578.77V337.364H584.815V331.329Z" fill="white"/>
<path opacity="0.14" d="M592.933 331.329H586.887V337.364H592.933V331.329Z" fill="white"/>
<path opacity="0.5" d="M600.878 331.329H594.833V337.364H600.878V331.329Z" fill="white"/>
<path opacity="0.98" d="M608.996 331.329H602.95V337.364H608.996V331.329Z" fill="white"/>
<path opacity="0.59" d="M617.113 331.329H611.068V337.364H617.113V331.329Z" fill="white"/>
<path opacity="0.07" d="M536.453 339.261H530.408V345.296H536.453V339.261Z" fill="white"/>
<path opacity="0.1" d="M544.398 339.261H538.353V345.296H544.398V339.261Z" fill="white"/>
<path opacity="0.88" d="M552.516 339.261H546.471V345.296H552.516V339.261Z" fill="white"/>
<path opacity="0.68" d="M560.634 339.261H554.589V345.296H560.634V339.261Z" fill="white"/>
<path opacity="0.81" d="M568.752 339.261H562.706V345.296H568.752V339.261Z" fill="white"/>
<path opacity="0.62" d="M576.697 339.261H570.652V345.296H576.697V339.261Z" fill="white"/>
<path opacity="0.97" d="M584.815 339.261H578.77V345.296H584.815V339.261Z" fill="white"/>
<path opacity="0.81" d="M592.933 339.261H586.887V345.296H592.933V339.261Z" fill="white"/>
<path opacity="0.79" d="M600.878 339.261H594.833V345.296H600.878V339.261Z" fill="white"/>
<path opacity="0.03" d="M608.996 339.261H602.95V345.296H608.996V339.261Z" fill="white"/>
<path opacity="0.95" d="M617.113 339.261H611.068V345.296H617.113V339.261Z" fill="white"/>
<path opacity="0.62" d="M536.453 347.193H530.408V353.229H536.453V347.193Z" fill="white"/>
<path opacity="0.22" d="M544.398 347.193H538.353V353.229H544.398V347.193Z" fill="white"/>
<path opacity="0.42" d="M552.516 347.193H546.471V353.229H552.516V347.193Z" fill="white"/>
<path opacity="0.56" d="M560.634 347.193H554.589V353.229H560.634V347.193Z" fill="white"/>
<path opacity="0.03" d="M568.752 347.193H562.706V353.229H568.752V347.193Z" fill="white"/>
<path opacity="0.64" d="M576.697 347.193H570.652V353.229H576.697V347.193Z" fill="white"/>
<path opacity="0.82" d="M584.815 347.193H578.77V353.229H584.815V347.193Z" fill="white"/>
<path opacity="0.52" d="M592.933 347.193H586.887V353.229H592.933V347.193Z" fill="white"/>
<path opacity="0.46" d="M600.878 347.193H594.833V353.229H600.878V347.193Z" fill="white"/>
<path opacity="0.27" d="M608.996 347.193H602.95V353.229H608.996V347.193Z" fill="white"/>
<path opacity="0.46" d="M617.113 347.193H611.068V353.229H617.113V347.193Z" fill="white"/>
<path opacity="0.66" d="M536.453 355.298H530.408V361.334H536.453V355.298Z" fill="white"/>
<path opacity="0.7" d="M544.398 355.298H538.353V361.334H544.398V355.298Z" fill="white"/>
<path opacity="0.94" d="M552.516 355.298H546.471V361.334H552.516V355.298Z" fill="white"/>
<path opacity="0.5" d="M560.634 355.298H554.589V361.334H560.634V355.298Z" fill="white"/>
<path opacity="0.12" d="M568.752 355.298H562.706V361.334H568.752V355.298Z" fill="white"/>
<path opacity="0.36" d="M576.697 355.298H570.652V361.334H576.697V355.298Z" fill="white"/>
<path opacity="0.51" d="M584.815 355.298H578.77V361.334H584.815V355.298Z" fill="white"/>
<path opacity="0.37" d="M592.933 355.298H586.887V361.334H592.933V355.298Z" fill="white"/>
<path opacity="0.66" d="M600.878 355.298H594.833V361.334H600.878V355.298Z" fill="white"/>
<path opacity="0.42" d="M608.996 355.298H602.95V361.334H608.996V355.298Z" fill="white"/>
<path opacity="0.5" d="M617.113 355.298H611.068V361.334H617.113V355.298Z" fill="white"/>
<path opacity="0.52" d="M536.453 363.231H530.408V369.266H536.453V363.231Z" fill="white"/>
<path opacity="0.61" d="M544.398 363.231H538.353V369.266H544.398V363.231Z" fill="white"/>
<path opacity="0.84" d="M552.516 363.231H546.471V369.266H552.516V363.231Z" fill="white"/>
<path opacity="0.89" d="M560.634 363.231H554.589V369.266H560.634V363.231Z" fill="white"/>
<path opacity="0.33" d="M568.752 363.231H562.706V369.266H568.752V363.231Z" fill="white"/>
<path opacity="0.25" d="M576.697 363.231H570.652V369.266H576.697V363.231Z" fill="white"/>
<path opacity="0.95" d="M584.815 363.231H578.77V369.266H584.815V363.231Z" fill="white"/>
<path opacity="0.09" d="M592.933 363.231H586.887V369.266H592.933V363.231Z" fill="white"/>
<path opacity="0.44" d="M600.878 363.231H594.833V369.266H600.878V363.231Z" fill="white"/>
<path opacity="0.51" d="M608.996 363.231H602.95V369.266H608.996V363.231Z" fill="white"/>
<path opacity="0.97" d="M617.113 363.231H611.068V369.266H617.113V363.231Z" fill="white"/>
<path opacity="0.26" d="M536.453 371.163H530.408V377.199H536.453V371.163Z" fill="white"/>
<path opacity="0.92" d="M544.398 371.163H538.353V377.199H544.398V371.163Z" fill="white"/>
<path opacity="0.33" d="M552.516 371.163H546.471V377.199H552.516V371.163Z" fill="white"/>
<path opacity="0.23" d="M560.634 371.163H554.589V377.199H560.634V371.163Z" fill="white"/>
<path opacity="0.42" d="M568.752 371.163H562.706V377.199H568.752V371.163Z" fill="white"/>
<path opacity="0.57" d="M576.697 371.163H570.652V377.199H576.697V371.163Z" fill="white"/>
<path opacity="0.73" d="M584.815 371.163H578.77V377.199H584.815V371.163Z" fill="white"/>
<path opacity="0.87" d="M592.933 371.163H586.887V377.199H592.933V371.163Z" fill="white"/>
<path opacity="0.22" d="M600.878 371.163H594.833V377.199H600.878V371.163Z" fill="white"/>
<path opacity="0.89" d="M608.996 371.163H602.95V377.199H608.996V371.163Z" fill="white"/>
<path opacity="0.73" d="M617.113 371.163H611.068V377.199H617.113V371.163Z" fill="white"/>
<path opacity="0.35" d="M536.453 379.096H530.408V385.131H536.453V379.096Z" fill="white"/>
<path opacity="0.81" d="M544.398 379.096H538.353V385.131H544.398V379.096Z" fill="white"/>
<path opacity="0.56" d="M552.516 379.096H546.471V385.131H552.516V379.096Z" fill="white"/>
<path opacity="0.81" d="M560.634 379.096H554.589V385.131H560.634V379.096Z" fill="white"/>
<path opacity="0.87" d="M568.752 379.096H562.706V385.131H568.752V379.096Z" fill="white"/>
<path opacity="0.39" d="M576.697 379.096H570.652V385.131H576.697V379.096Z" fill="white"/>
<path opacity="0.31" d="M584.815 379.096H578.77V385.131H584.815V379.096Z" fill="white"/>
<path opacity="0.98" d="M592.933 379.096H586.887V385.131H592.933V379.096Z" fill="white"/>
<path opacity="0.17" d="M600.878 379.096H594.833V385.131H600.878V379.096Z" fill="white"/>
<path opacity="0.06" d="M608.996 379.096H602.95V385.131H608.996V379.096Z" fill="white"/>
<path opacity="0.57" d="M617.113 379.096H611.068V385.131H617.113V379.096Z" fill="white"/>
<path opacity="0.67" d="M536.453 387.028H530.408V393.064H536.453V387.028Z" fill="white"/>
<path opacity="0.83" d="M544.398 387.028H538.353V393.064H544.398V387.028Z" fill="white"/>
<path opacity="0.99" d="M552.516 387.028H546.471V393.064H552.516V387.028Z" fill="white"/>
<path opacity="0.62" d="M560.634 387.028H554.589V393.064H560.634V387.028Z" fill="white"/>
<path opacity="0.87" d="M568.752 387.028H562.706V393.064H568.752V387.028Z" fill="white"/>
<path opacity="0.14" d="M576.697 387.028H570.652V393.064H576.697V387.028Z" fill="white"/>
<path opacity="0.12" d="M584.815 387.028H578.77V393.064H584.815V387.028Z" fill="white"/>
<path opacity="0.11" d="M592.933 387.028H586.887V393.064H592.933V387.028Z" fill="white"/>
<path opacity="0.39" d="M600.878 387.028H594.833V393.064H600.878V387.028Z" fill="white"/>
<path opacity="0.58" d="M608.996 387.028H602.95V393.064H608.996V387.028Z" fill="white"/>
<path opacity="0.54" d="M617.113 387.028H611.068V393.064H617.113V387.028Z" fill="white"/>
<path opacity="0.99" d="M536.453 394.961H530.408V400.996H536.453V394.961Z" fill="white"/>
<path opacity="0.28" d="M544.398 394.961H538.353V400.996H544.398V394.961Z" fill="white"/>
<path opacity="0.78" d="M552.516 394.961H546.471V400.996H552.516V394.961Z" fill="white"/>
<path opacity="0.65" d="M560.634 394.961H554.589V400.996H560.634V394.961Z" fill="white"/>
<path opacity="0.32" d="M568.752 394.961H562.706V400.996H568.752V394.961Z" fill="white"/>
<path opacity="0.55" d="M576.697 394.961H570.652V400.996H576.697V394.961Z" fill="white"/>
<path opacity="0.4" d="M584.815 394.961H578.77V400.996H584.815V394.961Z" fill="white"/>
<path opacity="0.22" d="M592.933 394.961H586.887V400.996H592.933V394.961Z" fill="white"/>
<path opacity="0.87" d="M600.878 394.961H594.833V400.996H600.878V394.961Z" fill="white"/>
<path opacity="0.02" d="M608.996 394.961H602.95V400.996H608.996V394.961Z" fill="white"/>
<path opacity="0.39" d="M617.113 394.961H611.068V400.996H617.113V394.961Z" fill="white"/>
<path opacity="0.89" d="M536.453 402.893H530.408V408.929H536.453V402.893Z" fill="white"/>
<path opacity="0.97" d="M544.398 402.893H538.353V408.929H544.398V402.893Z" fill="white"/>
<path opacity="0.79" d="M552.516 402.893H546.471V408.929H552.516V402.893Z" fill="white"/>
<path opacity="0.41" d="M560.634 402.893H554.589V408.929H560.634V402.893Z" fill="white"/>
<path opacity="0.13" d="M568.752 402.893H562.706V408.929H568.752V402.893Z" fill="white"/>
<path opacity="0.9" d="M576.697 402.893H570.652V408.929H576.697V402.893Z" fill="white"/>
<path opacity="0.98" d="M584.815 402.893H578.77V408.929H584.815V402.893Z" fill="white"/>
<path opacity="0.67" d="M592.933 402.893H586.887V408.929H592.933V402.893Z" fill="white"/>
<path opacity="0.65" d="M600.878 402.893H594.833V408.929H600.878V402.893Z" fill="white"/>
<path opacity="0.89" d="M608.996 402.893H602.95V408.929H608.996V402.893Z" fill="white"/>
<path opacity="0.98" d="M617.113 402.893H611.068V408.929H617.113V402.893Z" fill="white"/>
<path opacity="0.29" d="M536.453 410.826H530.408V416.861H536.453V410.826Z" fill="white"/>
<path opacity="0.74" d="M544.398 410.826H538.353V416.861H544.398V410.826Z" fill="white"/>
<path opacity="0.64" d="M552.516 410.826H546.471V416.861H552.516V410.826Z" fill="white"/>
<path opacity="0.65" d="M560.634 410.826H554.589V416.861H560.634V410.826Z" fill="white"/>
<path opacity="0.07" d="M568.752 410.826H562.706V416.861H568.752V410.826Z" fill="white"/>
<path opacity="0.16" d="M576.697 410.826H570.652V416.861H576.697V410.826Z" fill="white"/>
<path opacity="0.84" d="M584.815 410.826H578.77V416.861H584.815V410.826Z" fill="white"/>
<path opacity="0.88" d="M592.933 410.826H586.887V416.861H592.933V410.826Z" fill="white"/>
<path opacity="0.57" d="M600.878 410.826H594.833V416.861H600.878V410.826Z" fill="white"/>
<path opacity="0.31" d="M608.996 410.826H602.95V416.861H608.996V410.826Z" fill="white"/>
<path opacity="0.03" d="M617.113 410.826H611.068V416.861H617.113V410.826Z" fill="white"/>
<path opacity="0.3" d="M536.453 418.758H530.408V424.794H536.453V418.758Z" fill="white"/>
<path opacity="0.59" d="M544.398 418.758H538.353V424.794H544.398V418.758Z" fill="white"/>
<path opacity="0.93" d="M552.516 418.758H546.471V424.794H552.516V418.758Z" fill="white"/>
<path opacity="0.06" d="M560.634 418.758H554.589V424.794H560.634V418.758Z" fill="white"/>
<path opacity="0.74" d="M568.752 418.758H562.706V424.794H568.752V418.758Z" fill="white"/>
<path opacity="0.22" d="M576.697 418.758H570.652V424.794H576.697V418.758Z" fill="white"/>
<path opacity="0.51" d="M584.815 418.758H578.77V424.794H584.815V418.758Z" fill="white"/>
<path opacity="0.7" d="M592.933 418.758H586.887V424.794H592.933V418.758Z" fill="white"/>
<path opacity="0.47" d="M600.878 418.758H594.833V424.794H600.878V418.758Z" fill="white"/>
<path opacity="0.08" d="M608.996 418.758H602.95V424.794H608.996V418.758Z" fill="white"/>
<path opacity="0.93" d="M617.113 418.758H611.068V424.794H617.113V418.758Z" fill="white"/>
<path opacity="0.81" d="M536.453 426.69H530.408V432.726H536.453V426.69Z" fill="white"/>
<path opacity="0.9" d="M544.398 426.69H538.353V432.726H544.398V426.69Z" fill="white"/>
<path opacity="0.55" d="M552.516 426.69H546.471V432.726H552.516V426.69Z" fill="white"/>
<path opacity="0.14" d="M560.634 426.69H554.589V432.726H560.634V426.69Z" fill="white"/>
<path opacity="0.66" d="M568.752 426.69H562.706V432.726H568.752V426.69Z" fill="white"/>
<path opacity="0.92" d="M576.697 426.69H570.652V432.726H576.697V426.69Z" fill="white"/>
<path opacity="0.4" d="M584.815 426.69H578.77V432.726H584.815V426.69Z" fill="white"/>
<path opacity="0.6" d="M592.933 426.69H586.887V432.726H592.933V426.69Z" fill="white"/>
<path opacity="0.99" d="M600.878 426.69H594.833V432.726H600.878V426.69Z" fill="white"/>
<path opacity="0.68" d="M608.996 426.69H602.95V432.726H608.996V426.69Z" fill="white"/>
<path opacity="0.01" d="M617.113 426.69H611.068V432.726H617.113V426.69Z" fill="white"/>
<path opacity="0.82" d="M536.453 434.623H530.408V440.658H536.453V434.623Z" fill="white"/>
<path opacity="0.92" d="M544.398 434.623H538.353V440.658H544.398V434.623Z" fill="white"/>
<path opacity="0.29" d="M552.516 434.623H546.471V440.658H552.516V434.623Z" fill="white"/>
<path opacity="0.73" d="M560.634 434.623H554.589V440.658H560.634V434.623Z" fill="white"/>
<path opacity="0.42" d="M568.752 434.623H562.706V440.658H568.752V434.623Z" fill="white"/>
<path opacity="0.06" d="M576.697 434.623H570.652V440.658H576.697V434.623Z" fill="white"/>
<path opacity="0.7" d="M584.815 434.623H578.77V440.658H584.815V434.623Z" fill="white"/>
<path opacity="0.97" d="M592.933 434.623H586.887V440.658H592.933V434.623Z" fill="white"/>
<path opacity="0.51" d="M600.878 434.623H594.833V440.658H600.878V434.623Z" fill="white"/>
<path opacity="0.69" d="M608.996 434.623H602.95V440.658H608.996V434.623Z" fill="white"/>
<path opacity="0.49" d="M617.113 434.623H611.068V440.658H617.113V434.623Z" fill="white"/>
<path opacity="0.45" d="M536.453 442.555H530.408V448.591H536.453V442.555Z" fill="white"/>
<path opacity="0.46" d="M544.398 442.555H538.353V448.591H544.398V442.555Z" fill="white"/>
<path opacity="0.04" d="M552.516 442.555H546.471V448.591H552.516V442.555Z" fill="white"/>
<path opacity="0.56" d="M560.634 442.555H554.589V448.591H560.634V442.555Z" fill="white"/>
<path opacity="0.4" d="M568.752 442.555H562.706V448.591H568.752V442.555Z" fill="white"/>
<path opacity="0.59" d="M576.697 442.555H570.652V448.591H576.697V442.555Z" fill="white"/>
<path opacity="0.82" d="M584.815 442.555H578.77V448.591H584.815V442.555Z" fill="white"/>
<path opacity="0.99" d="M592.933 442.555H586.887V448.591H592.933V442.555Z" fill="white"/>
<path opacity="0.1" d="M600.878 442.555H594.833V448.591H600.878V442.555Z" fill="white"/>
<path opacity="0.87" d="M608.996 442.555H602.95V448.591H608.996V442.555Z" fill="white"/>
<path d="M617.113 442.555H611.068V448.591H617.113V442.555Z" fill="white"/>
<path d="M434.375 268.732H377.378V447.039H434.375V268.732Z" fill="#333333"/>
<path d="M403.286 259.765H377.378V269.766H403.286V259.765Z" fill="#333333"/>
<path d="M392.404 253.902H377.378V259.765H392.404V253.902Z" fill="#333333"/>
<path opacity="0.25" d="M410.367 281.32H401.04V290.632H410.367V281.32Z" fill="white"/>
<path opacity="0.15" d="M410.367 304.255H401.04V313.567H410.367V304.255Z" fill="white"/>
<path opacity="0.19" d="M410.367 349.953H401.04V359.265H410.367V349.953Z" fill="white"/>
<path opacity="0.17" d="M410.367 372.716H401.04V382.028H410.367V372.716Z" fill="white"/>
<path opacity="0.22" d="M410.367 395.478H401.04V404.79H410.367V395.478Z" fill="white"/>
<path d="M410.367 418.414H401.04V427.726H410.367V418.414Z" fill="white"/>
<path d="M392.059 368.06H338.688V383.752H392.059V368.06Z" fill="#333333"/>
<path d="M418.658 368.06H392.059V383.752H418.658V368.06Z" fill="#4D4D4D"/>
<path d="M338.688 368.06L355.27 360.127L392.059 368.06H338.688Z" fill="#333333"/>
<path d="M355.27 360.127L392.059 368.06H418.658L355.27 360.127Z" fill="#4D4D4D"/>
<path d="M404.495 379.096H326.425V450.488H404.495V379.096Z" fill="#333333"/>
<path d="M430.403 379.096H404.495V450.488H430.403V379.096Z" fill="#4D4D4D"/>
<path opacity="0.81" d="M424.358 384.097H410.367V389.27H424.358V384.097Z" fill="white"/>
<path opacity="0.76" d="M424.358 393.581H410.367V398.755H424.358V393.581Z" fill="white"/>
<path opacity="0.32" d="M424.358 403.066H410.367V408.239H424.358V403.066Z" fill="white"/>
<path opacity="0.49" d="M424.358 412.723H410.367V417.896H424.358V412.723Z" fill="white"/>
<path opacity="0.99" d="M424.358 431.691H410.367V436.865H424.358V431.691Z" fill="white"/>
<path opacity="0.1" d="M352.852 384.097H338.861V389.27H352.852V384.097Z" fill="white"/>
<path opacity="0.04" d="M372.369 384.097H358.378V389.27H372.369V384.097Z" fill="white"/>
<path opacity="0.07" d="M392.059 384.097H378.069V389.27H392.059V384.097Z" fill="white"/>
<path opacity="0.06" d="M352.852 393.582H338.861V398.755H352.852V393.582Z" fill="white"/>
<path opacity="0.44" d="M372.369 393.582H358.378V398.755H372.369V393.582Z" fill="white"/>
<path opacity="0.24" d="M392.059 393.582H378.069V398.755H392.059V393.582Z" fill="white"/>
<path opacity="0.55" d="M352.852 403.066H338.861V408.239H352.852V403.066Z" fill="white"/>
<path opacity="0.02" d="M372.369 403.066H358.378V408.239H372.369V403.066Z" fill="white"/>
<path opacity="0.14" d="M392.059 403.066H378.069V408.239H392.059V403.066Z" fill="white"/>
<path opacity="0.43" d="M352.852 412.723H338.861V417.896H352.852V412.723Z" fill="white"/>
<path opacity="0.41" d="M372.369 412.723H358.378V417.896H372.369V412.723Z" fill="white"/>
<path opacity="0.46" d="M392.059 412.723H378.069V417.896H392.059V412.723Z" fill="white"/>
<path opacity="0.45" d="M352.852 422.207H338.861V427.38H352.852V422.207Z" fill="white"/>
<path opacity="0.33" d="M372.369 422.207H358.378V427.38H372.369V422.207Z" fill="white"/>
<path opacity="0.05" d="M392.059 422.207H378.069V427.38H392.059V422.207Z" fill="white"/>
<path opacity="0.27" d="M352.852 431.692H338.861V436.865H352.852V431.692Z" fill="white"/>
<path opacity="0.15" d="M372.369 431.692H358.378V436.865H372.369V431.692Z" fill="white"/>
<path opacity="0.7" d="M392.059 431.692H378.069V436.865H392.059V431.692Z" fill="white"/>
<path d="M24.6829 307.704H-23.6788V456.524H24.6829V307.704Z" fill="#333333"/>
<path d="M79.7806 307.704H24.8556V456.524H79.7806V307.704Z" fill="#4D4D4D"/>
<path d="M24.6829 320.293H-23.6788V322.88H24.6829V320.293Z" fill="#4D4D4D"/>
<path d="M79.7806 320.293H24.8556V322.88H79.7806V320.293Z" fill="#333333"/>
<path opacity="0.25" d="M6.71997 325.811H1.53833V330.984H6.71997V325.811Z" fill="white"/>
<path opacity="0.12" d="M20.8831 325.811H15.7014V330.984H20.8831V325.811Z" fill="white"/>
<path opacity="0.47" d="M6.71997 332.881H1.53833V338.054H6.71997V332.881Z" fill="white"/>
<path opacity="0.22" d="M13.8015 332.881H8.61993V338.054H13.8015V332.881Z" fill="white"/>
<path opacity="0.32" d="M20.8831 332.881H15.7014V338.054H20.8831V332.881Z" fill="white"/>
<path opacity="0.28" d="M6.71997 339.951H1.53833V345.125H6.71997V339.951Z" fill="white"/>
<path opacity="0.2" d="M20.8831 339.951H15.7014V345.125H20.8831V339.951Z" fill="white"/>
<path opacity="0.05" d="M6.71997 347.021H1.53833V352.195H6.71997V347.021Z" fill="white"/>
<path opacity="0.08" d="M13.8015 347.021H8.61993V352.195H13.8015V347.021Z" fill="white"/>
<path opacity="0.08" d="M6.71997 354.092H1.53833V359.265H6.71997V354.092Z" fill="white"/>
<path opacity="0.02" d="M13.8015 354.092H8.61993V359.265H13.8015V354.092Z" fill="white"/>
<path opacity="0.2" d="M6.71997 361.162H1.53833V366.335H6.71997V361.162Z" fill="white"/>
<path opacity="0.23" d="M13.8015 361.162H8.61993V366.335H13.8015V361.162Z" fill="white"/>
<path opacity="0.24" d="M13.8015 368.232H8.61993V373.406H13.8015V368.232Z" fill="white"/>
<path opacity="0.02" d="M6.71997 375.302H1.53833V380.476H6.71997V375.302Z" fill="white"/>
<path opacity="0.04" d="M13.8015 375.302H8.61993V380.476H13.8015V375.302Z" fill="white"/>
<path opacity="0.3" d="M20.8831 375.302H15.7014V380.476H20.8831V375.302Z" fill="white"/>
<path opacity="0.4" d="M20.8831 382.2H15.7014V387.374H20.8831V382.2Z" fill="white"/>
<path opacity="0.19" d="M13.8015 389.271H8.61993V394.444H13.8015V389.271Z" fill="white"/>
<path opacity="0.43" d="M20.8831 389.271H15.7014V394.444H20.8831V389.271Z" fill="white"/>
<path opacity="0.42" d="M6.71997 396.341H1.53833V401.514H6.71997V396.341Z" fill="white"/>
<path opacity="0.31" d="M20.8831 396.341H15.7014V401.514H20.8831V396.341Z" fill="white"/>
<path opacity="0.31" d="M6.71997 403.411H1.53833V408.584H6.71997V403.411Z" fill="white"/>
<path opacity="0.33" d="M20.8831 403.411H15.7014V408.584H20.8831V403.411Z" fill="white"/>
<path opacity="0.17" d="M6.71997 410.481H1.53833V415.655H6.71997V410.481Z" fill="white"/>
<path opacity="0.01" d="M13.8015 410.481H8.61993V415.655H13.8015V410.481Z" fill="white"/>
<path opacity="0.48" d="M20.8831 410.481H15.7014V415.655H20.8831V410.481Z" fill="white"/>
<path opacity="0.02" d="M6.71997 417.551H1.53833V422.725H6.71997V417.551Z" fill="white"/>
<path opacity="0.17" d="M13.8015 417.551H8.61993V422.725H13.8015V417.551Z" fill="white"/>
<path opacity="0.42" d="M20.8831 417.551H15.7014V422.725H20.8831V417.551Z" fill="white"/>
<path opacity="0.02" d="M6.71997 424.622H1.53833V429.795H6.71997V424.622Z" fill="white"/>
<path opacity="0.3" d="M20.8831 424.622H15.7014V429.795H20.8831V424.622Z" fill="white"/>
<path opacity="0.05" d="M6.71997 431.692H1.53833V436.865H6.71997V431.692Z" fill="white"/>
<path opacity="0.2" d="M20.8831 431.692H15.7014V436.865H20.8831V431.692Z" fill="white"/>
<path opacity="0.27" d="M6.71997 438.762H1.53833V443.936H6.71997V438.762Z" fill="white"/>
<path opacity="0.13" d="M13.8015 438.762H8.61993V443.936H13.8015V438.762Z" fill="white"/>
<path opacity="0.12" d="M6.71997 445.832H1.53833V451.006H6.71997V445.832Z" fill="white"/>
<path opacity="0.04" d="M13.8015 445.832H8.61993V451.006H13.8015V445.832Z" fill="white"/>
<path opacity="0.3" d="M20.8831 445.832H15.7014V451.006H20.8831V445.832Z" fill="white"/>
<path opacity="0.08" d="M13.8015 325.811H8.61993V330.984H13.8015V325.811Z" fill="white"/>
<path opacity="0.08" d="M13.8015 339.951H8.61993V345.125H13.8015V339.951Z" fill="white"/>
<path opacity="0.01" d="M20.8831 347.021H15.7014V352.195H20.8831V347.021Z" fill="white"/>
<path opacity="0.12" d="M20.8831 354.092H15.7014V359.265H20.8831V354.092Z" fill="white"/>
<path opacity="0.13" d="M6.71997 368.232H1.53833V373.406H6.71997V368.232Z" fill="white"/>
<path opacity="0.07" d="M20.8831 368.232H15.7014V373.406H20.8831V368.232Z" fill="white"/>
<path opacity="0.02" d="M6.71997 382.2H1.53833V387.374H6.71997V382.2Z" fill="white"/>
<path opacity="0.14" d="M13.8015 382.2H8.61993V387.374H13.8015V382.2Z" fill="white"/>
<path opacity="0.02" d="M13.8015 396.341H8.61993V401.514H13.8015V396.341Z" fill="white"/>
<path opacity="0.06" d="M13.8015 403.411H8.61993V408.584H13.8015V403.411Z" fill="white"/>
<path opacity="0.04" d="M13.8015 424.622H8.61993V429.795H13.8015V424.622Z" fill="white"/>
<path opacity="0.04" d="M13.8015 431.692H8.61993V436.865H13.8015V431.692Z" fill="white"/>
<path opacity="0.18" d="M20.8831 438.762H15.7014V443.936H20.8831V438.762Z" fill="white"/>
<g opacity="0.7">
<path opacity="0.7" d="M35.2188 322.879H29.8645V449.971H35.2188V322.879Z" fill="#E6E6E6"/>
<path opacity="0.7" d="M44.373 322.879H39.0187V449.971H44.373V322.879Z" fill="#E6E6E6"/>
<path opacity="0.7" d="M53.6999 322.879H48.3456V449.971H53.6999V322.879Z" fill="#E6E6E6"/>
<path opacity="0.7" d="M63.0268 322.879H57.6725V449.971H63.0268V322.879Z" fill="#E6E6E6"/>
<path opacity="0.7" d="M72.3537 322.879H66.9994V449.971H72.3537V322.879Z" fill="#E6E6E6"/>
</g>
<path d="M107.416 449.971H-0.0161133L107.416 356.506V449.971Z" fill="#333333"/>
<path d="M98.2618 433.417H61.2997V454.11H98.2618V433.417Z" fill="#4D4D4D"/>
<path d="M95.4983 428.588H64.0632V438.245H95.4983V428.588Z" fill="#4D4D4D"/>
<path d="M91.8712 431.52H67.5176L75.9809 417.379H83.4078L91.8712 431.52Z" fill="#4D4D4D"/>
<path d="M88.4168 437.555H71.1448V450.144H88.4168V437.555Z" fill="white"/>
<path d="M90.4893 442.556H69.072V445.143H90.4893V442.556Z" fill="#4D4D4D"/>
<path d="M263.21 467.388C263.728 480.839 253.365 492.392 239.72 492.91C226.248 493.427 214.675 482.908 214.157 469.457C213.639 456.007 224.002 444.453 237.647 443.936C251.119 443.418 262.519 453.937 263.21 467.388Z" fill="#333333"/>
<path d="M259.064 460.662C259.41 468.422 253.365 474.975 245.592 475.32C237.82 475.665 231.257 469.63 230.911 461.87C230.566 454.11 236.611 447.557 244.383 447.212C252.156 446.867 258.719 452.902 259.064 460.662Z" fill="#4D4D4D"/>
<path d="M16.5651 442.039C16.5651 445.315 13.8015 448.074 10.5198 448.074C7.23814 448.074 4.47461 445.315 4.47461 442.039C4.47461 438.762 7.23814 436.003 10.5198 436.003C13.8015 436.003 16.5651 438.59 16.5651 442.039Z" fill="#333333"/>
<path d="M18.6377 448.074C18.6377 452.558 15.0106 456.179 10.5198 456.179C6.02912 456.179 2.40198 452.558 2.40198 448.074C2.40198 443.591 6.02912 439.969 10.5198 439.969C15.0106 439.969 18.6377 443.591 18.6377 448.074Z" fill="#333333"/>
<path d="M14.4924 436.865C14.4924 439.107 12.7652 441.004 10.5199 441.004C8.27451 441.004 6.5473 439.107 6.5473 436.865C6.5473 434.624 8.27451 432.727 10.5199 432.727C12.7652 432.727 14.4924 434.624 14.4924 436.865Z" fill="#333333"/>
<path d="M15.7014 442.039C15.7014 443.936 14.147 445.488 12.2471 445.488C10.3471 445.488 8.79266 443.936 8.79266 442.039C8.79266 440.142 10.3471 438.59 12.2471 438.59C14.147 438.59 15.7014 440.142 15.7014 442.039Z" fill="#4D4D4D"/>
<path d="M13.9742 437.383C13.9742 438.762 12.7652 439.969 11.3835 439.969C10.0017 439.969 8.79266 438.762 8.79266 437.383C8.79266 436.003 10.0017 434.796 11.3835 434.796C12.7652 434.624 13.9742 435.831 13.9742 437.383Z" fill="#4D4D4D"/>
<path d="M131.77 454.627C131.77 458.938 128.142 462.559 123.824 462.559C119.506 462.559 115.879 458.938 115.879 454.627C115.879 450.316 119.334 446.694 123.824 446.694C128.142 446.694 131.77 450.316 131.77 454.627Z" fill="#333333"/>
<path d="M129.006 447.902C129.006 450.833 126.761 453.248 123.824 453.248C120.888 453.248 118.643 450.833 118.643 447.902C118.643 444.97 120.888 442.556 123.824 442.556C126.588 442.556 129.006 444.97 129.006 447.902Z" fill="#333333"/>
<path d="M128.315 448.419C128.315 450.316 126.761 451.868 124.861 451.868C122.961 451.868 121.406 450.316 121.406 448.419C121.406 446.522 122.961 444.97 124.861 444.97C126.761 444.97 128.315 446.522 128.315 448.419Z" fill="#4D4D4D"/>
<path d="M121.061 460.49C120.197 468.768 112.77 474.631 104.653 473.768C96.3619 472.906 90.4894 465.491 91.353 457.386C92.2166 449.109 99.6436 443.246 107.761 444.108C115.879 444.97 121.925 452.213 121.061 460.49Z" fill="#333333"/>
<path d="M117.261 447.212C116.743 452.73 111.907 456.869 106.38 456.352C101.025 455.834 97.0527 450.834 97.5709 445.315C98.0891 439.797 102.925 435.658 108.452 436.176C113.979 436.693 117.779 441.694 117.261 447.212Z" fill="#333333"/>
<path d="M115.879 448.247C115.534 451.868 112.252 454.455 108.798 454.11C105.171 453.765 102.58 450.489 102.925 447.04C103.271 443.418 106.552 440.832 110.007 441.177C113.634 441.521 116.225 444.798 115.879 448.247Z" fill="#4D4D4D"/>
<path d="M199.303 453.248C199.303 460.835 193.258 466.871 185.658 466.871C178.058 466.871 172.013 460.835 172.013 453.248C172.013 445.66 178.058 439.625 185.658 439.625C193.085 439.625 199.303 445.66 199.303 453.248Z" fill="#333333"/>
<path d="M203.967 466.87C203.967 477.045 195.676 485.15 185.658 485.15C175.468 485.15 167.35 476.872 167.35 466.87C167.35 456.696 175.64 448.591 185.658 448.591C195.676 448.591 203.967 456.869 203.967 466.87Z" fill="#333333"/>
<path d="M194.467 441.521C194.467 446.695 190.494 450.833 185.486 450.833C180.477 450.833 176.504 446.695 176.504 441.521C176.504 436.348 180.477 432.209 185.486 432.209C190.494 432.382 194.467 436.52 194.467 441.521Z" fill="#333333"/>
<path d="M197.231 453.248C197.231 457.559 193.776 461.18 189.285 461.18C184.967 461.18 181.34 457.731 181.34 453.248C181.34 448.937 184.795 445.315 189.285 445.315C193.603 445.488 197.231 448.937 197.231 453.248Z" fill="#4D4D4D"/>
<path d="M193.258 442.728C193.258 446.005 190.667 448.764 187.213 448.764C183.931 448.764 181.168 446.177 181.168 442.728C181.168 439.452 183.758 436.865 187.213 436.865C190.667 436.693 193.258 439.452 193.258 442.728Z" fill="#4D4D4D"/>
<path d="M169.077 464.628C169.077 474.285 161.132 482.218 151.46 482.218C141.787 482.218 133.842 474.285 133.842 464.628C133.842 454.972 141.787 447.039 151.46 447.039C161.132 447.039 169.077 454.799 169.077 464.628Z" fill="#333333"/>
<path d="M163.032 449.454C163.032 456.006 157.85 461.352 151.46 461.352C145.069 461.352 139.887 456.006 139.887 449.454C139.887 442.901 145.069 437.555 151.46 437.555C157.85 437.555 163.032 442.901 163.032 449.454Z" fill="#333333"/>
<path d="M161.477 451.006C161.477 455.317 158.023 458.593 153.705 458.593C149.387 458.593 145.932 455.144 145.932 451.006C145.932 446.695 149.387 443.246 153.705 443.246C158.023 443.246 161.477 446.695 161.477 451.006Z" fill="#4D4D4D"/>
<path d="M211.739 451.523C211.739 453.592 210.185 455.144 208.285 455.144C206.385 455.144 204.83 453.592 204.83 451.523C204.83 449.454 206.385 447.902 208.285 447.902C210.185 447.902 211.739 449.454 211.739 451.523Z" fill="#333333"/>
<path d="M286.009 447.212C286.009 453.938 280.654 459.283 273.918 459.283C267.182 459.283 261.828 453.938 261.828 447.212C261.828 440.487 267.182 435.141 273.918 435.141C280.654 435.141 286.009 440.487 286.009 447.212Z" fill="#333333"/>
<path d="M290.154 459.283C290.154 468.251 282.9 475.493 273.918 475.493C264.937 475.493 257.683 468.251 257.683 459.283C257.683 450.316 264.937 443.074 273.918 443.074C282.9 443.074 290.154 450.316 290.154 459.283Z" fill="#333333"/>
<path d="M281.864 436.866C281.864 441.349 278.236 445.143 273.918 445.143C269.6 445.143 265.973 441.522 265.973 436.866C265.973 432.382 269.6 428.588 273.918 428.588C278.236 428.588 281.864 432.382 281.864 436.866Z" fill="#333333"/>
<path d="M284.109 447.212C284.109 451.006 281 454.11 277.2 454.11C273.4 454.11 270.291 451.006 270.291 447.212C270.291 443.418 273.4 440.314 277.2 440.314C281 440.314 284.109 443.418 284.109 447.212Z" fill="#4D4D4D"/>
<path d="M280.827 437.9C280.827 440.832 278.409 443.246 275.473 443.246C272.537 443.246 270.119 440.832 270.119 437.9C270.119 434.969 272.537 432.555 275.473 432.555C278.409 432.555 280.827 434.969 280.827 437.9Z" fill="#4D4D4D"/>
<path d="M331.089 462.387C331.089 471.354 323.835 478.597 314.853 478.597C305.872 478.597 298.617 471.354 298.617 462.387C298.617 453.42 305.872 446.177 314.853 446.177C323.835 446.35 331.089 453.593 331.089 462.387Z" fill="#333333"/>
<path d="M325.389 448.592C325.389 454.627 320.553 459.628 314.853 459.628C308.98 459.628 304.144 454.8 304.144 448.592C304.144 442.556 308.98 437.728 314.853 437.728C320.725 437.728 325.389 442.556 325.389 448.592Z" fill="#333333"/>
<path d="M324.007 449.972C324.007 453.938 320.898 457.042 316.926 457.042C312.953 457.042 309.844 453.938 309.844 449.972C309.844 446.005 312.953 442.901 316.926 442.901C320.898 442.901 324.007 446.005 324.007 449.972Z" fill="#4D4D4D"/>
<path d="M595.351 468.94C595.351 483.77 583.433 495.669 568.579 495.669C553.725 495.669 541.807 483.77 541.807 468.94C541.807 454.11 553.725 442.211 568.579 442.211C583.433 442.211 595.351 454.282 595.351 468.94Z" fill="#333333"/>
<path d="M591.378 461.525C591.378 469.975 584.469 476.873 576.006 476.873C567.543 476.873 560.634 469.975 560.634 461.525C560.634 453.075 567.543 446.178 576.006 446.178C584.469 446.178 591.378 453.075 591.378 461.525Z" fill="#4D4D4D"/>
<path d="M629.722 457.386C629.722 469.802 619.532 479.977 607.096 479.977C594.66 479.977 584.469 469.802 584.469 457.386C584.469 444.97 594.66 434.796 607.096 434.796C619.704 434.796 629.722 444.798 629.722 457.386Z" fill="#333333"/>
<path d="M626.268 451.006C626.268 458.249 620.395 463.939 613.314 463.939C606.059 463.939 600.36 458.076 600.36 451.006C600.36 443.936 606.232 438.073 613.314 438.073C620.395 438.073 626.268 443.936 626.268 451.006Z" fill="#4D4D4D"/>
<path d="M572.034 461.008C572.034 473.424 561.843 483.598 549.407 483.598C536.971 483.598 526.781 473.424 526.781 461.008C526.781 448.592 536.971 438.417 549.407 438.417C562.016 438.417 572.034 448.419 572.034 461.008Z" fill="#333333"/>
<path d="M568.579 454.627C568.579 461.87 562.707 467.56 555.625 467.56C548.544 467.56 542.671 461.697 542.671 454.627C542.671 447.385 548.544 441.694 555.625 441.694C562.707 441.694 568.579 447.385 568.579 454.627Z" fill="#4D4D4D"/>
<path d="M502.255 466.181C502.255 478.597 492.064 488.771 479.628 488.771C467.192 488.771 457.002 478.597 457.002 466.181C457.002 453.765 467.192 443.591 479.628 443.591C492.237 443.591 502.255 453.765 502.255 466.181Z" fill="#333333"/>
<path d="M498.8 459.801C498.8 467.044 492.928 472.734 485.846 472.734C478.592 472.734 472.892 466.871 472.892 459.801C472.892 452.558 478.765 446.868 485.846 446.868C492.928 446.868 498.8 452.731 498.8 459.801Z" fill="#4D4D4D"/>
<path d="M474.965 462.387C474.965 474.803 464.774 484.978 452.338 484.978C439.902 484.978 429.712 474.803 429.712 462.387C429.712 449.971 439.902 439.797 452.338 439.797C464.774 439.797 474.965 449.799 474.965 462.387Z" fill="#333333"/>
<path d="M471.51 456.007C471.51 463.25 465.638 468.94 458.556 468.94C451.302 468.94 445.602 463.077 445.602 456.007C445.602 448.764 451.475 443.074 458.556 443.074C465.638 443.074 471.51 448.764 471.51 456.007Z" fill="#4D4D4D"/>
<path d="M492.582 458.766C492.582 466.008 486.71 471.699 479.628 471.699C472.374 471.699 466.674 465.836 466.674 458.766C466.674 451.523 472.547 445.832 479.628 445.832C486.882 445.832 492.582 451.695 492.582 458.766Z" fill="#4D4D4D"/>
<path d="M396.032 459.8C396.032 467.905 389.468 474.63 381.178 474.63C373.06 474.63 366.324 468.078 366.324 459.8C366.324 451.695 372.887 444.97 381.178 444.97C389.468 445.142 396.032 451.695 396.032 459.8Z" fill="#333333"/>
<path d="M393.786 455.661C393.786 460.318 389.986 464.111 385.323 464.111C380.66 464.111 376.86 460.318 376.86 455.661C376.86 451.005 380.66 447.212 385.323 447.212C389.986 447.212 393.786 451.005 393.786 455.661Z" fill="#4D4D4D"/>
<path d="M7.92905 448.074C7.92905 454.972 2.40198 460.49 -4.50683 460.49C-11.4156 460.49 -16.9427 454.972 -16.9427 448.074C-16.9427 441.176 -11.4156 435.658 -4.50683 435.658C2.22926 435.486 7.92905 441.176 7.92905 448.074Z" fill="#333333"/>
<path d="M12.0743 460.49C12.0743 469.802 4.64736 477.217 -4.67952 477.217C-14.0064 477.217 -21.4333 469.802 -21.4333 460.49C-21.4333 451.178 -14.0064 443.763 -4.67952 443.763C4.64736 443.763 12.0743 451.178 12.0743 460.49Z" fill="#333333"/>
<path d="M3.61105 437.383C3.61105 442.039 -0.0160751 445.832 -4.67952 445.832C-9.17024 445.832 -12.9701 442.039 -12.9701 437.383C-12.9701 432.727 -9.34296 428.933 -4.67952 428.933C-0.0160751 428.933 3.61105 432.727 3.61105 437.383Z" fill="#333333"/>
<path d="M6.02902 448.074C6.02902 452.04 2.74734 455.317 -1.22523 455.317C-5.19781 455.317 -8.47949 452.04 -8.47949 448.074C-8.47949 444.108 -5.19781 440.831 -1.22523 440.831C2.74734 440.831 6.02902 444.108 6.02902 448.074Z" fill="#4D4D4D"/>
<path d="M2.57465 438.417C2.57465 441.349 0.156556 443.936 -2.95242 443.936C-5.88868 443.936 -8.47949 441.521 -8.47949 438.417C-8.47949 435.486 -6.0614 432.899 -2.95242 432.899C-0.0161648 432.899 2.57465 435.313 2.57465 438.417Z" fill="#4D4D4D"/>
<path d="M66.8267 452.903C66.8267 458.421 62.336 462.905 56.8089 462.905C51.2818 462.905 46.7911 458.421 46.7911 452.903C46.7911 447.385 51.2818 442.901 56.8089 442.901C62.336 442.901 66.8267 447.385 66.8267 452.903Z" fill="#333333"/>
<path d="M63.3723 444.281C63.3723 448.075 60.436 451.179 56.8089 451.179C53.1817 451.179 50.2455 448.075 50.2455 444.281C50.2455 440.487 53.1817 437.383 56.8089 437.383C60.436 437.556 63.3723 440.487 63.3723 444.281Z" fill="#333333"/>
<path d="M65.2722 452.903C65.2722 456.179 62.6814 458.766 59.3997 458.766C56.118 458.766 53.5272 456.179 53.5272 452.903C53.5272 449.799 56.118 447.212 59.3997 447.212C62.6814 447.04 65.2722 449.626 65.2722 452.903Z" fill="#4D4D4D"/>
<path d="M62.5087 445.143C62.5087 447.557 60.6088 449.454 58.1907 449.454C55.7726 449.454 53.8727 447.557 53.8727 445.143C53.8727 442.729 55.7726 440.832 58.1907 440.832C60.6088 440.659 62.5087 442.729 62.5087 445.143Z" fill="#4D4D4D"/>
</svg>
