<svg width="14" height="15" viewBox="0 0 14 15" fill="none" xmlns="http://www.w3.org/2000/svg">
<path d="M10 1.59375H4.00001C2.34316 1.59375 1.00001 2.9369 1.00001 4.59375V10.5938C1.00001 12.2506 2.34316 13.5938 4.00001 13.5938H10C11.6569 13.5938 13 12.2506 13 10.5938V4.59375C13 2.9369 11.6569 1.59375 10 1.59375Z" stroke="white" stroke-width="1.5"/>
<path d="M9.40003 7.21593C9.47408 7.71528 9.38879 8.22526 9.15629 8.67334C8.92379 9.12142 8.55592 9.48478 8.10501 9.71173C7.6541 9.93869 7.1431 10.0177 6.6447 9.93749C6.14631 9.85729 5.68589 9.62198 5.32894 9.26503C4.97198 8.90807 4.73667 8.44766 4.65647 7.94926C4.57627 7.45086 4.65527 6.93987 4.88223 6.48896C5.10919 6.03804 5.47254 5.67018 5.92062 5.43768C6.3687 5.20518 6.87869 5.11988 7.37803 5.19393C7.88739 5.26946 8.35894 5.50681 8.72305 5.87091C9.08715 6.23502 9.3245 6.70658 9.40003 7.21593Z" stroke="white" stroke-width="1.5" stroke-linecap="round" stroke-linejoin="round"/>
</svg>
