<svg width="44" height="44" viewBox="0 0 44 44" fill="none" xmlns="http://www.w3.org/2000/svg">
<path d="M44 14.1824C44 12.2568 42.4337 10.6905 40.5081 10.6905H36.1696V8.48767C36.1696 8.13184 35.8813 7.84314 35.5251 7.84314H34.0339V4.21664C34.0339 3.86081 33.7456 3.57211 33.3894 3.57211H28.3392V2.79297C28.3392 2.43713 28.0505 2.14844 27.6947 2.14844H16.305C15.9491 2.14844 15.6604 2.43713 15.6604 2.79297V3.57211H10.6103C10.2541 3.57211 9.96573 3.86081 9.96573 4.21664V7.84314H8.47458C8.11874 7.84314 7.83005 8.13184 7.83005 8.48767V10.6905H3.49188C1.56635 10.6905 0 12.2568 0 14.1824V22.7248C0 23.0809 0.288696 23.3693 0.644531 23.3693H1.42334V38.3855C1.42334 40.3111 2.99002 41.8774 4.91522 41.8774H39.0844C41.01 41.8774 42.5763 40.3111 42.5763 38.3855V23.3693H43.3555C43.5263 23.3693 43.6905 23.3015 43.8113 23.1806C43.9322 23.0598 44 22.896 44 22.7248V14.1824ZM34.8806 9.1322V10.6905H31.8986V9.1322H34.8806ZM16.9495 3.4375H27.0502V4.99579H16.9495V3.4375ZM9.11911 9.1322H12.1014V10.6905H9.11911V9.1322ZM41.2873 38.3855C41.2873 39.6004 40.299 40.5883 39.0844 40.5883H4.91522C3.70068 40.5883 2.7124 39.6004 2.7124 38.3855V23.3693H7.11804V24.9276H6.3389C5.98306 24.9276 5.69437 25.2163 5.69437 25.5721V28.4195C5.69437 28.7753 5.98306 29.064 6.3389 29.064H7.11804V31.2668C7.11804 31.5112 7.25601 31.7341 7.47455 31.8432L10.3219 33.2672C10.4125 33.3129 10.5112 33.3354 10.6103 33.3354C10.709 33.3354 10.8076 33.3129 10.8983 33.2672L13.7456 31.8432C13.9638 31.7341 14.1021 31.5112 14.1021 31.2668V29.064H14.881C15.2371 29.064 15.5255 28.7753 15.5255 28.4195V25.5721C15.5255 25.2163 15.2371 24.9276 14.881 24.9276H14.1021V23.3693H18.5078V26.2841C18.5078 26.64 18.7965 26.9286 19.1523 26.9286H24.8474C25.2032 26.9286 25.4919 26.64 25.4919 26.2841V23.3693H29.8975V24.9276H29.1184C28.7622 24.9276 28.4738 25.2163 28.4738 25.5721V28.4195C28.4738 28.7753 28.7622 29.064 29.1184 29.064H29.8975V31.2668C29.8975 31.5109 30.0352 31.7341 30.2537 31.8432L33.101 33.2672C33.1917 33.3129 33.2907 33.3354 33.3894 33.3354C33.4881 33.3354 33.5868 33.3129 33.6778 33.2672L36.5251 31.8432C36.7433 31.7341 36.8813 31.5112 36.8813 31.2668V29.064H37.6604C38.0166 29.064 38.305 28.7753 38.305 28.4195V25.5721C38.305 25.2163 38.0166 24.9276 37.6604 24.9276H36.8813V23.3693H41.2873V38.3855ZM8.40744 22.7264C8.40744 22.7261 8.40744 22.7254 8.40744 22.7248C8.40744 22.7244 8.40744 22.7238 8.40744 22.7231V20.5219H12.8131V24.9276H8.40744V22.7264ZM6.98376 19.2329V17.6743H14.2368V19.2329H6.98376ZM14.2368 26.2166V27.7749H6.98376V26.2166H14.2368ZM12.8131 29.064V30.8687L10.6103 31.9704L8.40744 30.8687V29.064H12.8131ZM21.3555 23.3693V24.1484C21.3555 24.5046 21.6438 24.793 22 24.793C22.3558 24.793 22.6445 24.5046 22.6445 24.1484V23.3693H24.2028V25.6396H19.7968V23.3693H21.3555ZM19.7968 22.0802V21.2339H24.2028V22.0802H19.7968ZM31.1866 22.7264C31.1866 22.7261 31.1866 22.7254 31.1866 22.7248C31.1866 22.7244 31.1866 22.7238 31.1866 22.7231V20.5219H35.5922V24.9276H31.1866V22.7264ZM29.7629 19.2329V17.6743H37.0159V19.2329H29.7629ZM37.0159 26.2166V27.7749H29.7629V26.2166H37.0159ZM35.5922 29.064V30.8687L33.3894 31.9704L31.1866 30.8687V29.064H35.5922ZM41.9345 22.0802C41.9335 22.0802 41.9328 22.0802 41.9318 22.0802C41.9311 22.0802 41.9301 22.0802 41.9294 22.0802H36.8813V20.5219H37.6604C38.0166 20.5219 38.305 20.2332 38.305 19.8774V17.6746H38.3724C38.7286 17.6746 39.017 17.3859 39.017 17.0301C39.017 16.6739 38.7286 16.3855 38.3724 16.3855H28.4067C28.0505 16.3855 27.7622 16.6739 27.7622 17.0301C27.7622 17.3859 28.0505 17.6746 28.4067 17.6746H28.4738V19.8774C28.4738 20.2332 28.7625 20.5219 29.1184 20.5219H29.8975V22.0802H25.4919V20.5894C25.4919 20.2332 25.2032 19.9449 24.8474 19.9449H19.1523C18.7965 19.9449 18.5078 20.2332 18.5078 20.5894V22.0802H14.1021V20.5219H14.8813C15.2371 20.5219 15.5258 20.2332 15.5258 19.8774V17.6746H15.5933C15.9491 17.6746 16.2378 17.3859 16.2378 17.0301C16.2378 16.6739 15.9491 16.3855 15.5933 16.3855H5.62723C5.27139 16.3855 4.9827 16.6739 4.9827 17.0301C4.9827 17.3859 5.27139 17.6746 5.62723 17.6746H5.6947V19.8774C5.6947 20.2332 5.98306 20.5219 6.33923 20.5219H7.11838V22.0802H1.28906V14.1824C1.28906 12.9678 2.27734 11.9796 3.49188 11.9796H15.5933C15.9491 11.9796 16.2378 11.6909 16.2378 11.335C16.2378 10.9792 15.9491 10.6905 15.5933 10.6905H13.3905V8.48767C13.3905 8.13184 13.1018 7.84314 12.7459 7.84314H11.2548V4.86118H15.6604V5.64032C15.6604 5.99649 15.9491 6.28485 16.305 6.28485H27.6947C28.0505 6.28485 28.3392 5.99649 28.3392 5.64032V4.86118H32.7452V7.84314H31.2541C30.8979 7.84314 30.6095 8.13184 30.6095 8.48767V10.6905H18.1754C17.8196 10.6905 17.5309 10.9792 17.5309 11.335C17.5309 11.6909 17.8196 11.9796 18.1754 11.9796H40.5081C41.7227 11.9796 42.7109 12.9678 42.7109 14.1824V22.0802H41.9345Z" fill="white"/>
<path d="M4.27103 38.3853C4.27103 38.7414 4.55939 39.0298 4.91556 39.0298H39.0844C39.4403 39.0298 39.729 38.7414 39.729 38.3853C39.729 38.0294 39.4403 37.7407 39.0844 37.7407H4.91556C4.55939 37.7407 4.27103 38.0294 4.27103 38.3853Z" fill="white"/>
</svg>
