<svg width="44" height="44" viewBox="0 0 44 44" fill="none" xmlns="http://www.w3.org/2000/svg">
<g clip-path="url(#clip0)">
<path d="M24.3697 0C15.3791 0 8.0647 7.31442 8.0647 16.305V18.9788L3.52478 26.7924C3.46771 26.8907 3.4375 27.0025 3.4375 27.1163V29.83C3.4375 30.1862 3.7262 30.4746 4.08203 30.4746H8.0647L8.06503 34.8131C8.06503 36.7386 9.63138 38.305 11.5569 38.305H12.8681C13.224 38.305 13.5123 38.0163 13.5123 37.6604C13.5123 37.3043 13.224 37.0159 12.8678 37.0159H11.5569C10.342 37.0159 9.3541 36.0276 9.3541 34.8131V30.4746H11.2007C11.5566 30.4746 11.8453 30.1862 11.8453 29.83V25.559C11.8453 25.2032 11.5566 24.9145 11.2007 24.9145H9.77707C9.4209 24.9145 9.13254 25.2032 9.13254 25.559C9.13254 25.9152 9.4209 26.2036 9.77707 26.2036H10.5562V29.1855H4.72656V27.6272H6.92938C7.28522 27.6272 7.57391 27.3385 7.57391 26.9827C7.57391 26.6265 7.28522 26.3382 6.92938 26.3382H5.27979L9.25809 19.4907C9.31885 19.392 9.35376 19.2762 9.35376 19.1526V16.305C9.35376 8.02542 16.0898 1.28906 24.3697 1.28906C32.6499 1.28906 39.3859 8.02542 39.3859 16.305V21.9997C39.3859 28.1929 35.6822 33.6543 29.9402 35.9477H28.2849C27.9287 35.9477 27.6403 36.2361 27.6403 36.5923C27.6403 36.9484 27.9287 37.2368 28.2849 37.2368H29.4202V42.7109H17.54V38.305H19.0308C19.387 38.305 19.6753 38.0166 19.6753 37.6604C19.6753 37.3046 19.387 37.0159 19.0308 37.0159H16.8971H16.8954H15.4503C15.0945 37.0159 14.8058 37.3043 14.8058 37.6604C14.8058 38.0163 15.0945 38.305 15.4503 38.305H16.2509V43.3555C16.2509 43.7116 16.5396 44 16.8954 44H30.0647C30.4205 44 30.7092 43.7116 30.7092 43.3555V37.026C33.5559 35.8249 35.9883 33.8523 37.7642 31.2997C39.6682 28.5621 40.675 25.3465 40.675 21.9997V16.305C40.675 7.31442 33.3605 0 24.3697 0Z" fill="white"/>
<path d="M15.885 15.5933C15.885 17.3329 16.408 19.0043 17.398 20.4273C18.2798 21.6949 19.4729 22.6869 20.8677 23.3173V24.6476H20.8006C20.4444 24.6476 20.156 24.936 20.156 25.2922C20.156 25.648 20.4444 25.9367 20.8006 25.9367H20.8677V27.6947C20.8677 28.0506 21.1564 28.3393 21.5122 28.3393H21.5797V29.8304C21.5797 30.1862 21.8684 30.4749 22.2242 30.4749H26.4953C26.8511 30.4749 27.1398 30.1862 27.1398 29.8304V28.3393H27.2073C27.5631 28.3393 27.8518 28.0506 27.8518 27.6947V25.9367H27.9189C28.2751 25.9367 28.5635 25.648 28.5635 25.2922C28.5635 24.936 28.2751 24.6476 27.9189 24.6476H27.8518V23.3173C29.2466 22.6869 30.4397 21.6949 31.3215 20.4273C32.3112 19.0043 32.8345 17.3329 32.8345 15.5933C32.8345 10.9201 29.0328 7.11841 24.3596 7.11841C19.6867 7.11841 15.885 10.9201 15.885 15.5933ZM22.8688 17.6615H23.381L24.6157 18.8965C24.7366 19.0174 24.9007 19.0855 25.0716 19.0855C25.2425 19.0855 25.4066 19.0174 25.5275 18.8965L25.8507 18.5733V22.2451H22.8688V17.6615ZM25.8507 29.1859H22.8688V28.3393H25.8507V29.1859ZM26.5627 27.0502H22.1568V25.9367H26.5627V27.0502ZM22.1568 24.6476V23.5341H26.5627V24.6476H22.1568ZM24.3599 8.40747C28.3221 8.40747 31.5454 11.6311 31.5454 15.5933C31.5454 18.5155 29.822 21.0967 27.1398 22.2202V17.017C27.1398 17.017 27.1398 17.017 27.1398 17.0167V16.305C27.1398 15.9492 26.8511 15.6605 26.4953 15.6605C26.1391 15.6605 25.8507 15.9492 25.8507 16.305V16.7501L25.0716 17.5293L24.1038 16.5611C23.9829 16.4403 23.8188 16.3725 23.6479 16.3725H22.8688V16.305C22.8688 15.9492 22.5804 15.6605 22.2242 15.6605C21.8684 15.6605 21.5797 15.9492 21.5797 16.305V22.2202C18.8975 21.0967 17.1741 18.5155 17.1741 15.5933C17.1741 11.6311 20.3974 8.40747 24.3599 8.40747Z" fill="white"/>
<path d="M25.0041 5.62729V3.49194C25.0041 3.13577 24.7157 2.84741 24.3596 2.84741C24.0037 2.84741 23.715 3.13577 23.715 3.49194V5.62729C23.715 5.98346 24.0037 6.27182 24.3596 6.27182C24.7157 6.27182 25.0041 5.98346 25.0041 5.62729Z" fill="white"/>
<path d="M16.1955 6.60654C15.9438 6.35511 15.5356 6.35511 15.2838 6.60654C15.0324 6.85831 15.0324 7.26652 15.2838 7.51829L16.7941 9.02824C16.92 9.15412 17.0848 9.21723 17.2499 9.21723C17.4148 9.21723 17.5796 9.15412 17.7055 9.02824C17.9573 8.77647 17.9573 8.3686 17.7055 8.11683L16.1955 6.60654Z" fill="white"/>
<path d="M14.3049 15.0378H12.1693C11.8134 15.0378 11.5247 15.3265 11.5247 15.6824C11.5247 16.0385 11.8134 16.3269 12.1693 16.3269H14.3049C14.6608 16.3269 14.9495 16.0385 14.9495 15.6824C14.9495 15.3265 14.6608 15.0378 14.3049 15.0378Z" fill="white"/>
<path d="M16.7944 22.3364L15.2841 23.8467C15.0323 24.0985 15.0323 24.5063 15.2841 24.7581C15.41 24.884 15.5748 24.9468 15.7396 24.9468C15.9048 24.9468 16.0696 24.884 16.1955 24.7581L17.7058 23.2481C17.9576 22.9964 17.9576 22.5882 17.7058 22.3364C17.454 22.0846 17.0458 22.085 16.7944 22.3364Z" fill="white"/>
<path d="M31.014 22.3363C30.7623 22.5881 30.7623 22.9959 31.014 23.2477L32.524 24.758C32.6499 24.8839 32.815 24.9466 32.9798 24.9466C33.1447 24.9466 33.3098 24.8839 33.4357 24.758C33.6875 24.5062 33.6875 24.098 33.4357 23.8462L31.9254 22.3363C31.6737 22.0845 31.2658 22.0845 31.014 22.3363Z" fill="white"/>
<path d="M36.5503 16.3269C36.9065 16.3269 37.1948 16.0382 37.1948 15.6824C37.1948 15.3262 36.9065 15.0378 36.5503 15.0378H34.4146C34.0584 15.0378 33.7701 15.3262 33.7701 15.6824C33.7701 16.0382 34.0584 16.3269 34.4146 16.3269H36.5503Z" fill="white"/>
<path d="M32.524 6.60631L31.0137 8.11659C30.7623 8.36836 30.7623 8.77623 31.014 9.028C31.1396 9.15389 31.3047 9.21666 31.4696 9.21666C31.6344 9.21666 31.7996 9.15389 31.9254 9.028L33.4354 7.51772C33.6872 7.26595 33.6872 6.85808 33.4354 6.60631C33.184 6.35454 32.7758 6.35454 32.524 6.60631Z" fill="white"/>
</g>
<defs>
<clipPath id="clip0">
<rect width="44" height="44" fill="white"/>
</clipPath>
</defs>
</svg>
