<svg width="43" height="44" viewBox="0 0 43 44" fill="none" xmlns="http://www.w3.org/2000/svg">
<path d="M28.6292 2.92442L28.4547 3.89299C31.4466 5.00708 34.1541 6.83197 36.3396 9.24743C39.6824 12.9431 41.5234 17.7243 41.5234 22.7117C41.5234 22.7918 41.4589 22.8563 41.3789 22.8563C41.299 22.8563 41.2343 22.7916 41.2343 22.7117C41.2343 12.8164 34.0045 4.52414 24.2983 3.12958L23.7272 3.04752V3.62449V4.91557C23.7272 4.9956 23.6627 5.06011 23.5827 5.06011H19.3116C19.2318 5.06011 19.1671 4.99543 19.1671 4.91557V3.62449V3.04752L18.596 3.12958C8.88985 4.52414 1.65967 12.8164 1.65967 22.7117C1.65967 22.7916 1.595 22.8563 1.51514 22.8563C1.43527 22.8563 1.3706 22.7916 1.3706 22.7117C1.3706 17.7243 3.21157 12.9431 6.55477 9.24745C8.7399 6.83201 11.4474 5.00744 14.4393 3.89332L14.2648 2.92476H6.32732H5.96545L5.85237 3.2685C5.64604 3.89564 5.05495 4.3481 4.3625 4.3481C3.49818 4.3481 2.79428 3.64433 2.79428 2.78022C2.79428 1.91601 3.49829 1.21201 4.3625 1.21201C5.05491 1.21201 5.646 1.66443 5.85235 2.29189L5.96541 2.63569H6.32732H18.6671H19.1671V2.13569V0.644533C19.1671 0.564674 19.2318 0.499999 19.3116 0.499999H23.5827C23.6627 0.499999 23.7272 0.564503 23.7272 0.644533V2.13535V2.63535H24.2272H36.567H36.9289L37.042 2.29161C37.2483 1.66442 37.8394 1.21201 38.5315 1.21201C39.3958 1.21201 40.0997 1.91578 40.0997 2.77989C40.0997 3.64415 39.396 4.3481 38.5315 4.3481C37.8391 4.3481 37.248 3.89568 37.0417 3.26822L36.9286 2.92442H36.5667H28.6292ZM19.4562 4.27104V4.77104H19.9562H22.9382H23.4382V4.27104V2.89201V2.88966V2.78156V2.77989V2.77821V1.28907V0.789068H22.9382H19.9562H19.4562V1.28907V2.89067V2.891V4.27104ZM39.8106 2.77989C39.8106 2.07425 39.2372 1.50108 38.5315 1.50108C37.8258 1.50108 37.2524 2.07425 37.2524 2.77989C37.2524 3.48572 37.8257 4.05903 38.5315 4.05903C39.2373 4.05903 39.8106 3.48572 39.8106 2.77989ZM3.08335 2.78022C3.08335 3.48586 3.65681 4.05903 4.3625 4.05903C5.06819 4.05903 5.64165 3.48586 5.64165 2.78022C5.64165 2.07439 5.06833 1.50108 4.3625 1.50108C3.65667 1.50108 3.08335 2.07439 3.08335 2.78022Z" fill="white" stroke="white" stroke-width="0.999998"/>
<mask id="path-2-inside-1" fill="white">
<path d="M23.4336 7.44882C23.3198 7.24472 23.1047 7.11816 22.871 7.11816H20.0233C19.79 7.11816 19.5745 7.24472 19.4607 7.44882L10.9183 22.7535C10.8649 22.8495 10.8367 22.9576 10.8367 23.0677V23.7797C10.8367 23.9015 10.8713 24.0207 10.9364 24.1238L14.5831 29.8974H12.1929C11.8371 29.8974 11.5484 30.1857 11.5484 30.5419C11.5484 30.8978 11.8371 31.1865 12.1929 31.1865H12.2604V33.3893C12.2604 33.7454 12.5487 34.0338 12.9049 34.0338H13.6837V36.237C13.6837 36.5928 13.9724 36.8815 14.3283 36.8815H15.1077V39.082V39.0843V39.087V43.3554C15.1077 43.7115 15.3964 43.9999 15.7523 43.9999H27.142C27.4979 43.9999 27.7866 43.7115 27.7866 43.3554V36.8815H28.5657C28.9216 36.8815 29.2103 36.5928 29.2103 36.237V34.0338H29.9894C30.3452 34.0338 30.6339 33.7454 30.6339 33.3893V31.1865H30.7014C31.0573 31.1865 31.346 30.8978 31.346 30.5419C31.346 30.1857 31.0573 29.8974 30.7014 29.8974H29.9911C29.9904 29.8974 29.9901 29.8974 29.9894 29.8974C29.9887 29.8974 29.9884 29.8974 29.9877 29.8974H28.3113L31.9579 24.1238C32.023 24.0207 32.0576 23.9015 32.0576 23.7797V23.0677C32.0576 22.9576 32.0294 22.8495 31.9757 22.7535L23.4336 7.44882ZM21.4473 21.2207C21.877 21.2207 22.2265 21.5701 22.2265 21.9998C22.2265 22.4295 21.877 22.779 21.4473 22.779C21.0176 22.779 20.6682 22.4295 20.6682 21.9998C20.6682 21.5701 21.0176 21.2207 21.4473 21.2207ZM27.9212 35.5921H20.8495C20.4936 35.5921 20.2049 35.8808 20.2049 36.2366C20.2049 36.5928 20.4936 36.8812 20.8495 36.8812H26.4975V38.4395H25.718C25.3622 38.4395 25.0735 38.7278 25.0735 39.084C25.0735 39.4402 25.3622 39.7285 25.718 39.7285H26.4972V42.7108H16.3968V39.7289H17.176C17.5318 39.7289 17.8205 39.4405 17.8205 39.0843C17.8205 38.7282 17.5318 38.4398 17.176 38.4398H16.3968V36.8812H18.0954C18.4516 36.8812 18.74 36.5928 18.74 36.2366C18.74 35.8808 18.4516 35.5921 18.0954 35.5921H14.9728V34.0338H27.9212V35.5921ZM29.3449 32.7447H13.5494V31.1865H27.14H27.1414H27.1427H29.3449V32.7447ZM30.7686 23.593L29.4842 25.6263H27.8537C27.4979 25.6263 27.2092 25.9147 27.2092 26.2709C27.2092 26.627 27.4979 26.9154 27.8537 26.9154H28.6701L26.7865 29.8974H22.0915V28.4062C22.0915 28.0504 21.8032 27.7617 21.447 27.7617C21.0912 27.7617 20.8025 28.0504 20.8025 28.4062V29.8974H16.1074L14.2242 26.9154H15.0403C15.3964 26.9154 15.6848 26.627 15.6848 26.2709C15.6848 25.9147 15.3964 25.6263 15.0403 25.6263H13.4098L12.1258 23.593V23.2352L20.402 8.40723H20.8025V20.035C19.977 20.3066 19.3788 21.0844 19.3788 21.9995C19.3788 23.1402 20.3066 24.068 21.447 24.068C22.5877 24.068 23.5155 23.1402 23.5155 21.9995C23.5155 21.0844 22.9173 20.3063 22.0919 20.035V8.40723H22.4923L30.7686 23.2352V23.593Z"/>
</mask>
<path d="M23.4336 7.44882C23.3198 7.24472 23.1047 7.11816 22.871 7.11816H20.0233C19.79 7.11816 19.5745 7.24472 19.4607 7.44882L10.9183 22.7535C10.8649 22.8495 10.8367 22.9576 10.8367 23.0677V23.7797C10.8367 23.9015 10.8713 24.0207 10.9364 24.1238L14.5831 29.8974H12.1929C11.8371 29.8974 11.5484 30.1857 11.5484 30.5419C11.5484 30.8978 11.8371 31.1865 12.1929 31.1865H12.2604V33.3893C12.2604 33.7454 12.5487 34.0338 12.9049 34.0338H13.6837V36.237C13.6837 36.5928 13.9724 36.8815 14.3283 36.8815H15.1077V39.082V39.0843V39.087V43.3554C15.1077 43.7115 15.3964 43.9999 15.7523 43.9999H27.142C27.4979 43.9999 27.7866 43.7115 27.7866 43.3554V36.8815H28.5657C28.9216 36.8815 29.2103 36.5928 29.2103 36.237V34.0338H29.9894C30.3452 34.0338 30.6339 33.7454 30.6339 33.3893V31.1865H30.7014C31.0573 31.1865 31.346 30.8978 31.346 30.5419C31.346 30.1857 31.0573 29.8974 30.7014 29.8974H29.9911C29.9904 29.8974 29.9901 29.8974 29.9894 29.8974C29.9887 29.8974 29.9884 29.8974 29.9877 29.8974H28.3113L31.9579 24.1238C32.023 24.0207 32.0576 23.9015 32.0576 23.7797V23.0677C32.0576 22.9576 32.0294 22.8495 31.9757 22.7535L23.4336 7.44882ZM21.4473 21.2207C21.877 21.2207 22.2265 21.5701 22.2265 21.9998C22.2265 22.4295 21.877 22.779 21.4473 22.779C21.0176 22.779 20.6682 22.4295 20.6682 21.9998C20.6682 21.5701 21.0176 21.2207 21.4473 21.2207ZM27.9212 35.5921H20.8495C20.4936 35.5921 20.2049 35.8808 20.2049 36.2366C20.2049 36.5928 20.4936 36.8812 20.8495 36.8812H26.4975V38.4395H25.718C25.3622 38.4395 25.0735 38.7278 25.0735 39.084C25.0735 39.4402 25.3622 39.7285 25.718 39.7285H26.4972V42.7108H16.3968V39.7289H17.176C17.5318 39.7289 17.8205 39.4405 17.8205 39.0843C17.8205 38.7282 17.5318 38.4398 17.176 38.4398H16.3968V36.8812H18.0954C18.4516 36.8812 18.74 36.5928 18.74 36.2366C18.74 35.8808 18.4516 35.5921 18.0954 35.5921H14.9728V34.0338H27.9212V35.5921ZM29.3449 32.7447H13.5494V31.1865H27.14H27.1414H27.1427H29.3449V32.7447ZM30.7686 23.593L29.4842 25.6263H27.8537C27.4979 25.6263 27.2092 25.9147 27.2092 26.2709C27.2092 26.627 27.4979 26.9154 27.8537 26.9154H28.6701L26.7865 29.8974H22.0915V28.4062C22.0915 28.0504 21.8032 27.7617 21.447 27.7617C21.0912 27.7617 20.8025 28.0504 20.8025 28.4062V29.8974H16.1074L14.2242 26.9154H15.0403C15.3964 26.9154 15.6848 26.627 15.6848 26.2709C15.6848 25.9147 15.3964 25.6263 15.0403 25.6263H13.4098L12.1258 23.593V23.2352L20.402 8.40723H20.8025V20.035C19.977 20.3066 19.3788 21.0844 19.3788 21.9995C19.3788 23.1402 20.3066 24.068 21.447 24.068C22.5877 24.068 23.5155 23.1402 23.5155 21.9995C23.5155 21.0844 22.9173 20.3063 22.0919 20.035V8.40723H22.4923L30.7686 23.2352V23.593Z" fill="white" stroke="white" stroke-width="2" mask="url(#path-2-inside-1)"/>
</svg>
