<svg xmlns="http://www.w3.org/2000/svg" width="28" height="29" fill="none" viewBox="0 0 28 29">
    <path fill="#E3B873" d="M21.892 22.727c-.746.7-.746 1.867 0 2.614.374.373.84.56 1.307.56.467 0 .933-.187 1.307-.56.746-.7.746-1.867 0-2.614-.7-.746-1.867-.746-2.614 0zm1.96 2.007c-.373.373-.933.373-1.306 0-.373-.374-.374-.934 0-1.307.186-.186.42-.28.653-.28.233 0 .467.094.653.28.374.374.374.934 0 1.307z"/>
    <path fill="#E3B873" d="M27.68 23.287l-8.4-8.4 3.313-3.313 1.96-1.96L27.4 6.767c.793-.793.793-2.1 0-2.893l-2.38-2.38c-.374-.373-.887-.607-1.447-.607s-1.073.234-1.447.607L19.28 4.34 17.32 6.3l-3.314 3.314L5.7 1.307c-.514-.513-1.447-.513-1.96 0L.426 4.621c-.56.513-.56 1.4 0 1.96l.98.98 2.66 2.66 2.614 2.613 2.053 2.053-7.491 7.492c-.14.061-.215.187-.256.348l-.98 5.6c0 .187.047.327.14.42.094.094.187.14.327.14h.093l5.384-.995c.037.01.077.015.123.015.14 0 .28-.046.327-.14l7.606-7.606.607.606 1.307 1.307 6.486 6.487c.234.233.514.326.794.326s.56-.093.746-.326l3.734-3.734c.42-.42.42-1.12 0-1.54zM6.073 26.741L4.44 25.108 19.956 9.637l1.61 1.61L6.073 26.741zM22.78 2.147c.42-.42 1.166-.42 1.586 0l2.38 2.38c.42.42.42 1.167 0 1.587l-2.52 2.52-3.966-3.967 2.52-2.52zm-3.174 3.174l1.984 1.983 1.983 1.983-1.307 1.307L18.3 6.627l1.306-1.306zM8.99 13.837l1.003-1.003c.187-.187.187-.467 0-.653-.187-.187-.467-.187-.653 0l-1.004 1.003-.676-.677 1.633-1.633c.187-.187.187-.467 0-.654-.187-.186-.467-.186-.653 0l-1.634 1.634-.653-.653.98-.98c.187-.187.187-.467 0-.654s-.467-.187-.653 0l-.98.98-.654-.653L6.68 8.26c.186-.186.186-.466 0-.653-.187-.187-.467-.187-.654 0L4.393 9.241l-.7-.7.98-.98c.187-.187.187-.467 0-.654-.187-.186-.467-.186-.653 0l-.98.98-.654-.653L4.02 5.6c.186-.187.186-.467 0-.654-.187-.187-.467-.186-.654 0L1.733 6.581l-.653-.654c-.187-.186-.187-.466 0-.653L4.393 1.96c.093-.094.187-.14.327-.14.093 0 .233.046.326.14l8.307 8.306-3.967 3.967-.396-.397zm8.656-6.51L19.28 8.96 3.763 24.431l-1.61-1.61L17.646 7.327zM1.78 23.754l1.53 1.53c.024.054.058.105.103.15L5.1 27.12l-4.02.693.7-4.06zm25.246.42l-3.733 3.733c-.047.047-.187.047-.233 0l-4.83-4.83 1.656-1.656c.187-.187.187-.467 0-.654-.186-.186-.466-.186-.653 0l-1.657 1.657-.676-.677.98-.98c.186-.186.186-.466 0-.653-.187-.187-.467-.187-.654 0l-.98.98-.653-.654 1.633-1.633c.187-.186.187-.466 0-.653-.186-.187-.466-.187-.653 0l-1.633 1.633-.28-.28 3.966-3.966 8.4 8.4c.047.046.047.186 0 .233z"/>
</svg>
