<svg width="17" height="23" viewBox="0 0 17 23" fill="none" xmlns="http://www.w3.org/2000/svg">
<path d="M15.6331 14.0005L15.6331 20.0788C15.5194 19.8846 15.4051 19.6883 15.2898 19.4904C14.5623 18.2415 13.7986 16.9305 12.9509 15.7158L9.5221 10.8027L9.51295 10.7896L9.50297 10.7771C8.84595 9.95332 8.18946 9.1714 7.53754 8.39491L7.53567 8.39268C6.88198 7.61407 6.23286 6.84089 5.58429 6.02772L5.57901 6.0211L5.57351 6.01467L3.61958 3.72821C3.27266 3.29425 2.88737 2.90902 2.49675 2.53785C2.36729 2.41483 2.23872 2.29469 2.11041 2.17478C1.85315 1.93437 1.59689 1.6949 1.3364 1.43506L7.87693 1.43506C8.04662 1.67763 8.20019 1.92377 8.36117 2.18211L8.36561 2.18925C8.56398 2.5076 8.77412 2.84483 9.02658 3.18415C9.59938 4.08623 10.2117 4.98704 10.8189 5.8802L10.8212 5.88362C11.4294 6.77828 12.0323 7.66528 12.5949 8.55101C13.196 9.75455 13.8707 10.9206 14.5218 12.046C14.9072 12.7119 15.2843 13.3636 15.6331 14.0005Z" stroke="white" stroke-opacity="0.015"/>
</svg>
