<svg width="347" height="338" viewBox="0 0 347 338" fill="none" xmlns="http://www.w3.org/2000/svg">
<mask id="path-1-inside-1" fill="white">
<path d="M346.133 336.175C341.398 330.607 335.193 324.383 327.192 318.815C318.049 312.264 306.456 306.86 293.557 301.947C280.658 296.87 266.453 292.284 252.901 284.423L250.288 282.949L247.839 281.312C246.206 280.165 244.574 279.183 242.941 278.036C241.471 276.89 239.838 275.58 238.206 274.433L237.063 273.451L235.92 272.468L233.634 270.339L231.348 268.21L230.858 267.719C230.858 267.719 230.532 267.391 230.368 267.227L229.389 266.081C228.082 264.607 226.613 262.969 225.307 261.495C222.857 258.22 220.245 254.944 218.122 251.178C208.979 236.93 203.917 219.897 197.713 202.702C194.61 194.185 191.181 185.506 186.61 177.317C182.038 169.128 176.323 161.104 169.792 154.389C163.098 147.674 155.423 141.779 147.26 137.029C139.096 132.28 130.442 128.513 121.951 125.238C104.97 118.687 88.1528 113.119 74.6006 103.784C71.0085 101.655 68.0695 99.0345 64.9672 96.578C63.4977 95.104 61.8649 93.6301 60.3954 92.3199L59.2525 91.1735L58.9259 90.846L58.7626 90.6822C59.0892 91.0097 58.7626 90.6822 58.7626 90.6822L58.2728 90.1909L56.3134 87.8981L54.3541 85.7691L53.3744 84.6227L52.558 83.4763C51.4151 81.8386 50.2722 80.3646 49.1292 78.8907C47.9863 77.253 47.0066 75.6153 46.0269 73.9776L44.5574 71.521L43.2512 69.0644C36.0669 55.799 31.8217 41.5509 27.0866 28.4492C23.4945 18.4592 19.5758 9.12428 15.004 0.771958L0.635477 0.771958C6.5135 9.28805 11.5751 20.0969 16.3102 32.5435C18.7594 38.9306 21.2086 45.6452 23.9843 52.6873C26.9233 59.7295 30.0256 67.0992 34.1076 74.1413L35.5771 76.9254L37.3731 79.5458C38.5161 81.3473 39.6591 83.1487 40.9653 84.7864C42.2715 86.4242 43.5777 88.2256 44.884 89.8633L45.8636 91.1735L47.0066 92.3199L49.2925 94.7765L51.5784 97.233L52.0682 97.8881C52.2315 98.0519 52.0682 97.8881 52.3948 98.2157L52.558 98.3794L52.8846 98.707L54.0276 99.6896C55.6603 101.164 57.1298 102.474 58.7626 103.948C62.3548 106.732 65.9469 109.68 69.8656 111.809C77.3764 116.558 85.7036 120.489 94.0308 123.764C102.358 127.039 111.012 129.823 119.339 132.935C127.829 136.047 135.993 139.322 143.831 143.58C151.505 147.838 158.689 153.079 165.22 159.302C171.588 165.689 176.813 172.568 181.385 180.429C185.957 188.126 189.385 196.478 192.651 204.831C199.182 221.535 204.734 238.895 214.694 253.634C216.979 257.401 219.755 260.676 222.531 264.116C224 265.753 225.47 267.227 226.939 268.865L228.082 270.011C228.246 270.175 228.409 270.339 228.736 270.666L229.389 271.158L231.675 273.287L233.96 275.416L235.103 276.398L236.41 277.381C238.042 278.691 239.838 279.838 241.471 281.148C243.104 282.294 244.9 283.441 246.696 284.423L249.309 286.061L251.921 287.535C265.963 295.232 280.495 299.49 293.394 304.24C306.293 308.825 317.886 313.902 327.192 320.125C335.52 325.53 341.888 331.753 346.786 337.321L346.786 336.175L346.133 336.175Z"/>
</mask>
<path d="M346.133 336.175L345.371 336.823L345.67 337.175L346.133 337.175L346.133 336.175ZM327.192 318.815L326.61 319.628L326.621 319.636L327.192 318.815ZM293.557 301.947L293.191 302.877L293.201 302.881L293.557 301.947ZM252.901 284.423L253.403 283.558L253.392 283.552L252.901 284.423ZM250.288 282.949L249.732 283.781L249.764 283.802L249.797 283.82L250.288 282.949ZM247.839 281.312L247.264 282.13L247.274 282.137L247.283 282.143L247.839 281.312ZM242.941 278.036L242.326 278.825L242.346 278.84L242.366 278.855L242.941 278.036ZM238.206 274.433L237.554 275.192L237.591 275.223L237.631 275.252L238.206 274.433ZM237.063 273.451L237.715 272.692L237.715 272.692L237.063 273.451ZM235.92 272.468L235.238 273.2L235.253 273.213L235.268 273.226L235.92 272.468ZM231.348 268.21L230.64 268.916L230.653 268.929L230.666 268.942L231.348 268.21ZM230.858 267.719L231.566 267.013L231.566 267.013L230.858 267.719ZM230.368 267.227L229.608 267.877L229.633 267.906L229.66 267.933L230.368 267.227ZM229.389 266.081L230.149 265.431L230.143 265.424L230.137 265.418L229.389 266.081ZM225.307 261.495L224.506 262.094L224.531 262.127L224.558 262.159L225.307 261.495ZM218.122 251.178L218.994 250.687L218.98 250.662L218.964 250.638L218.122 251.178ZM197.713 202.702L198.653 202.362L198.652 202.359L197.713 202.702ZM169.792 154.389L170.509 153.692L170.5 153.683L169.792 154.389ZM74.6006 103.784L75.1679 102.96L75.1398 102.941L75.1105 102.924L74.6006 103.784ZM64.9672 96.578L64.259 97.284L64.3004 97.3255L64.3464 97.3619L64.9672 96.578ZM60.3954 92.3199L59.6872 93.026L59.708 93.0468L59.7299 93.0663L60.3954 92.3199ZM59.2525 91.1735L59.9606 90.4675L59.9606 90.4675L59.2525 91.1735ZM58.9259 90.846L59.6341 90.1399L59.6341 90.1399L58.9259 90.846ZM58.7626 90.6822L59.4708 89.9761L58.0545 91.3882L58.7626 90.6822ZM58.7626 90.6822L59.4708 89.9762L59.4708 89.9762L58.7626 90.6822ZM58.2728 90.1909L57.5126 90.8405L57.5375 90.8697L57.5646 90.8969L58.2728 90.1909ZM56.3134 87.8981L57.0737 87.2484L57.0617 87.2345L57.0493 87.2209L56.3134 87.8981ZM54.3541 85.7691L53.5939 86.4187L53.6058 86.4327L53.6183 86.4462L54.3541 85.7691ZM53.3744 84.6227L52.5599 85.2028L52.5855 85.2387L52.6142 85.2723L53.3744 84.6227ZM52.558 83.4763L51.738 84.0486L51.7435 84.0564L52.558 83.4763ZM49.1292 78.8907L48.3092 79.463L48.3236 79.4836L48.339 79.5035L49.1292 78.8907ZM46.0269 73.9776L45.1687 74.4909L45.1687 74.4909L46.0269 73.9776ZM44.5574 71.521L43.6745 71.9905L43.6863 72.0127L43.6992 72.0344L44.5574 71.521ZM43.2512 69.0644L44.1341 68.5949L44.1305 68.5882L43.2512 69.0644ZM27.0866 28.4492L26.1456 28.7876L26.1461 28.7891L27.0866 28.4492ZM15.004 0.771958L15.8812 0.291812L15.5966 -0.228042L15.004 -0.228042L15.004 0.771958ZM0.635477 0.771958L0.635477 -0.228042L-1.26983 -0.228043L-0.187517 1.34001L0.635477 0.771958ZM16.3102 32.5435L15.3756 32.8991L15.3765 32.9016L16.3102 32.5435ZM23.9843 52.6873L23.054 53.054L23.0576 53.0633L23.0615 53.0725L23.9843 52.6873ZM34.1076 74.1413L34.9919 73.6745L34.9827 73.657L34.9727 73.6398L34.1076 74.1413ZM35.5771 76.9254L34.6927 77.3922L34.7196 77.4432L34.7522 77.4908L35.5771 76.9254ZM37.3731 79.5458L38.2175 79.0101L38.208 78.9951L38.198 78.9804L37.3731 79.5458ZM44.884 89.8633L45.6848 89.2645L45.6755 89.252L45.6657 89.2398L44.884 89.8633ZM45.8636 91.1735L45.0628 91.7724L45.1053 91.8292L45.1555 91.8796L45.8636 91.1735ZM47.0066 92.3199L47.7387 91.6387L47.7269 91.6261L47.7148 91.6139L47.0066 92.3199ZM49.2925 94.7765L48.5604 95.4577L48.5604 95.4577L49.2925 94.7765ZM51.5784 97.233L52.3793 96.6342L52.3471 96.5912L52.3105 96.5518L51.5784 97.233ZM52.0682 97.8881L51.2673 98.487L51.3099 98.5439L51.36 98.5942L52.0682 97.8881ZM52.3948 98.2157L53.103 97.5097L53.1029 97.5096L52.3948 98.2157ZM52.558 98.3794L51.8498 99.0855L51.8499 99.0855L52.558 98.3794ZM52.8846 98.707L52.1764 99.413L52.2035 99.4402L52.2327 99.4653L52.8846 98.707ZM54.0276 99.6896L54.6976 98.9473L54.6887 98.9392L54.6795 98.9313L54.0276 99.6896ZM58.7626 103.948L58.0925 104.69L58.1204 104.715L58.15 104.738L58.7626 103.948ZM69.8656 111.809L70.4 110.963L70.372 110.946L70.343 110.93L69.8656 111.809ZM119.339 132.935L118.989 133.872L118.995 133.874L119.339 132.935ZM143.831 143.58L144.316 142.706L144.308 142.702L143.831 143.58ZM165.22 159.302L165.928 158.596L165.919 158.587L165.91 158.578L165.22 159.302ZM181.385 180.429L180.52 180.931L180.525 180.939L181.385 180.429ZM214.694 253.634L215.548 253.116L215.536 253.095L215.522 253.074L214.694 253.634ZM222.531 264.116L221.753 264.744L221.769 264.764L221.787 264.783L222.531 264.116ZM226.939 268.865L226.195 269.533L226.213 269.552L226.231 269.571L226.939 268.865ZM228.082 270.011L228.791 269.305L228.082 270.011ZM228.736 270.666L228.027 271.373L228.078 271.423L228.134 271.466L228.736 270.666ZM229.389 271.158L230.07 270.426L230.032 270.39L229.99 270.359L229.389 271.158ZM233.96 275.416L233.279 276.148L233.293 276.161L233.309 276.174L233.96 275.416ZM235.103 276.398L234.451 277.157L234.476 277.178L234.502 277.198L235.103 276.398ZM236.41 277.381L237.035 276.601L237.023 276.591L237.011 276.582L236.41 277.381ZM241.471 281.148L240.845 281.928L240.87 281.948L240.897 281.966L241.471 281.148ZM246.696 284.423L247.227 283.576L247.202 283.56L247.176 283.546L246.696 284.423ZM249.309 286.061L248.777 286.908L248.797 286.921L248.817 286.932L249.309 286.061ZM251.921 287.535L251.43 288.406L251.44 288.412L251.921 287.535ZM293.394 304.24L293.048 305.178L293.059 305.182L293.394 304.24ZM327.192 320.125L326.637 320.957L326.648 320.964L327.192 320.125ZM346.786 337.321L346.035 337.982L347.786 339.972L347.786 337.321L346.786 337.321ZM346.786 336.175L347.786 336.175L347.786 335.175L346.786 335.175L346.786 336.175ZM346.895 335.527C342.119 329.911 335.852 323.624 327.764 317.994L326.621 319.636C334.534 325.143 340.677 331.302 345.371 336.823L346.895 335.527ZM327.775 318.002C318.528 311.377 306.842 305.937 293.913 301.012L293.201 302.881C306.07 307.783 317.57 313.151 326.61 319.628L327.775 318.002ZM293.923 301.016C280.95 295.91 266.868 291.369 253.402 283.558L252.399 285.288C266.038 293.199 280.366 297.829 293.191 302.877L293.923 301.016ZM253.392 283.552L250.78 282.078L249.797 283.82L252.409 285.294L253.392 283.552ZM250.844 282.118L248.395 280.48L247.283 282.143L249.732 283.781L250.844 282.118ZM248.414 280.493C247.581 279.909 246.75 279.367 245.936 278.836C245.118 278.303 244.315 277.779 243.515 277.218L242.366 278.855C243.199 279.439 244.03 279.981 244.844 280.512C245.662 281.045 246.464 281.568 247.264 282.13L248.414 280.493ZM243.556 277.248C242.102 276.114 240.44 274.78 238.78 273.615L237.631 275.252C239.237 276.379 240.84 277.666 242.326 278.825L243.556 277.248ZM238.858 273.675L237.715 272.692L236.411 274.209L237.554 275.192L238.858 273.675ZM237.715 272.692L236.572 271.71L235.268 273.226L236.411 274.209L237.715 272.692ZM236.601 271.736L234.315 269.607L232.952 271.071L235.238 273.2L236.601 271.736ZM234.315 269.607L232.03 267.478L230.666 268.942L232.952 271.071L234.315 269.607ZM232.056 267.504L231.566 267.013L230.15 268.425L230.64 268.916L232.056 267.504ZM230.858 267.719C231.566 267.013 231.566 267.013 231.566 267.013C231.566 267.013 231.566 267.013 231.566 267.013C231.566 267.013 231.566 267.012 231.566 267.012C231.566 267.012 231.566 267.012 231.566 267.012C231.566 267.012 231.566 267.012 231.565 267.012C231.565 267.011 231.564 267.01 231.563 267.009C231.56 267.006 231.557 267.003 231.552 266.998C231.543 266.989 231.529 266.975 231.513 266.959C231.48 266.926 231.434 266.879 231.383 266.828C231.281 266.726 231.158 266.603 231.076 266.521L229.66 267.933C229.742 268.015 229.864 268.138 229.966 268.24C230.017 268.292 230.063 268.338 230.096 268.371C230.113 268.388 230.126 268.401 230.136 268.41C230.14 268.415 230.144 268.419 230.146 268.421C230.148 268.422 230.148 268.423 230.149 268.424C230.149 268.424 230.15 268.424 230.15 268.424C230.15 268.425 230.15 268.425 230.15 268.425C230.15 268.425 230.15 268.425 230.15 268.425C230.15 268.425 230.15 268.425 230.15 268.425C230.15 268.425 230.15 268.425 230.858 267.719ZM231.129 266.578L230.149 265.431L228.628 266.731L229.608 267.877L231.129 266.578ZM230.137 265.418C229.483 264.679 228.788 263.9 228.094 263.122C227.4 262.344 226.707 261.568 226.055 260.832L224.558 262.159C225.213 262.897 225.908 263.676 226.601 264.454C227.296 265.232 227.988 266.009 228.64 266.744L230.137 265.418ZM226.108 260.896C223.633 257.587 221.076 254.381 218.994 250.687L217.251 251.669C219.415 255.508 222.082 258.853 224.506 262.094L226.108 260.896ZM218.964 250.638C209.9 236.513 204.888 219.641 198.653 202.362L196.772 203.041C202.947 220.154 208.058 237.346 217.281 251.718L218.964 250.638ZM198.652 202.359C195.546 193.831 192.095 185.09 187.483 176.83L185.737 177.805C190.268 185.921 193.675 194.54 196.773 203.044L198.652 202.359ZM187.483 176.83C182.876 168.578 177.111 160.48 170.509 153.692L169.075 155.086C175.535 161.728 181.2 169.679 185.737 177.805L187.483 176.83ZM170.5 153.683C163.744 146.906 156 140.957 147.762 136.165L146.757 137.894C154.847 142.6 162.451 148.443 169.084 155.095L170.5 153.683ZM147.762 136.165C139.534 131.378 130.826 127.59 122.311 124.305L121.591 126.171C130.058 129.437 138.657 133.182 146.757 137.894L147.762 136.165ZM122.311 124.305C105.254 117.725 88.5948 112.209 75.1679 102.96L74.0334 104.607C87.7107 114.029 104.687 119.649 121.591 126.171L122.311 124.305ZM75.1105 102.924C71.5954 100.84 68.7479 98.2961 65.588 95.794L64.3464 97.3619C67.3912 99.7729 70.4216 102.469 74.0908 104.644L75.1105 102.924ZM65.6754 95.8719C64.1832 94.3753 62.5311 92.8843 61.0609 91.5735L59.7299 93.0663C61.1988 94.3759 62.8122 95.8328 64.259 97.284L65.6754 95.8719ZM61.1036 91.6139L59.9606 90.4675L58.5443 91.8796L59.6872 93.026L61.1036 91.6139ZM59.9606 90.4675L59.6341 90.1399L58.2177 91.552L58.5443 91.8796L59.9606 90.4675ZM59.6341 90.1399L59.4708 89.9761L58.0545 91.3883L58.2178 91.552L59.6341 90.1399ZM58.0545 91.3882C58.0847 91.4186 58.0542 91.388 58.0832 91.4171C58.0915 91.4254 58.1012 91.4351 58.1083 91.4422C58.1198 91.4538 58.1194 91.4534 58.1299 91.4639C58.1481 91.4822 58.131 91.4651 58.1482 91.4823C58.1904 91.5246 58.1375 91.4715 58.1757 91.5099C58.1843 91.5184 58.1871 91.5213 58.1922 91.5264C58.198 91.5322 58.1963 91.5305 58.1992 91.5334C58.1994 91.5336 58.1993 91.5335 58.1994 91.5336C58.1997 91.5339 58.1993 91.5336 58.1996 91.5338C58.1996 91.5338 58.1996 91.5338 58.1996 91.5338C58.1996 91.5338 58.1996 91.5338 58.1996 91.5338C58.1996 91.5338 59.6138 91.5359 59.6159 90.1217C59.6159 90.1217 59.6159 90.1217 59.6159 90.1217C59.6159 90.1217 59.6159 90.1217 59.6158 90.1216C59.6155 90.1213 59.6152 90.121 59.6143 90.1201C59.6081 90.1139 59.6178 90.1236 59.6111 90.1169C59.6063 90.1121 59.6117 90.1174 59.6064 90.1122C59.6053 90.1111 59.6019 90.1076 59.6004 90.1062C59.5982 90.1039 59.5958 90.1016 59.5933 90.099C59.5752 90.0809 59.6035 90.1092 59.5852 90.0909C59.5817 90.0874 59.5843 90.09 59.5808 90.0865C59.5789 90.0846 59.5782 90.0839 59.5763 90.082C59.5731 90.0788 59.5606 90.0662 59.5569 90.0625C59.5433 90.0489 59.5502 90.0558 59.5366 90.0421C59.5177 90.0232 59.5352 90.0407 59.5167 90.0222C59.5118 90.0173 59.4846 89.99 59.4842 89.9896C59.4802 89.9856 59.4766 89.982 59.4744 89.9798C59.4706 89.976 59.4749 89.9803 59.4717 89.9771C59.4697 89.9751 59.4733 89.9787 59.4713 89.9767C59.4712 89.9765 59.4711 89.9765 59.471 89.9764C59.4709 89.9763 59.471 89.9763 59.4709 89.9762C59.4708 89.9761 59.4709 89.9762 59.4708 89.9762C59.4708 89.9762 59.4708 89.9762 59.4708 89.9762C59.4708 89.9762 59.4708 89.9762 58.7626 90.6822C58.0545 91.3882 58.0545 91.3882 58.0545 91.3882C58.0545 91.3882 58.0545 91.3883 58.0545 91.3883C58.0545 91.3883 58.0545 91.3883 58.0545 91.3883C58.0545 91.3883 58.0545 91.3883 58.0545 91.3883C58.0546 91.3884 58.0545 91.3883 58.0546 91.3884C58.0546 91.3884 58.0546 91.3884 58.0547 91.3885C58.0587 91.3925 58.0512 91.385 58.0554 91.3892C58.0563 91.3901 58.0555 91.3892 58.0565 91.3903C58.0618 91.3956 58.0519 91.3857 58.0572 91.391C58.0579 91.3917 58.0573 91.3911 58.058 91.3918C58.0598 91.3936 58.06 91.3938 58.0623 91.3961C58.0651 91.3989 58.0646 91.3984 58.0679 91.4017C58.0771 91.4109 58.0867 91.4206 58.1004 91.4343C58.1288 91.4629 58.1536 91.4876 58.1769 91.5111C58.1853 91.5195 58.176 91.5101 58.1841 91.5182C58.1855 91.5197 58.1835 91.5176 58.1849 91.5191C58.185 91.5192 58.1851 91.5193 58.1853 91.5195C58.1854 91.5196 58.1855 91.5197 58.1857 91.5199C58.1869 91.5211 58.186 91.5202 58.1872 91.5214C58.198 91.5322 58.1794 91.5136 58.1901 91.5243C58.2142 91.5485 58.1758 91.51 58.198 91.5322C58.1987 91.533 58.1993 91.5335 58.1995 91.5337C58.1996 91.5338 58.1995 91.5337 58.1996 91.5338C58.1996 91.5338 58.1996 91.5338 58.1996 91.5338C58.1996 91.5338 58.1996 91.5338 58.1996 91.5338C58.2017 90.1196 59.6159 90.1217 59.6159 90.1217C59.6157 90.1215 59.6162 90.122 59.6159 90.1217C59.6159 90.1217 59.6157 90.1215 59.6155 90.1213C59.6136 90.1194 59.6157 90.1215 59.6131 90.1189C59.6129 90.1187 59.6095 90.1153 59.6086 90.1143C59.5807 90.0864 59.565 90.0706 59.4708 89.9762L58.0545 91.3882ZM59.4708 89.9762L58.981 89.4848L57.5646 90.8969L58.0545 91.3882L59.4708 89.9762ZM59.033 89.5412L57.0737 87.2484L55.5532 88.5478L57.5126 90.8405L59.033 89.5412ZM57.0493 87.2209L55.0899 85.0919L53.6183 86.4462L55.5776 88.5753L57.0493 87.2209ZM55.1143 85.1194L54.1347 83.973L52.6142 85.2723L53.5939 86.4187L55.1143 85.1194ZM54.189 84.0426L53.3726 82.8962L51.7435 84.0564L52.5599 85.2028L54.189 84.0426ZM53.3781 82.904C52.2186 81.2426 51.0606 79.7496 49.9195 78.2779L48.339 79.5035C49.4837 80.9797 50.6116 82.4346 51.738 84.0486L53.3781 82.904ZM49.9492 78.3184C48.8295 76.7139 47.8671 75.1059 46.8851 73.4642L45.1687 74.4909C46.146 76.1246 47.143 77.792 48.3092 79.463L49.9492 78.3184ZM46.8851 73.4642L45.4156 71.0076L43.6992 72.0344L45.1687 74.4909L46.8851 73.4642ZM45.4403 71.0515L44.1341 68.5949L42.3682 69.5339L43.6745 71.9905L45.4403 71.0515ZM44.1305 68.5882C36.9934 55.4099 32.7879 41.2823 28.0271 28.1094L26.1461 28.7891C30.8555 41.8196 35.1404 56.1881 42.3718 69.5407L44.1305 68.5882ZM28.0276 28.1109C24.4253 18.0926 20.4866 8.70551 15.8812 0.291812L14.1268 1.2521C18.665 9.54304 22.5636 18.8258 26.1456 28.7876L28.0276 28.1109ZM15.004 -0.228042L0.635477 -0.228042L0.635477 1.77196L15.004 1.77196L15.004 -0.228042ZM-0.187517 1.34001C5.62448 9.76044 10.6526 20.4842 15.3756 32.8991L17.2449 32.1879C12.4977 19.7096 7.40252 8.81565 1.45847 0.203906L-0.187517 1.34001ZM15.3765 32.9016C17.8163 39.2642 20.2777 46.0105 23.054 53.054L24.9146 52.3206C22.1395 45.2799 19.7025 38.597 17.2439 32.1855L15.3765 32.9016ZM23.0615 53.0725C25.998 60.1088 29.1232 67.5364 33.2424 74.6428L34.9727 73.6398C30.928 66.662 27.8486 59.3502 24.9072 52.3022L23.0615 53.0725ZM33.2232 74.6081L34.6927 77.3922L36.4615 76.4587L34.9919 73.6745L33.2232 74.6081ZM34.7522 77.4908L36.5483 80.1111L38.198 78.9804L36.4019 76.3601L34.7522 77.4908ZM36.5287 80.0815C37.6664 81.8747 38.8378 83.7228 40.1835 85.41L41.7471 84.1629C40.4803 82.5746 39.3657 80.8198 38.2175 79.0101L36.5287 80.0815ZM40.1835 85.41C40.828 86.218 41.4738 87.0682 42.1283 87.9298C42.7801 88.7878 43.4404 89.6572 44.1022 90.4869L45.6657 89.2398C45.0213 88.4318 44.3754 87.5816 43.7209 86.72C43.0692 85.862 42.4088 84.9926 41.7471 84.1629L40.1835 85.41ZM44.0831 90.4622L45.0628 91.7724L46.6645 90.5747L45.6848 89.2645L44.0831 90.4622ZM45.1555 91.8796L46.2984 93.0259L47.7148 91.6139L46.5718 90.4675L45.1555 91.8796ZM46.2745 93.0011L48.5604 95.4577L50.0246 94.0953L47.7387 91.6387L46.2745 93.0011ZM48.5604 95.4577L50.8463 97.9143L52.3105 96.5518L50.0245 94.0953L48.5604 95.4577ZM50.7775 97.8319L51.2673 98.487L52.8691 97.2893L52.3793 96.6342L50.7775 97.8319ZM51.36 98.5942C51.4417 98.6761 51.4417 98.6761 51.4622 98.6966C51.4825 98.717 51.5233 98.7579 51.6866 98.9217L53.1029 97.5096C52.9397 97.3459 52.8988 97.3049 52.8783 97.2844C52.8579 97.2639 52.858 97.2639 52.7764 97.1821L51.36 98.5942ZM51.6866 98.9217L51.8498 99.0855L53.2662 97.6734L53.103 97.5097L51.6866 98.9217ZM51.8499 99.0855L52.1764 99.413L53.5928 98.0009L53.2662 97.6734L51.8499 99.0855ZM52.2327 99.4653L53.3756 100.448L54.6795 98.9313L53.5365 97.9487L52.2327 99.4653ZM53.3575 100.432C54.1751 101.17 54.9517 101.867 55.7272 102.563C56.5029 103.259 57.2774 103.954 58.0925 104.69L59.4327 103.205C58.6151 102.467 57.8384 101.77 57.063 101.074C56.2873 100.378 55.5128 99.6832 54.6976 98.9473L53.3575 100.432ZM58.15 104.738C61.7057 107.494 65.3792 110.509 69.3882 112.687L70.343 110.93C66.5146 108.85 63.0038 105.97 59.3752 103.157L58.15 104.738ZM69.3311 112.654C76.9105 117.447 85.2984 121.404 93.6647 124.695L94.3968 122.833C86.1088 119.573 77.8423 115.669 70.4 110.963L69.3311 112.654ZM93.6647 124.695C101.976 127.964 110.747 130.792 118.989 133.872L119.689 131.998C111.277 128.855 102.74 126.115 94.3968 122.833L93.6647 124.695ZM118.995 133.874C127.47 136.98 135.58 140.236 143.353 144.459L144.308 142.702C136.406 138.408 128.188 135.113 119.683 131.996L118.995 133.874ZM143.346 144.455C150.946 148.672 158.062 153.862 164.53 160.026L165.91 158.578C159.316 152.295 152.063 147.004 144.316 142.706L143.346 144.455ZM164.512 160.008C170.816 166.332 175.99 173.141 180.52 180.931L182.249 179.926C177.636 171.994 172.36 165.047 165.928 158.596L164.512 160.008ZM180.525 180.939C185.051 188.56 188.455 196.844 191.72 205.195L193.582 204.466C190.316 196.112 186.862 187.692 182.245 179.918L180.525 180.939ZM191.72 205.195C198.217 221.814 203.824 239.334 213.865 254.194L215.522 253.074C205.643 238.455 200.147 221.256 193.582 204.466L191.72 205.195ZM213.839 254.153C216.168 257.992 218.999 261.332 221.753 264.744L223.309 263.488C220.511 260.021 217.791 256.81 215.548 253.116L213.839 254.153ZM221.787 264.783C222.531 265.613 223.275 266.4 224.008 267.177C224.744 267.956 225.47 268.725 226.195 269.533L227.684 268.197C226.939 267.367 226.196 266.58 225.462 265.804C224.726 265.024 224 264.256 223.275 263.448L221.787 264.783ZM226.231 269.571L227.374 270.717L228.791 269.305L227.648 268.159L226.231 269.571ZM227.374 270.717C227.456 270.799 227.538 270.881 227.64 270.984C227.742 271.086 227.864 271.209 228.027 271.373L229.444 269.96C229.28 269.797 229.158 269.674 229.056 269.571C228.954 269.469 228.872 269.387 228.791 269.305L227.374 270.717ZM228.134 271.466L228.787 271.957L229.99 270.359L229.337 269.867L228.134 271.466ZM228.707 271.89L230.993 274.019L232.356 272.555L230.07 270.426L228.707 271.89ZM230.993 274.019L233.279 276.148L234.642 274.684L232.356 272.555L230.993 274.019ZM233.309 276.174L234.451 277.157L235.755 275.64L234.612 274.658L233.309 276.174ZM234.502 277.198L235.808 278.18L237.011 276.582L235.705 275.599L234.502 277.198ZM235.784 278.161C236.625 278.836 237.505 279.466 238.358 280.077C239.219 280.694 240.054 281.293 240.845 281.928L242.097 280.368C241.256 279.693 240.376 279.063 239.523 278.452C238.662 277.835 237.827 277.236 237.035 276.601L235.784 278.161ZM240.897 281.966C242.553 283.129 244.381 284.297 246.216 285.301L247.176 283.546C245.419 282.585 243.655 281.459 242.046 280.329L240.897 281.966ZM246.165 285.271L248.777 286.908L249.84 285.214L247.227 283.576L246.165 285.271ZM248.817 286.932L251.43 288.406L252.412 286.664L249.8 285.19L248.817 286.932ZM251.44 288.412C265.569 296.157 280.229 300.458 293.048 305.178L293.739 303.301C280.76 298.522 266.357 294.308 252.402 286.658L251.44 288.412ZM293.059 305.182C305.927 309.756 317.43 314.801 326.637 320.957L327.748 319.294C318.341 313.003 306.659 307.894 293.729 303.297L293.059 305.182ZM326.648 320.964C334.876 326.304 341.176 332.459 346.035 337.982L347.537 336.661C342.599 331.047 336.163 324.755 327.737 319.286L326.648 320.964ZM347.786 337.321L347.786 336.175L345.786 336.175L345.786 337.321L347.786 337.321ZM346.786 335.175L346.133 335.175L346.133 337.175L346.786 337.175L346.786 335.175Z" fill="white" fill-opacity="0.015" mask="url(#path-1-inside-1)"/>
</svg>
