<svg width="1" height="1" viewBox="0 0 1 1" fill="none" xmlns="http://www.w3.org/2000/svg">
<mask id="path-1-inside-1" fill="white">
<path d="M0.46167 0.122114C0.297931 -0.0416805 0.297931 0.122114 0.46167 0.122114V0.122114Z"/>
</mask>
<path d="M1.1689 -0.584873C1.09039 -0.66341 0.939039 -0.801408 0.720795 -0.883277C0.629956 -0.917353 0.367086 -1.00401 0.0481739 -0.904317C-0.132572 -0.847815 -0.329078 -0.729537 -0.474264 -0.5253C-0.616969 -0.324553 -0.661134 -0.10983 -0.661134 0.060691C-0.661134 0.371022 -0.522672 0.588098 -0.44899 0.684839C-0.359339 0.802545 -0.25588 0.887403 -0.160561 0.946998C0.035826 1.06978 0.254325 1.12211 0.46167 1.12211L0.46167 -0.877886C0.587146 -0.877886 0.744242 -0.846028 0.899695 -0.748837C0.974546 -0.702039 1.06266 -0.631257 1.14207 -0.526987C1.20552 -0.443683 1.33887 -0.239403 1.33887 0.0606911C1.33887 0.226093 1.29598 0.436338 1.15583 0.633486C1.01321 0.834124 0.820537 0.949682 0.644908 1.00459C0.33623 1.10108 0.0887105 1.0157 0.0183389 0.989303C-0.082487 0.951481 -0.150302 0.905654 -0.18136 0.882999C-0.216634 0.85727 -0.237952 0.836708 -0.245557 0.829101L1.1689 -0.584873Z" fill="white" fill-opacity="0.015" mask="url(#path-1-inside-1)"/>
</svg>
