<svg width="166" height="162" viewBox="0 0 166 162" fill="none" xmlns="http://www.w3.org/2000/svg">
<path d="M2.29402 1.43505L2.52019 1.57116L3.74478 2.30813C4.12425 2.53649 4.54655 2.72965 5.00061 2.93667L5.01346 2.94252C5.44531 3.13941 5.90652 3.34968 6.33237 3.6034C8.13275 4.42576 9.92978 5.40859 11.7079 6.38141C12.8009 6.85822 13.8895 7.34672 14.9793 7.83577C17.6493 9.03392 20.3265 10.2353 23.0931 11.2759L23.0984 11.2779C31.0852 14.3842 39.401 17.1647 47.8912 19.9487L47.8995 19.9514L47.8994 19.9515C56.3993 22.9026 64.916 26.1873 73.1115 30.4618L73.1137 30.463L76.216 32.1007L76.2302 32.1082L76.2439 32.1166L79.1741 33.9128L79.1829 33.918L79.184 33.9185C81.1374 35.0615 83.1177 36.2201 85.1002 37.7115L85.104 37.7143L87.8668 39.8335L87.8734 39.8379C88.8337 40.48 89.8417 41.154 90.69 42.0009L95.899 46.4093L95.9182 46.4255L95.9357 46.4436L100.992 51.6786C100.993 51.6795 100.994 51.6804 100.995 51.6814C101.829 52.5191 102.658 53.517 103.313 54.3383C103.313 54.3389 103.314 54.3395 103.314 54.3402L105.434 56.9562C105.434 56.9564 105.434 56.9566 105.434 56.9568C106.919 58.7771 108.236 60.7591 109.538 62.7171L109.545 62.7275L111.504 65.6754L111.513 65.6885L111.521 65.7022L113.314 68.8097C113.315 68.8103 113.315 68.8109 113.315 68.8115C118.071 76.8709 121.674 85.4168 125.103 93.934L125.105 93.9387C125.824 95.7781 126.535 97.616 127.243 99.4459C129.753 105.936 132.223 112.326 134.893 118.319L134.898 118.331L134.898 118.331C136.522 122.24 138.309 125.826 140.105 129.428C141.077 131.216 142.05 132.843 143.029 134.479L143.764 135.708L144.499 136.936C144.737 137.334 144.975 137.693 145.221 138.062L145.223 138.066C145.465 138.429 145.713 138.803 145.962 139.218L147.425 141.419L148.895 143.63C149.853 145.073 150.974 146.359 152.121 147.673L152.133 147.687L152.144 147.702C154.079 150.289 156.34 152.558 158.466 154.691L158.471 154.696L158.477 154.702C158.656 154.894 158.837 155.084 159.018 155.273C158.807 155.035 158.597 154.795 158.386 154.552L158.385 154.549C157.9 153.983 157.401 153.421 156.896 152.852C155.392 151.161 153.837 149.411 152.476 147.304C151.501 146 150.516 144.683 149.531 143.201L149.52 143.184L149.51 143.167C149.012 142.267 148.461 141.381 147.879 140.446C147.51 139.854 147.13 139.243 146.743 138.596C146.505 138.198 146.267 137.839 146.021 137.469L146.018 137.465C145.775 137.099 145.524 136.722 145.273 136.303C145.019 135.877 144.807 135.453 144.605 135.048L144.602 135.041C144.397 134.629 144.201 134.237 143.967 133.846L143.957 133.83L143.949 133.813C143.643 133.199 143.302 132.564 142.951 131.912C142.401 130.887 141.827 129.819 141.328 128.719L141.325 128.713C139.695 125.114 138.056 121.499 136.581 117.553C136.581 117.552 136.581 117.552 136.58 117.551L137.049 117.376C134.463 110.605 132.004 103.327 129.449 95.7654C129.1 94.731 128.749 93.6913 128.395 92.6468C125.456 83.9669 122.027 75.1233 117.455 66.4434L2.29402 1.43505ZM2.29402 1.43505L24.2891 1.43505C24.6609 1.58737 25.0673 1.77255 25.4854 1.9632L25.4921 1.96624C25.9339 2.16768 26.3889 2.37513 26.806 2.54271C33.6973 5.54775 41.1364 8.41476 48.8599 11.3914C49.5657 11.6634 50.2739 11.9364 50.9843 12.2104C59.4575 15.4792 68.248 19.3984 76.7083 24.2937C76.7095 24.2944 76.7107 24.2951 76.7119 24.2958L79.9652 26.2537L83.0457 28.2052C83.8051 28.7759 84.5904 29.3236 85.3726 29.8693C85.6034 30.0302 85.834 30.191 86.0635 30.3522C87.0815 31.067 88.0879 31.7941 89.0508 32.5989L89.0572 32.6043L89.0639 32.6095L91.9963 34.8972C92.9779 35.7176 93.9365 36.5197 94.7321 37.3177L100.109 42.7107L104.833 48.103L104.844 48.1152L104.855 48.1266C105.232 48.5046 105.579 48.9664 105.946 49.4776C106.008 49.5631 106.07 49.65 106.132 49.738C106.435 50.1622 106.754 50.6105 107.101 51.0293L109.378 54.1291L109.387 54.1411L109.397 54.1526C110.647 55.6577 111.599 57.2526 112.587 58.907C112.865 59.3728 113.146 59.8433 113.437 60.3178L113.437 60.3179L113.44 60.3228L115.386 63.4134L2.29402 1.43505Z" stroke="white" stroke-opacity="0.015"/>
</svg>
