<svg width="195" height="183" viewBox="0 0 195 183" fill="none" xmlns="http://www.w3.org/2000/svg">
<path d="M183.193 173.746C184.027 174.473 184.853 175.177 185.67 175.854C184.797 175.2 183.914 174.517 183.023 173.802C181.888 172.826 180.591 171.687 179.29 170.546C178.836 170.091 178.33 169.635 177.825 169.179C177.685 169.053 177.545 168.927 177.407 168.801C176.756 168.209 176.121 167.611 175.57 166.98L175.559 166.967L175.547 166.955C174.9 166.306 174.252 165.616 173.598 164.919L173.595 164.916C172.944 164.222 172.287 163.521 171.628 162.861L170.662 161.892L169.705 160.772C169.212 160.113 168.559 159.295 167.913 158.485L167.91 158.48L167.901 158.47L167.893 158.461C165.991 156.315 164.359 153.827 162.643 151.211C162.031 150.278 161.408 149.328 160.758 148.372C160.192 147.398 159.665 146.464 159.137 145.527L159.137 145.526C158.606 144.585 158.074 143.641 157.501 142.655C156.651 141.193 155.895 139.645 155.152 138.124C154.906 137.621 154.662 137.122 154.417 136.629C150.967 129.276 147.898 121.415 144.754 113.362C144.335 112.289 143.915 111.212 143.492 110.134C139.902 100.966 136.135 91.4372 131.218 82.5602C128.758 78.1176 125.971 73.843 123.023 69.7368L123.013 69.7224L123.002 69.7088C122.356 68.9313 121.762 68.1552 121.162 67.37C121.011 67.1725 120.86 66.9745 120.707 66.7758C119.95 65.7904 119.164 64.7941 118.251 63.7953L118.246 63.79L118.241 63.7849L112.853 58.2167L112.847 58.2099L112.84 58.2034C105.451 51.1222 96.9176 45.3618 87.8964 40.9198C79.2633 36.669 70.1823 33.4755 61.259 30.3374C60.867 30.1995 60.4754 30.0618 60.0842 29.9241L60.0767 29.9216C50.7703 26.8101 41.6481 23.7053 33.0187 19.9496C32.2817 19.6085 31.5419 19.2933 30.8107 18.9818C29.3781 18.3715 27.9786 17.7753 26.6985 17.0263L26.6779 17.0142L26.6561 17.0041C25.3777 16.4123 24.1828 15.7733 22.9961 15.1386C22.2191 14.7231 21.4456 14.3094 20.6545 13.9121C19.4127 13.1005 18.1844 12.3494 16.9748 11.6099C14.4815 10.0853 12.0679 8.60964 9.78026 6.75213L9.76227 6.73752L9.74301 6.72465C8.78383 6.08326 7.98325 5.4412 7.16554 4.78506L7.15945 4.78017L7.1532 4.77547L5.86005 3.80268L4.72942 2.83064C4.15916 2.34038 3.54793 1.80906 2.93541 1.2766C2.67424 1.04957 2.41283 0.822325 2.15443 0.598136L18.9421 0.598137C19.7671 1.16927 20.6071 1.73502 21.4584 2.30836C22.7836 3.20089 24.1362 4.11183 25.5017 5.09018L25.5264 5.10782L25.5529 5.12237C26.4421 5.60884 27.3327 6.13662 28.2321 6.66967L28.2355 6.67172C29.1262 7.19962 30.0256 7.73265 30.9263 8.22591C32.2292 9.05585 33.6295 9.7245 35.0215 10.3892C35.5751 10.6535 36.1274 10.9172 36.6717 11.1902L36.6716 11.1903L36.6829 11.1956C44.701 14.9706 53.3694 18.4153 62.6766 22.0184C71.986 25.6223 81.5892 29.378 91.0255 34.6L91.0282 34.6014C100.295 39.6563 109.229 46.1746 116.696 54.1521L122.075 60.2006C123.047 61.3713 124.002 62.6938 124.968 64.032C125.619 64.9341 126.276 65.8432 126.946 66.7178C130.037 71.2864 132.795 75.8463 135.065 80.5628L135.069 80.569C139.761 89.9823 143.168 99.7225 146.419 109.015L146.47 109.161C146.471 109.163 146.471 109.164 146.472 109.166C149.574 118.665 152.682 127.69 156.284 135.901L156.288 135.909C156.631 136.655 156.957 137.387 157.279 138.11C157.864 139.426 158.436 140.709 159.071 141.983L159.073 141.988C160.051 143.95 161.034 145.922 162.018 147.731L162.026 147.746L162.035 147.76C162.692 148.796 163.327 149.84 163.957 150.877C165.495 153.407 167.007 155.893 168.759 158.119L168.777 158.142L168.797 158.163C169.424 158.791 170.051 159.578 170.518 160.359L170.529 160.376L170.54 160.392L171.357 161.539L171.381 161.572L171.41 161.602L172.378 162.573C172.946 163.224 173.554 163.915 174.161 164.605L174.164 164.609L174.165 164.61C174.777 165.306 175.389 166.001 175.959 166.654C177.113 167.977 178.429 169.297 179.569 170.44L179.574 170.445C180.731 171.606 182.049 172.763 183.193 173.746Z" stroke="white" stroke-opacity="0.015"/>
</svg>
