<svg width="407" height="429" viewBox="0 0 407 429" fill="none" xmlns="http://www.w3.org/2000/svg">
<path d="M373.838 373.305L373.829 373.296C372.667 372.13 371.504 371.095 370.21 369.943C370.069 369.817 369.926 369.69 369.781 369.561L365.385 366.132L365.38 366.127C364.975 365.803 364.611 365.518 364.244 365.232L364.242 365.231C363.883 364.95 363.521 364.668 363.12 364.347C362.707 364.096 362.297 363.808 361.903 363.532L361.895 363.526C361.484 363.238 361.09 362.962 360.7 362.727C359.711 362.131 358.708 361.468 357.68 360.786C357.01 360.343 356.329 359.892 355.633 359.448C348.808 355.374 341.325 351.947 333.338 348.677C329.477 347.096 325.539 345.63 321.552 344.145L321.147 343.995C317.027 342.46 312.857 340.902 308.686 339.179C300.341 335.897 291.824 331.954 283.792 327.022L283.784 327.017L283.776 327.012L280.837 325.047L277.898 323.081L277.877 323.068L277.858 323.052C276.073 321.587 274.122 320.119 272.33 318.812L272.318 318.803L272.307 318.794C271.097 317.801 269.877 316.651 268.671 315.516C268.076 314.955 267.484 314.398 266.899 313.864L266.89 313.856L266.882 313.847L265.576 312.537L265.563 312.524C265.248 312.209 264.743 311.702 264.39 311.18L261.963 308.421L373.838 373.305ZM373.838 373.305L373.847 373.313M373.838 373.305L373.847 373.313M373.847 373.313C379.196 378.19 383.416 383.561 387.16 388.948C391.505 395.34 394.761 401.619 397.373 407.481C394.656 401.728 391.29 395.573 386.838 389.36C379.447 378.817 368.616 368.615 355.004 360.719L354.998 360.716C348.275 356.933 340.74 353.648 332.73 350.533M373.847 373.313L259.438 311.025L262.039 313.797L262.041 313.799C262.042 313.8 262.043 313.801 262.045 313.803C262.528 314.288 262.872 314.633 263.37 315.295L264.643 316.572C266.434 318.205 268.217 319.831 270.159 321.455C272.113 322.924 274.058 324.388 276.164 325.85C277.226 326.506 278.246 327.161 279.262 327.813C280.282 328.468 281.297 329.119 282.353 329.771C290.644 334.663 299.267 338.416 307.898 341.52L307.909 341.524C311.948 343.082 315.987 344.492 319.964 345.88L320.548 346.084C324.71 347.537 328.801 348.973 332.73 350.533M209.556 205.252L209.552 205.247L204.171 199.196C196.541 191.381 187.607 185.027 178.016 179.972L178.013 179.971C168.575 174.911 158.48 170.991 148.848 167.388C139.052 163.785 129.559 160.174 120.714 155.739L120.708 155.735C116.303 153.445 112.035 151.141 108.09 148.339C106.557 147.392 105.181 146.353 103.875 145.366C103.36 144.977 102.856 144.596 102.357 144.232L102.347 144.225L99.5713 142.096L99.5573 142.085L99.5442 142.073L96.7685 139.617L96.7634 139.612C89.7069 133.193 83.7951 125.947 79.1956 117.874C74.6048 109.98 71.0017 101.599 67.8941 93.2329C66.537 89.5792 65.2486 85.9125 63.9699 82.2737C62.3117 77.5547 60.6699 72.8825 58.9162 68.346L58.9149 68.3428C55.8179 60.168 52.3993 52.3325 48.3344 45.1567L48.3301 45.1491C47.3611 43.367 46.2285 41.5814 45.0938 39.9557L45.0838 39.9413L45.0747 39.9262C44.8339 39.5235 44.5519 39.079 44.2653 38.6272L44.2623 38.6226C43.985 38.1856 43.7036 37.7418 43.4594 37.335C42.8251 36.5396 42.1662 35.7127 41.6635 34.8785C41.0132 34.0622 40.4036 33.2469 39.7991 32.4385L39.7969 32.4355C39.1893 31.6229 38.5869 30.8174 37.9458 30.0128C37.0416 29.1035 36.2043 28.1063 35.4078 27.1575C35.0487 26.7298 34.6979 26.312 34.353 25.9165C29.1609 20.058 23.6408 15.4966 18.1061 11.4145C12.1839 7.19419 6.41367 3.87458 0.938995 1.31107L0.938995 14.4684C4.46075 16.2509 7.98028 18.3453 11.4976 20.7507L11.5027 20.7542C16.4182 24.2055 21.5065 28.32 26.1071 33.2628C27.2899 34.4497 28.3405 35.6368 29.4846 36.9297C29.614 37.0759 29.7446 37.2236 29.8768 37.3727L29.8906 37.3882L29.903 37.4049C30.2361 37.8503 30.5991 38.3086 30.9726 38.7804C31.6569 39.6444 32.3766 40.5533 33.0135 41.5101C33.1753 41.7257 33.3517 41.9368 33.543 42.1657C33.6283 42.2677 33.7165 42.3733 33.8077 42.4844C34.0983 42.8383 34.4026 43.2294 34.6667 43.6709C34.9047 44.0686 35.1432 44.4276 35.3888 44.7972L35.3917 44.8016C35.633 45.1646 35.8812 45.538 36.13 45.9532C36.2641 46.155 36.402 46.3609 36.5423 46.5703C37.4105 47.8662 38.3691 49.2971 39.0851 50.7295C43.0186 57.308 46.2925 64.5354 49.3965 72.2368C50.9158 76.0064 52.3956 79.971 53.9099 84.0283L54.0138 84.3065C55.5652 88.4629 57.155 92.7151 58.8667 96.9664C62.2917 105.473 66.1981 114.287 71.4015 122.767L71.4051 122.773C76.4372 131.24 83.2595 139.225 90.898 145.908L90.9001 145.91L93.6609 148.353L96.9106 150.798L96.9155 150.802C99.043 152.443 101.139 154.059 103.39 155.349L103.405 155.358L103.419 155.367C107.802 158.298 112.351 160.743 117.074 163.03C126.124 167.412 135.625 170.745 145.032 174.046C145.438 174.188 145.844 174.33 146.249 174.473C156.05 177.913 165.708 181.525 174.881 186.125C184.07 190.733 192.438 196.658 199.821 203.735L199.834 203.746L199.845 203.759L205.07 209.491L205.078 209.499L205.085 209.508C205.905 210.495 206.684 211.482 207.459 212.463L207.46 212.466C208.237 213.449 209.008 214.427 209.82 215.404L209.831 215.417L209.842 215.432C212.793 219.543 215.579 223.981 218.037 228.419L218.039 228.422C222.956 237.465 226.722 247.322 230.314 256.983C230.47 257.404 230.627 257.826 230.784 258.248C234.223 267.505 237.696 276.855 242.21 285.755L242.214 285.761C246.765 295.054 252.615 303.692 259.437 311.023L209.556 205.252ZM209.556 205.252C210.769 206.579 211.896 208.119 213.018 209.653C213.538 210.365 214.057 211.074 214.584 211.761C217.668 216.158 220.43 220.884 222.87 225.615L209.556 205.252ZM332.73 350.533C332.73 350.532 332.729 350.532 332.729 350.532L332.547 350.998L332.732 350.533C332.731 350.533 332.731 350.533 332.73 350.533ZM245.884 283.573C250.147 292.784 255.561 301.176 261.962 308.42L245.884 283.573Z" stroke="white" stroke-opacity="0.015"/>
</svg>
