<svg width="396" height="411" viewBox="0 0 396 411" fill="none" xmlns="http://www.w3.org/2000/svg">
<path d="M2.08325 1.43504L19.2217 1.43504L19.2291 1.44248L19.2352 1.4486L19.2413 1.45472L19.2659 1.47934L19.3155 1.52911L19.3405 1.55425L19.3658 1.57954L19.3721 1.58589L19.3753 1.58906L19.3784 1.59224L19.3911 1.60498L19.4039 1.61776L19.4102 1.62416L19.4135 1.62736L19.4167 1.63057L19.4294 1.64341L19.4326 1.64663L19.4359 1.64985L19.4391 1.65307L19.4423 1.65629L19.468 1.68214L19.5723 1.78665L19.6779 1.89261L19.7045 1.91927L19.7311 1.94598L19.7344 1.94932L19.7378 1.95266L19.7444 1.95935L19.7578 1.97273L19.7611 1.97608L19.7645 1.97942L19.7678 1.98277L19.7711 1.98612L19.7845 1.99952L19.8916 2.10692L19.905 2.12035L19.9183 2.13378L19.9451 2.16064L19.9585 2.17407L19.9652 2.18078L19.9685 2.18413L19.9719 2.18749L19.9753 2.19084L19.9786 2.1942L19.9853 2.2009L19.9986 2.21431L20.1052 2.32123L20.1317 2.34782L20.1384 2.35446L20.1417 2.35778L20.145 2.3611L20.1582 2.37435L20.1846 2.40081L20.1912 2.40741L20.1944 2.41071L20.1977 2.41401L20.2109 2.42718L20.2632 2.47965L20.3151 2.5317L20.3408 2.55755L20.3473 2.56399L20.3537 2.57042L20.3601 2.57685L20.3665 2.58327L20.392 2.60885L20.4047 2.62159L20.4174 2.63429L20.4676 2.68472L20.4925 2.70969L20.4956 2.7128L20.4987 2.71591L20.5018 2.71901L20.5049 2.72212L20.5111 2.72831L20.5172 2.73449L20.5295 2.74682L20.5418 2.75911L20.562 2.77941L20.562 3.22783L20.562 3.43451L20.708 3.58087L20.8712 3.74462L21.1978 4.07217L21.6743 4.55007L22.6413 5.68169L22.6537 5.69628L22.6673 5.70988C23.4863 6.53137 24.1199 7.16757 24.7531 7.96142L24.7704 7.98306L24.7899 8.00267C25.6089 8.82417 26.2426 9.46037 26.8757 10.2542L26.893 10.2759L26.9125 10.2955C27.4581 10.8427 27.9142 11.4492 28.3713 12.057C28.5771 12.3307 28.783 12.6045 28.9975 12.8734M2.08325 1.43504L257.169 299.771L257.163 299.766C257.526 300.07 257.875 300.382 258.224 300.694C258.862 301.265 259.501 301.837 260.23 302.358L260.237 302.363L260.244 302.369C262.366 304.006 264.469 305.628 266.73 307.087C267.878 307.745 268.983 308.443 270.079 309.135L270.084 309.138C271.183 309.833 272.273 310.521 273.401 311.168C274.546 311.742 275.691 312.357 276.828 312.969L276.83 312.969C277.974 313.584 279.11 314.195 280.246 314.764C288.67 318.989 297.374 322.099 305.874 325.135C306.567 325.383 307.258 325.63 307.948 325.877C308.408 326.042 308.868 326.207 309.327 326.371C317.974 329.466 326.338 332.46 334.113 336.048C342.294 339.822 350.009 344.1 356.423 349.378C356.687 349.59 356.944 349.779 357.211 349.975C357.349 350.076 357.489 350.179 357.635 350.289C358.045 350.597 358.468 350.935 358.893 351.36C359.721 352.026 360.386 352.693 361.188 353.498M2.08325 1.43504C8.82767 6.20755 15.2676 12.034 21.128 19.4589L21.1306 19.4623C21.5209 19.9656 21.9397 20.4798 22.3686 21.0064C23.1626 21.9813 23.9913 22.9987 24.7376 24.0681C25.3125 24.8919 25.8868 25.7559 26.4572 26.6142L26.4584 26.616C27.0305 27.4767 27.5988 28.3316 28.1665 29.145L28.1775 29.1608L28.1873 29.1774L28.1934 29.1878C30.3112 32.7826 32.4455 36.4053 34.253 40.5245C38.0167 48.5676 41.2873 57.0977 44.5537 66.271C44.9384 67.2817 45.323 68.298 45.7094 69.3193C48.7706 77.4099 51.9505 85.8142 56.2848 94.219L56.2863 94.222C61.0017 103.518 67.1775 112.645 74.8099 120.464C74.8106 120.465 74.8112 120.465 74.8119 120.466L76.2777 121.936L76.6043 122.264L76.9308 122.591L77.0745 122.735L77.8693 123.373L77.8795 123.381L77.8891 123.39L80.8161 126C80.8181 126.002 80.8202 126.003 80.8223 126.005C81.3188 126.42 81.8134 126.875 82.2978 127.321L82.3033 127.326C82.792 127.775 83.2704 128.215 83.7468 128.613L87.1669 131.227L90.5789 133.834L94.1533 136.116L97.7273 138.397L101.464 140.352L101.465 140.353C111.391 145.576 121.812 149.497 132.261 153.263C133.725 153.791 135.187 154.312 136.646 154.833C145.582 158.021 154.396 161.167 162.846 165.404C172.688 170.176 181.712 176.429 189.426 184.002L189.435 184.011L189.444 184.021L194.996 190.08L195.011 190.096L195.024 190.114C196.658 192.244 198.285 194.365 199.91 196.322L199.93 196.345L199.946 196.371L202.151 199.811L204.355 203.25L204.365 203.265L204.373 203.281L208.292 210.487L208.296 210.493C213.192 219.84 216.868 229.946 220.487 239.896C220.623 240.268 220.758 240.641 220.894 241.013C224.813 251.331 228.883 261.779 234.251 271.405C239.616 281.026 246.278 289.825 254.233 297.154C254.234 297.155 254.235 297.156 254.236 297.156L257.157 299.761L2.08325 1.43504ZM28.9975 12.8734C28.9973 12.8732 28.9972 12.8731 28.997 12.8729L29.3893 12.5628L28.9984 12.8745C28.9981 12.8742 28.9977 12.8738 28.9975 12.8734ZM28.9975 12.8734C40.2041 27.0463 46.8751 44.9827 53.2458 63.1695L53.2477 63.1746C53.4157 63.638 53.5837 64.102 53.7519 64.5663C56.8506 73.1217 60.0044 81.8289 64.0434 90.2428L64.045 90.2461C68.3068 98.9598 73.7199 107.353 80.6147 114.764L80.611 114.76L80.9853 114.428M80.9853 114.428L80.6192 114.769L81.9173 116.234L81.927 116.245L81.9374 116.255L82.2639 116.583L82.4272 116.747L83.0803 117.402L83.0854 117.407L83.0906 117.412L86.0296 120.196L86.0409 120.206L86.0528 120.216C86.5319 120.617 87.013 121.059 87.5045 121.511L87.5091 121.515C87.9958 121.963 88.4929 122.42 88.9918 122.837L88.9983 122.842L89.0049 122.847L91.9439 125.14L94.8829 127.433L94.8997 127.446L94.9174 127.457L98.183 129.586L101.449 131.716L101.461 131.723L101.473 131.73L104.902 133.696L104.908 133.699C114.086 138.795 124.077 142.737 134.362 146.667L134.369 146.669C144.657 150.437 155.242 154.357 165.497 159.582M80.9853 114.428L82.2915 115.902L82.618 116.23L82.7813 116.394L83.4344 117.049L86.3734 119.833C86.8633 120.242 87.3532 120.693 87.843 121.143C88.3328 121.593 88.8227 122.044 89.3124 122.453L92.2515 124.746L95.1905 127.039L98.456 129.168L101.722 131.297L105.15 133.262C114.294 138.339 124.254 142.269 134.541 146.2C144.827 149.967 155.44 153.897 165.727 159.138M80.9853 114.428C74.1276 107.059 68.7394 98.7063 64.4941 90.0264C60.4664 81.6359 57.3205 72.9506 54.2198 64.39C54.0524 63.9277 53.8851 63.4657 53.7177 63.0042L165.727 159.138M165.497 159.582C175.578 164.801 185.163 171.483 193.282 179.787M165.497 159.582C165.498 159.582 165.499 159.583 165.5 159.583L165.727 159.138M165.497 159.582C165.497 159.582 165.497 159.582 165.497 159.582L165.727 159.138M193.282 179.787L198.979 186.154M193.282 179.787C193.285 179.789 193.287 179.792 193.29 179.795L193.647 179.445M193.282 179.787L193.275 179.779L193.647 179.445M198.979 186.154C199.87 187.292 200.762 188.472 201.657 189.655L201.658 189.655C202.549 190.833 203.443 192.016 204.337 193.158M198.979 186.154L198.99 186.166L199.362 185.832M198.979 186.154C198.975 186.149 198.972 186.145 198.969 186.141L199.362 185.832M204.337 193.158C205.07 194.382 205.842 195.605 206.611 196.822L206.613 196.826C207.388 198.052 208.158 199.272 208.887 200.492M204.337 193.158C204.344 193.166 204.35 193.175 204.357 193.183L204.75 192.875M204.337 193.158C204.332 193.149 204.327 193.14 204.321 193.131L204.75 192.875M208.887 200.492L212.959 208.007M208.887 200.492C208.889 200.495 208.891 200.498 208.893 200.501L209.322 200.244L208.883 200.482L208.887 200.492ZM212.959 208.007C218.004 218.29 221.749 228.905 225.34 239.384C228.933 249.867 232.699 260.053 237.781 269.426M212.959 208.007L212.964 208.016L213.404 207.778M212.959 208.007C212.958 208.004 212.957 208.001 212.955 207.998L213.404 207.778M237.781 269.426C242.703 278.971 249.103 287.53 256.49 294.61L256.497 294.616L256.503 294.622L259.442 297.242L259.448 297.248L259.455 297.253C259.775 297.521 260.091 297.803 260.414 298.091C260.579 298.237 260.745 298.386 260.915 298.535C261.407 298.966 261.915 299.393 262.433 299.739M237.781 269.426C237.781 269.427 237.782 269.429 237.783 269.43L238.222 269.192M237.781 269.426C237.78 269.424 237.779 269.423 237.778 269.421L238.222 269.192M262.433 299.739C263.477 300.464 264.444 301.231 265.424 302.01L265.431 302.015C266.406 302.79 267.396 303.576 268.47 304.322L268.481 304.33L268.493 304.337C269.547 304.987 270.603 305.68 271.665 306.376L271.669 306.379C272.728 307.074 273.794 307.772 274.861 308.431L274.873 308.439L274.886 308.445C275.944 309.017 277.043 309.629 278.146 310.244L278.156 310.25C279.254 310.861 280.356 311.475 281.417 312.048L281.424 312.052C289.514 316.26 298.014 319.504 306.267 322.655C307.041 322.951 307.812 323.245 308.58 323.539L308.587 323.542C317.565 326.817 326.526 330.249 334.666 334.168L334.67 334.17C342.97 338.087 350.606 342.652 357.097 348.023L357.105 348.029C370.418 358.614 379.193 371.811 385.213 384.051M262.433 299.739C262.434 299.74 262.435 299.74 262.436 299.741L262.714 299.326M262.433 299.739C262.431 299.738 262.43 299.737 262.429 299.736L262.714 299.326M385.213 384.051C389.067 392.09 391.899 399.545 394.265 406.421M385.213 384.051C385.214 384.051 385.214 384.052 385.214 384.052L385.663 383.831M385.213 384.051C385.213 384.049 385.212 384.048 385.212 384.047L385.663 383.831M394.265 406.421C391.774 399.77 388.837 392.379 384.966 384.751L384.965 384.75C381.851 378.668 378.08 372.417 373.321 366.328M394.265 406.421C394.389 406.782 394.512 407.14 394.633 407.497L193.647 179.445M394.265 406.421C394.389 406.752 394.511 407.08 394.633 407.407L394.633 406.914L394.963 406.914C392.548 399.845 389.651 392.151 385.663 383.831M373.321 366.328L373.318 366.323C372.177 364.853 371.026 363.368 369.709 361.882L369.699 361.871L369.689 361.861C368.381 360.549 366.922 359.085 365.627 357.624C364.612 356.478 363.396 355.423 362.237 354.416C361.88 354.106 361.528 353.8 361.188 353.498M373.321 366.328L372.927 366.635M373.321 366.328L373.322 366.329L372.927 366.635M361.188 353.498C361.185 353.495 361.181 353.491 361.177 353.488L360.844 353.861L361.199 353.508L361.189 353.498C361.189 353.498 361.189 353.498 361.188 353.498ZM372.927 366.635C377.662 372.695 381.418 378.918 384.52 384.978C388.82 393.45 391.965 401.633 394.633 408.844L372.927 366.635ZM385.663 383.831C379.622 371.549 370.805 358.283 357.416 347.638C350.885 342.234 343.21 337.648 334.883 333.717C326.719 329.787 317.739 326.348 308.759 323.072C307.991 322.778 307.22 322.484 306.448 322.189C298.19 319.036 289.717 315.802 281.654 311.608C280.593 311.035 279.491 310.421 278.389 309.807C277.287 309.193 276.185 308.579 275.123 308.005C274.062 307.35 273.001 306.654 271.94 305.958C270.878 305.262 269.817 304.566 268.755 303.911C267.694 303.174 266.715 302.396 265.735 301.618C264.755 300.84 263.775 300.063 262.714 299.326M262.714 299.326C262.061 298.889 261.408 298.307 260.755 297.724C260.428 297.433 260.102 297.142 259.775 296.869L256.836 294.249C249.489 287.207 243.121 278.69 238.222 269.192M238.222 269.192C233.161 259.857 229.405 249.703 225.813 239.222C222.221 228.74 218.466 218.095 213.404 207.778M213.404 207.778L209.322 200.244C208.587 199.016 207.812 197.788 207.036 196.559C206.261 195.331 205.485 194.103 204.75 192.875M204.75 192.875C203.852 191.728 202.954 190.541 202.056 189.353C201.158 188.166 200.26 186.979 199.362 185.832M199.362 185.832L193.647 179.445" stroke="white" stroke-opacity="0.015"/>
</svg>
