<svg width="442" height="464" viewBox="0 0 442 464" fill="none" xmlns="http://www.w3.org/2000/svg">
<mask id="path-1-inside-1" fill="white">
<path d="M441.475 463.626C440.005 460.35 438.536 456.747 437.066 452.489C433.474 443.154 430.045 431.527 424.494 418.589C421.718 412.202 418.289 405.487 413.881 398.936C409.472 392.385 404.084 385.998 397.553 380.266C391.022 374.534 383.511 369.457 375.184 365.199C366.856 360.941 357.876 357.502 348.732 354.063C339.589 350.624 330.119 347.185 320.975 342.599C319.832 342.108 318.689 341.453 317.546 340.961L314.281 339.16C313.138 338.505 311.995 337.85 310.852 337.195L307.586 335.066L304.321 332.937L301.218 330.644L298.116 328.351C297.136 327.532 296.157 326.549 295.177 325.567C287.503 318.525 280.809 310.009 275.584 300.51C270.359 291.011 266.44 280.694 262.685 270.049C258.929 259.403 255.337 248.595 250.112 238.113C248.806 235.493 247.337 232.873 246.03 230.416C244.561 227.959 242.928 225.503 241.295 222.883C239.499 220.426 237.703 217.969 235.907 215.677L230.029 209.126C221.702 200.61 211.905 193.731 201.455 188.491C191.005 183.25 180.229 179.319 169.779 175.389C159.329 171.458 149.206 167.364 139.899 161.96C135.327 159.339 130.919 156.228 127 153.116L125.531 151.97C125.041 151.642 124.551 150.987 124.061 150.66L121.122 147.875L119.653 146.565L119 146.074L118.347 145.419L115.734 142.635C109.04 134.938 103.651 126.258 99.5695 117.25C95.3243 108.243 92.0587 98.7442 88.7931 89.4092C85.5276 80.0743 82.0988 70.9031 77.8535 62.2233C76.7106 60.0942 75.5676 57.9652 74.4246 55.8362C73.2817 53.7072 71.9754 51.7419 70.6692 49.7767C70.0161 48.794 69.5263 47.8114 68.7099 46.8288C68.0568 45.8462 67.2404 44.8635 66.5872 43.8809C65.1177 42.0794 63.8116 39.9504 62.342 38.4765C60.8726 36.8388 59.5663 35.3648 58.0968 33.7271L57.7702 33.3996L57.6069 33.2358C57.1171 32.7445 57.4437 33.072 57.2804 32.9083L56.6273 32.417L55.4843 31.2706C54.6679 30.4517 53.8516 29.7966 53.0352 28.9778C51.5656 27.5038 49.7696 26.1937 48.1368 24.7197C47.3204 24.0646 46.504 23.4095 45.6876 22.7545C44.8712 22.0994 44.0548 21.6081 43.0752 20.953C36.3807 16.2036 29.5231 12.4369 22.8286 9.32525C14.828 5.72229 7.48047 2.77442 0.786041 0.317852L0.786041 13.9108C6.17425 15.8761 11.889 18.0051 17.767 20.6254C23.9716 23.2458 30.1762 26.5212 36.2175 30.7792C37.0339 31.2706 37.687 31.7619 38.5034 32.2532C39.1565 32.7445 39.9729 33.3996 40.7893 34.0547C42.2588 35.2011 43.8916 36.3475 45.1978 37.6576C45.8509 38.3127 46.6673 38.9678 47.3204 39.6229L48.4634 40.6055L48.9532 41.0968C48.9532 41.0968 49.1165 41.2606 49.1165 41.0968L49.443 41.4244C50.9125 42.8983 52.382 44.536 53.8516 46.0099L54.9945 47.1563C55.3211 47.4839 55.6476 47.9752 55.9741 48.3027C56.6273 49.1216 57.1171 49.9404 57.7702 50.5955C58.4233 51.4144 59.0765 52.2332 59.5663 52.8883C60.2194 53.7072 60.7093 54.6898 61.3624 55.5086C62.5053 57.3101 63.8116 58.9478 64.7912 60.9131C65.7709 62.8783 66.9138 64.6798 67.8935 66.6451C71.9755 74.5061 75.4043 83.3497 78.8331 92.5209C82.262 101.692 85.8541 111.355 90.4259 121.017C95.161 130.68 101.039 140.014 108.713 148.367L111.652 151.478L112.305 152.297L113.285 153.116L114.754 154.426L117.693 157.21C118.183 157.702 118.673 158.193 119.163 158.521L120.959 159.831C125.531 163.434 130.429 166.545 135.327 169.329C145.287 174.898 156.064 178.992 166.677 182.759C177.29 186.525 187.903 190.128 197.863 195.041C207.823 199.791 217.13 206.014 224.967 213.875L230.682 220.098L235.744 226.485L240.316 233.528C241.622 235.984 243.091 238.277 244.397 240.897C249.459 250.887 253.215 261.532 257.296 272.014C261.215 282.659 265.46 293.14 271.175 302.966C276.727 312.793 283.911 321.636 292.075 328.842C293.054 329.661 294.034 330.644 295.014 331.463L298.279 333.919L301.545 336.376L304.974 338.505L308.403 340.634C309.546 341.289 310.689 341.944 311.831 342.599L315.26 344.401C316.403 345.056 317.71 345.547 318.852 346.038C328.323 350.46 337.956 353.735 347.1 357.011C356.407 360.286 365.224 363.562 373.551 367.656C381.715 371.75 389.225 376.663 395.593 382.068C408.656 393.04 417.146 406.633 422.861 419.244C428.576 431.854 432.331 443.482 436.086 452.817C437.719 456.911 439.189 460.514 440.658 463.626L441.475 463.626Z"/>
</mask>
<path d="M441.475 463.626C440.005 460.35 438.536 456.747 437.066 452.489C433.474 443.154 430.045 431.527 424.494 418.589C421.718 412.202 418.289 405.487 413.881 398.936C409.472 392.385 404.084 385.998 397.553 380.266C391.022 374.534 383.511 369.457 375.184 365.199C366.856 360.941 357.876 357.502 348.732 354.063C339.589 350.624 330.119 347.185 320.975 342.599C319.832 342.108 318.689 341.453 317.546 340.961L314.281 339.16C313.138 338.505 311.995 337.85 310.852 337.195L307.586 335.066L304.321 332.937L301.218 330.644L298.116 328.351C297.136 327.532 296.157 326.549 295.177 325.567C287.503 318.525 280.809 310.009 275.584 300.51C270.359 291.011 266.44 280.694 262.685 270.049C258.929 259.403 255.337 248.595 250.112 238.113C248.806 235.493 247.337 232.873 246.03 230.416C244.561 227.959 242.928 225.503 241.295 222.883C239.499 220.426 237.703 217.969 235.907 215.677L230.029 209.126C221.702 200.61 211.905 193.731 201.455 188.491C191.005 183.25 180.229 179.319 169.779 175.389C159.329 171.458 149.206 167.364 139.899 161.96C135.327 159.339 130.919 156.228 127 153.116L125.531 151.97C125.041 151.642 124.551 150.987 124.061 150.66L121.122 147.875L119.653 146.565L119 146.074L118.347 145.419L115.734 142.635C109.04 134.938 103.651 126.258 99.5695 117.25C95.3243 108.243 92.0587 98.7442 88.7931 89.4092C85.5276 80.0743 82.0988 70.9031 77.8535 62.2233C76.7106 60.0942 75.5676 57.9652 74.4246 55.8362C73.2817 53.7072 71.9754 51.7419 70.6692 49.7767C70.0161 48.794 69.5263 47.8114 68.7099 46.8288C68.0568 45.8462 67.2404 44.8635 66.5872 43.8809C65.1177 42.0794 63.8116 39.9504 62.342 38.4765C60.8726 36.8388 59.5663 35.3648 58.0968 33.7271L57.7702 33.3996L57.6069 33.2358C57.1171 32.7445 57.4437 33.072 57.2804 32.9083L56.6273 32.417L55.4843 31.2706C54.6679 30.4517 53.8516 29.7966 53.0352 28.9778C51.5656 27.5038 49.7696 26.1937 48.1368 24.7197C47.3204 24.0646 46.504 23.4095 45.6876 22.7545C44.8712 22.0994 44.0548 21.6081 43.0752 20.953C36.3807 16.2036 29.5231 12.4369 22.8286 9.32525C14.828 5.72229 7.48047 2.77442 0.786041 0.317852L0.786041 13.9108C6.17425 15.8761 11.889 18.0051 17.767 20.6254C23.9716 23.2458 30.1762 26.5212 36.2175 30.7792C37.0339 31.2706 37.687 31.7619 38.5034 32.2532C39.1565 32.7445 39.9729 33.3996 40.7893 34.0547C42.2588 35.2011 43.8916 36.3475 45.1978 37.6576C45.8509 38.3127 46.6673 38.9678 47.3204 39.6229L48.4634 40.6055L48.9532 41.0968C48.9532 41.0968 49.1165 41.2606 49.1165 41.0968L49.443 41.4244C50.9125 42.8983 52.382 44.536 53.8516 46.0099L54.9945 47.1563C55.3211 47.4839 55.6476 47.9752 55.9741 48.3027C56.6273 49.1216 57.1171 49.9404 57.7702 50.5955C58.4233 51.4144 59.0765 52.2332 59.5663 52.8883C60.2194 53.7072 60.7093 54.6898 61.3624 55.5086C62.5053 57.3101 63.8116 58.9478 64.7912 60.9131C65.7709 62.8783 66.9138 64.6798 67.8935 66.6451C71.9755 74.5061 75.4043 83.3497 78.8331 92.5209C82.262 101.692 85.8541 111.355 90.4259 121.017C95.161 130.68 101.039 140.014 108.713 148.367L111.652 151.478L112.305 152.297L113.285 153.116L114.754 154.426L117.693 157.21C118.183 157.702 118.673 158.193 119.163 158.521L120.959 159.831C125.531 163.434 130.429 166.545 135.327 169.329C145.287 174.898 156.064 178.992 166.677 182.759C177.29 186.525 187.903 190.128 197.863 195.041C207.823 199.791 217.13 206.014 224.967 213.875L230.682 220.098L235.744 226.485L240.316 233.528C241.622 235.984 243.091 238.277 244.397 240.897C249.459 250.887 253.215 261.532 257.296 272.014C261.215 282.659 265.46 293.14 271.175 302.966C276.727 312.793 283.911 321.636 292.075 328.842C293.054 329.661 294.034 330.644 295.014 331.463L298.279 333.919L301.545 336.376L304.974 338.505L308.403 340.634C309.546 341.289 310.689 341.944 311.831 342.599L315.26 344.401C316.403 345.056 317.71 345.547 318.852 346.038C328.323 350.46 337.956 353.735 347.1 357.011C356.407 360.286 365.224 363.562 373.551 367.656C381.715 371.75 389.225 376.663 395.593 382.068C408.656 393.04 417.146 406.633 422.861 419.244C428.576 431.854 432.331 443.482 436.086 452.817C437.719 456.911 439.189 460.514 440.658 463.626L441.475 463.626Z" stroke="white" stroke-opacity="0.015" stroke-width="2" mask="url(#path-1-inside-1)"/>
</svg>
