<svg width="371" height="388" viewBox="0 0 371 388" fill="none" xmlns="http://www.w3.org/2000/svg">
<mask id="path-1-inside-1" fill="white">
<path d="M370.918 387.626C369.775 385.497 368.632 383.04 367.326 380.584C363.08 373.214 357.039 364.534 348.385 356.346C339.732 348.157 328.139 340.624 314.75 334.892C308.055 331.944 300.871 329.324 293.524 326.539C286.176 323.755 278.665 320.807 271.155 317.204C267.399 315.403 263.807 313.438 260.052 311.309C258.256 310.162 256.459 309.016 254.663 307.87C252.867 306.723 251.235 305.249 249.602 304.103C242.907 298.698 236.54 292.311 231.478 284.942C226.253 277.736 222.008 269.547 218.416 261.031C214.823 252.515 211.884 243.508 208.619 234.336C205.353 225.329 201.924 215.994 197.189 207.314L195.393 204.039L193.434 200.927C192.128 198.798 190.822 196.669 189.189 194.704L186.903 191.592C186.086 190.61 185.433 189.463 184.617 188.644L179.719 183.24L174.167 177.999C173.351 177.18 172.208 176.362 171.228 175.543L168.289 173.25C166.33 171.612 164.207 170.302 162.085 168.992L158.982 166.535L155.717 164.734C147.063 159.821 137.919 156.054 128.939 152.615C119.959 149.176 110.978 146.064 102.651 142.297C94.324 138.53 86.4866 134.109 79.6289 129.032C77.9961 127.722 76.3633 126.575 74.5673 125.101C72.9345 123.627 71.3017 121.99 69.6689 120.516L69.0158 119.861L68.6893 119.533C69.0158 119.861 68.6893 119.533 68.6893 119.533L68.526 119.369L67.5463 118.223L65.4237 115.93L63.3011 113.637L61.505 111.181C60.362 109.543 58.8925 107.905 57.9129 106.104C56.7699 104.302 55.7902 102.665 54.6473 100.863C52.688 97.2602 50.7286 93.6572 49.0959 89.8905C42.4014 75.1511 38.3195 59.7566 32.4414 45.8361C31.1352 42.3969 29.3391 38.9577 27.8696 35.6823C27.0533 34.0446 26.2368 32.4069 25.2572 30.9329C24.4408 29.2952 23.6244 27.8213 22.6447 26.3474C20.8487 23.3995 19.0526 20.4516 16.93 17.6675C15.9503 16.3573 14.8073 14.8834 13.8277 13.5732C12.848 12.4268 11.8683 11.2804 10.8886 10.134C7.62308 6.36732 4.03098 3.0919 0.602112 0.144027L0.602111 17.5037C0.92868 17.8313 1.25525 18.1588 1.74509 18.6501C2.72476 19.7965 3.70441 20.7792 4.84738 21.9255C5.66376 23.0719 6.48016 24.0546 7.45984 25.201C9.25589 27.33 10.8886 29.9503 12.6847 32.5707C13.6644 33.8808 14.3175 35.191 15.1339 36.6649C15.9503 38.1389 16.7667 39.449 17.5831 40.923C19.0526 44.0346 20.6854 46.9825 21.9916 50.2579C24.9306 56.8088 27.3798 63.8509 30.1555 71.2206C32.9313 78.5903 35.8703 86.4513 39.6257 94.1485C41.4217 98.079 43.7077 102.01 45.8303 105.776C47.1365 107.741 48.2794 109.543 49.5857 111.508C50.7286 113.473 52.3614 115.111 53.6676 117.076L55.7902 119.861L58.2394 122.481L60.6886 125.101L61.8315 126.411L61.9948 126.575C62.1581 126.739 61.9948 126.575 62.3213 126.903L62.6479 127.23L63.3011 127.722C64.9338 129.195 66.5666 130.669 68.3627 132.307C70.1587 133.781 72.1181 135.255 74.0774 136.729C81.9148 142.297 90.4053 146.883 99.3856 150.649C108.203 154.416 117.346 157.364 126.327 160.639C135.307 163.915 144.124 167.19 152.451 171.776L155.553 173.414L158.492 175.215C160.452 176.525 162.574 177.672 164.37 179.146L167.146 181.275C168.126 181.93 169.106 182.585 169.922 183.404L174.984 187.989L179.882 193.394C180.698 194.213 181.515 195.195 182.168 196.178L184.29 198.962C185.76 200.763 187.066 202.729 188.372 204.694L190.332 207.642L192.128 210.753C196.7 218.942 200.455 227.786 203.884 236.793C207.313 245.637 210.415 254.808 214.334 263.488C218.252 272.167 222.824 280.52 228.376 288.053C233.927 295.587 240.621 301.974 247.642 307.378C249.439 308.688 251.235 310.162 253.031 311.309C254.827 312.455 256.786 313.602 258.582 314.748C262.338 316.877 266.093 318.842 270.012 320.644C277.686 324.083 285.36 327.031 292.871 329.487C300.218 332.108 307.402 334.564 314.097 337.348C327.649 342.753 339.078 349.795 347.732 357.656C356.549 365.517 362.754 373.869 366.999 381.239C368.469 383.695 369.611 385.825 370.754 387.954L370.918 387.954L370.918 387.626Z"/>
</mask>
<path d="M370.918 387.626C369.775 385.497 368.632 383.04 367.326 380.584C363.08 373.214 357.039 364.534 348.385 356.346C339.732 348.157 328.139 340.624 314.75 334.892C308.055 331.944 300.871 329.324 293.524 326.539C286.176 323.755 278.665 320.807 271.155 317.204C267.399 315.403 263.807 313.438 260.052 311.309C258.256 310.162 256.459 309.016 254.663 307.87C252.867 306.723 251.235 305.249 249.602 304.103C242.907 298.698 236.54 292.311 231.478 284.942C226.253 277.736 222.008 269.547 218.416 261.031C214.823 252.515 211.884 243.508 208.619 234.336C205.353 225.329 201.924 215.994 197.189 207.314L195.393 204.039L193.434 200.927C192.128 198.798 190.822 196.669 189.189 194.704L186.903 191.592C186.086 190.61 185.433 189.463 184.617 188.644L179.719 183.24L174.167 177.999C173.351 177.18 172.208 176.362 171.228 175.543L168.289 173.25C166.33 171.612 164.207 170.302 162.085 168.992L158.982 166.535L155.717 164.734C147.063 159.821 137.919 156.054 128.939 152.615C119.959 149.176 110.978 146.064 102.651 142.297C94.324 138.53 86.4866 134.109 79.6289 129.032C77.9961 127.722 76.3633 126.575 74.5673 125.101C72.9345 123.627 71.3017 121.99 69.6689 120.516L69.0158 119.861L68.6893 119.533C69.0158 119.861 68.6893 119.533 68.6893 119.533L68.526 119.369L67.5463 118.223L65.4237 115.93L63.3011 113.637L61.505 111.181C60.362 109.543 58.8925 107.905 57.9129 106.104C56.7699 104.302 55.7902 102.665 54.6473 100.863C52.688 97.2602 50.7286 93.6572 49.0959 89.8905C42.4014 75.1511 38.3195 59.7566 32.4414 45.8361C31.1352 42.3969 29.3391 38.9577 27.8696 35.6823C27.0533 34.0446 26.2368 32.4069 25.2572 30.9329C24.4408 29.2952 23.6244 27.8213 22.6447 26.3474C20.8487 23.3995 19.0526 20.4516 16.93 17.6675C15.9503 16.3573 14.8073 14.8834 13.8277 13.5732C12.848 12.4268 11.8683 11.2804 10.8886 10.134C7.62308 6.36732 4.03098 3.0919 0.602112 0.144027L0.602111 17.5037C0.92868 17.8313 1.25525 18.1588 1.74509 18.6501C2.72476 19.7965 3.70441 20.7792 4.84738 21.9255C5.66376 23.0719 6.48016 24.0546 7.45984 25.201C9.25589 27.33 10.8886 29.9503 12.6847 32.5707C13.6644 33.8808 14.3175 35.191 15.1339 36.6649C15.9503 38.1389 16.7667 39.449 17.5831 40.923C19.0526 44.0346 20.6854 46.9825 21.9916 50.2579C24.9306 56.8088 27.3798 63.8509 30.1555 71.2206C32.9313 78.5903 35.8703 86.4513 39.6257 94.1485C41.4217 98.079 43.7077 102.01 45.8303 105.776C47.1365 107.741 48.2794 109.543 49.5857 111.508C50.7286 113.473 52.3614 115.111 53.6676 117.076L55.7902 119.861L58.2394 122.481L60.6886 125.101L61.8315 126.411L61.9948 126.575C62.1581 126.739 61.9948 126.575 62.3213 126.903L62.6479 127.23L63.3011 127.722C64.9338 129.195 66.5666 130.669 68.3627 132.307C70.1587 133.781 72.1181 135.255 74.0774 136.729C81.9148 142.297 90.4053 146.883 99.3856 150.649C108.203 154.416 117.346 157.364 126.327 160.639C135.307 163.915 144.124 167.19 152.451 171.776L155.553 173.414L158.492 175.215C160.452 176.525 162.574 177.672 164.37 179.146L167.146 181.275C168.126 181.93 169.106 182.585 169.922 183.404L174.984 187.989L179.882 193.394C180.698 194.213 181.515 195.195 182.168 196.178L184.29 198.962C185.76 200.763 187.066 202.729 188.372 204.694L190.332 207.642L192.128 210.753C196.7 218.942 200.455 227.786 203.884 236.793C207.313 245.637 210.415 254.808 214.334 263.488C218.252 272.167 222.824 280.52 228.376 288.053C233.927 295.587 240.621 301.974 247.642 307.378C249.439 308.688 251.235 310.162 253.031 311.309C254.827 312.455 256.786 313.602 258.582 314.748C262.338 316.877 266.093 318.842 270.012 320.644C277.686 324.083 285.36 327.031 292.871 329.487C300.218 332.108 307.402 334.564 314.097 337.348C327.649 342.753 339.078 349.795 347.732 357.656C356.549 365.517 362.754 373.869 366.999 381.239C368.469 383.695 369.611 385.825 370.754 387.954L370.918 387.954L370.918 387.626Z" stroke="white" stroke-opacity="0.015" stroke-width="2" mask="url(#path-1-inside-1)"/>
</svg>
