<svg width="304" height="292" viewBox="0 0 304 292" fill="none" xmlns="http://www.w3.org/2000/svg">
<path d="M257.887 269.518C264.349 271.995 270.471 274.341 276.113 276.773C270.413 274.513 264.224 272.338 257.677 270.038C255.096 269.131 252.46 268.205 249.777 267.247C248.644 266.805 247.523 266.391 246.397 265.976C244.57 265.302 242.733 264.625 240.816 263.815L240.798 263.808L240.78 263.802C239.757 263.46 238.741 263.04 237.65 262.589C237.196 262.401 236.73 262.209 236.244 262.014C235.666 261.756 235.089 261.473 234.492 261.18C234.344 261.107 234.195 261.034 234.044 260.961C233.305 260.6 232.536 260.234 231.724 259.906C231.028 259.397 230.184 259.058 229.411 258.748L229.398 258.743L227.13 257.606C226.319 257.199 225.548 256.792 224.772 256.382L224.769 256.38C223.998 255.973 223.222 255.564 222.405 255.154C220.948 254.342 219.331 253.368 217.877 252.396L217.867 252.39L217.857 252.384C216.238 251.409 214.785 250.438 213.335 249.306L213.321 249.295L213.305 249.285C211.854 248.314 210.399 247.179 208.926 246.031C208.206 245.469 207.524 244.865 206.828 244.249L206.822 244.244C206.134 243.635 205.433 243.015 204.689 242.434L202.575 240.639L202.553 240.621L202.529 240.605C202.082 240.306 201.947 240.171 201.462 239.685L200.493 238.712C199.838 237.974 199.184 237.277 198.536 236.586L198.534 236.584C197.88 235.887 197.232 235.197 196.585 234.466C191.545 228.759 186.833 222.24 183.099 215.237L183.095 215.229C177.591 205.339 173.549 194.657 169.466 183.868C167.749 179.329 166.024 174.772 164.18 170.247L164.18 170.245C161.072 162.698 157.632 155.303 153.369 148.232L153.364 148.222L153.357 148.213C152.931 147.572 152.51 146.929 152.089 146.287C150.267 143.508 148.453 140.742 146.317 138.195C145.166 136.548 143.847 134.894 142.359 133.401C142.358 133.4 142.357 133.399 142.355 133.397L138.117 128.982L138.106 128.971L138.095 128.961C132.033 123.373 125.636 118.437 118.578 114.321L118.57 114.317C111.523 110.372 104.152 107.086 96.4627 104.133L96.4583 104.131C92.0718 102.493 87.656 100.965 83.2487 99.4393C72.1817 95.6095 61.1676 91.7979 50.8023 86.308C50.8014 86.3074 50.8004 86.3069 50.7994 86.3064L45.4318 83.3698C44.7217 82.9169 44.0269 82.498 43.3479 82.0886C42.2715 81.4396 41.2348 80.8145 40.2396 80.1158L40.2167 80.0997L40.1923 80.0863C39.3278 79.6134 38.4944 79.0176 37.6624 78.3865C37.4133 78.1976 37.1628 78.0044 36.9116 77.8105C36.3359 77.3663 35.7564 76.9192 35.1823 76.5159C35.1808 76.5148 35.1794 76.5138 35.1779 76.5128L32.753 74.729L31.6244 73.7588L30.4883 72.7821C30.4871 72.781 30.486 72.78 30.4848 72.779C29.7506 72.1244 29.0571 71.5106 28.3643 70.8975C27.6738 70.2864 26.984 69.6759 26.2541 69.0253L25.2847 68.0529L24.9306 68.4059L25.2847 68.0529L25.1214 67.8891L25.0864 67.854L25.0453 67.8265C25.0003 67.7965 24.9646 67.7721 24.9364 67.7525C24.9241 67.7273 24.9117 67.7066 24.9015 67.6908C24.8667 67.6369 24.8264 67.5932 24.7949 67.5616L24.4408 67.9146L24.7949 67.5616L24.4683 67.2341L23.9923 66.7572L23.9785 66.7427L22.0393 64.6351C22.0382 64.6339 22.0372 64.6328 22.0361 64.6316C21.5072 64.035 20.9506 63.4633 20.4087 62.9067C20.2726 62.7669 20.1374 62.6281 20.0038 62.49C19.3318 61.7956 18.6951 61.1162 18.1416 60.4023L18.1373 60.3969C16.8336 58.7624 15.6927 57.2911 14.5497 55.8171L14.5493 55.8167C13.4036 54.3392 12.2794 52.8885 11.3177 51.2808L11.3087 51.2658L11.2987 51.2514C10.1636 49.625 9.19369 48.1657 8.22525 46.5479C7.81247 45.7215 7.36017 44.9379 6.91641 44.1692L6.91321 44.1635C6.46301 43.3836 6.0217 42.6187 5.6214 41.8158L5.61523 41.8034L5.60837 41.7913L4.31906 39.5282C4.15033 39.1103 3.94403 38.6965 3.74811 38.3035L3.74371 38.2947C3.53778 37.8816 3.34341 37.491 3.18915 37.1042L3.18567 37.0955L3.18185 37.0869C2.85086 36.3399 2.47943 35.5948 2.11404 34.8617L2.11093 34.8555C1.75891 34.1494 1.4125 33.4543 1.10214 32.7613L1.10214 3.6814C2.40991 7.40107 3.71793 11.2057 5.02658 15.0123C5.02695 15.0133 5.02728 15.0144 5.02765 15.0154L5.02911 15.02C6.00674 17.9616 6.99283 20.9289 8.30896 23.899C8.62994 24.6234 8.91153 25.3495 9.19791 26.0881L9.20001 26.0935C9.4844 26.827 9.77368 27.5732 10.105 28.3209L12.0617 32.7366L12.0643 32.7427L13.0413 35.0293L13.0501 35.0498L13.0606 35.0694L14.1947 37.1818C14.8555 38.6704 15.6777 40.1548 16.487 41.6159L16.4926 41.626C16.9088 42.3773 17.3652 43.0848 17.8112 43.7763L17.8161 43.7838C18.2665 44.482 18.7063 45.1641 19.1051 45.884L19.1165 45.9047C19.9227 47.3602 20.7577 48.8677 21.929 50.2142C22.2938 50.7015 22.6696 51.1755 23.0465 51.651C23.7137 52.4926 24.3845 53.3386 25.0041 54.2709L25.0118 54.2824L25.0201 54.2935C25.6875 55.1861 26.5162 56.0931 27.3246 56.978C27.7191 57.4098 28.1087 57.8363 28.4724 58.2534L28.4802 58.2619L30.2763 60.2271L30.2836 60.2352L30.2913 60.2429L31.1077 61.0617L32.0874 62.0443C32.7461 62.7051 33.4449 63.3647 34.1371 64.0182L34.1392 64.0202C34.8342 64.6762 35.5225 65.3261 36.1693 65.9748L37.149 66.9575L37.165 66.9735L37.1825 66.9881L38.1621 67.8069L38.1696 67.8132L38.1774 67.8192L40.2876 69.4473L40.2885 69.4481C41.5845 70.5856 42.9161 71.7543 44.5824 72.7586C45.0974 73.1032 45.6267 73.4787 46.1703 73.8643C47.1245 74.5413 48.1226 75.2494 49.1646 75.8765C49.989 76.3726 50.8123 76.8268 51.6261 77.2757L51.6301 77.2779C52.4477 77.729 53.2559 78.1749 54.063 78.6606L54.0629 78.6607L54.0733 78.6666C63.2379 83.8869 73.517 87.7836 84.0925 91.7927C88.8194 93.5846 93.6055 95.3989 98.3778 97.364C106.204 100.635 114.014 104.226 121.33 108.629C128.637 113.189 135.461 118.729 141.64 124.761L145.874 129.498L145.883 129.508L145.892 129.518C147.329 130.959 148.612 132.727 149.924 134.535L149.931 134.546L149.939 134.556C152.038 137.156 153.755 139.937 155.473 142.722C156.006 143.586 156.54 144.45 157.085 145.31C161.31 152.645 164.726 160.476 167.658 168.317L167.658 168.319C169.447 173.054 171.103 177.816 172.747 182.541C176.483 193.285 180.151 203.832 185.153 213.411C188.762 220.32 193.026 226.736 197.784 232.495L197.799 232.513L197.815 232.53C199.109 233.827 200.405 235.29 201.548 236.6L201.559 236.612L201.57 236.624L202.501 237.557C202.635 237.782 202.838 237.974 203 238.118C203.078 238.187 203.149 238.248 203.215 238.305C203.332 238.405 203.434 238.493 203.53 238.589L205.489 240.555L205.5 240.565L205.51 240.575C206.086 241.088 206.609 241.599 207.13 242.109C207.265 242.241 207.4 242.373 207.536 242.505C208.192 243.142 208.861 243.772 209.618 244.363C210.178 244.8 210.725 245.204 211.257 245.597C212.162 246.266 213.025 246.903 213.841 247.62C215.172 248.788 216.664 249.785 218.124 250.762L218.138 250.771L220.342 252.245L222.546 253.719L222.572 253.736L222.6 253.75C224.221 254.563 225.68 255.376 227.15 256.195C227.151 256.195 227.152 256.196 227.153 256.197L229.433 257.504L229.445 257.511L229.458 257.517L231.744 258.663L231.762 258.673L231.782 258.68C232.58 259.001 233.343 259.363 234.096 259.73C234.242 259.802 234.388 259.873 234.534 259.945C235.135 260.24 235.736 260.535 236.336 260.802L236.345 260.806L236.353 260.809C237.976 261.461 239.437 262.112 240.908 262.767C243.857 264.082 246.804 265.232 249.739 266.376L249.747 266.379C252.511 267.458 255.228 268.499 257.887 269.518ZM24.914 68.2636C24.914 68.2635 24.9141 68.2635 24.9141 68.2634L24.9128 68.2655L24.914 68.2636Z" stroke="white" stroke-opacity="0.015"/>
</svg>
