<svg width="127" height="137" viewBox="0 0 127 137" fill="none" xmlns="http://www.w3.org/2000/svg">
<path d="M123.921 132.556L123.933 132.574L123.946 132.591C124.261 132.986 124.538 133.383 124.825 133.794L124.829 133.799C125.081 134.161 125.341 134.534 125.633 134.909L125.633 135.165C125.034 134.361 124.386 133.533 123.737 132.773L123.725 132.759L123.711 132.745C123.501 132.534 123.32 132.282 123.111 131.989L123.101 131.975C122.918 131.717 122.711 131.426 122.462 131.166C122.284 130.825 122.07 130.529 121.853 130.251C121.756 130.128 121.664 130.014 121.572 129.902C121.433 129.729 121.296 129.56 121.149 129.364C120.333 128.218 119.526 127.085 118.72 125.792L118.71 125.776L118.699 125.761C117.457 124.061 116.38 122.137 115.279 120.166C114.807 119.323 114.331 118.472 113.836 117.627C110.904 111.908 107.812 105.377 105.045 98.3592C104.143 96.0685 103.239 93.7406 102.323 91.3824C100.428 86.5009 98.4818 81.4891 96.3889 76.4068L96.3889 76.4068L96.3853 76.3984C93.1184 68.8619 89.6781 61.3011 85.2501 54.0634L85.2502 54.0634L85.2458 54.0565L85.2359 54.041C82.9569 50.4489 80.6562 46.8225 78.0223 43.6853L78.0224 43.6852L78.0135 43.6752C77.5295 43.129 77.0703 42.5626 76.5916 41.9719C76.433 41.7763 76.2723 41.578 76.1078 41.377C75.4521 40.5754 74.747 39.7429 73.9148 38.9077L69.5093 34.3253L69.499 34.3147L69.4881 34.3046C63.2534 28.5448 56.3645 23.6096 49.1499 19.4981L49.15 19.4979L49.1382 19.4916C41.7612 15.5454 34.0627 12.4245 26.5437 9.6374C22.7802 8.24234 19.018 6.97088 15.3038 5.72226C15.0883 5.64979 14.8729 5.57741 14.6577 5.50508C11.1622 4.33037 7.71233 3.17095 4.33535 1.93926L4.33541 1.93909L4.32257 1.93479C3.82453 1.76828 3.3453 1.60174 2.8781 1.43505L28.7103 1.43505C28.8821 1.50737 29.0452 1.54822 29.1728 1.58019L29.1873 1.58381C29.3565 1.62623 29.4677 1.6559 29.5746 1.70954L29.5883 1.71643L29.6025 1.72246C37.2692 4.99475 45.08 8.58635 52.5594 13.1527C60.1911 17.876 67.1774 23.5781 73.5177 29.9358L77.9149 34.9997L77.9149 34.9997L77.9203 35.0058C79.0352 36.2483 80.0508 37.6777 81.0639 39.1037C81.3652 39.5277 81.6663 39.9514 81.9696 40.3698L81.9739 40.3757L81.9783 40.3815C84.0812 43.1111 85.8012 46.0228 87.5226 48.937C88.0527 49.8346 88.583 50.7323 89.1247 51.6251C93.3505 59.4519 96.6045 67.4469 99.3743 75.1275C100.945 79.5763 102.407 83.9065 103.825 88.1068C104.915 91.3364 105.979 94.4893 107.047 97.5604C109.501 104.615 112.12 111.183 114.904 117.098L114.914 117.118L114.925 117.138C115.73 118.51 116.455 119.923 117.168 121.312L117.177 121.33C117.89 122.719 118.592 124.085 119.336 125.33L119.336 125.33L119.341 125.338C120.159 126.65 120.969 127.952 121.617 129.088L121.632 129.115L121.651 129.14C122.13 129.781 122.438 130.246 122.747 130.865L122.76 130.892L122.778 130.918C122.945 131.171 123.153 131.462 123.355 131.745L123.358 131.751C123.564 132.039 123.763 132.319 123.921 132.556Z" stroke="white" stroke-opacity="0.015"/>
</svg>
