<svg width="219" height="204" viewBox="0 0 219 204" fill="none" xmlns="http://www.w3.org/2000/svg">
<path d="M217.633 202.417C213.421 200.487 208.625 197.831 203.382 194.583C202.645 194.09 201.868 193.598 201.097 193.11L201.093 193.107C200.322 192.619 199.557 192.134 198.833 191.65C198.336 191.262 197.828 190.846 197.308 190.42C196.336 189.623 195.321 188.792 194.255 188.044C193.468 187.491 192.754 186.855 192.02 186.181C191.912 186.081 191.803 185.981 191.693 185.879C191.067 185.301 190.418 184.701 189.709 184.132C188.918 183.497 188.283 182.862 187.464 182.04C187.166 181.741 186.866 181.405 186.538 181.037L186.483 180.975C186.136 180.587 185.761 180.168 185.342 179.747C184.944 179.349 184.585 178.949 184.217 178.538L184.213 178.534C183.848 178.127 183.473 177.709 183.056 177.291L181.938 176.17L180.984 174.894C180.983 174.893 180.982 174.892 180.982 174.891C179.671 173.083 178.198 171.278 176.737 169.486L174.791 166.558L172.837 163.618C172.19 162.563 171.582 161.507 170.971 160.444L170.969 160.441C170.36 159.382 169.746 158.315 169.092 157.248C164.214 148.44 160.308 138.81 156.555 128.828C152.801 118.841 148.873 108.497 143.796 98.6411L143.793 98.6353C143.135 97.3981 142.437 96.2034 141.745 95.0188L141.742 95.0148C141.047 93.8261 140.359 92.6473 139.711 91.4294L139.701 91.4114L139.691 91.3943C138.952 90.2425 138.174 89.0916 137.399 87.9468L137.398 87.9448C136.622 86.7975 135.85 85.6562 135.119 84.5159L135.107 84.4982L135.095 84.4815C134.274 83.4121 133.414 82.3435 132.558 81.2804L132.556 81.2786C131.698 80.2133 130.845 79.1534 130.033 78.0944L130.017 78.074L130 78.0554L124.122 71.8321L124.107 71.8168L124.091 71.8027L118.05 66.3983L118.037 66.3862L118.022 66.3751C116.957 65.5534 115.852 64.7323 114.751 63.9144L114.749 63.913C113.647 63.0937 112.548 62.2776 111.491 61.462L111.468 61.4443L111.443 61.4294C110.728 60.999 110.029 60.5838 109.341 60.1753C107.663 59.1783 106.051 58.2212 104.436 57.1796L104.425 57.1725L104.413 57.166C102.12 55.8516 99.6594 54.5351 97.1955 53.3816C87.7256 48.7911 77.8032 45.4221 68.0444 42.1087C67.6743 41.9831 67.3044 41.8575 66.9347 41.7319C56.8186 38.2951 46.8908 34.703 37.7834 30.1368C36.7619 29.5518 35.7406 29.0314 34.7457 28.5244C34.6187 28.4597 34.4921 28.3952 34.366 28.3308C33.2436 27.7577 32.1576 27.1925 31.1152 26.5491C30.0583 25.8968 29.0415 25.244 28.0204 24.5886L28.0194 24.5879C27.0061 23.9374 25.9886 23.2843 24.9303 22.6308L22.0096 20.4336L19.0776 18.2281L19.0706 18.2227L17.6195 17.0907L16.3241 15.9537L16.3158 15.9464L16.3072 15.9395C15.9124 15.6227 15.5151 15.2643 15.1047 14.8939L15.0992 14.8889C14.6986 14.5272 14.2852 14.1541 13.8694 13.8197C9.28975 9.68473 5.29063 5.55646 2.00217 1.43505L16.4243 1.43505C17.8338 3.00557 19.2666 4.59167 20.8542 6.02845C21.1958 6.45201 21.5736 6.82939 21.9565 7.19326C22.086 7.3163 22.2146 7.43646 22.3429 7.5564C22.6114 7.80728 22.8788 8.05715 23.151 8.33022L24.2939 9.47662L24.3075 9.49022L24.3221 9.50274L25.465 10.4854L25.4715 10.4909L25.4781 10.4962L27.9272 12.4614L30.3764 14.4267L30.3854 14.4339L30.3947 14.4407C31.303 15.1032 32.2507 15.7232 33.1859 16.3349L33.1914 16.3385C34.1321 16.9539 35.0601 17.5611 35.9462 18.2074L35.9665 18.2223L35.9883 18.235C36.9715 18.8103 37.995 19.3851 39.0138 19.9574L39.0166 19.959C40.0378 20.5326 41.0544 21.1036 42.0296 21.6742L42.0367 21.6784L42.044 21.6823C50.2364 26.1196 59.5671 30.0592 69.536 33.8294L69.9376 33.9812C79.7797 37.7031 90.0582 41.59 100.175 46.9051C101.723 47.7332 103.263 48.6226 104.853 49.5405C105.768 50.0689 106.699 50.6066 107.658 51.1476L111.316 53.5936L114.965 56.0334C117.246 57.9937 119.526 59.7911 121.797 61.5809L128.297 67.7742L133.988 74.1343C135.77 76.41 137.553 78.8485 139.342 81.2956C140.076 82.5223 140.85 83.7481 141.621 84.968L141.623 84.9708C142.395 86.1945 143.164 87.4122 143.892 88.629C144.543 89.935 145.195 91.2002 145.844 92.4622L145.846 92.4661C146.498 93.734 147.149 94.9987 147.8 96.3036C152.683 106.755 156.267 117.209 159.695 127.362C163.124 137.516 166.563 147.209 170.99 155.925L170.989 155.925L170.995 155.935C171.37 156.634 171.748 157.357 172.128 158.082C172.893 159.544 173.665 161.018 174.432 162.337C175.008 163.327 175.623 164.315 176.234 165.296L176.236 165.298C176.849 166.282 177.457 167.258 178.024 168.233L178.037 168.254L178.052 168.275L180.011 170.977L181.97 173.679L181.975 173.685L182.954 174.995L182.976 175.024L183.001 175.049L184.124 176.176C184.455 176.59 184.824 177.001 185.182 177.399L185.187 177.405C185.556 177.816 185.914 178.215 186.229 178.611L186.264 178.654L186.307 178.689C187.071 179.302 187.69 180.073 188.347 180.897C188.62 181.261 189.013 181.653 189.399 182.019C189.543 182.156 189.685 182.289 189.823 182.417C190.071 182.649 190.305 182.867 190.511 183.074L190.522 183.084L190.533 183.094C191.111 183.609 191.688 184.175 192.275 184.751C192.423 184.896 192.571 185.042 192.721 185.187C193.452 185.9 194.199 186.609 194.953 187.199C196.419 188.505 197.732 189.658 199.212 190.812L199.226 190.823L199.241 190.834C199.96 191.314 200.642 191.837 201.338 192.371L201.344 192.375C202.033 192.904 202.737 193.444 203.484 193.944C208.616 197.482 213.435 200.234 217.633 202.354L217.633 202.417Z" stroke="white" stroke-opacity="0.015"/>
</svg>
