<svg width="112" height="132" viewBox="0 0 112 132" fill="none" xmlns="http://www.w3.org/2000/svg">
<path d="M110.781 130.121C110.858 130.277 110.942 130.444 111.04 130.617L110.382 130.617C110.202 130.4 110.09 130.178 109.957 129.911L109.949 129.897L109.941 129.883C109.375 128.909 108.808 127.852 108.215 126.746L108.151 126.625C107.581 125.562 106.989 124.455 106.358 123.348C105.811 122.249 105.263 121.074 104.693 119.852L104.635 119.728C104.044 118.461 103.431 117.147 102.775 115.832C100.334 110.609 98.0546 104.893 95.6058 98.6708C95.2849 97.8553 94.9639 97.0367 94.6416 96.215C92.5072 90.7729 90.3194 85.1945 87.7615 79.4927C84.9718 72.9098 81.3654 66.4994 77.4398 60.2651L77.4399 60.265L77.4331 60.2547C76.9417 59.5154 76.4097 58.7356 75.8799 57.9589L75.8786 57.9569C75.3475 57.1785 74.8186 56.4031 74.3308 55.6691L74.3207 55.6539L74.3095 55.6395C73.7337 54.8969 73.1584 54.1962 72.5881 53.5016L72.5864 53.4996C72.0143 52.8028 71.4472 52.112 70.8806 51.3814L70.8743 51.3733L70.8677 51.3654L69.076 49.2416C68.4073 48.4039 67.7394 47.734 67.0915 47.0841L67.0878 47.0803L63.1727 42.9898L63.1583 42.9748L63.1428 42.9611C57.5815 38.0392 51.8363 33.427 45.4236 29.7987C39.0359 26.1845 32.4814 23.0614 25.9232 20.5947L25.9195 20.5933C21.1492 18.8428 16.4583 17.2572 11.9164 15.722C10.0781 15.1007 8.26423 14.4876 6.47937 13.8751L6.47563 13.8739L3.53661 12.8912L0.939048 12.0228L0.939049 1.32365C3.6946 2.40344 6.7076 3.61224 9.72305 4.82207L9.72517 4.8229C15.9288 7.27911 22.4526 9.89656 29.1379 12.8404C35.8106 15.7787 42.6439 19.3691 49.1495 23.6105L49.1495 23.6105L49.1543 23.6136C55.8002 27.8408 61.8085 33.2123 67.3453 38.765L71.2407 43.1605C71.4964 43.5006 71.7903 43.837 72.0899 44.1775C72.1085 44.1987 72.1272 44.22 72.1459 44.2412C72.4344 44.5691 72.731 44.906 73.0272 45.2769L74.8137 47.7204C75.208 48.2852 75.6135 48.8398 76.015 49.3888C76.8046 50.4684 77.5786 51.5267 78.2203 52.5996C78.7148 53.4262 79.2496 54.2513 79.7785 55.0675L79.781 55.0714C80.3121 55.8909 80.8372 56.7014 81.3213 57.5104C85.2223 64.1951 88.3129 71.0466 90.9177 77.905L90.9192 77.9087C92.8707 82.9244 94.5467 87.9358 96.1584 92.7547C96.7001 94.3744 97.2345 95.9723 97.7696 97.5414C99.8939 103.769 102.018 109.669 103.977 115.074L103.979 115.079C104.961 117.705 105.946 120.175 107.096 122.648L107.096 122.648L107.102 122.66C107.553 123.563 107.985 124.483 108.415 125.399C109.055 126.762 109.691 128.115 110.375 129.388L110.386 129.409L110.399 129.428C110.542 129.644 110.652 129.863 110.776 130.112L110.781 130.121Z" stroke="white" stroke-opacity="0.015"/>
</svg>
