<svg width="226" height="215" viewBox="0 0 226 215" fill="none" xmlns="http://www.w3.org/2000/svg">
<path d="M215.457 210.93C210.636 208.819 205.64 206.372 200.534 203.432C191.18 198.165 181.993 190.924 173.954 181.545C169.842 176.925 166.395 171.654 163.126 166.244L163.119 166.232L163.112 166.219C162.758 165.548 162.392 164.874 162.022 164.192C160.872 162.07 159.683 159.878 158.687 157.504C158.315 156.666 157.929 155.824 157.538 154.973C156.569 152.863 155.58 150.708 154.761 148.479C152.34 142.526 150.218 136.388 148.062 130.15C147.959 129.853 147.857 129.556 147.754 129.26C145.488 122.709 143.166 116.049 140.397 109.35C137.626 102.81 134.537 96.127 130.642 89.9401C130.201 89.2766 129.793 88.5811 129.383 87.8819C129.33 87.7908 129.276 87.6996 129.223 87.6085C128.755 86.8133 128.275 86.0113 127.718 85.2119L124.294 80.6328L124.289 80.6262L124.284 80.6195C123.158 79.0069 122.032 77.7155 120.888 76.404L117.311 72.3267L113.244 68.4107L113.237 68.4037L113.237 68.4036C111.927 67.0899 110.65 65.8106 109.058 64.693L109.048 64.6858L109.038 64.6781L104.63 61.2389C103.593 60.4299 102.482 59.7098 101.386 58.9993C100.949 58.7159 100.514 58.434 100.088 58.1486L100.083 58.1453C93.9134 53.9115 87.4129 50.6502 80.893 47.7075C74.295 44.7663 67.695 42.2326 61.2244 39.7553L60.8946 39.629C54.5435 37.1976 48.3173 34.8139 42.3655 32.152C40.8042 31.4925 39.3271 30.7927 37.8787 30.097C37.6758 29.9996 37.4736 29.9023 37.2719 29.8052C36.0285 29.2068 34.8015 28.6163 33.5442 28.0558L33.5285 28.0488L33.5133 28.0408C31.5643 27.0058 29.611 25.888 27.722 24.807C26.9139 24.3445 26.1175 23.8887 25.3382 23.449L25.3281 23.4434L25.3183 23.4372L25.3023 23.4271C24.0176 22.6218 22.6959 21.7932 21.5314 20.7971C20.2526 19.9954 18.9137 19.1559 17.8962 18.1398C16.7772 17.1792 15.6566 16.3759 14.5164 15.559C13.7316 14.9968 12.9301 14.2697 12.1548 13.5665C11.7797 13.2262 11.4107 12.8916 11.0528 12.5838L11.0478 12.5796C7.32413 9.2928 4.14403 5.73918 1.26561 2.16945L1.26561 16.5827C2.21905 17.5275 3.1777 18.3672 4.25307 19.3091C4.39575 19.4341 4.54048 19.5608 4.68753 19.6899L4.70004 19.7009L4.71179 19.7127C6.51501 21.5213 8.92201 23.2125 11.3506 24.9187C11.7286 25.1843 12.1072 25.4503 12.484 25.7171L12.5053 25.7322L12.5249 25.7494C13.7848 26.8552 15.2074 27.6499 16.6837 28.4726C17.4332 28.8902 18.1389 29.3482 18.8286 29.7958L18.8352 29.8001C19.5313 30.2519 20.2113 30.693 20.9289 31.0929C23.8701 32.7318 26.7952 34.3615 29.8804 35.8274C32.9866 37.3032 36.0652 38.7653 39.3017 39.9015L39.3141 39.9059L39.3263 39.9109C45.3884 42.4054 51.6004 44.5658 57.8345 46.7339C58.1331 46.8378 58.4318 46.9416 58.7305 47.0456C65.2595 49.3171 71.8047 51.6147 78.1892 54.3238C84.5717 56.9503 90.805 59.9109 96.7166 63.6991L96.7248 63.7044C97.4499 64.1894 98.1764 64.6347 98.9124 65.0858L98.9164 65.0883C99.6486 65.5371 100.39 65.9918 101.133 66.4885L101.146 66.4971L101.158 66.5065L105.228 69.6088C106.368 70.3725 107.326 71.2401 108.279 72.1025C108.579 72.3748 108.879 72.6466 109.185 72.9144L215.457 210.93ZM215.457 210.93C210.5 208.959 205.342 206.638 200.034 203.865C190.448 198.813 180.862 191.805 172.415 182.518L172.412 182.514C168.197 177.961 164.461 172.751 160.878 167.197C160.601 166.726 160.321 166.251 160.039 165.773C158.648 163.418 157.213 160.988 156.001 158.557C154.535 155.615 153.07 152.513 151.769 149.415L151.77 149.415L151.765 149.405C149.027 143.267 146.607 136.927 144.165 130.53L144.081 130.31C141.612 123.843 139.117 117.32 136.253 110.918L136.251 110.913C133.31 104.521 130.194 98.2675 126.252 92.5007C125.996 92.1159 125.747 91.7234 125.497 91.329C124.821 90.2631 124.136 89.1837 123.286 88.2064L120.196 84.1282C120.196 84.1279 120.196 84.1276 120.195 84.1272C119.201 82.7975 118.044 81.4711 116.725 80.1479C116.723 80.1467 116.722 80.1454 116.721 80.1441L112.973 76.2212L112.957 76.2048L112.94 76.1898L109.186 72.9154L215.457 210.93Z" stroke="white" stroke-opacity="0.015"/>
</svg>
