<svg width="432" height="453" viewBox="0 0 432 453" fill="none" xmlns="http://www.w3.org/2000/svg">
<mask id="path-1-inside-1" fill="white">
<path d="M431.133 451.633C430.643 450.487 429.99 449.34 429.5 448.03C425.255 438.532 421.336 426.413 416.275 412.82C413.826 405.941 410.723 398.735 406.968 391.529C405.988 389.728 405.008 387.926 403.866 386.125C402.723 384.323 401.58 382.522 400.437 380.72C399.13 378.919 397.824 377.281 396.518 375.48L395.538 374.17L394.395 372.859C393.579 372.041 392.926 371.222 392.109 370.403C385.905 363.852 378.884 357.465 370.393 352.552C362.066 347.475 352.923 343.381 343.289 339.614C333.656 335.847 323.859 332.408 314.062 328.15C304.429 323.892 294.796 318.651 286.468 311.773C285.978 311.282 285.325 310.954 284.836 310.463L283.366 308.989L280.264 306.041L278.794 304.567L277.488 303.093L274.712 299.981C272.753 298.016 271.283 295.723 269.487 293.431C267.691 291.302 266.385 288.845 264.916 286.388C259.038 276.726 254.792 266.081 250.874 255.108C246.955 244.136 243.199 232.672 237.975 221.699C236.832 218.915 235.199 216.294 233.729 213.51C232.26 210.89 230.464 208.27 228.994 205.649C227.198 203.029 225.239 200.572 223.443 198.116L217.402 191.401C208.748 182.558 198.461 175.516 187.522 170.111C176.582 164.707 165.316 160.776 154.376 156.682C143.436 152.588 132.987 148.166 123.68 142.27C121.394 140.796 118.945 139.322 116.985 137.684C114.863 136.047 112.74 134.573 110.781 132.608L107.678 129.66L106.372 128.349L105.066 126.876L102.453 123.928C101.474 122.945 100.657 121.962 99.841 120.816C93.3099 112.464 88.2482 103.129 84.3295 93.4663C80.2476 83.8038 77.1453 73.8138 73.5531 64.1513C69.961 54.325 65.8791 44.8263 60.8174 36.1465C59.5112 34.0175 58.205 31.8884 56.7355 29.7594C55.266 27.6304 53.6332 25.6651 52.1637 23.6999C51.3473 22.7173 50.6942 21.7346 49.8778 20.9158C49.0614 20.0969 48.4083 19.2781 47.5919 18.2954C46.7755 17.3128 45.9591 16.494 45.1427 15.5113C44.3263 14.6925 43.3466 13.8736 42.5302 13.0548C41.7138 12.2359 40.7342 11.4171 39.9178 10.5982L38.6116 9.45181L37.3053 8.30542C35.5093 6.83148 33.7132 5.52131 31.9171 4.04737C30.2843 2.90098 28.6516 1.75458 27.0188 0.771955L0.404403 0.771954C5.30276 2.7372 10.2011 5.03 14.9362 7.65033C16.569 8.63296 18.365 9.45181 19.9978 10.5982C21.6306 11.7446 23.2634 12.7272 25.0594 13.8736C26.6922 15.02 28.325 16.3302 29.9578 17.6404L31.264 18.623L32.407 19.6056C33.2234 20.2607 33.8765 21.0795 34.6929 21.7346C35.5093 22.3897 36.3257 23.2086 36.9788 23.8637C37.6319 24.6825 38.4483 25.3376 39.1014 26.1564C39.9178 26.9753 40.7342 27.7942 41.3873 28.613C42.2037 29.4319 43.0201 30.2507 43.5099 31.0696C44.8161 32.7073 46.1224 34.5088 47.4286 36.1465C48.7348 37.948 49.8778 39.9132 51.184 41.8785C55.9191 49.7395 59.8377 58.5831 63.5931 67.918C67.1853 77.253 70.6141 87.4068 75.0226 97.5606C79.4312 107.714 84.9826 117.868 92.3302 126.876C93.1466 128.022 94.1262 129.168 95.2692 130.151L98.2082 133.426L99.6777 135.064C99.6777 135.064 100.168 135.392 100.004 135.392L100.168 135.555L100.494 135.883L101.31 136.538L104.413 139.322C106.372 141.287 108.985 143.089 111.434 144.89C113.883 146.856 116.495 148.166 118.945 149.803C129.231 156.027 140.334 160.449 151.437 164.379C162.54 168.31 173.643 172.076 184.093 176.989C194.543 181.903 204.176 188.29 212.34 196.314L218.218 202.701C219.851 204.994 221.647 207.123 223.443 209.416C224.912 211.873 226.708 214.165 228.178 216.786C229.484 219.406 231.117 221.699 232.26 224.483C237.485 234.964 241.24 245.937 245.485 257.073C249.567 268.046 254.139 279.019 260.507 289.009C262.14 291.465 263.609 294.086 265.405 296.215C267.201 298.507 268.834 300.964 270.957 302.929L273.896 306.041C274.386 306.532 274.876 307.024 275.529 307.679L277.161 309.153L280.264 311.937L281.896 313.411C282.386 313.902 283.039 314.229 283.529 314.721C292.51 321.927 302.47 327.167 312.43 331.262C322.39 335.52 332.513 338.631 341.983 342.234C351.453 345.673 360.597 349.604 368.761 354.517C377.088 359.266 384.109 365.326 390.15 371.549C390.967 372.368 391.62 373.187 392.436 374.006L393.579 375.152L394.559 376.462C395.865 378.1 397.171 379.902 398.477 381.539C399.62 383.341 400.763 384.979 401.906 386.78C403.049 388.418 404.029 390.383 405.008 392.021C408.927 399.063 412.029 406.105 414.642 412.983C419.867 426.576 423.949 438.532 428.521 448.03C429.174 449.668 429.99 451.142 430.643 452.452L430.643 451.633L431.133 451.633Z"/>
</mask>
<path d="M431.133 451.633C430.643 450.487 429.99 449.34 429.5 448.03C425.255 438.532 421.336 426.413 416.275 412.82C413.826 405.941 410.723 398.735 406.968 391.529C405.988 389.728 405.008 387.926 403.866 386.125C402.723 384.323 401.58 382.522 400.437 380.72C399.13 378.919 397.824 377.281 396.518 375.48L395.538 374.17L394.395 372.859C393.579 372.041 392.926 371.222 392.109 370.403C385.905 363.852 378.884 357.465 370.393 352.552C362.066 347.475 352.923 343.381 343.289 339.614C333.656 335.847 323.859 332.408 314.062 328.15C304.429 323.892 294.796 318.651 286.468 311.773C285.978 311.282 285.325 310.954 284.836 310.463L283.366 308.989L280.264 306.041L278.794 304.567L277.488 303.093L274.712 299.981C272.753 298.016 271.283 295.723 269.487 293.431C267.691 291.302 266.385 288.845 264.916 286.388C259.038 276.726 254.792 266.081 250.874 255.108C246.955 244.136 243.199 232.672 237.975 221.699C236.832 218.915 235.199 216.294 233.729 213.51C232.26 210.89 230.464 208.27 228.994 205.649C227.198 203.029 225.239 200.572 223.443 198.116L217.402 191.401C208.748 182.558 198.461 175.516 187.522 170.111C176.582 164.707 165.316 160.776 154.376 156.682C143.436 152.588 132.987 148.166 123.68 142.27C121.394 140.796 118.945 139.322 116.985 137.684C114.863 136.047 112.74 134.573 110.781 132.608L107.678 129.66L106.372 128.349L105.066 126.876L102.453 123.928C101.474 122.945 100.657 121.962 99.841 120.816C93.3099 112.464 88.2482 103.129 84.3295 93.4663C80.2476 83.8038 77.1453 73.8138 73.5531 64.1513C69.961 54.325 65.8791 44.8263 60.8174 36.1465C59.5112 34.0175 58.205 31.8884 56.7355 29.7594C55.266 27.6304 53.6332 25.6651 52.1637 23.6999C51.3473 22.7173 50.6942 21.7346 49.8778 20.9158C49.0614 20.0969 48.4083 19.2781 47.5919 18.2954C46.7755 17.3128 45.9591 16.494 45.1427 15.5113C44.3263 14.6925 43.3466 13.8736 42.5302 13.0548C41.7138 12.2359 40.7342 11.4171 39.9178 10.5982L38.6116 9.45181L37.3053 8.30542C35.5093 6.83148 33.7132 5.52131 31.9171 4.04737C30.2843 2.90098 28.6516 1.75458 27.0188 0.771955L0.404403 0.771954C5.30276 2.7372 10.2011 5.03 14.9362 7.65033C16.569 8.63296 18.365 9.45181 19.9978 10.5982C21.6306 11.7446 23.2634 12.7272 25.0594 13.8736C26.6922 15.02 28.325 16.3302 29.9578 17.6404L31.264 18.623L32.407 19.6056C33.2234 20.2607 33.8765 21.0795 34.6929 21.7346C35.5093 22.3897 36.3257 23.2086 36.9788 23.8637C37.6319 24.6825 38.4483 25.3376 39.1014 26.1564C39.9178 26.9753 40.7342 27.7942 41.3873 28.613C42.2037 29.4319 43.0201 30.2507 43.5099 31.0696C44.8161 32.7073 46.1224 34.5088 47.4286 36.1465C48.7348 37.948 49.8778 39.9132 51.184 41.8785C55.9191 49.7395 59.8377 58.5831 63.5931 67.918C67.1853 77.253 70.6141 87.4068 75.0226 97.5606C79.4312 107.714 84.9826 117.868 92.3302 126.876C93.1466 128.022 94.1262 129.168 95.2692 130.151L98.2082 133.426L99.6777 135.064C99.6777 135.064 100.168 135.392 100.004 135.392L100.168 135.555L100.494 135.883L101.31 136.538L104.413 139.322C106.372 141.287 108.985 143.089 111.434 144.89C113.883 146.856 116.495 148.166 118.945 149.803C129.231 156.027 140.334 160.449 151.437 164.379C162.54 168.31 173.643 172.076 184.093 176.989C194.543 181.903 204.176 188.29 212.34 196.314L218.218 202.701C219.851 204.994 221.647 207.123 223.443 209.416C224.912 211.873 226.708 214.165 228.178 216.786C229.484 219.406 231.117 221.699 232.26 224.483C237.485 234.964 241.24 245.937 245.485 257.073C249.567 268.046 254.139 279.019 260.507 289.009C262.14 291.465 263.609 294.086 265.405 296.215C267.201 298.507 268.834 300.964 270.957 302.929L273.896 306.041C274.386 306.532 274.876 307.024 275.529 307.679L277.161 309.153L280.264 311.937L281.896 313.411C282.386 313.902 283.039 314.229 283.529 314.721C292.51 321.927 302.47 327.167 312.43 331.262C322.39 335.52 332.513 338.631 341.983 342.234C351.453 345.673 360.597 349.604 368.761 354.517C377.088 359.266 384.109 365.326 390.15 371.549C390.967 372.368 391.62 373.187 392.436 374.006L393.579 375.152L394.559 376.462C395.865 378.1 397.171 379.902 398.477 381.539C399.62 383.341 400.763 384.979 401.906 386.78C403.049 388.418 404.029 390.383 405.008 392.021C408.927 399.063 412.029 406.105 414.642 412.983C419.867 426.576 423.949 438.532 428.521 448.03C429.174 449.668 429.99 451.142 430.643 452.452L430.643 451.633L431.133 451.633Z" stroke="white" stroke-opacity="0.015" stroke-width="2" mask="url(#path-1-inside-1)"/>
</svg>
