<svg width="477" height="485" viewBox="0 0 477 485" fill="none" xmlns="http://www.w3.org/2000/svg">
<mask id="path-1-inside-1" fill="white">
<path d="M476.132 483.387C475.316 482.24 474.499 481.094 473.52 479.947C472.05 477.982 470.744 475.689 469.274 473.397C467.805 471.104 466.662 468.483 465.192 465.863C463.886 463.243 462.58 460.295 461.274 457.347C458.825 451.287 456.212 444.573 453.763 437.531C451.15 430.325 448.538 422.791 445.272 414.767C441.844 406.906 437.762 398.881 432.21 391.183C430.741 389.218 429.434 387.253 427.802 385.452C426.169 383.65 424.536 381.849 423.067 380.047C419.474 376.608 415.882 373.005 411.8 370.057C403.8 363.834 394.33 358.757 384.533 354.499C374.573 350.241 364.286 346.638 353.837 342.544C343.55 338.449 333.1 333.536 323.957 326.985C321.671 325.184 319.548 323.546 317.262 321.745L313.997 318.797L312.364 317.323L311.547 316.504C311.384 316.34 311.221 316.176 311.221 316.176L310.894 315.849C308.935 313.72 306.976 311.591 305.18 309.298C303.547 307.005 301.587 304.712 299.955 302.256C293.423 292.43 288.688 281.457 284.606 269.993C280.361 258.529 276.606 246.738 271.381 235.11C270.728 233.636 270.075 232.162 269.422 230.852L267.136 226.594C265.666 223.81 263.87 221.189 262.237 218.405C261.421 217.095 260.441 215.785 259.462 214.475L256.523 210.544C255.543 209.234 254.4 208.251 253.42 206.941L250.155 203.338C241.174 194.167 230.235 186.797 218.805 181.393C207.376 175.825 195.456 171.894 184.19 167.472C172.924 163.051 162.148 158.138 152.677 151.587C150.228 149.949 148.269 148.148 145.983 146.51C143.86 144.708 141.574 142.579 139.452 140.45L139.125 140.123C138.962 139.959 139.289 140.287 139.125 140.123L138.962 139.959L138.309 139.14L136.839 137.502L134.064 134.391C132.268 132.262 130.635 129.969 129.002 127.676C122.634 118.505 118.226 108.351 114.307 98.0336C110.388 87.716 107.123 77.0709 102.877 66.9171C98.7954 56.7633 93.7338 47.1009 87.366 38.421C85.7332 36.292 84.1004 33.9992 82.4676 32.1977C81.6512 31.2151 80.8348 30.3962 80.0184 29.4136L78.8755 28.1034L78.5489 27.7759L78.3856 27.6121C78.5489 27.7759 78.0591 27.2846 78.0591 27.2846L77.406 26.6295C75.4466 24.828 73.6506 23.1903 71.8545 21.3888C69.8952 19.7511 67.9358 18.2772 65.9765 16.8032C57.9758 10.9075 49.6486 6.48568 41.648 2.88272C39.5253 1.90009 37.4027 1.08124 35.2801 0.0986135L0.175236 0.098612C4.74703 1.90009 9.64538 3.70157 14.707 5.50305C21.8913 8.12339 29.4021 10.5799 36.9129 13.8554C44.4237 17.1308 52.0978 21.0613 59.1188 26.1382C60.9149 27.4484 62.7109 28.7585 64.3437 30.2325C65.9765 31.7064 67.7725 33.1803 69.4053 34.818L70.0584 35.3094L70.2217 35.4731L70.5483 35.8007L71.8545 37.1108C72.6709 37.9297 73.4873 38.9123 74.3037 39.8949C76.0997 41.6964 77.406 43.4979 78.7122 45.2994C84.427 52.6691 89.162 61.5127 93.244 71.1752C97.326 80.8377 100.918 91.1552 105 101.8C109.245 112.445 114.307 123.254 121.328 133.244C123.287 135.701 125.083 138.157 127.043 140.45L130.145 143.889L131.778 145.527L132.594 146.346L132.757 146.51L133.084 146.837L133.574 147.165C135.86 149.13 137.819 151.095 140.268 153.061C142.881 155.026 145.33 156.991 147.942 158.793C158.392 165.835 169.985 170.748 181.578 175.006C193.17 179.264 204.763 183.031 215.866 188.108C226.806 193.185 237.092 199.735 245.583 208.088L248.685 211.363C249.665 212.509 250.808 213.656 251.787 214.802L254.563 218.241C255.38 219.388 256.359 220.534 257.176 221.844C258.808 224.465 260.604 226.758 261.911 229.542L264.197 233.472C264.85 234.782 265.503 236.256 266.156 237.566C271.381 248.539 275.3 260.167 279.871 271.795C284.28 283.258 289.341 294.722 296.362 304.876C297.995 307.497 300.118 309.789 301.914 312.246C303.873 314.539 305.996 316.832 308.119 318.961L308.445 319.452C308.772 319.779 308.772 319.779 308.935 319.943L309.751 320.762L311.384 322.236L314.65 325.184C316.936 327.149 319.385 328.787 321.834 330.752C331.631 337.63 342.407 342.38 352.857 346.31C363.47 350.241 373.92 353.68 383.716 357.61C393.513 361.541 402.657 366.454 410.657 372.35C414.739 375.134 418.332 378.573 421.76 381.849C423.393 383.65 425.026 385.452 426.659 387.089C428.128 388.891 429.598 390.692 430.904 392.494C436.292 399.863 440.537 407.888 444.13 415.585C447.558 423.283 450.334 430.98 452.947 438.022C455.559 445.228 458.171 451.779 460.784 457.838C462.253 460.786 463.56 463.734 464.866 466.354C466.335 468.975 467.642 471.595 469.111 473.888C470.581 476.181 471.887 478.473 473.356 480.275C474.336 481.585 475.316 482.895 476.295 484.042L476.295 483.387L476.132 483.387Z"/>
</mask>
<path d="M476.132 483.387C475.316 482.24 474.499 481.094 473.52 479.947C472.05 477.982 470.744 475.689 469.274 473.397C467.805 471.104 466.662 468.483 465.192 465.863C463.886 463.243 462.58 460.295 461.274 457.347C458.825 451.287 456.212 444.573 453.763 437.531C451.15 430.325 448.538 422.791 445.272 414.767C441.844 406.906 437.762 398.881 432.21 391.183C430.741 389.218 429.434 387.253 427.802 385.452C426.169 383.65 424.536 381.849 423.067 380.047C419.474 376.608 415.882 373.005 411.8 370.057C403.8 363.834 394.33 358.757 384.533 354.499C374.573 350.241 364.286 346.638 353.837 342.544C343.55 338.449 333.1 333.536 323.957 326.985C321.671 325.184 319.548 323.546 317.262 321.745L313.997 318.797L312.364 317.323L311.547 316.504C311.384 316.34 311.221 316.176 311.221 316.176L310.894 315.849C308.935 313.72 306.976 311.591 305.18 309.298C303.547 307.005 301.587 304.712 299.955 302.256C293.423 292.43 288.688 281.457 284.606 269.993C280.361 258.529 276.606 246.738 271.381 235.11C270.728 233.636 270.075 232.162 269.422 230.852L267.136 226.594C265.666 223.81 263.87 221.189 262.237 218.405C261.421 217.095 260.441 215.785 259.462 214.475L256.523 210.544C255.543 209.234 254.4 208.251 253.42 206.941L250.155 203.338C241.174 194.167 230.235 186.797 218.805 181.393C207.376 175.825 195.456 171.894 184.19 167.472C172.924 163.051 162.148 158.138 152.677 151.587C150.228 149.949 148.269 148.148 145.983 146.51C143.86 144.708 141.574 142.579 139.452 140.45L139.125 140.123C138.962 139.959 139.289 140.287 139.125 140.123L138.962 139.959L138.309 139.14L136.839 137.502L134.064 134.391C132.268 132.262 130.635 129.969 129.002 127.676C122.634 118.505 118.226 108.351 114.307 98.0336C110.388 87.716 107.123 77.0709 102.877 66.9171C98.7954 56.7633 93.7338 47.1009 87.366 38.421C85.7332 36.292 84.1004 33.9992 82.4676 32.1977C81.6512 31.2151 80.8348 30.3962 80.0184 29.4136L78.8755 28.1034L78.5489 27.7759L78.3856 27.6121C78.5489 27.7759 78.0591 27.2846 78.0591 27.2846L77.406 26.6295C75.4466 24.828 73.6506 23.1903 71.8545 21.3888C69.8952 19.7511 67.9358 18.2772 65.9765 16.8032C57.9758 10.9075 49.6486 6.48568 41.648 2.88272C39.5253 1.90009 37.4027 1.08124 35.2801 0.0986135L0.175236 0.098612C4.74703 1.90009 9.64538 3.70157 14.707 5.50305C21.8913 8.12339 29.4021 10.5799 36.9129 13.8554C44.4237 17.1308 52.0978 21.0613 59.1188 26.1382C60.9149 27.4484 62.7109 28.7585 64.3437 30.2325C65.9765 31.7064 67.7725 33.1803 69.4053 34.818L70.0584 35.3094L70.2217 35.4731L70.5483 35.8007L71.8545 37.1108C72.6709 37.9297 73.4873 38.9123 74.3037 39.8949C76.0997 41.6964 77.406 43.4979 78.7122 45.2994C84.427 52.6691 89.162 61.5127 93.244 71.1752C97.326 80.8377 100.918 91.1552 105 101.8C109.245 112.445 114.307 123.254 121.328 133.244C123.287 135.701 125.083 138.157 127.043 140.45L130.145 143.889L131.778 145.527L132.594 146.346L132.757 146.51L133.084 146.837L133.574 147.165C135.86 149.13 137.819 151.095 140.268 153.061C142.881 155.026 145.33 156.991 147.942 158.793C158.392 165.835 169.985 170.748 181.578 175.006C193.17 179.264 204.763 183.031 215.866 188.108C226.806 193.185 237.092 199.735 245.583 208.088L248.685 211.363C249.665 212.509 250.808 213.656 251.787 214.802L254.563 218.241C255.38 219.388 256.359 220.534 257.176 221.844C258.808 224.465 260.604 226.758 261.911 229.542L264.197 233.472C264.85 234.782 265.503 236.256 266.156 237.566C271.381 248.539 275.3 260.167 279.871 271.795C284.28 283.258 289.341 294.722 296.362 304.876C297.995 307.497 300.118 309.789 301.914 312.246C303.873 314.539 305.996 316.832 308.119 318.961L308.445 319.452C308.772 319.779 308.772 319.779 308.935 319.943L309.751 320.762L311.384 322.236L314.65 325.184C316.936 327.149 319.385 328.787 321.834 330.752C331.631 337.63 342.407 342.38 352.857 346.31C363.47 350.241 373.92 353.68 383.716 357.61C393.513 361.541 402.657 366.454 410.657 372.35C414.739 375.134 418.332 378.573 421.76 381.849C423.393 383.65 425.026 385.452 426.659 387.089C428.128 388.891 429.598 390.692 430.904 392.494C436.292 399.863 440.537 407.888 444.13 415.585C447.558 423.283 450.334 430.98 452.947 438.022C455.559 445.228 458.171 451.779 460.784 457.838C462.253 460.786 463.56 463.734 464.866 466.354C466.335 468.975 467.642 471.595 469.111 473.888C470.581 476.181 471.887 478.473 473.356 480.275C474.336 481.585 475.316 482.895 476.295 484.042L476.295 483.387L476.132 483.387Z" stroke="white" stroke-opacity="0.015" stroke-width="2" mask="url(#path-1-inside-1)"/>
</svg>
