<svg width="44" height="64" viewBox="0 0 44 64" fill="none" xmlns="http://www.w3.org/2000/svg">
<path d="M42.6682 55.4929L42.7938 55.8077L42.9592 55.8077L42.9592 60.3809C42.5675 59.4055 42.1634 58.4129 41.753 57.4047C41.2309 56.1221 40.6985 54.8143 40.1683 53.4848L40.1683 53.4847L40.1651 53.4771C38.0389 48.3916 35.7484 43.3045 33.1303 38.0524C30.5021 32.7802 27.2209 27.6805 23.786 22.7587L23.772 22.7386L23.7561 22.72C23.2807 22.1636 22.8427 21.565 22.3917 20.9482L22.3863 20.9408C21.9409 20.3316 21.4825 19.7047 20.9803 19.117L19.5108 17.3974L18.0413 15.6778L18.0414 15.6777L18.0334 15.6687L16.5639 14.031L16.5551 14.0212L16.5458 14.0119L14.913 12.3742L11.6474 9.09881L11.6345 9.08587L11.6207 9.0739C8.43159 6.31133 5.23508 3.67118 1.92005 1.27197L11.9022 1.27197L15.6615 5.04257L18.7475 8.62661L20.2061 10.4148L21.6693 12.3716L24.588 16.275C25.1022 17.1994 25.6959 18.0866 26.2587 18.9277C26.5893 19.4218 26.9093 19.8999 27.1962 20.3602C30.6164 25.9145 33.5405 31.2935 35.8124 36.8277L35.8124 36.8277L35.8145 36.8326C38.0336 42.0792 39.9449 47.4827 41.703 52.4529L41.8433 52.8496C41.975 53.2463 42.079 53.6141 42.1817 53.9774C42.2023 54.0504 42.2229 54.1231 42.2436 54.1959C42.3667 54.6279 42.4949 55.0582 42.6682 55.4929Z" stroke="white" stroke-opacity="0.015"/>
</svg>
