<svg width="504" height="509" viewBox="0 0 504 509" fill="none" xmlns="http://www.w3.org/2000/svg">
<mask id="path-1-inside-1" fill="white">
<path d="M503.664 508.626C500.561 505.678 497.296 502.238 493.867 498.144C486.683 489.301 480.151 477.181 474.6 462.442C471.824 455.072 469.212 447.048 466.109 438.859C463.007 430.507 459.578 421.827 454.68 413.311C453.374 411.182 452.068 409.217 450.761 407.088C449.455 404.959 447.822 402.993 446.19 400.864L445.047 399.39C444.72 398.899 444.23 398.408 443.74 397.916C442.924 396.934 442.108 395.951 441.128 395.132C440.311 394.15 439.495 393.167 438.515 392.184C437.536 391.366 436.556 390.383 435.576 389.564C427.902 382.358 418.595 376.299 408.472 371.385C398.349 366.472 387.573 362.706 376.633 358.448C365.693 354.353 354.917 349.768 344.957 343.381L341.201 340.924C339.895 340.105 338.916 339.123 337.609 338.304L334.18 335.52L330.752 332.408L329.119 330.77L328.302 329.951L327.813 329.624C327.649 329.46 327.813 329.624 327.649 329.46L327.486 329.296L324.547 325.857C323.567 324.711 322.424 323.728 321.608 322.418L318.832 318.815C315.24 313.902 312.138 308.661 309.362 303.093C308.056 300.309 306.75 297.525 305.443 294.577C304.301 291.629 302.994 288.845 302.015 285.897C297.606 274.106 293.851 261.659 288.299 249.704L286.177 245.282C285.523 243.808 284.707 242.334 283.891 240.86C282.421 237.912 280.625 235.128 278.829 232.344C278.339 231.689 278.013 230.87 277.523 230.215L276.053 228.25L272.951 224.155C271.971 222.845 270.828 221.699 269.685 220.389L266.42 216.622C257.113 207.123 245.684 199.59 233.764 194.022C221.845 188.29 209.599 184.359 197.843 179.774C194.904 178.627 192.128 177.317 189.189 176.171C186.413 174.86 183.638 173.55 180.862 172.24C175.474 169.292 170.249 166.181 165.677 162.578C156.207 155.372 148.206 146.364 142.165 136.538C129.919 116.722 125.347 93.4663 115.551 72.6674C114.897 71.3572 114.408 70.047 113.754 68.7369C113.101 67.4267 112.448 66.2803 111.795 64.9701C110.489 62.3498 109.019 60.057 107.387 57.6004C106.57 56.4541 105.917 55.1439 105.101 53.9975C104.284 52.8511 103.305 51.7047 102.488 50.5583C101.672 49.4119 100.692 48.2655 99.8758 47.1191C99.0594 46.1365 98.0797 45.1539 97.2634 44.1712C89.9158 35.9827 81.4254 29.1043 72.7716 23.8636C63.9546 18.623 55.1375 14.8562 46.8103 11.5808C38.4831 8.30541 30.4824 5.52131 23.4615 2.7372C21.992 2.08212 20.5224 1.42704 19.0529 0.771951L0.602481 0.771951L0.60248 6.01262C6.31723 8.9605 12.5218 11.5808 19.0529 14.2012C26.5637 17.149 34.5644 19.7694 42.7283 22.7173C50.8922 25.8289 59.2195 29.1043 67.0569 33.6899C75.0575 38.2755 82.5683 44.1712 89.2627 51.3772C90.0791 52.3598 91.0588 53.3424 91.8752 54.325C92.6915 55.3077 93.3447 56.2903 94.1611 57.2729C94.9775 58.2555 95.6306 59.2382 96.447 60.2208C97.2633 61.2034 97.9165 62.3498 98.5696 63.3324C100.039 65.4615 101.345 67.5905 102.652 69.8833C103.305 71.0297 103.958 72.1761 104.611 73.3225C105.264 74.4689 105.754 75.779 106.407 76.9254C111.142 86.5879 114.897 97.233 118.979 108.206C123.061 119.178 127.796 130.642 134.654 141.287C141.512 151.932 150.329 161.595 160.779 169.292C166.167 173.223 171.718 176.498 177.433 179.446C180.372 180.756 183.311 182.23 186.25 183.54C189.189 184.687 192.291 185.997 195.23 187.143C207.313 191.729 219.396 195.496 230.825 200.736C242.255 205.813 252.868 212.528 261.848 221.371L265.114 224.811C266.093 225.957 267.4 227.103 268.379 228.413L271.155 232.016L272.624 233.818C273.114 234.473 273.441 235.128 273.931 235.783C275.563 238.404 277.36 241.024 278.829 243.808C279.645 245.118 280.299 246.592 281.115 247.902L283.238 252.16C288.626 263.624 292.544 275.743 297.28 287.699C298.422 290.646 299.729 293.594 301.035 296.542C302.341 299.49 303.811 302.438 305.117 305.222C308.219 310.954 311.485 316.522 315.403 321.435L318.342 325.202C319.322 326.512 320.465 327.495 321.445 328.805L324.71 332.244L324.874 332.408L325.2 332.736L325.69 333.063L326.506 333.882L328.139 335.356L331.568 338.468L335.323 341.415C336.63 342.398 337.773 343.381 339.079 344.2L342.998 346.656C353.447 353.207 364.714 357.629 375.816 361.559C386.756 365.49 397.533 369.093 407.493 373.842C417.453 378.428 426.433 384.16 434.107 391.202C435.087 392.021 436.066 393.003 437.046 393.822C437.862 394.641 438.842 395.624 439.658 396.606C440.475 397.589 441.454 398.408 442.271 399.39C442.761 399.882 443.087 400.373 443.577 400.864L444.72 402.338C446.19 404.303 447.822 406.105 449.129 408.234C450.435 410.363 451.741 412.328 453.047 414.293C457.946 422.482 461.538 431.162 464.803 439.35C468.069 447.539 470.681 455.564 473.784 462.77C479.498 477.509 486.519 489.628 493.704 498.308C496.969 502.238 500.235 505.678 503.337 508.462L503.664 508.462L503.664 508.626Z"/>
</mask>
<path d="M503.664 508.626C500.561 505.678 497.296 502.238 493.867 498.144C486.683 489.301 480.151 477.181 474.6 462.442C471.824 455.072 469.212 447.048 466.109 438.859C463.007 430.507 459.578 421.827 454.68 413.311C453.374 411.182 452.068 409.217 450.761 407.088C449.455 404.959 447.822 402.993 446.19 400.864L445.047 399.39C444.72 398.899 444.23 398.408 443.74 397.916C442.924 396.934 442.108 395.951 441.128 395.132C440.311 394.15 439.495 393.167 438.515 392.184C437.536 391.366 436.556 390.383 435.576 389.564C427.902 382.358 418.595 376.299 408.472 371.385C398.349 366.472 387.573 362.706 376.633 358.448C365.693 354.353 354.917 349.768 344.957 343.381L341.201 340.924C339.895 340.105 338.916 339.123 337.609 338.304L334.18 335.52L330.752 332.408L329.119 330.77L328.302 329.951L327.813 329.624C327.649 329.46 327.813 329.624 327.649 329.46L327.486 329.296L324.547 325.857C323.567 324.711 322.424 323.728 321.608 322.418L318.832 318.815C315.24 313.902 312.138 308.661 309.362 303.093C308.056 300.309 306.75 297.525 305.443 294.577C304.301 291.629 302.994 288.845 302.015 285.897C297.606 274.106 293.851 261.659 288.299 249.704L286.177 245.282C285.523 243.808 284.707 242.334 283.891 240.86C282.421 237.912 280.625 235.128 278.829 232.344C278.339 231.689 278.013 230.87 277.523 230.215L276.053 228.25L272.951 224.155C271.971 222.845 270.828 221.699 269.685 220.389L266.42 216.622C257.113 207.123 245.684 199.59 233.764 194.022C221.845 188.29 209.599 184.359 197.843 179.774C194.904 178.627 192.128 177.317 189.189 176.171C186.413 174.86 183.638 173.55 180.862 172.24C175.474 169.292 170.249 166.181 165.677 162.578C156.207 155.372 148.206 146.364 142.165 136.538C129.919 116.722 125.347 93.4663 115.551 72.6674C114.897 71.3572 114.408 70.047 113.754 68.7369C113.101 67.4267 112.448 66.2803 111.795 64.9701C110.489 62.3498 109.019 60.057 107.387 57.6004C106.57 56.4541 105.917 55.1439 105.101 53.9975C104.284 52.8511 103.305 51.7047 102.488 50.5583C101.672 49.4119 100.692 48.2655 99.8758 47.1191C99.0594 46.1365 98.0797 45.1539 97.2634 44.1712C89.9158 35.9827 81.4254 29.1043 72.7716 23.8636C63.9546 18.623 55.1375 14.8562 46.8103 11.5808C38.4831 8.30541 30.4824 5.52131 23.4615 2.7372C21.992 2.08212 20.5224 1.42704 19.0529 0.771951L0.602481 0.771951L0.60248 6.01262C6.31723 8.9605 12.5218 11.5808 19.0529 14.2012C26.5637 17.149 34.5644 19.7694 42.7283 22.7173C50.8922 25.8289 59.2195 29.1043 67.0569 33.6899C75.0575 38.2755 82.5683 44.1712 89.2627 51.3772C90.0791 52.3598 91.0588 53.3424 91.8752 54.325C92.6915 55.3077 93.3447 56.2903 94.1611 57.2729C94.9775 58.2555 95.6306 59.2382 96.447 60.2208C97.2633 61.2034 97.9165 62.3498 98.5696 63.3324C100.039 65.4615 101.345 67.5905 102.652 69.8833C103.305 71.0297 103.958 72.1761 104.611 73.3225C105.264 74.4689 105.754 75.779 106.407 76.9254C111.142 86.5879 114.897 97.233 118.979 108.206C123.061 119.178 127.796 130.642 134.654 141.287C141.512 151.932 150.329 161.595 160.779 169.292C166.167 173.223 171.718 176.498 177.433 179.446C180.372 180.756 183.311 182.23 186.25 183.54C189.189 184.687 192.291 185.997 195.23 187.143C207.313 191.729 219.396 195.496 230.825 200.736C242.255 205.813 252.868 212.528 261.848 221.371L265.114 224.811C266.093 225.957 267.4 227.103 268.379 228.413L271.155 232.016L272.624 233.818C273.114 234.473 273.441 235.128 273.931 235.783C275.563 238.404 277.36 241.024 278.829 243.808C279.645 245.118 280.299 246.592 281.115 247.902L283.238 252.16C288.626 263.624 292.544 275.743 297.28 287.699C298.422 290.646 299.729 293.594 301.035 296.542C302.341 299.49 303.811 302.438 305.117 305.222C308.219 310.954 311.485 316.522 315.403 321.435L318.342 325.202C319.322 326.512 320.465 327.495 321.445 328.805L324.71 332.244L324.874 332.408L325.2 332.736L325.69 333.063L326.506 333.882L328.139 335.356L331.568 338.468L335.323 341.415C336.63 342.398 337.773 343.381 339.079 344.2L342.998 346.656C353.447 353.207 364.714 357.629 375.816 361.559C386.756 365.49 397.533 369.093 407.493 373.842C417.453 378.428 426.433 384.16 434.107 391.202C435.087 392.021 436.066 393.003 437.046 393.822C437.862 394.641 438.842 395.624 439.658 396.606C440.475 397.589 441.454 398.408 442.271 399.39C442.761 399.882 443.087 400.373 443.577 400.864L444.72 402.338C446.19 404.303 447.822 406.105 449.129 408.234C450.435 410.363 451.741 412.328 453.047 414.293C457.946 422.482 461.538 431.162 464.803 439.35C468.069 447.539 470.681 455.564 473.784 462.77C479.498 477.509 486.519 489.628 493.704 498.308C496.969 502.238 500.235 505.678 503.337 508.462L503.664 508.462L503.664 508.626Z" stroke="white" stroke-opacity="0.015" stroke-width="2" mask="url(#path-1-inside-1)"/>
</svg>
