<svg width="42" height="59" viewBox="0 0 42 59" fill="none" xmlns="http://www.w3.org/2000/svg">
<path d="M40.8638 57.5498C40.8722 57.5779 40.8806 57.6061 40.8891 57.6344L40.2662 57.6344C40.212 57.5182 40.1619 57.407 40.1123 57.2966C40.0746 57.2129 40.0372 57.1297 39.9982 57.0452C39.8769 56.7815 39.7473 56.5187 39.5732 56.2518C38.613 54.2084 37.4769 52.0736 36.3012 49.8645C35.8736 49.061 35.4407 48.2477 35.0092 47.4253C34.4081 46.2202 33.715 45.0937 33.0116 43.9503C32.7469 43.5199 32.4807 43.0872 32.2174 42.647L32.2019 42.6211L32.1834 42.5973C31.6336 41.8883 31.1589 41.096 30.6662 40.2723L30.6584 40.2593C30.176 39.4528 29.6755 38.6162 29.0889 37.858C28.5163 37.0379 27.9442 36.2591 27.3761 35.4857L27.3745 35.4837C26.8026 34.7051 26.2346 33.9319 25.6672 33.1189L25.66 33.1085L25.6523 33.0986C24.4993 31.6118 23.1842 30.1277 21.8823 28.6587L21.8789 28.6549L19.9225 26.3656L19.9101 26.351L19.8965 26.3374L18.8352 25.2729L17.7842 24.2187C16.9091 23.2325 15.9508 22.3071 14.9843 21.3738C14.498 20.9043 14.0096 20.4327 13.5286 19.9503L13.5183 19.9399L13.5073 19.9301C12.7617 19.2653 11.9766 18.6436 11.2048 18.0325L11.199 18.028C10.4215 17.4123 9.6575 16.8071 8.93548 16.1634L8.9006 16.1323L8.86055 16.1082C8.33753 15.7934 7.90551 15.423 7.41398 15.0017C7.17282 14.7949 6.91735 14.5759 6.62977 14.3451L6.61283 14.3316L6.59478 14.3195L4.1456 12.6818L4.13127 12.6722L4.11631 12.6636C3.56665 12.3486 3.05345 11.9926 2.52008 11.6222L2.51209 11.6166C2.062 11.3041 1.59716 10.9813 1.1021 10.6825L1.1021 1.29654L3.72867 3.17831C4.53472 3.82545 5.34188 4.51356 6.15575 5.20743L6.15871 5.20995C6.97054 5.90209 7.78906 6.59994 8.60869 7.25787L11.037 9.36879L13.3103 11.6489L17.8626 16.215C18.5153 17.0324 19.2071 17.8487 19.8932 18.6584L19.8957 18.6613C20.5905 19.4812 21.2795 20.2944 21.9272 21.1064L23.8753 23.5488L25.6561 26.1469C26.1021 26.8495 26.5741 27.5296 27.0353 28.1944C27.1705 28.3893 27.3049 28.5829 27.4374 28.7754C28.0275 29.6326 28.5865 30.4746 29.0632 31.3511C29.5554 32.2562 30.0472 33.1196 30.5364 33.9781L30.5375 33.98C31.0276 34.8404 31.515 35.696 32.0021 36.5917L32.007 36.6007L32.0123 36.6095C32.6597 37.6919 33.2258 38.9019 33.781 40.0887C34.0545 40.6736 34.3255 41.2528 34.6022 41.8083C34.8668 42.3919 35.1287 42.9531 35.3838 43.4997C35.9245 44.6581 36.4346 45.751 36.8738 46.8519C37.3073 47.9933 37.7386 49.0931 38.1569 50.16C39.0071 52.3283 39.8038 54.3602 40.4574 56.3269L40.462 56.3408L40.4675 56.3544C40.6212 56.7399 40.7377 57.1282 40.8611 57.5407L40.8638 57.5498Z" stroke="white" stroke-opacity="0.015"/>
</svg>
