<svg width="59" height="79" viewBox="0 0 59 79" fill="none" xmlns="http://www.w3.org/2000/svg">
<path d="M52.2176 60.944L52.2205 60.9522L52.2237 60.9603C53.8502 65.0388 55.1518 68.7917 56.2913 72.3832C56.8912 74.4887 57.4914 76.4577 58.092 78.2899L57.6088 78.2899C57.1734 77.1229 56.6728 75.9478 56.1572 74.7375C55.9183 74.1768 55.6761 73.6085 55.4358 73.0299L55.4338 73.0252C53.9639 69.585 52.3278 65.8103 50.527 62.0338L50.5233 62.026L50.5193 62.0183C50.2316 61.4653 49.9436 60.908 49.6537 60.3471C47.976 57.101 46.2355 53.7334 44.1385 50.367C41.8345 46.2424 39.0418 42.4545 36.1014 38.686L36.0967 38.6799L36.0918 38.674C35.6852 38.1847 35.3192 37.736 34.9517 37.2855L34.9508 37.2844C34.5839 36.8346 34.2154 36.3828 33.8059 35.89L33.7914 35.8725L33.7754 35.8565C33.3771 35.457 32.977 35.0157 32.5672 34.5635L32.5627 34.5586C32.1606 34.1149 31.749 33.6608 31.3356 33.2455C30.341 32.1381 29.1169 30.9481 27.9337 29.798C27.3572 29.2376 26.7904 28.6866 26.2646 28.1592L26.2562 28.1508L26.2474 28.1428C22.6374 24.851 18.8623 21.8876 14.9222 19.253C10.9886 16.6226 7.05064 14.3181 2.94549 12.3415L1.26564 11.499L1.26564 1.67352C3.14121 2.68845 5.00669 3.71277 6.87087 4.86341L6.87085 4.86344L6.87568 4.86634C10.9386 7.31143 15.1661 10.2469 19.0685 13.3456L19.0684 13.3456L19.0763 13.3516C23.1209 16.4349 26.6873 20.0095 30.2733 23.7694C30.7544 24.3397 31.2106 24.8729 31.6516 25.3885C32.859 26.8001 33.9531 28.0792 35.1369 29.622C35.7897 30.6033 36.6061 31.75 37.4281 32.7416C37.7533 33.2302 38.117 33.7572 38.4778 34.2799L38.4796 34.2826C38.8471 34.815 39.2115 35.3428 39.5348 35.8293C42.3003 40.0717 44.7393 44.3125 46.8525 48.5516C48.9683 52.796 50.756 56.8719 52.2176 60.944Z" stroke="white" stroke-opacity="0.015"/>
</svg>
