<svg width="292" height="272" viewBox="0 0 292 272" fill="none" xmlns="http://www.w3.org/2000/svg">
<path d="M283.702 268.058C278.734 266.168 273.078 264.167 266.805 261.989C266.186 261.774 265.56 261.557 264.928 261.338C256.885 258.554 247.823 255.418 238.623 250.88C237.991 250.542 237.352 250.206 236.709 249.868C234.844 248.887 232.95 247.89 231.141 246.802L231.124 246.792L231.107 246.783C229.086 245.77 227.169 244.461 225.241 243.144C224.713 242.783 224.183 242.422 223.65 242.065L223.644 242.061L223.638 242.057C222.752 241.502 221.956 240.879 221.106 240.214C220.725 239.916 220.333 239.61 219.917 239.297C218.608 238.312 217.316 237.34 216.187 236.37C215.625 235.886 215.061 235.361 214.488 234.827L214.484 234.824C213.917 234.296 213.341 233.759 212.764 233.263C212.762 233.261 212.76 233.26 212.759 233.258L210.991 231.646L209.374 229.862L209.368 229.855L209.361 229.848C200.431 220.728 192.951 208.99 187.255 196.258C184.404 189.804 181.878 183.143 179.347 176.448L179.196 176.05C176.717 169.492 174.227 162.904 171.421 156.472C170.326 153.727 169.002 151.093 167.652 148.407C167.38 147.867 167.108 147.325 166.836 146.779L166.822 146.752L166.804 146.726C165.942 145.427 165.175 144.064 164.393 142.675C164.299 142.508 164.204 142.34 164.109 142.171C163.233 140.618 162.324 139.043 161.248 137.547L159.784 135.344L158.314 133.133L158.302 133.115L158.289 133.098L155.044 129.029C154.542 128.195 154.032 127.514 153.353 126.833L151.401 124.875L151.394 124.868L147.646 120.945L147.638 120.937L147.63 120.929C137.289 111.051 124.823 103.65 111.55 98.3899C105.047 95.7328 98.3888 93.3924 91.7606 91.0627L91.3846 90.9305C84.6296 88.556 77.9094 86.1865 71.395 83.4915C64.8664 80.5447 58.5337 77.6117 52.6937 73.8698C51.9519 73.374 51.2114 72.9201 50.4803 72.472L50.4767 72.4698C49.7407 72.0186 49.0143 71.5733 48.2891 71.0884C47.5701 70.6076 46.8888 70.0853 46.1929 69.5514L46.1869 69.5469C45.4979 69.0184 44.7942 68.4787 44.0471 67.9789C41.7507 66.4027 40.0083 64.8359 38.239 63.245C37.6443 62.7103 37.0467 62.1729 36.4239 61.6315C26.3583 52.5115 19.2082 41.9205 13.8394 31.64L13.8364 31.6345C9.25442 23.1188 6.1254 14.9438 3.3262 7.6307C2.7482 6.12057 2.18426 4.64721 1.62448 3.21517C1.45502 2.62512 1.24576 2.08084 1.04318 1.57286C1.008 1.48465 0.973175 1.39786 0.938812 1.31225C0.863495 1.12461 0.790436 0.942613 0.721008 0.763659L12.881 0.76366C13.1181 1.42504 13.3565 2.09191 13.5967 2.76392C16.2952 10.3139 19.2255 18.5121 23.2311 26.8455C23.2314 26.8461 23.2317 26.8467 23.232 26.8474L23.2361 26.8562C24.3717 29.297 25.5236 31.773 27.0061 34.0894C28.3186 36.5555 29.7925 38.855 31.4247 41.1483C31.8748 41.9335 32.4861 42.7387 33.073 43.5119C33.3576 43.8868 33.6364 44.2541 33.8885 44.6081L33.8933 44.6149C34.7067 45.757 35.5339 46.9187 36.5281 48.0821C37.0241 48.6624 37.5193 49.2005 38.0075 49.731L38.0098 49.7335C38.5005 50.2667 38.9842 50.7924 39.4671 51.3575L39.4796 51.3721L39.4932 51.3857L40.2746 52.1695L40.5738 52.6196L40.6012 52.6608L40.6361 52.6958L40.7994 52.8596L40.9132 52.7461L40.7994 52.8596L40.8901 52.9506L40.8903 52.9508L283.702 268.058ZM283.702 268.058C278.791 265.994 273.111 263.771 266.796 261.456L266.785 261.452C265.423 260.917 264.024 260.376 262.594 259.823C255.301 257.003 247.193 253.869 238.974 249.473L238.969 249.47C236.523 248.161 234.065 246.846 231.605 245.366C229.15 243.888 226.69 242.244 224.39 240.434C223.372 239.792 222.533 239.045 221.705 238.307C221.445 238.076 221.187 237.845 220.924 237.619C220.564 237.31 220.194 237.01 219.818 236.704C219.045 236.076 218.246 235.427 217.467 234.645C216.903 234.08 216.338 233.554 215.766 233.02L215.762 233.017C215.193 232.487 214.616 231.95 214.038 231.37L212.405 229.732L212.387 229.715L212.372 229.695L210.912 227.906C202.378 218.684 195.495 207.17 190.255 194.524C187.635 188.202 185.345 181.554 183.019 174.802L182.997 174.74C180.677 168.002 178.32 161.158 175.559 154.397L175.554 154.386L175.554 154.386C174.258 150.973 172.636 147.555 171.007 144.286C170.508 143.377 170.025 142.462 169.543 141.548C168.273 139.14 167.01 136.745 165.485 134.51L165.477 134.498L165.469 134.485C164.487 132.842 163.522 131.231 162.401 129.785L162.396 129.779L162.391 129.772L158.969 125.032C158.724 124.725 158.499 124.414 158.288 124.122C158.212 124.018 158.138 123.916 158.066 123.818C157.784 123.433 157.516 123.09 157.217 122.79L157.202 122.775L157.189 122.759L155.4 120.638L155.393 120.63L151.653 116.391C140.932 105.477 127.769 97.1627 114.109 91.4541L114.098 91.4493L114.098 91.4492C107.341 88.4279 100.541 85.8546 93.8887 83.337L93.8787 83.3333C87.2281 80.8164 80.7222 78.3541 74.5819 75.5621L74.5796 75.5611C68.5227 72.7698 62.6242 69.6478 57.2133 66.1941C56.5518 65.7794 55.8922 65.3245 55.2433 64.877L55.2381 64.8735C54.5833 64.4219 53.9393 63.9779 53.2971 63.5753L53.2652 63.5554L53.2367 63.5308C52.682 63.054 52.0853 62.6147 51.4703 62.1624L51.4627 62.1568C50.8613 61.7144 50.2424 61.2592 49.6614 60.7612C47.8221 59.4406 45.8784 57.5996 44.0257 55.8449C43.5471 55.3916 43.0746 54.9441 42.6116 54.5128C42.6107 54.5119 42.6097 54.5111 42.6088 54.5102L40.9817 53.0415L40.972 53.0327L40.9627 53.0234L283.702 268.058Z" stroke="white" stroke-opacity="0.015"/>
</svg>
