<svg width="25" height="36" viewBox="0 0 25 36" fill="none" xmlns="http://www.w3.org/2000/svg">
<path d="M21.0337 30.0686L21.0429 30.0931L21.0545 30.1166C21.7285 31.4685 22.3212 32.8129 22.8956 34.1159C23.0699 34.5111 23.2425 34.9026 23.4151 35.2893L21.7807 35.2893C21.5331 34.8863 21.2802 34.4616 21.0194 34.0237C20.4929 33.1395 19.9343 32.2016 19.323 31.2801C18.823 30.2856 18.1336 29.3666 17.4947 28.515C17.2692 28.2145 17.05 27.9223 16.8477 27.6382C16.623 27.3226 16.3935 26.9872 16.1573 26.6418C15.5617 25.7709 14.923 24.837 14.2081 24.0005C13.2273 22.8528 12.2579 21.7181 11.2893 20.4229L11.2796 20.4099L11.269 20.3975C10.7727 19.8167 10.2364 19.2374 9.7082 18.6669L9.70468 18.6631C9.17272 18.0884 8.64899 17.5226 8.16674 16.9583L8.162 16.9528L8.1571 16.9473L6.52431 15.1459L6.49239 15.1107L6.45442 15.0821C6.16094 14.8614 5.89968 14.6005 5.60989 14.3098L5.59918 14.2991C5.32673 14.0258 5.02747 13.7256 4.68267 13.4628L1.11563 10.0476L1.10237 10.0343L1.10237 1.56447C1.30114 1.7958 1.50841 2.03169 1.71778 2.2417L2.07187 1.88868L1.71779 2.24171C2.85873 3.38609 4.14774 4.67927 5.27497 5.97007C5.76745 6.62786 6.29905 7.28411 6.82349 7.93151L6.82664 7.93541C7.35846 8.59192 7.88286 9.23939 8.36588 9.88536L8.38715 9.9138L8.41222 9.93895C9.03451 10.5631 9.5036 11.1885 9.99298 11.843L11.4571 13.9642L11.4625 13.972L11.4682 13.9796C11.741 14.3445 12.0202 14.7021 12.2979 15.0579C13.0491 16.0202 13.7903 16.9697 14.3703 18.0167L14.3765 18.028L14.3833 18.0389C14.7873 18.6873 15.1921 19.3774 15.6009 20.0746L15.6028 20.0777C16.0097 20.7716 16.4207 21.4724 16.8325 22.1332L16.8437 22.1512L16.8564 22.1682C17.6442 23.2217 18.211 24.3813 18.7642 25.5132C18.8745 25.739 18.9843 25.9636 19.0952 26.1861C19.3164 26.6298 19.5593 27.0796 19.7975 27.5207C19.9144 27.7372 20.0302 27.9516 20.1418 28.1623C20.4863 28.8128 20.8005 29.4448 21.0337 30.0686Z" stroke="white" stroke-opacity="0.015"/>
</svg>
