<svg width="389" height="410" viewBox="0 0 389 410" fill="none" xmlns="http://www.w3.org/2000/svg">
<mask id="path-1-inside-1" fill="white">
<path d="M388.878 409.626C387.899 407.005 386.592 404.057 385.286 400.946C381.694 392.921 376.469 383.095 368.305 373.76C360.305 364.261 349.038 355.254 335.323 348.375C328.465 344.936 321.118 341.988 313.444 339.04C305.77 336.092 297.769 333.308 289.932 329.869C282.094 326.43 274.094 322.499 266.746 317.259C263.154 314.638 259.562 312.018 256.296 308.579L253.684 306.122C253.031 305.467 252.214 304.485 251.398 303.666C249.928 301.864 248.296 300.227 246.826 298.425C240.948 291.219 236.376 282.867 232.458 274.023C228.539 265.18 225.437 255.845 222.008 246.346C218.742 236.847 215.15 227.349 210.252 218.014C208.946 215.721 207.803 213.428 206.496 211.135L204.374 207.86L203.394 206.222L202.251 204.584C200.618 202.455 199.149 200.163 197.353 198.361L192.128 192.629C184.78 185.096 176.127 178.872 166.983 173.795C157.839 168.719 148.369 164.952 138.899 161.349C129.592 157.746 120.285 154.471 111.795 150.376C107.55 148.411 103.304 146.118 99.3857 143.662C97.4263 142.351 95.467 141.041 93.6709 139.895C91.8749 138.585 90.2421 137.111 88.446 135.801C87.6296 135.146 86.65 134.327 85.8336 133.508L83.2211 131.051L81.9149 129.905L81.2617 129.25L81.0985 129.086C81.425 129.25 81.0985 129.086 81.0985 129.086L80.7719 128.758L78.486 126.302C75.3838 123.026 72.9346 119.424 70.3221 115.984C65.4238 108.778 61.8316 100.917 58.5661 93.0564C55.3005 85.1954 52.688 77.1706 49.9123 69.3096C47.1366 61.4486 44.3608 53.9152 40.7687 46.7093C37.3399 39.5033 33.5844 32.9525 29.0127 26.893C27.8697 25.419 26.7267 23.7813 25.5838 22.4712C24.4409 21.161 23.2979 20.0146 22.3182 18.7044C21.8284 18.0494 21.1753 17.558 20.6854 16.9029L20.3589 16.4116L20.1956 16.2479C19.7058 15.7566 20.0323 16.0841 19.869 15.9203L19.7058 15.7566L18.7261 14.9377C17.4199 13.7913 16.2769 12.6449 15.134 11.4985C10.2356 7.0767 5.33728 3.63751 0.602203 0.525862L0.602203 15.7566C2.72482 17.2305 4.84744 18.8682 6.97006 20.6697C8.11301 21.6523 9.09268 22.6349 10.2356 23.6176L11.052 24.4364L11.2153 24.6002C11.2153 24.6002 11.3786 24.764 11.2153 24.6002L11.5419 24.9277C12.0317 25.5828 12.6848 26.0741 13.1747 26.7292C14.3176 27.8756 15.4605 29.1858 16.6035 30.3322C17.7464 31.6423 18.5628 32.7887 19.5425 34.0989C21.5019 36.3917 23.2979 39.3396 25.2573 42.2874C26.2369 43.7614 27.0533 45.2353 27.8697 46.873C28.6861 48.5107 29.6657 49.9847 30.4821 51.6224C33.7477 58.1732 36.6867 65.3791 39.6258 72.9126C42.5648 80.4461 45.3405 88.6346 48.9326 96.8231C52.5248 105.012 56.6067 113.528 62.1582 121.389C65.0972 125.319 67.8729 129.25 71.3018 132.689L73.7509 135.309L74.0775 135.637C74.2408 135.801 74.0775 135.637 74.4041 135.964L74.5673 136.128L75.2205 136.783L76.5267 137.93L79.1392 140.222C79.9556 141.041 80.7719 141.86 81.9148 142.515C83.8742 143.989 85.9969 145.627 88.1195 147.101C90.2421 148.411 92.3647 149.721 94.4873 151.195C98.8958 153.652 103.304 156.108 107.876 158.073C117.02 162.168 126.49 165.443 135.96 168.719C145.267 171.994 154.574 175.597 163.228 180.019C171.881 184.604 180.045 190.173 187.066 197.051L192.128 202.455C193.108 203.438 193.761 204.421 194.414 205.239L196.7 208.024L197.843 209.498L198.822 210.971L200.782 214.083C202.251 216.048 203.394 218.341 204.537 220.47C209.272 229.15 213.027 238.321 216.456 247.656C220.048 256.991 223.314 266.49 227.559 275.497C231.805 284.505 236.866 293.184 243.071 300.554C244.54 302.519 246.336 304.157 247.969 305.959C248.785 306.777 249.439 307.76 250.582 308.579L253.194 310.872C256.46 313.983 260.542 316.931 264.297 319.552C271.971 324.792 280.298 328.723 288.299 331.998C296.463 335.274 304.463 338.058 312.138 340.842C319.812 343.626 327.159 346.41 334.017 349.685C347.732 356.072 358.835 364.752 366.999 373.924C375.163 383.095 380.551 392.593 384.307 400.618C385.776 403.73 387.082 406.514 388.062 409.134L388.878 409.134L388.878 409.626Z"/>
</mask>
<path d="M388.878 409.626C387.899 407.005 386.592 404.057 385.286 400.946C381.694 392.921 376.469 383.095 368.305 373.76C360.305 364.261 349.038 355.254 335.323 348.375C328.465 344.936 321.118 341.988 313.444 339.04C305.77 336.092 297.769 333.308 289.932 329.869C282.094 326.43 274.094 322.499 266.746 317.259C263.154 314.638 259.562 312.018 256.296 308.579L253.684 306.122C253.031 305.467 252.214 304.485 251.398 303.666C249.928 301.864 248.296 300.227 246.826 298.425C240.948 291.219 236.376 282.867 232.458 274.023C228.539 265.18 225.437 255.845 222.008 246.346C218.742 236.847 215.15 227.349 210.252 218.014C208.946 215.721 207.803 213.428 206.496 211.135L204.374 207.86L203.394 206.222L202.251 204.584C200.618 202.455 199.149 200.163 197.353 198.361L192.128 192.629C184.78 185.096 176.127 178.872 166.983 173.795C157.839 168.719 148.369 164.952 138.899 161.349C129.592 157.746 120.285 154.471 111.795 150.376C107.55 148.411 103.304 146.118 99.3857 143.662C97.4263 142.351 95.467 141.041 93.6709 139.895C91.8749 138.585 90.2421 137.111 88.446 135.801C87.6296 135.146 86.65 134.327 85.8336 133.508L83.2211 131.051L81.9149 129.905L81.2617 129.25L81.0985 129.086C81.425 129.25 81.0985 129.086 81.0985 129.086L80.7719 128.758L78.486 126.302C75.3838 123.026 72.9346 119.424 70.3221 115.984C65.4238 108.778 61.8316 100.917 58.5661 93.0564C55.3005 85.1954 52.688 77.1706 49.9123 69.3096C47.1366 61.4486 44.3608 53.9152 40.7687 46.7093C37.3399 39.5033 33.5844 32.9525 29.0127 26.893C27.8697 25.419 26.7267 23.7813 25.5838 22.4712C24.4409 21.161 23.2979 20.0146 22.3182 18.7044C21.8284 18.0494 21.1753 17.558 20.6854 16.9029L20.3589 16.4116L20.1956 16.2479C19.7058 15.7566 20.0323 16.0841 19.869 15.9203L19.7058 15.7566L18.7261 14.9377C17.4199 13.7913 16.2769 12.6449 15.134 11.4985C10.2356 7.0767 5.33728 3.63751 0.602203 0.525862L0.602203 15.7566C2.72482 17.2305 4.84744 18.8682 6.97006 20.6697C8.11301 21.6523 9.09268 22.6349 10.2356 23.6176L11.052 24.4364L11.2153 24.6002C11.2153 24.6002 11.3786 24.764 11.2153 24.6002L11.5419 24.9277C12.0317 25.5828 12.6848 26.0741 13.1747 26.7292C14.3176 27.8756 15.4605 29.1858 16.6035 30.3322C17.7464 31.6423 18.5628 32.7887 19.5425 34.0989C21.5019 36.3917 23.2979 39.3396 25.2573 42.2874C26.2369 43.7614 27.0533 45.2353 27.8697 46.873C28.6861 48.5107 29.6657 49.9847 30.4821 51.6224C33.7477 58.1732 36.6867 65.3791 39.6258 72.9126C42.5648 80.4461 45.3405 88.6346 48.9326 96.8231C52.5248 105.012 56.6067 113.528 62.1582 121.389C65.0972 125.319 67.8729 129.25 71.3018 132.689L73.7509 135.309L74.0775 135.637C74.2408 135.801 74.0775 135.637 74.4041 135.964L74.5673 136.128L75.2205 136.783L76.5267 137.93L79.1392 140.222C79.9556 141.041 80.7719 141.86 81.9148 142.515C83.8742 143.989 85.9969 145.627 88.1195 147.101C90.2421 148.411 92.3647 149.721 94.4873 151.195C98.8958 153.652 103.304 156.108 107.876 158.073C117.02 162.168 126.49 165.443 135.96 168.719C145.267 171.994 154.574 175.597 163.228 180.019C171.881 184.604 180.045 190.173 187.066 197.051L192.128 202.455C193.108 203.438 193.761 204.421 194.414 205.239L196.7 208.024L197.843 209.498L198.822 210.971L200.782 214.083C202.251 216.048 203.394 218.341 204.537 220.47C209.272 229.15 213.027 238.321 216.456 247.656C220.048 256.991 223.314 266.49 227.559 275.497C231.805 284.505 236.866 293.184 243.071 300.554C244.54 302.519 246.336 304.157 247.969 305.959C248.785 306.777 249.439 307.76 250.582 308.579L253.194 310.872C256.46 313.983 260.542 316.931 264.297 319.552C271.971 324.792 280.298 328.723 288.299 331.998C296.463 335.274 304.463 338.058 312.138 340.842C319.812 343.626 327.159 346.41 334.017 349.685C347.732 356.072 358.835 364.752 366.999 373.924C375.163 383.095 380.551 392.593 384.307 400.618C385.776 403.73 387.082 406.514 388.062 409.134L388.878 409.134L388.878 409.626Z" stroke="white" stroke-opacity="0.015" stroke-width="2" mask="url(#path-1-inside-1)"/>
</svg>
