<svg width="133" height="149" viewBox="0 0 133 149" fill="none" xmlns="http://www.w3.org/2000/svg">
<path d="M1.10205 1.04431C4.96896 2.89661 8.99636 4.74384 13.3169 6.44634C13.3168 6.44632 13.3168 6.4463 13.3167 6.44628L1.10205 1.04431ZM1.10205 1.04431L1.10205 12.0267C3.94083 13.1296 6.92651 14.2329 9.91698 15.338C13.4954 16.6432 17.197 17.8674 20.9684 19.1147L20.9852 19.1202C24.76 20.3687 28.6037 21.6401 32.4486 23.035C40.1333 25.8229 47.8323 28.9439 55.2096 32.8904L55.2138 32.8926C57.0224 33.8821 58.8282 35.0345 60.6168 36.1761C62.4449 37.1781 64.2616 38.5051 65.8998 39.8196C66.5243 40.3207 67.171 40.7961 67.8332 41.2827C68.0259 41.4244 68.22 41.5671 68.4152 41.7116C69.2739 42.3473 70.1456 43.013 70.9795 43.7653L75.7106 47.8562L75.7246 47.8683L75.7377 47.8814C82.1288 54.2918 87.2153 60.5446 91.8098 67.9508L91.8114 67.9535C96.2388 75.1902 99.8423 82.9138 102.95 90.4607C104.437 94.0722 105.849 97.6832 107.239 101.236L107.423 101.708C108.873 105.414 110.299 109.052 111.766 112.568L111.77 112.577L111.77 112.577C114.537 119.597 117.631 126.13 120.725 132.011C120.931 132.383 121.134 132.751 121.334 133.115C122.734 135.656 124.038 138.023 125.587 140.142L125.594 140.151L125.6 140.161C127.236 142.622 128.853 145.054 130.627 147.157L130.666 147.203L130.693 147.256C130.783 147.438 130.955 147.636 131.109 147.798L131.177 147.798C131.049 147.618 130.926 147.441 130.818 147.279C129.17 145.128 127.692 142.657 126.226 140.043C124.943 138.11 123.856 135.873 122.754 133.605C122.438 132.955 122.121 132.302 121.797 131.653L121.792 131.643L121.792 131.643C119.011 125.736 116.229 119.17 113.773 111.945C112.327 108.048 110.973 103.923 109.582 99.6904C108.466 96.2907 107.326 92.8211 106.098 89.3436C103.328 81.498 100.073 73.4998 95.8443 65.6698C91.6208 58.0124 85.9343 50.19 80.0892 44L1.10205 1.04431Z" stroke="white" stroke-opacity="0.015"/>
</svg>
