<svg width="239" height="221" viewBox="0 0 239 221" fill="none" xmlns="http://www.w3.org/2000/svg">
<path d="M25.5515 15.8275L25.4597 15.6432L25.1904 15.3731L25.1653 15.3479L25.144 15.3195L24.6589 14.6707C24.3442 14.2767 23.9886 13.8801 23.6211 13.4706L23.616 13.4649C23.2522 13.0594 22.8767 12.641 22.5411 12.2202C22.2252 11.8241 21.8679 11.4257 21.4985 11.014L21.4934 11.0083C21.1296 10.6029 20.7541 10.1844 20.4185 9.76359L20.4064 9.74849C19.7658 8.94535 19.0994 8.10985 18.5934 7.26718C18.0302 6.46092 17.4264 5.65338 16.8168 4.83812L16.8148 4.83548C16.2041 4.01869 15.5875 3.19412 15.0112 2.36828L15.0047 2.35897L15.0048 2.3589C14.8349 2.10341 14.7074 1.89024 14.5855 1.68637L14.5839 1.68373C14.5022 1.54715 14.4229 1.41469 14.3329 1.27196L1.09859 1.27196C2.46997 3.62129 4.09688 5.98931 5.86804 8.50609C6.51555 9.39896 7.20425 10.293 7.89825 11.1938L7.90137 11.1978C8.59344 12.0962 9.29082 13.0014 9.94794 13.9077L9.95392 13.9159L9.95955 13.9244C10.3859 14.5659 10.8708 15.1182 11.4027 15.724C11.6578 16.0146 11.9238 16.3175 12.1992 16.6484C12.6104 17.0619 13.0198 17.5136 13.4198 17.9549L13.4241 17.9597C13.8339 18.4118 14.234 18.8531 14.6323 19.2526C15.0488 19.6703 15.4634 20.1278 15.8685 20.5747L15.8733 20.58C16.2831 21.0322 16.6832 21.4734 17.0815 21.8729L17.7346 22.528L18.0612 22.8556M25.5515 15.8275L18.0612 22.8556M25.5515 15.8275L25.5169 15.8644L25.5172 15.8646L25.5179 15.8653L25.5205 15.868L25.5306 15.8781L25.5654 15.913L25.623 15.9707L25.6598 16.0077L25.6802 16.0281L25.7201 16.0681L25.7236 16.0717L25.5515 15.8275ZM18.0612 22.8556L18.2244 23.0193L18.3704 23.1657L18.3704 23.3295M18.0612 22.8556L18.3704 23.3295M18.3704 23.3295L18.5392 23.4989L19.833 24.6343L19.8401 24.6405C21.6389 26.2809 23.4178 27.9024 25.3552 29.3598L25.3601 29.3635C26.4171 30.1791 27.5156 30.9953 28.6184 31.8146L28.621 31.8166C29.7158 32.63 30.8149 33.4466 31.8744 34.2637L35.2855 36.4632L38.7056 38.6685C48.1315 44.2094 58.7054 48.4533 69.6291 52.2146C71.0427 52.7013 72.4598 53.1855 73.8789 53.6704C83.4285 56.9337 93.0666 60.2271 102.332 64.5164C112.98 69.4455 123.154 75.6973 131.696 83.9352L131.704 83.9431L131.712 83.9513L134.814 87.2267L134.823 87.236L134.831 87.2457C135.796 88.375 136.925 89.5078 137.908 90.4929L137.929 90.5141L137.947 90.5376C138.538 91.2923 139.133 92.0337 139.73 92.7776C140.932 94.2751 142.142 95.7829 143.345 97.4292L143.352 97.4381L143.352 97.4382C146.796 102.374 149.748 107.473 152.369 112.732L152.371 112.735C156.962 122.088 160.672 131.82 164.265 141.242C164.771 142.569 165.274 143.89 165.778 145.203L165.779 145.205C169.855 155.999 174.413 166.281 180.101 175.247C181.561 177.524 183.021 179.641 184.487 181.764C186.117 183.728 187.746 185.85 189.209 187.808C190.016 188.697 190.864 189.588 191.716 190.483L191.717 190.484C192.57 191.381 193.429 192.283 194.247 193.186L195.533 194.476L196.827 195.611L196.839 195.622L196.851 195.634C197.239 196.023 197.668 196.376 198.12 196.747L198.13 196.754C198.573 197.118 199.038 197.5 199.464 197.927C200.143 198.608 200.821 199.172 201.62 199.837C201.756 199.95 201.895 200.066 202.038 200.185C202.834 200.823 203.793 201.465 204.776 202.122L204.784 202.128L204.792 202.134C206.584 203.44 208.37 204.744 209.994 205.884C210.969 206.462 211.926 207.048 212.867 207.625C215.031 208.95 217.111 210.223 219.13 211.229C216.683 209.896 214.23 208.244 211.724 206.556C211.238 206.23 210.751 205.901 210.261 205.574L210.252 205.567L210.252 205.567C209.419 204.983 208.591 204.318 207.755 203.643L207.629 203.541C206.831 202.897 206.024 202.245 205.183 201.631L205.173 201.625L205.164 201.618C204.941 201.438 204.694 201.251 204.436 201.056C203.806 200.579 203.107 200.05 202.511 199.452C202.113 199.053 201.715 198.693 201.305 198.323L201.301 198.319C200.895 197.953 200.479 197.577 200.062 197.159L200.057 197.154L200.052 197.149L200.047 197.144L200.042 197.14L200.038 197.135L200.033 197.13L200.028 197.125L200.023 197.12L200.019 197.116L200.014 197.111L200.009 197.106L200.004 197.101L199.999 197.096L199.995 197.092L199.99 197.087L199.985 197.082L199.98 197.077L199.976 197.072L199.971 197.068L199.966 197.063L199.961 197.058L199.956 197.053L199.952 197.048L199.947 197.044L199.942 197.039L199.937 197.034L199.932 197.029L199.928 197.024L199.923 197.02L199.918 197.015L199.913 197.01L199.909 197.005L199.904 197L199.899 196.996L199.894 196.991L199.889 196.986L199.885 196.981L199.88 196.976L199.875 196.972L199.87 196.967L199.866 196.962L199.861 196.957L199.856 196.952L199.851 196.948L199.846 196.943L199.842 196.938L199.837 196.933L199.832 196.928L199.827 196.924L199.822 196.919L199.818 196.914L199.813 196.909L199.808 196.904L199.803 196.9L199.799 196.895L199.794 196.89L199.789 196.885L199.784 196.88L199.779 196.876L199.775 196.871L199.77 196.866L199.765 196.861L199.76 196.856L199.755 196.852L199.751 196.847L199.746 196.842L199.741 196.837L199.736 196.832L199.732 196.828L199.727 196.823L199.722 196.818L199.717 196.813L199.712 196.809L199.708 196.804L199.703 196.799L199.698 196.794L199.693 196.789L199.689 196.785L199.684 196.78L199.679 196.775L199.674 196.77L199.669 196.765L199.665 196.761L199.66 196.756L199.655 196.751L199.65 196.746L199.645 196.741L199.641 196.737L199.636 196.732L199.631 196.727L199.626 196.722L199.622 196.717L199.617 196.713L199.612 196.708L199.607 196.703L199.602 196.698L199.598 196.693L199.593 196.689L199.588 196.684L199.583 196.679L199.578 196.674L199.574 196.669L199.569 196.665L199.564 196.66L199.559 196.655L199.555 196.65L199.55 196.645L199.545 196.641L199.54 196.636L199.535 196.631L199.531 196.626L199.526 196.621L199.521 196.617L199.516 196.612L199.512 196.607L199.507 196.602L199.502 196.597L199.497 196.593L199.492 196.588L199.488 196.583L199.483 196.578L199.478 196.573L199.473 196.569L199.468 196.564L199.464 196.559L199.459 196.554L199.454 196.549L199.449 196.545L199.445 196.54L199.44 196.535L199.435 196.53L199.43 196.525L199.425 196.521L199.421 196.516L199.416 196.511L199.411 196.506L199.406 196.501L199.401 196.497L199.397 196.492L199.392 196.487L199.387 196.482L199.382 196.477L199.378 196.473L199.373 196.468L199.368 196.463L199.363 196.458L199.358 196.453L199.354 196.449L199.349 196.444L199.344 196.439L199.339 196.434L199.335 196.429L199.33 196.425L199.325 196.42L199.32 196.415L199.315 196.41L199.311 196.405L199.306 196.401L199.301 196.396L199.296 196.391L199.291 196.386L199.287 196.381L199.282 196.377L199.277 196.372L199.272 196.367L199.268 196.362L199.263 196.357L199.258 196.353L199.253 196.348L199.248 196.343L199.244 196.338L199.239 196.334L199.234 196.329L199.229 196.324L199.225 196.319L199.22 196.314L199.215 196.31L199.21 196.305L199.205 196.3L199.201 196.295L199.196 196.29L199.191 196.286L199.186 196.281L199.181 196.276L199.177 196.271L199.172 196.266L199.167 196.262L199.162 196.257L199.158 196.252L199.153 196.247L199.148 196.242L199.143 196.238L199.138 196.233L199.134 196.228L199.129 196.223L199.124 196.218L199.119 196.214L199.114 196.209L199.11 196.204L199.105 196.199L199.1 196.194L199.095 196.19L199.091 196.185L199.086 196.18L199.081 196.175L199.076 196.17L199.071 196.166L199.067 196.161L199.062 196.156L199.057 196.151L199.052 196.146L199.048 196.142L199.043 196.137L199.038 196.132L199.033 196.127L199.028 196.122L199.024 196.118L199.019 196.113L199.014 196.108L199.009 196.103L199.004 196.098L199 196.094L198.995 196.089L198.99 196.084L198.985 196.079L198.981 196.074L198.976 196.07L198.971 196.065L198.966 196.06L198.961 196.055L198.957 196.05L198.952 196.046L198.947 196.041L198.942 196.036L198.937 196.031L198.933 196.026L198.928 196.022L198.923 196.017L198.918 196.012L198.914 196.007L198.909 196.002L198.904 195.998L198.899 195.993L198.894 195.988L198.89 195.983L198.885 195.978L198.88 195.974L198.875 195.969L198.871 195.964L198.866 195.959L198.861 195.954L198.856 195.95L198.851 195.945L198.847 195.94L198.842 195.935L198.837 195.93L198.832 195.926L198.827 195.921L198.823 195.916L198.818 195.911L198.813 195.906L198.808 195.902L198.804 195.897L198.799 195.892L198.794 195.887L198.789 195.882L198.784 195.878L198.78 195.873L198.775 195.868L198.77 195.863L198.765 195.859L198.761 195.854L198.756 195.849L198.751 195.844L198.746 195.839L198.741 195.835L198.737 195.83L198.732 195.825L198.727 195.82L198.722 195.815L198.717 195.811L198.713 195.806L198.708 195.801L198.703 195.796L198.698 195.791L198.694 195.787L198.689 195.782L198.684 195.777L198.679 195.772L198.674 195.767L198.67 195.763L198.665 195.758L198.66 195.753L198.655 195.748L198.65 195.743L198.646 195.739L198.641 195.734L198.636 195.729L198.631 195.724L198.627 195.719L198.622 195.715L198.617 195.71L198.612 195.705L198.607 195.7L198.603 195.695L198.598 195.691L198.593 195.686L198.588 195.681L198.584 195.676L198.579 195.671L198.574 195.667L198.569 195.662L198.564 195.657L198.56 195.652L198.555 195.647L198.55 195.643L198.545 195.638L198.54 195.633L198.536 195.628L198.531 195.623L198.526 195.619L198.521 195.614L198.517 195.609L198.512 195.604L198.507 195.599L198.502 195.595L198.497 195.59L198.493 195.585L198.488 195.58L198.483 195.575L198.478 195.571L198.473 195.566L198.469 195.561L198.464 195.556L198.459 195.551L198.454 195.547L198.45 195.542L198.445 195.537L198.44 195.532L198.435 195.527L198.43 195.523L198.426 195.518L198.421 195.513L198.416 195.508L198.411 195.503L198.407 195.499L198.402 195.494L198.397 195.489L198.392 195.484L198.387 195.479L198.383 195.475L198.378 195.47L198.373 195.465L198.368 195.46L198.363 195.455L198.359 195.451L198.354 195.446L198.349 195.441L198.344 195.436L198.34 195.431L198.335 195.427L198.33 195.422L198.325 195.417L198.32 195.412L198.316 195.407L198.311 195.403L198.306 195.398L198.301 195.393L198.296 195.388L198.292 195.384L198.287 195.379L198.282 195.374L198.277 195.369L198.273 195.364L198.268 195.36L198.263 195.355L198.258 195.35L198.253 195.345L198.249 195.34L198.244 195.336L198.239 195.331L198.234 195.326L198.23 195.321L198.225 195.316L198.22 195.312L198.215 195.307L198.21 195.302L198.206 195.297L198.201 195.292L198.196 195.288L198.191 195.283L198.186 195.278L198.182 195.273L198.177 195.268L198.172 195.264L198.167 195.259L198.163 195.254L198.158 195.249L198.153 195.244L198.148 195.24L198.143 195.235L198.139 195.23L198.134 195.225L198.129 195.22L198.124 195.216L198.12 195.211L198.115 195.206L198.11 195.201L198.105 195.196L198.1 195.192L198.096 195.187L198.091 195.182L198.086 195.177L198.081 195.172L198.076 195.168L198.072 195.163L198.067 195.158L198.062 195.153L198.057 195.148L198.053 195.144L198.048 195.139L198.043 195.134L198.038 195.129L198.033 195.124L198.029 195.12L198.024 195.115L198.019 195.11L198.014 195.105L198.009 195.1L198.005 195.096L198 195.091L197.995 195.086L197.99 195.081L197.986 195.076L197.981 195.072L197.976 195.067L197.971 195.062L197.966 195.057L197.962 195.052L197.957 195.048L197.952 195.043L197.947 195.038L197.943 195.033L197.938 195.028L197.933 195.024L197.928 195.019L197.923 195.014L197.919 195.009L197.914 195.004L197.909 195L197.904 194.995L197.899 194.99L197.895 194.985L197.89 194.98L197.885 194.976L197.88 194.971L197.876 194.966L197.871 194.961L197.866 194.956L197.861 194.952L197.856 194.947L197.852 194.942L197.847 194.937L197.842 194.932L197.837 194.928L197.832 194.923L197.828 194.918L197.823 194.913L197.818 194.909L197.813 194.904L197.809 194.899L197.804 194.894L197.799 194.889L197.794 194.885L197.789 194.88L197.785 194.875L197.78 194.87L197.775 194.865L197.77 194.861L197.766 194.856L197.761 194.851L197.756 194.846L197.751 194.841L197.746 194.837L197.742 194.832L197.737 194.827L197.732 194.822L197.727 194.817L197.722 194.813L197.718 194.808L197.713 194.803L197.708 194.798L197.703 194.793L197.699 194.789L197.694 194.784L197.689 194.779L197.684 194.774L197.679 194.769L197.675 194.765L197.67 194.76L197.665 194.755L197.66 194.75L197.656 194.745L197.651 194.741L197.646 194.736L197.641 194.731L197.636 194.726L197.632 194.721L197.627 194.717L197.624 194.714L197.622 194.712L196.33 193.579L196.305 193.557L196.284 193.531L195.141 192.221L195.135 192.215L195.13 192.209C193.67 190.419 192.046 188.627 190.412 186.824L190.396 186.806L190.382 186.788L190.38 186.785C188.912 184.821 187.437 182.85 185.962 180.713C185.218 179.635 184.558 178.559 183.904 177.473C183.788 177.279 183.672 177.085 183.555 176.891C183.016 175.992 182.471 175.084 181.871 174.148L181.865 174.138L181.859 174.129C176.611 165.081 172.517 154.892 168.757 144.072C168.065 142.079 167.378 140.071 166.688 138.051C163.627 129.097 160.484 119.902 156.364 110.703L156.363 110.7C153.926 105.161 150.838 99.6165 147.422 94.3951L147.416 94.3859L147.416 94.3858C146.274 92.5528 144.896 90.7293 143.546 88.9419C142.985 88.1992 142.429 87.4628 141.896 86.7346L140.439 85.0294L138.974 83.3149L135.881 79.8866C127.113 70.7677 116.552 63.5949 105.49 58.0474C97.2354 53.9076 88.8988 50.6789 80.7835 47.5359C78.0087 46.4613 75.2598 45.3966 72.5489 44.309C61.9236 40.2099 52.0931 35.7745 43.5631 30.345L43.5547 30.3396L43.5464 30.3339C41.4279 28.8628 39.4721 27.555 37.5124 26.2446L37.4921 26.2309L37.4731 26.2154C35.6749 24.7397 33.89 23.2751 32.1075 21.9748L32.0854 21.9587L32.0652 21.9403L32.0603 21.9358C30.2719 20.3051 28.473 18.6648 26.835 17.0226L25.7541 16.074C25.7367 16.075 25.7268 16.0749 25.7266 16.0747L25.7262 16.0742L18.3704 23.3295ZM163.797 141.419C164.303 142.746 164.807 144.068 165.311 145.382L69.4664 52.6873C70.8817 53.1747 72.2998 53.6593 73.7193 54.1443C83.2708 57.4083 92.8821 60.6927 102.122 64.9702C112.735 69.8833 122.858 76.1066 131.349 84.2951L134.451 87.5705C135.431 88.7169 136.574 89.8632 137.553 90.8457L137.553 90.846C138.152 91.6102 138.751 92.3563 139.35 93.1024C140.547 94.5945 141.744 96.0866 142.942 97.7243C146.371 102.637 149.31 107.714 151.922 112.955C156.502 122.286 160.204 131.995 163.797 141.419Z" stroke="white" stroke-opacity="0.015"/>
</svg>
