<svg width="76" height="97" viewBox="0 0 76 97" fill="none" xmlns="http://www.w3.org/2000/svg">
<path d="M61.7024 58.6722L61.7024 58.6723L61.705 58.6779C63.9818 63.5714 65.9348 68.6315 67.5635 73.3689C69.1943 78.1124 70.6623 82.6932 71.9685 86.7875C72.5409 88.5919 73.1132 90.3138 73.6639 91.9709L73.6644 91.9725C74.139 93.4005 74.5973 94.7797 75.0273 96.1255L74.2564 96.1255C73.6138 94.4783 72.9205 92.7751 72.208 91.0249C71.6859 89.7425 71.1536 88.4348 70.6235 87.1053L70.6207 87.0988C70.1458 85.9555 69.6566 84.7696 69.1534 83.5496C67.9285 80.5803 66.6202 77.4085 65.2306 74.1562L65.2276 74.1494L65.2245 74.1427C64.9417 73.5317 64.6587 72.9173 64.3743 72.3C62.5289 68.2941 60.6259 64.1634 58.3544 60.0333C55.8901 55.2556 52.7732 50.4853 49.4983 46.0508L49.4898 46.0393L49.4807 46.0284C49.365 45.8892 49.2466 45.7473 49.1263 45.6031C48.3897 44.7205 47.5808 43.7512 46.8909 42.7824L46.8669 42.7487L46.8377 42.7194C46.365 42.2453 45.9292 41.7292 45.4779 41.1942L45.4715 41.1867C45.0298 40.6631 44.5729 40.1214 44.0724 39.6183L42.7759 38.1553L42.7661 38.1443L42.7557 38.1339L41.2862 36.66L38.1839 33.5483L38.1688 33.5332L38.1525 33.5194L35.0502 30.899L35.0503 30.8989L35.0405 30.891L33.4077 29.5808L33.0948 29.9708L33.4077 29.5808L31.7787 28.2737C30.7856 27.444 29.6317 26.6173 28.4968 25.8042L28.4876 25.7976C27.9061 25.3811 27.326 25.007 26.7575 24.6404L26.7529 24.6375C26.18 24.2681 25.6187 23.906 25.0588 23.5049L25.0488 23.4977L25.0385 23.4911C20.4483 20.5313 15.6893 17.8972 10.7617 15.7555L10.7598 15.7547C8.29375 14.6946 5.82416 13.7176 3.42298 12.7677C2.58568 12.4365 1.7567 12.1085 0.939079 11.7815L0.939079 1.74456C5.28031 3.6355 9.77009 5.82138 14.4085 8.30265C19.2888 10.9133 24.327 14.011 29.0366 17.5946L29.0388 17.5963C29.3094 17.7998 29.5718 17.9955 29.8276 18.1863C30.8177 18.9247 31.7102 19.5902 32.6055 20.36L36.0298 23.3039L37.6483 24.765L39.2718 26.3933L42.5281 29.6594L45.4584 32.9251L46.92 34.554L48.3821 36.3464L48.382 36.3465L48.3894 36.3552C49.352 37.4816 50.3186 38.7732 51.1291 39.9109C51.5385 40.5673 51.9473 41.1824 52.3517 41.7909L52.3534 41.7934C52.7622 42.4084 53.1664 43.0166 53.5701 43.6645L53.5717 43.667C56.6631 48.5629 59.4273 53.6192 61.7024 58.6722Z" stroke="white" stroke-opacity="0.015"/>
</svg>
