<svg width="276" height="255" viewBox="0 0 276 255" fill="none" xmlns="http://www.w3.org/2000/svg">
<path d="M268.552 252.099C267.007 251.506 265.392 250.895 263.711 250.259L263.425 250.15C260.016 248.861 256.339 247.467 252.416 245.91C244.565 242.793 235.715 238.849 227.023 233.256C222.595 230.46 218.336 227.173 214.245 223.564C213.351 222.919 212.543 222.075 211.797 221.296C211.562 221.05 211.333 220.811 211.11 220.587L209.497 219.131L208.692 218.485L208.649 218.45L208.614 218.407L207.97 217.599C207.968 217.597 207.967 217.595 207.965 217.593C207.241 216.735 206.464 215.878 205.67 215.002C205.489 214.801 205.306 214.6 205.124 214.398C204.144 213.312 203.155 212.196 202.246 211.036C194.855 201.811 189.119 190.461 184.537 178.479C184.537 178.479 184.536 178.478 184.536 178.478L185.003 178.299L268.552 252.099ZM268.552 252.099C267.016 251.556 265.409 250.996 263.735 250.413L263.337 250.275C259.868 249.067 256.116 247.758 252.12 246.286C244.129 243.341 235.183 239.751 226.244 234.372L226.242 234.37C221.859 231.765 217.307 228.505 212.914 224.914L212.901 224.904L212.889 224.895C212.135 224.355 211.469 223.755 210.754 223.11C210.407 222.797 210.048 222.474 209.662 222.142C209.661 222.141 209.659 222.139 209.658 222.138L208.044 220.681L207.237 219.871L206.427 219.059C205.755 218.329 205.069 217.604 204.38 216.876C203.043 215.463 201.692 214.036 200.405 212.53C192.614 203.413 186.433 192.001 181.383 179.908C179.362 175.003 177.463 169.998 175.556 164.97C172.709 157.465 169.842 149.908 166.519 142.555L166.519 142.555L166.513 142.542L166.504 142.525C163.573 136.482 160.622 130.397 156.685 124.799C155.397 122.688 153.934 120.813 152.503 118.978C151.922 118.233 151.346 117.494 150.789 116.749C150.279 116.067 149.689 115.434 149.095 114.818C148.973 114.691 148.85 114.565 148.728 114.44C148.253 113.949 147.783 113.465 147.336 112.953L147.329 112.945L147.321 112.937L143.729 109.17L143.717 109.157L143.704 109.146L140.112 105.87L140.105 105.864C139.799 105.596 139.499 105.324 139.198 105.051C138.245 104.188 137.286 103.32 136.146 102.557C135.683 102.208 135.218 101.853 134.749 101.495C132.604 99.8567 130.386 98.1628 127.951 96.8038C122.72 93.4112 116.918 90.7421 111.253 88.1359C110.87 87.9594 110.487 87.7832 110.104 87.6071L110.096 87.603L110.087 87.5993C103.95 85.0551 97.6522 82.7993 91.3448 80.5881C90.3179 80.2281 89.2909 79.8693 88.2642 79.5107C82.9809 77.6651 77.7078 75.823 72.5199 73.8374L72.5144 73.8354C69.4112 72.6886 66.3386 71.5527 63.4315 70.0957C61.9495 69.2706 60.47 68.6106 59.0129 67.961C58.2749 67.5505 57.5383 67.1811 56.8126 66.8172L56.8089 66.8153C56.0727 66.4461 55.3476 66.0824 54.6239 65.679L54.6144 65.674C48.7692 62.5797 43.5679 58.994 38.3532 55.0712C37.4993 54.4288 36.8026 53.7997 36.0874 53.1538C35.7209 52.8229 35.3496 52.4875 34.9498 52.1437C34.3863 51.6594 33.8623 51.1742 33.3307 50.6821L33.328 50.6796C32.7992 50.1899 32.2627 49.6933 31.6842 49.1959L31.6777 49.1903L31.6711 49.185L30.8764 48.5473L30.5694 48.2394L30.2939 48.514L30.5693 48.2394L30.4061 48.0756L30.2777 47.9468L29.9786 47.4968L29.9512 47.4555L29.9163 47.4205L28.2835 45.7828C27.1385 44.6344 26.1724 43.665 25.2073 42.5355L25.2013 42.5288C21.304 38.1311 17.8906 33.404 14.9619 28.8345C9.11294 19.5451 5.20929 10.4143 1.94733 2.39892C1.85925 2.13722 1.73279 1.84135 1.61661 1.56939L1.61148 1.55745C1.59381 1.5161 1.57639 1.47528 1.55927 1.43505L13.7104 1.43505C16.4558 8.38962 19.5423 15.84 23.9048 23.2951M268.552 252.099L33.1543 35.6545L32.771 35.9755C29.3234 31.8589 26.368 27.5774 23.9048 23.2951M23.9048 23.2951C23.9045 23.2946 23.9041 23.294 23.9038 23.2934L24.3372 23.0441L23.9057 23.2967C23.9054 23.2962 23.9051 23.2956 23.9048 23.2951Z" stroke="white" stroke-opacity="0.015"/>
</svg>
