<svg width="187" height="190" viewBox="0 0 187 190" fill="none" xmlns="http://www.w3.org/2000/svg">
<path d="M170.573 177.702C175.42 181.936 180.27 185.575 185.125 188.617L183.281 188.617C178.781 186.027 174.274 182.795 169.76 179.077C168.86 178.256 167.961 177.478 167.068 176.704L167.066 176.702C166.167 175.923 165.274 175.15 164.381 174.336C163.499 173.532 162.654 172.644 161.798 171.724C161.633 171.547 161.468 171.368 161.302 171.189C160.614 170.447 159.914 169.692 159.189 168.964C155.932 165.043 152.688 160.973 149.77 156.421C143.917 147.289 139.196 137.005 134.957 126.049L134.956 126.046C133.955 123.497 132.971 120.917 131.98 118.32C128.78 109.931 125.511 101.364 121.388 93.091C118.764 87.6639 115.65 82.4029 112.208 77.4715C110.992 75.642 109.591 73.8956 108.226 72.1934C107.743 71.5914 107.265 70.995 106.801 70.4023L106.794 70.3939L106.787 70.3858C106.291 69.8052 105.755 69.226 105.227 68.6556L105.223 68.6514C104.691 68.0768 104.167 67.5109 103.685 66.9466L103.676 66.9369L103.668 66.9276L100.565 63.6522L100.558 63.6441L100.55 63.6363C91.8455 55.2354 81.5076 48.8191 70.693 43.8886C62.1139 39.9772 53.221 36.8926 44.3722 33.8232C42.0787 33.0277 39.7883 32.2332 37.507 31.4256L37.5029 31.4242C26.5864 27.6654 15.8463 23.0942 6.25293 17.3869L1.10245 14.0994L1.10245 1.57558C1.20462 1.65571 1.30574 1.73777 1.40656 1.82104C1.50121 1.89923 1.59735 1.98004 1.69432 2.06155C1.93607 2.26475 2.18291 2.47225 2.42447 2.65397L2.43558 2.66232L2.44713 2.67004C3.40424 3.31004 4.20436 3.95145 5.18013 4.76708L5.18362 4.76994C6.46114 5.81833 7.91168 6.79211 9.38744 7.78282C10.0098 8.20064 10.6367 8.62147 11.2569 9.05217L11.2569 9.05232L11.2679 9.05959C19.8014 14.656 29.6357 19.0926 40.4219 23.3546L40.4281 23.3569C41.9188 23.9233 43.4211 24.4894 44.9331 25.0591C54.3641 28.6125 64.1701 32.3073 73.8562 37.0945C85.0796 42.6416 95.8014 49.8129 104.731 59.092L107.824 62.6846L107.826 62.687C108.193 63.1076 108.538 63.4892 108.868 63.8546C109.59 64.6533 110.243 65.3752 110.905 66.2607C111.402 66.9255 111.907 67.5868 112.409 68.2455C113.906 70.2056 115.385 72.1434 116.596 74.0867L116.596 74.0868L116.602 74.096C120.018 79.3172 123.105 84.8596 125.54 90.5596L125.543 90.5651C129.317 99.1136 132.27 107.655 135.16 116.014C136.138 118.843 137.109 121.651 138.102 124.432C142.024 135.415 146.282 145.768 151.695 154.817C154.323 159.265 157.441 163.544 160.556 167.326L160.563 167.335L160.571 167.344C161.383 168.239 162.154 169.135 162.931 170.036L162.933 170.039C163.707 170.938 164.486 171.843 165.307 172.748L165.322 172.766L165.34 172.782C167.138 174.421 168.925 176.051 170.548 177.679L170.56 177.691L170.573 177.702Z" stroke="white" stroke-opacity="0.015"/>
</svg>
