<svg width="271" height="247" viewBox="0 0 271 247" fill="none" xmlns="http://www.w3.org/2000/svg">
<mask id="path-1-inside-1" fill="white">
<path d="M270.685 246.625C266.767 244.66 262.195 242.695 257.46 240.893C248.479 237.29 238.356 233.851 227.58 229.102C216.967 224.352 205.7 218.293 195.904 209.122C186.107 200.114 177.78 188.65 171.902 175.221C165.697 161.956 161.615 147.38 155.9 132.641C153.125 125.271 149.696 118.065 145.614 111.187L142.348 106.11C141.205 104.472 139.899 102.834 138.756 101.197L136.96 98.7402L135.001 96.4474L131.082 92.0256L126.51 87.7676L124.224 85.6386L121.775 83.6733C120.143 82.3631 118.673 81.053 116.877 79.9066L111.815 76.4674C104.958 72.2094 97.7733 68.4426 90.4258 65.4947C75.894 59.2714 61.3622 54.8496 48.6265 48.4626C45.3609 46.9886 42.4219 45.1872 39.3197 43.3857C37.8502 42.403 36.3806 41.4204 35.0744 40.6016C33.6049 39.6189 32.1354 38.8001 30.9924 37.6537C29.6862 36.6711 28.38 35.6885 27.0738 34.7058C26.4207 34.2145 25.7675 33.5594 25.1144 33.0681L23.1551 31.2666L21.1957 29.4651L20.216 28.6463L19.7262 28.155C19.7262 28.155 19.8895 28.3188 19.7262 28.155L19.563 27.9912L19.3997 27.8274C18.2567 26.681 17.277 25.3709 16.1341 24.2245C9.60297 16.8548 4.86789 8.66627 0.949219 0.313953L0.949218 22.2592C3.23511 25.3709 5.52099 28.3188 8.29675 31.2666C9.4397 32.5768 10.7459 33.887 12.0521 35.1971L12.2154 35.3609L12.3787 35.5247L12.7052 35.8522L13.1951 36.3435L14.1748 37.1624L16.1341 38.9639C17.4403 40.1103 18.5833 41.2567 20.216 42.4031C21.6856 43.5495 23.3184 44.6958 24.7879 45.8422C26.2574 46.9886 27.8902 47.9713 29.5229 48.9539C31.1557 49.9365 32.6252 50.9191 34.258 51.9018C37.5236 53.7033 40.9525 55.5047 44.3813 56.9787C58.26 63.3657 72.955 67.6238 87.1602 73.192C94.3445 75.8123 101.039 79.2515 107.57 83.0182L112.305 85.9661C113.938 87.1125 115.407 88.2589 116.877 89.4053L119.163 91.043L121.285 93.0082L125.367 96.6112L129.449 100.869L131.409 102.998L133.205 105.127C134.348 106.601 135.491 108.075 136.634 109.549L139.736 114.298C143.818 120.849 147.247 127.564 150.186 134.77C156.227 148.854 160.636 163.593 167.33 177.023C173.698 190.616 182.841 202.407 193.128 211.415C203.415 220.586 215.171 226.482 226.11 231.067C237.05 235.489 247.336 238.764 256.317 242.04C260.399 243.514 264.317 245.151 267.91 246.625L270.685 246.625Z"/>
</mask>
<path d="M270.685 246.625L270.685 247.625L271.134 245.731L270.685 246.625ZM257.46 240.893L257.087 241.821L257.096 241.825L257.104 241.828L257.46 240.893ZM227.58 229.102L227.171 230.015L227.176 230.017L227.58 229.102ZM195.904 209.122L196.587 208.392L196.581 208.386L195.904 209.122ZM171.902 175.221L172.818 174.82L172.813 174.809L172.808 174.798L171.902 175.221ZM155.9 132.641L154.965 132.993L154.968 133.002L155.9 132.641ZM145.614 111.187L146.474 110.676L146.465 110.661L146.455 110.646L145.614 111.187ZM142.348 106.11L143.189 105.569L143.179 105.553L143.168 105.538L142.348 106.11ZM138.756 101.197L139.576 100.624L139.57 100.615L139.564 100.607L138.756 101.197ZM136.96 98.7402L137.767 98.15L137.745 98.1194L137.72 98.0906L136.96 98.7402ZM135.001 96.4474L135.761 95.7978L135.755 95.7909L135.749 95.7842L135.001 96.4474ZM131.082 92.0256L131.831 91.3624L131.799 91.3265L131.764 91.2939L131.082 92.0256ZM126.51 87.7676L125.829 88.4994L126.51 87.7676ZM124.224 85.6386L124.906 84.9068L124.879 84.8817L124.85 84.8586L124.224 85.6386ZM121.775 83.6733L121.149 84.4533L121.149 84.4533L121.775 83.6733ZM116.877 79.9066L116.315 80.7337L116.327 80.7418L116.339 80.7495L116.877 79.9066ZM111.815 76.4674L112.377 75.6403L112.36 75.6287L112.343 75.6179L111.815 76.4674ZM90.4258 65.4947L90.0321 66.414L90.0428 66.4185L90.0535 66.4228L90.4258 65.4947ZM48.6265 48.4626L49.0748 47.5687L49.0565 47.5595L49.0379 47.5511L48.6265 48.4626ZM39.3197 43.3857L38.7638 44.2169L38.7901 44.2345L38.8175 44.2504L39.3197 43.3857ZM35.0744 40.6016L34.5186 41.4328L34.5308 41.441L34.5433 41.4488L35.0744 40.6016ZM30.9924 37.6537L31.7006 36.9476L31.6504 36.8973L31.5936 36.8546L30.9924 37.6537ZM25.1144 33.0681L24.4376 33.8043L24.4739 33.8376L24.5133 33.8673L25.1144 33.0681ZM23.1551 31.2666L23.8319 30.5305L23.8319 30.5305L23.1551 31.2666ZM21.1957 29.4651L21.8726 28.729L21.8552 28.713L21.8371 28.6979L21.1957 29.4651ZM20.216 28.6463L19.5079 29.3523L19.5399 29.3845L19.5747 29.4136L20.216 28.6463ZM19.7262 28.155L19.0181 28.861L19.7262 28.155ZM19.3997 27.8274L20.1078 27.1214L19.3997 27.8274ZM16.1341 24.2245L15.3857 24.8877L15.4052 24.9097L15.4259 24.9305L16.1341 24.2245ZM0.949219 0.313953L1.85452 -0.110795L-0.0507812 0.313953L0.949219 0.313953ZM0.949218 22.2592L-0.0507822 22.2592L-0.0507822 22.5871L0.14331 22.8513L0.949218 22.2592ZM8.29675 31.2666L9.05029 30.6093L9.03781 30.5949L9.02478 30.5811L8.29675 31.2666ZM12.0521 35.1971L11.344 35.9032L12.0521 35.1971ZM12.3787 35.5247L13.0869 34.8187L13.0869 34.8186L12.3787 35.5247ZM12.7052 35.8522L11.997 36.5582L11.9971 36.5583L12.7052 35.8522ZM13.1951 36.3435L12.4869 37.0496L12.519 37.0817L12.5538 37.1108L13.1951 36.3435ZM14.1748 37.1624L14.8516 36.4263L14.8342 36.4103L14.8161 36.3951L14.1748 37.1624ZM16.1341 38.9639L15.4573 39.7L15.4658 39.7078L15.4745 39.7155L16.1341 38.9639ZM20.216 42.4031L20.8311 41.6146L20.8113 41.5991L20.7907 41.5846L20.216 42.4031ZM34.258 51.9018L33.7424 52.7586L33.7585 52.7683L33.775 52.7774L34.258 51.9018ZM44.3813 56.9787L44.7994 56.0702L44.7879 56.0649L44.7762 56.0599L44.3813 56.9787ZM87.1602 73.192L86.7953 74.123L86.8064 74.1274L86.8176 74.1314L87.1602 73.192ZM107.57 83.0182L108.099 82.1693L108.084 82.1604L108.07 82.152L107.57 83.0182ZM112.305 85.9661L112.88 85.1477L112.857 85.1318L112.834 85.1172L112.305 85.9661ZM116.877 89.4053L116.262 90.1937L116.278 90.2063L116.295 90.2182L116.877 89.4053ZM119.163 91.043L119.842 90.3092L119.796 90.2666L119.745 90.2301L119.163 91.043ZM121.285 93.0082L120.606 93.742L120.615 93.7501L120.624 93.758L121.285 93.0082ZM125.367 96.6112L126.089 95.9192L126.06 95.8891L126.029 95.8615L125.367 96.6112ZM129.449 100.869L130.185 100.192L130.178 100.185L130.171 100.177L129.449 100.869ZM131.409 102.998L132.173 102.353L132.159 102.337L132.145 102.321L131.409 102.998ZM133.205 105.127L133.995 104.515L133.982 104.498L133.969 104.482L133.205 105.127ZM136.634 109.549L137.471 109.002L137.449 108.968L137.424 108.936L136.634 109.549ZM139.736 114.298L140.585 113.77L140.579 113.761L140.573 113.752L139.736 114.298ZM150.186 134.77L149.26 135.147L149.263 135.156L149.267 135.164L150.186 134.77ZM167.33 177.023L168.236 176.598L168.23 176.587L168.225 176.577L167.33 177.023ZM193.128 211.415L193.794 210.668L193.787 210.662L193.128 211.415ZM226.11 231.067L225.724 231.989L225.736 231.994L226.11 231.067ZM256.317 242.04L255.974 242.979L255.977 242.98L256.317 242.04ZM267.91 246.625L267.53 247.55L267.712 247.625L267.91 247.625L267.91 246.625ZM271.134 245.731C267.178 243.748 262.574 241.769 257.815 239.959L257.104 241.828C261.816 243.62 266.355 245.572 270.237 247.519L271.134 245.731ZM257.832 239.965C248.775 236.332 238.75 232.932 227.983 228.187L227.176 230.017C237.962 234.77 248.183 238.249 257.087 241.821L257.832 239.965ZM227.988 228.189C217.419 223.459 206.267 217.454 196.587 208.392L195.22 209.852C205.134 219.132 216.515 225.246 227.171 230.015L227.988 228.189ZM196.581 208.386C186.887 199.473 178.641 188.123 172.818 174.82L170.986 175.622C176.919 189.178 185.327 200.756 195.227 209.858L196.581 208.386ZM172.808 174.798C169.727 168.212 167.169 161.291 164.661 154.152C162.157 147.027 159.698 139.669 156.833 132.279L154.968 133.002C157.818 140.352 160.257 147.652 162.774 154.815C165.286 161.966 167.872 168.965 170.996 175.645L172.808 174.798ZM156.836 132.288C154.041 124.866 150.587 117.607 146.474 110.676L144.754 111.697C148.805 118.523 152.209 125.676 154.965 132.993L156.836 132.288ZM146.455 110.646L143.189 105.569L141.507 106.651L144.773 111.728L146.455 110.646ZM143.168 105.538C142.586 104.703 141.964 103.871 141.353 103.055C140.739 102.233 140.137 101.428 139.576 100.624L137.936 101.769C138.519 102.604 139.141 103.436 139.751 104.252C140.366 105.073 140.968 105.879 141.528 106.682L143.168 105.538ZM139.564 100.607L137.767 98.15L136.153 99.3304L137.949 101.787L139.564 100.607ZM137.72 98.0906L135.761 95.7978L134.241 97.0971L136.2 99.3899L137.72 98.0906ZM135.749 95.7842L131.831 91.3624L130.334 92.6889L134.252 97.1107L135.749 95.7842ZM131.764 91.2939L127.192 87.0358L125.829 88.4994L130.401 92.7574L131.764 91.2939ZM127.192 87.0358L124.906 84.9068L123.543 86.3703L125.829 88.4994L127.192 87.0358ZM124.85 84.8586L122.401 82.8934L121.149 84.4533L123.599 86.4185L124.85 84.8586ZM122.401 82.8934C120.818 81.6232 119.272 80.2488 117.415 79.0637L116.339 80.7495C118.074 81.8571 119.467 83.1031 121.149 84.4533L122.401 82.8934ZM117.439 79.0794L112.377 75.6403L111.253 77.2945L116.315 80.7337L117.439 79.0794ZM112.343 75.6179C105.445 71.3348 98.2087 67.5398 90.7982 64.5667L90.0535 66.4228C97.338 69.3454 104.47 73.0839 111.288 77.317L112.343 75.6179ZM90.8195 64.5755C83.5291 61.4534 76.2341 58.7812 69.2086 56.1056C62.1701 53.4249 55.394 50.7378 49.0748 47.5687L48.1782 49.3565C54.5947 52.5744 61.4524 55.2917 68.4967 57.9746C75.554 60.6624 82.7907 63.3128 90.0321 66.414L90.8195 64.5755ZM49.0379 47.5511C45.832 46.1041 42.9523 44.3388 39.8218 42.5209L38.8175 44.2504C41.8916 46.0355 44.8899 47.8732 48.2151 49.374L49.0379 47.5511ZM39.8755 42.5544C38.4093 41.574 36.9267 40.5825 35.6056 39.7543L34.5433 41.4488C35.8345 42.2583 37.291 43.2321 38.7638 44.2169L39.8755 42.5544ZM35.6303 39.7703C34.0657 38.7241 32.7505 38.0007 31.7006 36.9476L30.2843 38.3597C31.5203 39.5995 33.1441 40.5138 34.5186 41.4328L35.6303 39.7703ZM31.5936 36.8546C30.9405 36.3632 30.2874 35.8719 29.6343 35.3806C28.9812 34.8893 28.328 34.398 27.6749 33.9067L26.4726 35.505C27.1257 35.9963 27.7788 36.4876 28.432 36.9789C29.0851 37.4702 29.7382 37.9615 30.3913 38.4528L31.5936 36.8546ZM27.6749 33.9067C27.384 33.6878 27.0863 33.4273 26.7537 33.1354C26.4332 32.8541 26.0777 32.5414 25.7156 32.269L24.5133 33.8673C24.8042 34.0861 25.1019 34.3467 25.4345 34.6386C25.755 34.9199 26.1105 35.2325 26.4726 35.505L27.6749 33.9067ZM25.7912 32.332L23.8319 30.5305L22.4783 32.0028L24.4376 33.8043L25.7912 32.332ZM23.8319 30.5305L21.8726 28.729L20.5189 30.2013L22.4783 32.0028L23.8319 30.5305ZM21.8371 28.6979L20.8574 27.879L19.5747 29.4136L20.5544 30.2324L21.8371 28.6979ZM20.9242 27.9403L20.4344 27.449L19.0181 28.861L19.5079 29.3523L20.9242 27.9403ZM19.7262 28.155C19.0181 28.861 19.0181 28.861 19.0181 28.861C19.0181 28.861 19.0181 28.861 19.0181 28.861C19.0181 28.8611 19.0181 28.861 19.0181 28.8611C19.0181 28.8611 19.0181 28.8611 19.0181 28.8611C19.0181 28.8611 19.0181 28.8611 19.0181 28.8611C19.0182 28.8611 19.0181 28.8611 19.0182 28.8612C19.0185 28.8615 19.0181 28.8611 19.0185 28.8615C19.019 28.862 19.0186 28.8616 19.0191 28.8621C19.0197 28.8627 19.0192 28.8622 19.0199 28.8628C19.0243 28.8673 19.0194 28.8624 19.0248 28.8678C19.036 28.879 19.0201 28.8631 19.0321 28.8751C19.0343 28.8773 19.0309 28.8739 19.0331 28.8761C19.0349 28.878 19.0323 28.8754 19.0342 28.8772C19.0352 28.8782 19.0342 28.8773 19.0353 28.8783C19.0354 28.8784 19.0354 28.8785 19.0355 28.8786C19.0356 28.8787 19.0357 28.8788 19.0358 28.8788C19.0359 28.8789 19.036 28.879 19.0361 28.8791C19.0362 28.8792 19.0363 28.8793 19.0364 28.8794C19.0445 28.8875 19.0328 28.8759 19.041 28.8841C19.0574 28.9005 19.027 28.87 19.0435 28.8865C19.0443 28.8874 19.045 28.8881 19.0459 28.889C19.0471 28.8901 19.0498 28.8928 19.051 28.894C19.064 28.9071 19.043 28.886 19.0561 28.8991C19.0562 28.8992 19.0563 28.8994 19.0564 28.8995C19.0565 28.8996 19.0566 28.8997 19.0567 28.8998C19.0574 28.9005 19.0566 28.8997 19.0573 28.9004C19.0587 28.9018 19.0572 28.9003 19.0586 28.9017C19.0601 28.9032 19.0596 28.9027 19.0611 28.9042C19.0645 28.9076 19.0677 28.9108 19.0708 28.9139C19.0846 28.9278 19.066 28.9091 19.0793 28.9225C19.0798 28.9229 19.0826 28.9257 19.0829 28.926C19.1251 28.9684 19.0439 28.8869 19.0859 28.9291C19.0882 28.9314 19.0885 28.9317 19.0898 28.933C19.0905 28.9337 19.0902 28.9334 19.0906 28.9338C19.0906 28.9338 19.0906 28.9338 19.0906 28.9338C19.0906 28.9338 19.0906 28.9338 19.0906 28.9338C19.0928 27.5196 20.507 27.5217 20.507 27.5217C20.5069 27.5217 20.507 27.5218 20.507 27.5217C20.5069 27.5216 20.5069 27.5217 20.5068 27.5215C20.5055 27.5202 20.5061 27.5208 20.5033 27.518C20.4902 27.5049 20.4807 27.4954 20.4344 27.449L19.0181 28.861C19.0187 28.8617 19.025 28.868 19.0255 28.8685C19.0328 28.8758 19.0253 28.8683 19.0324 28.8754C19.0339 28.877 19.0343 28.8773 19.0357 28.8788C19.0367 28.8797 19.0381 28.8811 19.0389 28.882C19.0498 28.8929 19.0342 28.8772 19.045 28.888C19.0843 28.9275 19.0278 28.8708 19.0649 28.9081C19.0869 28.9301 19.0723 28.9155 19.087 28.9301C19.0905 28.9337 19.0861 28.9292 19.0892 28.9324C19.0894 28.9326 19.0893 28.9325 19.0894 28.9326C19.0897 28.9329 19.0894 28.9326 19.0896 28.9328C19.0897 28.9329 19.0897 28.9329 19.0897 28.9329C19.0898 28.9329 19.0898 28.933 19.0898 28.933C19.0899 28.933 19.0899 28.9331 19.09 28.9332C19.092 28.9352 19.088 28.9312 19.0901 28.9333C19.0901 28.9333 19.0901 28.9333 19.0902 28.9334C19.0902 28.9334 19.0902 28.9334 19.0902 28.9334C19.0903 28.9335 19.0904 28.9336 19.0904 28.9336C19.0905 28.9337 19.0906 28.9338 19.0906 28.9338C19.0907 28.9339 19.0906 28.9338 19.0906 28.9338C19.0906 28.9338 20.5049 28.936 20.507 27.5217C20.507 27.5217 20.507 27.5217 20.507 27.5217C20.507 27.5217 20.507 27.5217 20.507 27.5217C20.507 27.5217 20.507 27.5217 20.507 27.5217C20.5069 27.5217 20.5069 27.5217 20.5069 27.5217C20.506 27.5208 20.5074 27.5221 20.5062 27.5209C20.4984 27.5132 20.5109 27.5257 20.5022 27.517C20.4962 27.5109 20.5025 27.5172 20.4956 27.5104C20.4869 27.5016 20.4964 27.5112 20.4872 27.5019C20.4871 27.5018 20.4778 27.4924 20.4775 27.4921C20.4574 27.4721 20.4771 27.4918 20.4574 27.472C20.4476 27.4622 20.4577 27.4723 20.4484 27.463C20.4363 27.4509 20.4525 27.4671 20.4411 27.4557C20.4283 27.4428 20.4481 27.4627 20.4362 27.4508C20.4361 27.4506 20.4355 27.45 20.4354 27.45C20.4352 27.4498 20.4353 27.4499 20.4351 27.4497C20.4346 27.4491 20.4354 27.45 20.4349 27.4494C20.4345 27.449 20.435 27.4496 20.4347 27.4492C20.4346 27.4491 20.4346 27.4492 20.4345 27.4491C20.4345 27.4491 20.4344 27.449 20.4344 27.449C20.4344 27.449 20.4344 27.449 20.4344 27.449C20.4344 27.449 20.4344 27.449 20.4344 27.449C20.4344 27.449 20.4344 27.449 20.4344 27.449C20.4344 27.449 20.4344 27.449 19.7262 28.155ZM20.4344 27.449L20.2711 27.2852L18.8548 28.6973L19.0181 28.861L20.4344 27.449ZM20.2711 27.2852L20.1078 27.1214L18.6915 28.5335L18.8548 28.6973L20.2711 27.2852ZM20.1078 27.1214C19.5657 26.5777 19.0582 25.9909 18.5235 25.3722C17.9968 24.7626 17.4431 24.1211 16.8423 23.5184L15.4259 24.9305C15.968 25.4742 16.4756 26.0611 17.0102 26.6798C17.5369 27.2893 18.0906 27.9308 18.6915 28.5335L20.1078 27.1214ZM16.8825 23.5612C10.4363 16.2874 5.74915 8.19021 1.85452 -0.110795L0.0439148 0.738701C3.98666 9.14232 8.76962 17.4222 15.3857 24.8877L16.8825 23.5612ZM-0.0507812 0.313953L-0.0507822 22.2592L1.94922 22.2592L1.94922 0.313953L-0.0507812 0.313953ZM0.14331 22.8513C2.43872 25.9759 4.75229 28.9611 7.56869 31.9522L9.02478 30.5811C6.28973 27.6764 4.03149 24.7659 1.75513 21.6672L0.14331 22.8513ZM7.54318 31.924C8.712 33.2638 10.0428 34.598 11.344 35.9032L12.7603 34.4911C11.4491 33.1759 10.1674 31.8898 9.05029 30.6093L7.54318 31.924ZM11.344 35.9032L11.5073 36.0669L12.9236 34.6549L12.7603 34.4911L11.344 35.9032ZM11.5073 36.0669L11.6705 36.2307L13.0869 34.8186L12.9236 34.6549L11.5073 36.0669ZM11.6705 36.2307L11.997 36.5582L13.4134 35.1462L13.0869 34.8187L11.6705 36.2307ZM11.9971 36.5583L12.4869 37.0496L13.9033 35.6375L13.4134 35.1462L11.9971 36.5583ZM12.5538 37.1108L13.5335 37.9297L14.8161 36.3951L13.8364 35.5763L12.5538 37.1108ZM13.498 37.8985L15.4573 39.7L16.8109 38.2277L14.8516 36.4263L13.498 37.8985ZM15.4745 39.7155C16.7264 40.8142 17.9496 42.0336 19.6414 43.2215L20.7907 41.5846C19.217 40.4797 18.1542 39.4063 16.7937 38.2123L15.4745 39.7155ZM19.601 43.1915C20.3478 43.7741 21.134 44.3551 21.9076 44.9268C22.6852 45.5015 23.4501 46.0669 24.1728 46.6307L25.403 45.0538C24.6562 44.4712 23.8699 43.8901 23.0963 43.3184C22.3187 42.7438 21.5538 42.1784 20.8311 41.6146L19.601 43.1915ZM24.1728 46.6307C25.6982 47.8207 27.3841 48.8338 29.0073 49.8107L30.0386 48.0971C28.3962 47.1087 26.8166 46.1566 25.403 45.0538L24.1728 46.6307ZM29.0073 49.8107C29.8123 50.2952 30.5784 50.7804 31.3553 51.2726C32.1296 51.7631 32.9146 52.2604 33.7424 52.7586L34.7736 51.045C33.9686 50.5605 33.2025 50.0752 32.4256 49.5831C31.6514 49.0926 30.8663 48.5952 30.0386 48.0971L29.0073 49.8107ZM33.775 52.7774C37.0496 54.5838 40.5122 56.404 43.9864 57.8974L44.7762 56.0599C41.3927 54.6055 37.9976 52.8227 34.7411 51.0262L33.775 52.7774ZM43.9632 57.8871C50.9447 61.1 58.1226 63.7734 65.3128 66.3344C72.5152 68.8998 79.7122 71.3465 86.7953 74.123L87.5252 72.261C80.4031 69.4692 73.1499 67.0028 65.9839 64.4504C58.8055 61.8935 51.6965 59.2444 44.7994 56.0702L43.9632 57.8871ZM86.8176 74.1314C93.9265 76.7243 100.565 80.1328 107.07 83.8845L108.07 82.152C101.512 78.3702 94.7625 74.9003 87.5029 72.2525L86.8176 74.1314ZM107.042 83.8672L111.777 86.815L112.834 85.1172L108.099 82.1693L107.042 83.8672ZM111.731 86.7845C113.34 87.9143 114.79 89.0456 116.262 90.1937L117.492 88.6168C116.025 87.4722 114.536 86.3107 112.88 85.1477L111.731 86.7845ZM116.295 90.2182L118.58 91.8559L119.745 90.2301L117.459 88.5924L116.295 90.2182ZM118.483 91.7768L120.606 93.742L121.965 92.2745L119.842 90.3092L118.483 91.7768ZM120.624 93.758L124.706 97.3609L126.029 95.8615L121.947 92.2585L120.624 93.758ZM124.646 97.3032L128.728 101.561L130.171 100.177L126.089 95.9192L124.646 97.3032ZM128.714 101.546L130.673 103.675L132.145 102.321L130.185 100.192L128.714 101.546ZM130.644 103.643L132.44 105.772L133.969 104.482L132.173 102.353L130.644 103.643ZM132.415 105.74C132.986 106.477 133.557 107.214 134.129 107.951C134.7 108.688 135.272 109.425 135.843 110.162L137.424 108.936C136.852 108.199 136.281 107.462 135.709 106.725C135.138 105.988 134.567 105.251 133.995 104.515L132.415 105.74ZM135.796 110.096L138.899 114.845L140.573 113.752L137.471 109.002L135.796 110.096ZM138.887 114.827C142.939 121.33 146.342 127.994 149.26 135.147L151.112 134.392C148.151 127.134 144.697 120.369 140.585 113.77L138.887 114.827ZM149.267 135.164C152.276 142.18 154.877 149.354 157.578 156.496C160.273 163.624 163.064 170.706 166.435 177.469L168.225 176.577C164.902 169.91 162.141 162.908 159.448 155.788C156.761 148.682 154.137 141.444 151.105 134.376L149.267 135.164ZM166.424 177.447C172.853 191.169 182.082 203.071 192.469 212.167L193.787 210.662C183.601 201.743 174.543 190.063 168.236 176.598L166.424 177.447ZM192.463 212.161C202.87 221.44 214.743 227.387 225.724 231.989L226.497 230.145C215.598 225.576 203.959 219.732 193.793 210.668L192.463 212.161ZM225.736 231.994C236.692 236.423 247.049 239.724 255.974 242.979L256.659 241.1C247.624 237.805 237.408 234.555 226.485 230.14L225.736 231.994ZM255.977 242.98C260.034 244.445 263.929 246.073 267.53 247.55L268.289 245.7C264.706 244.23 260.763 242.582 256.656 241.099L255.977 242.98ZM267.91 247.625L270.685 247.625L270.685 245.625L267.91 245.625L267.91 247.625Z" fill="white" fill-opacity="0.015" mask="url(#path-1-inside-1)"/>
</svg>
