<svg width="330" height="334" viewBox="0 0 330 334" fill="none" xmlns="http://www.w3.org/2000/svg">
<path d="M44.1978 89.9261L44.2073 89.9261C44.2032 89.9263 44.2001 89.9261 44.1978 89.9261ZM43.6345 89.5693C43.6503 89.6548 43.681 89.7149 43.6891 89.7311C43.7246 89.8023 43.7682 89.8573 43.7902 89.8838C43.8034 89.8997 43.8152 89.9129 43.8242 89.9225L43.836 89.935L43.8404 89.9395L43.8422 89.9414L43.843 89.9422L43.8433 89.9426L43.8435 89.9427C43.8436 89.9428 43.8437 89.9429 44.0319 89.7553L43.8437 89.9429L44.0069 90.1067L44.0173 90.1171L44.0283 90.1269C45.0025 90.9955 45.9723 91.9141 46.9485 92.8389C47.4397 93.3042 47.9326 93.7711 48.4284 94.2339C49.8981 95.6057 51.3836 96.9313 52.8768 98.0138C52.8795 98.0157 52.8821 98.0177 52.8848 98.0196L55.1545 99.8089L55.1635 99.816L55.1728 99.8226L56.3157 100.641L56.3283 100.65L56.3414 100.659L57.6365 101.471C58.4567 102.046 59.2758 102.58 60.0868 103.109L60.0893 103.11C60.9068 103.643 61.716 104.171 62.5242 104.738L62.5394 104.749L62.5552 104.759C69.4371 108.867 76.8088 112.482 84.6696 115.603C88.3392 117.06 92.0799 118.481 95.8545 119.914L96.6367 120.212C100.678 121.747 104.756 123.301 108.833 124.937C116.991 128.21 125.287 131.801 133.089 136.528L133.095 136.532C134.473 137.338 135.761 138.221 137.101 139.139C137.644 139.511 138.197 139.89 138.767 140.271C139.596 140.935 140.583 141.595 141.547 142.239L144.303 144.354C144.787 144.751 145.266 145.132 145.739 145.509C147.046 146.55 148.304 147.553 149.485 148.737L149.491 148.743L149.497 148.748L154.545 153.485C160.398 159.847 166.246 167.508 170.629 175.323L170.633 175.33C175.181 183.149 178.433 191.627 181.537 199.82C183.24 204.405 184.838 208.922 186.42 213.394C187.725 217.082 189.019 220.741 190.352 224.382L190.355 224.39C193.461 232.422 196.737 240.148 200.839 247.225C204.942 254.303 209.864 260.721 215.276 266.477L215.281 266.483L215.286 266.488L215.291 266.493C216.593 267.799 218.07 269.28 219.549 270.599C219.55 270.6 219.552 270.601 219.553 270.602L221.668 272.561L221.681 272.573L221.695 272.584C222.106 272.914 222.476 273.203 222.843 273.489L222.845 273.491C223.212 273.777 223.576 274.061 223.981 274.386L223.986 274.39L228.395 277.829L228.419 277.848L228.445 277.864C229.246 278.346 230.01 278.87 230.787 279.403L230.794 279.408C231.557 279.932 232.335 280.465 233.154 280.96C234.235 281.8 235.416 282.477 236.585 283.148C237.032 283.404 237.477 283.66 237.915 283.923L237.931 283.933L237.948 283.942C238.755 284.346 239.562 284.791 240.38 285.243L240.382 285.244C241.197 285.693 242.021 286.148 242.847 286.562L242.855 286.566C246.113 288.2 249.393 289.845 252.676 291.163C259.218 293.951 265.757 296.41 271.961 298.703C284.364 303.286 295.758 308.023 305.023 313.566L305.032 313.571C308.593 315.603 311.829 317.775 314.767 319.99C311.953 317.994 308.883 316.034 305.527 314.176C296.174 308.746 284.704 304.475 272.138 300.055C270.412 299.434 268.677 298.825 266.932 298.214C262.223 296.562 257.443 294.886 252.57 292.859L252.563 292.856L252.556 292.854C249.145 291.55 245.893 290.083 242.47 288.448L242.462 288.444C241.381 287.951 240.387 287.413 239.399 286.878C238.744 286.524 238.092 286.17 237.417 285.832L237.409 285.828L237.4 285.824C235.614 285.009 234.014 284.206 232.419 283.085L232.404 283.075L232.389 283.066C231.582 282.58 230.773 282.053 229.955 281.52L229.951 281.517C229.146 280.992 228.332 280.462 227.517 279.97C227.264 279.773 227.005 279.57 226.742 279.363C225.495 278.386 224.147 277.327 222.798 276.38C222.382 276.047 221.967 275.756 221.567 275.475L221.561 275.47C221.153 275.184 220.76 274.908 220.368 274.594C220.366 274.592 220.364 274.59 220.362 274.589L218.089 272.634L218.082 272.629L218.076 272.623C216.972 271.738 216.029 270.86 215.014 269.918C214.545 269.481 214.061 269.031 213.538 268.559C207.848 262.687 202.49 256.17 198.108 249.009C193.879 241.829 190.134 233.992 186.876 225.986C185.247 221.982 183.739 217.936 182.228 213.881L182.227 213.877C180.718 209.826 179.205 205.767 177.57 201.748C174.304 193.722 170.863 185.667 166.433 178.262C162.001 170.689 156.914 164.271 150.524 157.698L150.509 157.682L150.493 157.668L145.765 153.581C145.764 153.579 145.763 153.578 145.761 153.577C144.928 152.825 144.056 152.159 143.197 151.523C143.002 151.379 142.808 151.236 142.615 151.094C141.953 150.608 141.306 150.132 140.682 149.631L140.676 149.627L140.669 149.622L138.063 147.661C137.635 147.319 137.17 147.022 136.73 146.741L136.719 146.734C136.266 146.445 135.84 146.172 135.457 145.865L135.415 145.831L135.368 145.808C134.415 145.33 133.538 144.771 132.637 144.195L132.627 144.189C131.739 143.622 130.826 143.04 129.828 142.538C122.286 138.264 114.261 134.979 106.256 132.03C102.168 130.472 98.0816 129.037 94.0022 127.605L94.0001 127.604C89.9171 126.171 85.8414 124.74 81.7666 123.187C73.6217 120.083 65.6459 116.49 58.1627 112.248C56.2141 111.108 54.4269 109.967 52.6307 108.821L52.6273 108.819L51.339 108.011L50.0498 107.041L47.4374 105.076L47.4302 105.071L47.4229 105.066C44.9545 103.343 43.0083 101.57 41.0602 99.7955C40.0657 98.8895 39.0708 97.983 38.0056 97.0827L37.6942 96.7703L37.4696 96.5451L37.3676 96.4429L37.2295 96.3042L36.7608 95.6775L36.7396 95.6491L36.7145 95.6239L35.5844 94.4909L35.5716 94.4776L33.4618 92.1981L31.3517 89.9188L30.3834 88.7049L29.4038 87.4766C28.7563 86.6649 28.1486 85.8522 27.5356 85.0324L27.5348 85.0314C26.93 84.2224 26.3199 83.4066 25.6693 82.5897C24.689 80.9522 23.5464 79.1521 22.4019 77.5122C21.5796 76.334 20.8475 75.0772 20.1266 73.8395C19.8571 73.3769 19.5892 72.917 19.3187 72.4648C18.337 70.8237 17.3721 69.2097 16.5694 67.4382L16.5656 67.4302C14.932 63.9894 13.3036 60.5591 11.8386 57.1306C8.905 50.2648 6.45947 43.7241 4.17407 37.5021L4.17303 37.4994L4.17285 37.4989C3.2055 34.9114 2.23584 32.3178 1.26572 29.8814L1.26572 2.4611C6.19202 11.7102 10.1759 22.5002 14.1712 33.9058C16.2948 40.2955 18.5844 46.8572 21.2025 53.2583C22.2016 55.763 23.297 58.1756 24.4095 60.6256C24.7556 61.3878 25.1033 62.1537 25.4503 62.9271C25.7881 63.7721 26.2071 64.5689 26.636 65.3474C26.7428 65.5411 26.8497 65.7331 26.9564 65.9244C27.2843 66.5128 27.6089 67.0952 27.9123 67.7039L27.9193 67.7181C28.7308 69.3459 29.5589 71.0069 30.5558 72.5069C31.5362 73.982 32.5095 75.4464 33.4821 77.0725L33.4882 77.0827L33.4948 77.0925C34.4811 78.5764 35.6286 80.0571 36.7633 81.5203C37.2391 82.3157 37.7515 83.1723 38.4405 83.8682L40.2235 85.9818L40.2304 85.99L40.2377 85.998L42.1971 88.127L42.2039 88.1344L42.2109 88.1414L43.1905 89.1241L43.5446 88.7711L43.1906 89.1241L43.6345 89.5693Z" stroke="white" stroke-opacity="0.015"/>
</svg>
