<svg width="80" height="105" viewBox="0 0 80 105" fill="none" xmlns="http://www.w3.org/2000/svg">
<path d="M78.4698 101.083L78.4698 101.328L78.4698 102.807L77.9477 101.76L77.9479 101.759L77.9417 101.748C77.2962 100.534 76.73 99.3173 76.1589 98.0692C76.0852 97.9083 76.0115 97.7469 75.9375 97.5849C75.4406 96.4968 74.9318 95.3825 74.3614 94.2376C72.702 90.4326 71.0436 86.2845 69.319 81.9709C68.6734 80.3559 68.0185 78.7178 67.3507 77.0658C66.7757 75.6432 66.2001 74.2009 65.6177 72.7416C63.7243 67.9975 61.7589 63.0731 59.5081 58.0558C56.7188 51.4739 53.113 45.0645 49.1923 38.5103C48.5672 37.4653 47.8613 36.4643 47.1864 35.5073C46.7996 34.9586 46.4228 34.4244 46.0774 33.9047L46.0673 33.8895L46.0561 33.875C45.4803 33.1326 44.9052 32.432 44.3349 31.7375L44.333 31.7351C43.7609 31.0383 43.1938 30.3476 42.6272 29.617L42.6209 29.6089L42.6143 29.601L40.8226 27.4772C40.1537 26.6392 39.4856 25.9691 38.8374 25.319L38.8344 25.316L34.9192 21.2254L34.9047 21.2101L34.8889 21.1962L30.8187 17.6037C30.1429 16.9277 29.3104 16.2608 28.654 15.7671L28.6541 15.767L28.6446 15.7602L26.3587 14.1225L26.3522 14.1178L26.3455 14.1133C25.6199 13.6281 24.8928 13.1015 24.1566 12.5682L24.1526 12.5653C23.4206 12.035 22.6795 11.4982 21.9369 11.0016L21.9201 10.9904L21.9024 10.9805C20.4427 10.1671 18.8217 9.19149 17.3652 8.21753L17.3488 8.20661L17.3317 8.19701C12.5233 5.50185 7.71514 3.17415 2.80264 1.1084L19.2547 1.1084C19.8717 1.41836 20.4528 1.7187 21.0319 2.15436L21.0384 2.15929L21.0452 2.164L25.9332 5.59596C27.3972 6.73824 29.0159 8.03759 30.4699 9.33392L30.4698 9.33398L30.4767 9.33986L32.748 11.2926L33.7957 12.3435L34.8571 13.408L34.857 13.4081L34.8638 13.4146L39.2545 17.6555L42.9841 22.0469C43.2405 22.3885 43.5356 22.7262 43.8365 23.0682L43.8923 23.1317C44.1772 23.4553 44.4698 23.7878 44.7622 24.1531L46.3796 26.7486L46.3864 26.7597L46.3939 26.7704C46.7892 27.3367 47.1958 27.8928 47.5984 28.4433C48.388 29.5229 49.1619 30.5812 49.8037 31.654L49.8127 31.6691L49.8227 31.6835C50.9535 33.3038 51.9242 34.9259 52.9046 36.5648C56.8106 43.258 60.0611 49.9435 62.4975 56.7858L62.4999 56.7926L62.5025 56.7994C64.454 61.815 66.13 66.8265 67.7417 71.6454C68.2834 73.265 68.8178 74.863 69.3529 76.432C69.6042 77.1688 69.8534 77.9013 70.1008 78.629C71.9398 84.0363 73.6877 89.176 75.563 93.8072C76.4853 96.4276 77.4093 98.7633 78.4698 101.083Z" stroke="white" stroke-opacity="0.015"/>
</svg>
