<svg width="480" height="499" viewBox="0 0 480 499" fill="none" xmlns="http://www.w3.org/2000/svg">
<mask id="path-1-inside-1" fill="white">
<path d="M479.825 497.626C478.029 495.169 476.069 492.385 474.11 489.274C471.171 484.688 468.558 479.284 465.783 473.224C463.17 467.164 460.721 460.45 458.109 453.408C453.047 439.16 447.659 422.455 436.882 406.733C435.413 404.768 433.943 402.966 432.474 401.001C430.841 399.2 429.208 397.398 427.739 395.597L426.596 394.286L425.126 392.976C424.147 392.157 423.33 391.339 422.351 390.356C421.371 389.537 420.555 388.554 419.575 387.736C418.595 386.917 417.616 386.098 416.636 385.443C408.635 379.056 399.328 373.979 389.368 369.721C379.408 365.463 368.959 361.86 358.509 357.766C348.059 353.671 337.772 348.758 328.466 342.207C326.18 340.406 324.057 338.768 321.771 336.967C319.648 335.001 317.526 333.036 315.403 330.907C313.444 328.778 311.485 326.649 309.525 324.356C307.729 322.063 305.933 319.771 304.3 317.314C297.769 307.488 293.034 296.515 288.789 285.051C284.544 273.587 280.788 261.632 275.563 250.168C274.91 248.694 274.257 247.22 273.604 245.91L271.318 241.652C269.849 238.704 268.053 236.084 266.42 233.463C265.603 232.153 264.624 230.843 263.644 229.533L260.705 225.602C258.582 223.146 256.623 220.853 254.5 218.56L250.908 215.121C249.765 213.975 248.622 212.828 247.316 211.846L243.561 208.898C242.255 207.915 241.112 206.932 239.642 205.95C236.866 204.148 234.254 202.347 231.478 200.873L227.233 198.58C225.763 197.761 224.294 197.106 222.988 196.451C211.558 190.883 199.639 186.952 188.373 182.531C177.106 178.109 166.167 173.196 156.697 166.645C154.411 165.007 152.288 163.206 150.002 161.568C147.88 159.603 145.594 157.474 143.471 155.508C141.675 153.379 139.716 151.414 137.92 149.285C136.287 146.992 134.491 144.863 132.858 142.571C126.49 133.236 122.082 123.082 118.163 112.764C114.244 102.447 110.979 91.8015 106.733 81.6477C102.488 71.3302 97.4265 61.8315 90.8954 52.9878C90.079 51.8414 89.2626 50.8588 88.4462 49.7124C87.6298 48.7298 86.8134 47.7472 85.997 46.9283C85.1806 45.9457 84.3642 45.1268 83.5478 44.1442L82.0783 42.6703L80.6088 41.3601C78.6495 39.5586 76.8534 37.9209 75.0573 36.1194C73.098 34.6455 71.1387 33.0078 69.1793 31.5338C61.1787 25.8019 52.8515 21.38 44.6876 17.7771C36.6869 14.1741 28.8495 11.39 21.8286 8.76968C14.6443 6.14935 8.27646 3.52901 2.56171 0.908677C2.07187 0.581136 1.41876 0.417365 0.928925 0.0898228L0.928924 14.0104C6.15384 16.1394 11.7053 18.2684 17.5833 20.3974C31.9518 25.4743 47.9531 30.715 62.4849 40.8688C64.2809 42.179 66.0771 43.4891 67.8731 44.9631C69.5059 46.437 71.3019 47.9109 72.9347 49.5486L74.241 50.695L75.3839 51.8414C76.2003 52.6603 77.0167 53.6429 77.8331 54.6255C78.6494 55.6082 79.6291 56.427 80.2822 57.4096C80.9354 58.3923 81.7518 59.2111 82.4049 60.1938C83.058 61.1764 83.8744 61.9952 84.5275 62.9779C85.1806 63.9605 85.8337 64.9431 86.4868 65.9257C87.7931 67.891 89.2626 70.02 90.4055 72.149C91.5485 74.2781 92.8547 76.5708 93.9976 78.8636C95.1406 81.1564 96.2835 83.4492 97.2632 85.9058C101.508 95.5683 104.937 105.886 109.183 116.531C113.428 127.176 118.326 138.149 125.51 148.139C127.306 150.595 129.266 153.052 131.225 155.508L134.327 158.948L135.96 160.585L137.103 161.895L137.266 162.059L137.593 162.387C139.879 164.352 142.002 166.317 144.287 168.446C146.9 170.412 149.349 172.377 151.962 174.178C162.411 181.22 174.004 186.297 185.597 190.555C197.19 194.813 208.946 198.58 219.885 203.657C221.192 204.312 222.661 204.967 223.967 205.622L227.886 207.751C230.662 209.062 233.111 210.863 235.56 212.501C236.866 213.32 238.009 214.302 239.152 215.121L242.744 217.905C243.887 218.888 245.03 219.87 246.173 220.853L249.439 223.801C251.561 226.094 253.684 228.386 255.807 230.679L258.582 234.118C259.399 235.265 260.378 236.411 261.195 237.721C262.828 240.342 264.624 242.635 265.93 245.419L268.216 249.349C268.869 250.659 269.522 252.133 270.175 253.443C275.563 264.416 279.482 276.208 283.891 287.672C288.299 299.299 293.524 310.599 300.545 320.753C302.341 323.21 304.3 325.666 306.096 328.123C308.056 330.416 310.178 332.709 312.301 334.838C314.587 336.967 316.709 338.932 318.995 340.897C321.445 342.699 323.894 344.664 326.343 346.302C336.303 353.016 346.916 357.766 357.529 361.86C368.142 365.79 378.592 369.229 388.389 373.324C398.185 377.418 407.329 382.167 415.33 388.227C416.309 389.046 417.289 389.701 418.269 390.52C419.248 391.339 420.065 392.157 421.044 392.976C422.024 393.795 422.841 394.614 423.82 395.433L425.126 396.579L426.433 397.889C428.065 399.691 429.698 401.492 431.331 403.294C432.8 405.095 434.27 407.061 435.576 408.862C446.516 423.929 452.067 440.47 457.456 454.718C460.068 461.924 462.68 468.475 465.456 474.534C468.232 480.594 471.008 485.998 474.11 490.584C475.906 493.532 477.865 496.152 479.661 498.608L479.825 498.608L479.825 497.626Z"/>
</mask>
<path d="M479.825 497.626C478.029 495.169 476.069 492.385 474.11 489.274C471.171 484.688 468.558 479.284 465.783 473.224C463.17 467.164 460.721 460.45 458.109 453.408C453.047 439.16 447.659 422.455 436.882 406.733C435.413 404.768 433.943 402.966 432.474 401.001C430.841 399.2 429.208 397.398 427.739 395.597L426.596 394.286L425.126 392.976C424.147 392.157 423.33 391.339 422.351 390.356C421.371 389.537 420.555 388.554 419.575 387.736C418.595 386.917 417.616 386.098 416.636 385.443C408.635 379.056 399.328 373.979 389.368 369.721C379.408 365.463 368.959 361.86 358.509 357.766C348.059 353.671 337.772 348.758 328.466 342.207C326.18 340.406 324.057 338.768 321.771 336.967C319.648 335.001 317.526 333.036 315.403 330.907C313.444 328.778 311.485 326.649 309.525 324.356C307.729 322.063 305.933 319.771 304.3 317.314C297.769 307.488 293.034 296.515 288.789 285.051C284.544 273.587 280.788 261.632 275.563 250.168C274.91 248.694 274.257 247.22 273.604 245.91L271.318 241.652C269.849 238.704 268.053 236.084 266.42 233.463C265.603 232.153 264.624 230.843 263.644 229.533L260.705 225.602C258.582 223.146 256.623 220.853 254.5 218.56L250.908 215.121C249.765 213.975 248.622 212.828 247.316 211.846L243.561 208.898C242.255 207.915 241.112 206.932 239.642 205.95C236.866 204.148 234.254 202.347 231.478 200.873L227.233 198.58C225.763 197.761 224.294 197.106 222.988 196.451C211.558 190.883 199.639 186.952 188.373 182.531C177.106 178.109 166.167 173.196 156.697 166.645C154.411 165.007 152.288 163.206 150.002 161.568C147.88 159.603 145.594 157.474 143.471 155.508C141.675 153.379 139.716 151.414 137.92 149.285C136.287 146.992 134.491 144.863 132.858 142.571C126.49 133.236 122.082 123.082 118.163 112.764C114.244 102.447 110.979 91.8015 106.733 81.6477C102.488 71.3302 97.4265 61.8315 90.8954 52.9878C90.079 51.8414 89.2626 50.8588 88.4462 49.7124C87.6298 48.7298 86.8134 47.7472 85.997 46.9283C85.1806 45.9457 84.3642 45.1268 83.5478 44.1442L82.0783 42.6703L80.6088 41.3601C78.6495 39.5586 76.8534 37.9209 75.0573 36.1194C73.098 34.6455 71.1387 33.0078 69.1793 31.5338C61.1787 25.8019 52.8515 21.38 44.6876 17.7771C36.6869 14.1741 28.8495 11.39 21.8286 8.76968C14.6443 6.14935 8.27646 3.52901 2.56171 0.908677C2.07187 0.581136 1.41876 0.417365 0.928925 0.0898228L0.928924 14.0104C6.15384 16.1394 11.7053 18.2684 17.5833 20.3974C31.9518 25.4743 47.9531 30.715 62.4849 40.8688C64.2809 42.179 66.0771 43.4891 67.8731 44.9631C69.5059 46.437 71.3019 47.9109 72.9347 49.5486L74.241 50.695L75.3839 51.8414C76.2003 52.6603 77.0167 53.6429 77.8331 54.6255C78.6494 55.6082 79.6291 56.427 80.2822 57.4096C80.9354 58.3923 81.7518 59.2111 82.4049 60.1938C83.058 61.1764 83.8744 61.9952 84.5275 62.9779C85.1806 63.9605 85.8337 64.9431 86.4868 65.9257C87.7931 67.891 89.2626 70.02 90.4055 72.149C91.5485 74.2781 92.8547 76.5708 93.9976 78.8636C95.1406 81.1564 96.2835 83.4492 97.2632 85.9058C101.508 95.5683 104.937 105.886 109.183 116.531C113.428 127.176 118.326 138.149 125.51 148.139C127.306 150.595 129.266 153.052 131.225 155.508L134.327 158.948L135.96 160.585L137.103 161.895L137.266 162.059L137.593 162.387C139.879 164.352 142.002 166.317 144.287 168.446C146.9 170.412 149.349 172.377 151.962 174.178C162.411 181.22 174.004 186.297 185.597 190.555C197.19 194.813 208.946 198.58 219.885 203.657C221.192 204.312 222.661 204.967 223.967 205.622L227.886 207.751C230.662 209.062 233.111 210.863 235.56 212.501C236.866 213.32 238.009 214.302 239.152 215.121L242.744 217.905C243.887 218.888 245.03 219.87 246.173 220.853L249.439 223.801C251.561 226.094 253.684 228.386 255.807 230.679L258.582 234.118C259.399 235.265 260.378 236.411 261.195 237.721C262.828 240.342 264.624 242.635 265.93 245.419L268.216 249.349C268.869 250.659 269.522 252.133 270.175 253.443C275.563 264.416 279.482 276.208 283.891 287.672C288.299 299.299 293.524 310.599 300.545 320.753C302.341 323.21 304.3 325.666 306.096 328.123C308.056 330.416 310.178 332.709 312.301 334.838C314.587 336.967 316.709 338.932 318.995 340.897C321.445 342.699 323.894 344.664 326.343 346.302C336.303 353.016 346.916 357.766 357.529 361.86C368.142 365.79 378.592 369.229 388.389 373.324C398.185 377.418 407.329 382.167 415.33 388.227C416.309 389.046 417.289 389.701 418.269 390.52C419.248 391.339 420.065 392.157 421.044 392.976C422.024 393.795 422.841 394.614 423.82 395.433L425.126 396.579L426.433 397.889C428.065 399.691 429.698 401.492 431.331 403.294C432.8 405.095 434.27 407.061 435.576 408.862C446.516 423.929 452.067 440.47 457.456 454.718C460.068 461.924 462.68 468.475 465.456 474.534C468.232 480.594 471.008 485.998 474.11 490.584C475.906 493.532 477.865 496.152 479.661 498.608L479.825 498.608L479.825 497.626Z" stroke="white" stroke-opacity="0.015" stroke-width="2" mask="url(#path-1-inside-1)"/>
</svg>
