<svg width="157" height="168" viewBox="0 0 157 168" fill="none" xmlns="http://www.w3.org/2000/svg">
<path d="M152.758 164.711C153.516 165.472 154.282 166.24 155.051 166.962L154.913 166.962C154.147 166.346 153.4 165.738 152.654 164.991C151.503 163.674 150.353 162.52 149.055 161.218L149.05 161.213L148.705 161.557L149.05 161.213C146.767 158.923 144.624 156.199 142.331 153.283C142.192 153.106 142.052 152.928 141.912 152.75C137.357 146.386 132.969 139.211 129.23 131.06L129.229 131.057C125.482 123.051 122.059 114.223 118.63 105.215C115.199 96.2019 111.433 87.0022 106.516 78.2885L106.514 78.285C104.055 74.0109 101.269 69.736 98.3168 65.7883L98.3091 65.778L98.3009 65.7681C97.7596 65.1166 97.2439 64.4501 96.7273 63.7824C95.731 62.4947 94.7314 61.2028 93.5381 60.0054C93.5372 60.0045 93.5363 60.0036 93.5353 60.0027L88.1524 54.4398L88.136 54.4229L88.1181 54.4076L82.5726 49.6633C81.3543 48.5533 79.9678 47.5757 78.612 46.6197C77.9475 46.1512 77.2905 45.6879 76.6642 45.2167L76.6549 45.2098L76.6453 45.2032C72.5528 42.412 68.2863 39.7776 63.8487 37.6342C54.9998 33.1968 45.8294 29.9126 36.6847 26.8006C27.5406 23.6888 18.5741 20.5817 10.2634 17.1493L10.2587 17.1474C7.10547 15.8823 4.10338 14.4629 1.10237 12.8878L1.10237 1.32689C5.0023 3.79238 9.33853 6.24237 14.1105 8.40402C21.9629 12.0138 30.6285 15.4575 39.6104 18.8973C48.5821 22.3332 58.0255 26.2533 67.1375 31.3124C71.6867 33.9199 76.0768 36.8551 80.3082 39.9564C82.4312 41.5943 84.5337 43.2172 86.4723 44.9993C86.4732 45.0001 86.4741 45.0009 86.475 45.0017L92.3288 50.5471L97.3737 56.4233L97.3788 56.4292L97.384 56.4349C98.5629 57.7249 99.5849 59.1394 100.626 60.5804C101.153 61.3095 101.685 62.0455 102.244 62.7755C105.173 67.1822 107.933 71.7444 110.205 76.3008L110.206 76.3039C114.924 85.6055 118.344 95.0762 121.445 104.243C124.545 113.409 127.489 122.105 130.926 130.311C134.207 138.538 138.306 145.773 142.565 152.18L142.571 152.19L142.578 152.2C143.082 152.885 143.572 153.566 144.056 154.239C145.751 156.595 147.381 158.86 149.304 160.919L149.305 160.919C150.444 162.225 151.596 163.545 152.75 164.703L152.758 164.711Z" stroke="white" stroke-opacity="0.015"/>
</svg>
