<svg width="258" height="237" viewBox="0 0 258 237" fill="none" xmlns="http://www.w3.org/2000/svg">
<path d="M24.6715 34.9772L24.0356 34.18L24.0184 34.1584L23.9988 34.1388L22.5293 32.6648C21.546 31.6785 20.5833 30.7124 19.7841 29.7504C19.3684 29.2501 18.9128 28.7516 18.4668 28.2636L18.4624 28.2587C18.0118 27.7657 17.571 27.2832 17.1716 26.8026C16.7708 26.3201 16.3686 25.7958 15.9592 25.262L15.9564 25.2583C15.5522 24.7312 15.1408 24.1948 14.7281 23.6977C8.75632 15.9725 4.45302 7.93705 1.0817 0.763661L13.5346 0.763661C16.1235 6.10095 19.2041 11.9202 23.2415 17.4277L23.2639 17.4582L23.2907 17.4851C24.0661 18.2629 24.6927 19.2026 25.351 20.1929L25.3657 20.2152L25.3828 20.2357C25.7894 20.725 26.1554 21.1737 26.5229 21.6243L26.5251 21.627C26.8916 22.0763 27.2597 22.5275 27.6687 23.0198C28.0838 23.5194 28.4981 23.9765 28.9044 24.4248L28.9074 24.4281C29.3165 24.8795 29.7176 25.3222 30.1179 25.8039L30.1324 25.8213L30.1484 25.8374L31.4546 27.1476L32.1077 27.8027L32.3911 27.5201L32.1077 27.8027L32.271 27.9664L32.5975 28.294L32.6052 28.3017L32.6132 28.309C33.5881 29.2054 34.5637 30.1431 35.5441 31.0855L35.5477 31.0889C36.5255 32.0288 37.508 32.9732 38.4913 33.8772L38.4999 33.8852L38.509 33.8928C39.4973 34.7189 40.5253 35.5025 41.5429 36.2782L41.5472 36.2815C42.5692 37.0606 43.5807 37.8317 44.5503 38.6422L44.5643 38.6538L44.579 38.6644C53.2782 44.9204 63.6056 50.015 74.7292 54.445C77.9819 55.7404 81.3117 57.0053 84.6925 58.2896C92.8858 61.4021 101.379 64.6284 109.802 68.6792L109.807 68.6816C121.679 74.2274 133.051 81.7247 142.469 91.4941L145.726 95.2508L145.727 95.2519C146.111 95.6927 146.503 96.1047 146.88 96.5008C147.068 96.6991 147.253 96.8934 147.431 97.0854C147.974 97.6705 148.484 98.2621 148.953 98.9668L148.964 98.9838L148.977 98.9998L152.069 102.918L153.525 105.027L154.984 107.304L154.99 107.312L157.597 111.562L157.602 111.57L157.607 111.577C158.245 112.538 158.731 113.478 159.231 114.446C159.487 114.942 159.748 115.447 160.035 115.964C160.853 117.442 161.658 118.897 162.301 120.347L164.258 124.764C164.259 124.764 164.259 124.765 164.259 124.766C167.65 132.63 170.344 140.476 172.985 148.163C174.409 152.308 175.817 156.408 177.31 160.44M24.6715 34.9772L177.31 160.44M24.6715 34.9772L24.832 35.1382L24.9952 35.1382L25.1418 35.2851L25.3051 35.4489L24.951 35.8019L25.3051 35.4489L25.6239 35.7687C27.5794 37.5667 29.5271 39.3572 31.6355 41.1468C33.9095 42.9388 36.347 44.7318 38.7927 46.5307M24.6715 34.9772L202.548 204.323M177.31 160.44C177.31 160.439 177.31 160.439 177.309 160.438L177.78 160.268L177.311 160.442C177.311 160.441 177.31 160.441 177.31 160.44ZM202.548 204.323C202.976 204.837 203.483 205.303 203.961 205.743L203.974 205.755C204.469 206.21 204.933 206.637 205.316 207.098L205.345 207.133L205.38 207.162C205.849 207.555 206.282 207.989 206.734 208.442L206.742 208.45C207.186 208.895 207.648 209.359 208.155 209.783C208.636 210.184 209.077 210.587 209.527 210.997L209.53 211C209.977 211.407 210.433 211.823 210.931 212.239C211.431 212.657 211.929 213.032 212.416 213.398L212.421 213.402C212.912 213.771 213.392 214.132 213.87 214.532L213.87 214.532L213.881 214.541C221.599 220.635 229.475 224.748 236.671 228.193L236.679 228.196C242.497 230.849 247.781 232.966 252.436 234.803M202.548 204.323C202.545 204.32 202.543 204.317 202.54 204.314L202.925 203.995M202.548 204.323C202.55 204.326 202.553 204.329 202.555 204.332L202.925 203.995M252.436 234.803C247.669 233.167 242.163 231.158 236.102 228.591C228.774 225.488 220.655 221.578 212.704 215.72C212.208 215.307 211.713 214.935 211.23 214.571L211.226 214.568C210.735 214.198 210.255 213.837 209.776 213.437L208.307 212.209L206.837 210.981L206.823 210.969L206.808 210.958C206.267 210.57 205.798 210.14 205.332 209.693C205.243 209.608 205.154 209.522 205.064 209.434C204.696 209.078 204.318 208.713 203.916 208.375M252.436 234.803C252.935 235 253.427 235.194 253.911 235.384C254.375 235.567 254.833 235.748 255.285 235.926C255.405 235.973 255.524 236.02 255.643 236.068L255.656 236.072L255.668 236.077C255.898 236.153 256.089 236.23 256.294 236.312L256.298 236.314C256.301 236.315 256.304 236.316 256.306 236.317L255.827 235.602C256.003 235.661 256.158 235.72 256.306 235.779L256.306 236.094L256.306 236.095C256.101 236.035 255.91 235.974 255.723 235.913C255.717 235.911 255.712 235.909 255.706 235.908C255.581 235.866 255.457 235.825 255.332 235.783C254.4 235.472 253.435 235.146 252.436 234.803ZM203.916 208.375C203.424 207.882 202.932 207.431 202.45 206.987L202.447 206.984C201.958 206.535 201.479 206.094 201 205.615M203.916 208.375C203.91 208.37 203.904 208.365 203.898 208.36L203.578 208.744M203.916 208.375C203.921 208.38 203.926 208.386 203.932 208.391L203.578 208.744M201 205.615C199.212 203.658 197.416 201.693 195.456 199.726M201 205.615C200.998 205.612 200.995 205.61 200.993 205.607L200.639 205.96L201.008 205.623L201.004 205.618C201.003 205.617 201.002 205.616 201 205.615ZM195.456 199.726C193.992 197.99 192.637 196.254 191.206 194.42C190.895 194.022 190.581 193.62 190.261 193.212M195.456 199.726C195.451 199.721 195.446 199.716 195.441 199.711L195.087 200.064M195.456 199.726C195.46 199.731 195.465 199.737 195.469 199.742L195.087 200.064M190.261 193.212C183.605 184.092 178.4 173.166 173.836 161.72C172.401 158.123 171.028 154.468 169.645 150.789C166.638 142.786 163.589 134.672 159.779 126.804L159.777 126.799L157.654 122.541C156.994 121.218 156.17 119.73 155.345 118.406C154.941 117.757 154.536 117.067 154.127 116.37L154.126 116.367C153.719 115.673 153.308 114.972 152.896 114.311L152.892 114.305L152.888 114.299L150.275 110.369L148.969 108.403L148.956 108.383L148.94 108.364L147.471 106.563L144.538 102.968M190.261 193.212C190.259 193.21 190.258 193.207 190.256 193.205L189.862 193.513L190.266 193.219C190.264 193.216 190.263 193.214 190.261 193.212ZM144.538 102.968C143.539 101.633 142.377 100.468 141.245 99.3314L141.237 99.3238M144.538 102.968L144.532 102.96L144.144 103.276M144.538 102.968C144.541 102.971 144.543 102.973 144.545 102.976L144.144 103.276M141.237 99.3238L137.976 95.8891L137.968 95.8814L137.961 95.874C128.765 86.9795 117.935 80.3991 106.467 75.3051C98.75 71.8774 90.7203 69.1143 82.7678 66.3776C78.9228 65.0545 75.0959 63.7376 71.3312 62.3548C59.7557 58.1031 48.5372 53.2082 38.7927 46.5307M141.237 99.3238L141.233 99.3196L140.879 99.6726M141.237 99.3238L141.241 99.3283L140.879 99.6726M38.7927 46.5307C38.7904 46.5291 38.7881 46.5275 38.7858 46.5259L38.5031 46.9384M38.7927 46.5307C38.7949 46.5323 38.7971 46.534 38.7994 46.5356L38.5031 46.9384M38.5031 46.9384C48.2998 53.653 59.566 58.5661 71.1588 62.8242C74.9443 64.2146 78.7821 65.5352 82.6323 66.86C90.5729 69.5924 98.5664 72.343 106.264 75.7621C117.693 80.839 128.47 87.3898 137.613 96.2334M38.5031 46.9384L38.502 46.9375C36.0532 45.1363 33.6044 43.3351 31.3188 41.5339L137.613 96.2334M137.613 96.2334L140.879 99.6726M137.613 96.2334L149.859 110.645L148.553 108.68L147.083 106.879L144.144 103.276M140.879 99.6726C142.022 100.819 143.165 101.965 144.144 103.276M195.087 200.064C197.046 202.029 198.842 203.994 200.638 205.959L200.639 205.96C201.129 206.451 201.618 206.902 202.108 207.352C202.598 207.802 203.088 208.253 203.578 208.744M195.087 200.064L212.395 216.114C211.905 215.704 211.415 215.336 210.925 214.967C210.435 214.599 209.946 214.23 209.456 213.821L206.517 211.364C205.833 210.874 205.265 210.325 204.71 209.788C204.338 209.428 203.971 209.073 203.578 208.744M202.925 203.995C203.333 204.486 203.823 204.936 204.312 205.387C204.802 205.837 205.292 206.287 205.7 206.779L202.925 203.995Z" stroke="white" stroke-opacity="0.015"/>
</svg>
