<svg width="369" height="369" viewBox="0 0 369 369" fill="none" xmlns="http://www.w3.org/2000/svg">
<path d="M11.5327 14.8563C12.9083 16.8109 14.123 19.0078 15.3462 21.2202C15.8652 22.1589 16.3858 23.1004 16.9208 24.0274L48.7602 94.4489C49.631 95.8683 50.647 97.1421 51.6629 98.4158C52.1709 99.0527 52.6789 99.6896 53.1687 100.345M11.5327 14.8563L11.9701 14.614C11.9657 14.6062 11.9614 14.5984 11.9571 14.5905M11.5327 14.8563L11.9416 14.5685C11.9467 14.5758 11.9519 14.5832 11.9571 14.5905M11.5327 14.8563C10.7163 13.3823 9.7366 11.9084 8.75693 10.5982C8.26709 9.94313 7.77725 9.32899 7.28741 8.71485C6.79761 8.1007 6.30777 7.48656 5.81793 6.83148C5.32809 6.34017 4.83826 5.68508 4.34842 5.03C4.02185 4.70246 3.73611 4.37492 3.45038 4.04737C3.16464 3.71983 2.87891 3.39229 2.55237 3.06475M11.9571 14.5905C13.3427 16.5629 14.5741 18.7901 15.7988 21.0049C16.3147 21.9379 16.8294 22.8688 17.3539 23.7775L17.3615 23.7907L17.3683 23.8044C20.6426 30.3726 23.7513 37.5939 26.6949 45.3031C27.5007 47.4135 28.3056 49.5585 29.1201 51.7288C31.2809 57.4868 33.5085 63.4227 35.9958 69.3626L35.9972 69.3658C39.4166 77.6952 43.6458 86.1772 49.1714 94.1644L49.1792 94.1757L49.1863 94.1874C50.0418 95.5818 51.024 96.8128 52.028 98.071C52.5399 98.7124 53.0573 99.3609 53.5665 100.042L53.5638 100.038L53.1687 100.345M11.9571 14.5905C11.1304 13.1012 10.1429 11.6168 9.15735 10.2988C8.66284 9.63746 8.16894 9.01823 7.68051 8.40581L7.67831 8.40307C7.18784 7.7881 6.70279 7.17992 6.21835 6.53206L6.19708 6.50361L6.17203 6.47846C5.71237 6.01743 5.24484 5.3939 4.74884 4.73058L4.72757 4.70213L4.70248 4.67698C4.38947 4.363 4.11423 4.04774 3.82718 3.71869L3.82288 3.71377C3.5452 3.39545 3.25613 3.06408 2.92587 2.73123M53.1687 100.345L53.5691 100.045M53.1687 100.345L55.4546 103.293M53.5691 100.045L68.6801 116.23M53.5691 100.045L55.8402 102.974M53.5691 100.045L60.8808 108.519L60.5162 108.861M55.4546 103.293L57.9037 106.077M55.4546 103.293L55.8497 102.986L55.8402 102.974M55.4546 103.293L55.83 102.962L55.8402 102.974M57.9037 106.077L60.5162 108.861M57.9037 106.077L58.2792 105.746L60.8703 108.508L60.5162 108.861M57.9037 106.077L58.2684 105.735L55.8402 102.974M60.5162 108.861L61.8224 110.171M61.8224 110.171L63.292 111.481C64.19 112.3 65.088 113.078 65.986 113.856C66.8841 114.634 67.7821 115.412 68.6801 116.23M61.8224 110.171L62.1765 109.818L62.166 109.807L62.1552 109.798L61.8224 110.171ZM68.6801 116.23L69.017 115.861C69.0131 115.857 69.0092 115.854 69.0052 115.85C69.0012 115.847 68.9971 115.844 68.9931 115.84L68.6801 116.23ZM2.92587 2.73123C2.93167 2.73847 2.93747 2.74572 2.94327 2.75298L2.55237 3.06475M2.92587 2.73123C2.58646 2.30886 2.20944 1.93073 1.85391 1.57412L1.84512 1.56533C1.7464 1.46631 1.64932 1.36888 1.55423 1.27196M2.92587 2.73123C2.91943 2.72474 2.91293 2.71822 2.90646 2.71173L2.55237 3.06475M2.55237 3.06475C2.22583 2.65532 1.85846 2.28684 1.49109 1.91835C1.27887 1.70552 1.06668 1.49268 0.862335 1.27196L1.55423 1.27196M1.55423 1.27196C1.39102 1.10563 1.23358 0.940787 1.08374 0.771957M1.55423 1.27196L16.0313 1.27196M1.08374 0.771957L356.762 350.432C359.038 353.171 361.104 355.911 362.975 358.619C361.157 355.787 359.13 352.914 356.807 350.085L356.802 350.08C349.013 340.314 337.968 331.186 324.31 324.01C317.47 320.579 309.975 317.311 302.316 314.369C300.396 313.631 298.443 312.893 296.469 312.147C290.564 309.914 284.464 307.608 278.459 305.026C270.448 301.583 262.247 297.636 254.856 292.365M1.08374 0.771957L16.2678 0.771957M1.08374 0.771957L179.546 166.672M16.0313 1.27196C16.3723 1.69217 16.688 2.11434 17.0103 2.54532L17.0135 2.54973C17.3749 3.03298 17.7446 3.52739 18.1556 4.02315M16.0313 1.27196L16.2678 1.27196L16.2678 0.771957M16.0313 1.27196C15.9825 1.21176 15.9331 1.15161 15.8831 1.09148L16.2678 0.771957M18.1556 4.02315C19.2818 5.63852 20.2494 7.25572 21.2269 8.88964L21.2315 8.89734L21.2364 8.90488C22.7199 11.1942 23.9563 13.5533 25.2473 16.0165C25.7894 17.051 26.3412 18.1038 26.925 19.1776M18.1556 4.02315C18.1601 4.02855 18.1646 4.03396 18.169 4.03936L18.5536 3.71983M18.1556 4.02315C18.1516 4.01743 18.1476 4.01171 18.1436 4.00599L18.5536 3.71983M26.925 19.1776C30.3427 26.3614 33.4366 34.0378 36.2061 41.8812C36.6223 43.0601 37.0387 44.2429 37.4563 45.4292C39.8217 52.1489 42.2253 58.9774 44.8649 65.8056L44.8682 65.8137C48.1344 73.8401 51.7368 81.7282 56.6539 89.1318M26.925 19.1776C26.9272 19.1815 26.9293 19.1855 26.9314 19.1894L27.3707 18.9505M26.925 19.1776C26.9231 19.1735 26.9211 19.1694 26.9192 19.1654L27.3707 18.9505M56.6539 89.1318C57.3808 90.581 58.3784 91.8762 59.3514 93.1397C59.7226 93.6217 60.0903 94.0991 60.4379 94.5787L60.4423 94.5846L62.4017 97.2049L62.4178 97.2264L62.4361 97.2461L64.722 99.7026L66.9971 102.147L67.3739 101.819M56.6539 89.1318C56.6596 89.1404 56.6653 89.1489 56.671 89.1575L57.0874 88.8807M56.6539 89.1318C56.6492 89.1225 56.6446 89.1131 56.6399 89.1038L57.0874 88.8807M67.3739 101.819L67.0079 102.159L68.1401 103.457L68.151 103.47L68.1628 103.482L69.3057 104.628L69.3141 104.637L69.3229 104.645C70.216 105.459 71.0691 106.274 71.9269 107.093L71.9303 107.096C72.7857 107.914 73.646 108.735 74.5478 109.558L74.5536 109.563L74.5595 109.568C81.2937 115.334 89.4969 120.434 98.183 124.543C105.979 128.232 114.302 131.389 122.775 134.603C123.731 134.966 124.69 135.33 125.65 135.695M67.3739 101.819L68.5168 103.129L69.6598 104.275C70.5579 105.094 71.4152 105.913 72.2724 106.732C73.1296 107.551 73.9868 108.369 74.8847 109.188C81.5791 114.92 89.7431 119.997 98.3968 124.091C106.174 127.771 114.478 130.921 122.954 134.137C123.91 134.499 124.868 134.863 125.828 135.228M67.3739 101.819L65.088 99.362L62.8021 96.9055L60.8428 94.2851C60.4763 93.7797 60.0969 93.2871 59.7191 92.7966C58.7505 91.5388 57.7922 90.2945 57.0874 88.8807M125.65 135.695L126.088 135.865C135.268 139.418 144.868 143.134 153.832 148.112L153.832 148.112L153.845 148.118C158.546 150.558 162.93 153.488 167.163 156.59M125.65 135.695L125.828 135.228M125.65 135.695L125.647 135.694L125.828 135.228M167.163 156.59C167.739 157.035 168.311 157.464 168.876 157.889C170.417 159.045 171.911 160.168 173.327 161.47L173.324 161.467L173.668 161.104L173.33 161.472L179.186 167.02M167.163 156.59C167.165 156.591 167.166 156.593 167.168 156.594L167.464 156.191M167.163 156.59C167.161 156.589 167.16 156.588 167.158 156.586L167.464 156.191M179.186 167.02L184.223 172.723L184.608 172.404M179.186 167.02L179.202 167.035L179.546 166.672M179.186 167.02L179.171 167.003L179.546 166.672M184.608 172.404L184.233 172.735L184.228 172.729C185.307 174.028 186.38 175.463 187.462 176.91C188.006 177.638 188.552 178.369 189.103 179.087M184.608 172.404L179.546 166.672M184.608 172.404C185.696 173.714 186.785 175.17 187.873 176.626C188.418 177.353 188.962 178.081 189.506 178.791M189.103 179.087C192.188 183.485 194.787 187.884 197.226 192.613L197.226 192.613C201.944 201.751 205.526 211.548 208.956 221.05C209.681 223.059 210.393 225.072 211.103 227.079C213.741 234.539 216.358 241.938 219.583 248.926M189.103 179.087C189.105 179.089 189.107 179.092 189.109 179.095L189.506 178.791M189.103 179.087C189.101 179.084 189.099 179.081 189.097 179.078L189.506 178.791M219.583 248.926C223.518 257.97 228.438 266.195 234.343 273.599L234.351 273.608C240.42 280.846 247.472 287.263 254.856 292.365M219.583 248.926C219.584 248.927 219.585 248.929 219.585 248.931L220.039 248.721M219.583 248.926C219.582 248.924 219.582 248.922 219.581 248.921L220.039 248.721M254.856 292.365C254.857 292.366 254.859 292.367 254.86 292.368L255.144 291.957L254.854 292.364C254.855 292.364 254.855 292.365 254.856 292.365ZM220.039 248.721C223.958 257.729 228.856 265.917 234.734 273.287L220.039 248.721ZM189.506 178.791L179.546 166.672M179.546 166.672L173.668 161.104C172.232 159.783 170.707 158.638 169.159 157.476C168.596 157.053 168.03 156.627 167.464 156.191M167.464 156.191C163.218 153.079 158.81 150.131 154.075 147.674C145.08 142.68 135.453 138.954 126.282 135.404L125.828 135.228M57.0874 88.8807C52.189 81.511 48.5969 73.65 45.3313 65.6252C42.6943 58.804 40.2932 51.9828 37.9276 45.2622C37.5102 44.0764 37.0938 42.8937 36.6775 41.7147C33.9018 33.8537 30.7995 26.1564 27.3707 18.9505M27.3707 18.9505C26.7929 17.8881 26.2436 16.84 25.7017 15.806C24.4059 13.3336 23.1527 10.9426 21.6559 8.63296C20.6763 6.99525 19.6966 5.35754 18.5536 3.71983M18.5536 3.71983C18.1454 3.22848 17.778 2.73712 17.4106 2.24576C17.0432 1.75449 16.6759 1.26322 16.2678 0.771957M231.851 275.912C231.849 275.91 231.848 275.909 231.847 275.907L231.469 276.235L231.855 275.917C231.853 275.915 231.852 275.914 231.851 275.912Z" stroke="white" stroke-opacity="0.015"/>
</svg>
