<svg width="309" height="292" viewBox="0 0 309 292" fill="none" xmlns="http://www.w3.org/2000/svg">
<path d="M0.776031 1.43505L13.0642 1.43505C14.121 4.36241 15.1652 7.41799 16.2403 10.5641C18.4307 16.9738 20.7495 23.7592 23.5646 30.6013C23.5643 30.6005 23.564 30.5998 23.5637 30.599L0.776031 1.43505ZM0.776031 1.43505C1.1734 2.41184 1.56952 3.47129 1.96222 4.52174L1.96246 4.52238C3.08661 7.36823 4.22528 10.399 5.41971 13.5781C7.88064 20.1281 10.5782 27.3079 13.8727 34.7981C18.7619 45.9136 25.1027 57.9735 34.8433 68.3948L34.8491 68.401L34.8547 68.4075C35.9848 69.7029 37.2787 71.001 38.5875 72.3137L39.0773 72.805L39.2406 72.9688L39.5672 73.2963L39.7143 73.4439L40.6767 74.2483L40.6857 74.2559L40.6944 74.2639L42.6451 76.0576C42.6466 76.0589 42.6481 76.0602 42.6496 76.0615C42.9859 76.3568 43.3076 76.6482 43.6264 76.937C44.5697 77.7914 45.4877 78.623 46.6846 79.4634L46.6949 79.4706L46.7048 79.4784C47.4336 80.0469 48.2038 80.6162 48.9804 81.1901L48.9827 81.1918C49.7483 81.7576 50.5201 82.3281 51.2532 82.8993C51.6768 83.1569 52.056 83.4527 52.4096 83.7286L52.4196 83.7364C52.7906 84.0259 53.1347 84.2936 53.5128 84.5211L55.962 85.9951C56.7832 86.4893 57.5628 86.9831 58.3369 87.4735L58.3393 87.475C59.113 87.9651 59.8813 88.4518 60.6891 88.9381C63.9476 90.7355 67.3567 92.5259 70.76 93.9889L70.768 93.9923L70.7759 93.9961C77.6911 97.2601 84.8554 99.9144 92.0569 102.452C93.6967 103.03 95.3389 103.601 96.9806 104.173C102.539 106.109 108.092 108.042 113.52 110.194C120.737 112.827 127.619 116.28 134.164 120.055C140.742 123.848 146.652 128.79 152.371 133.871L152.389 133.887L152.406 133.906L156.325 138.164L158.284 140.293L158.292 140.301L158.299 140.309L160.095 142.438L160.101 142.446L160.108 142.454L161.822 144.665L163.537 146.876L163.549 146.892L163.56 146.909L166.662 151.658L166.668 151.667C170.764 158.241 174.206 164.98 177.155 172.21C179.544 177.781 181.68 183.456 183.807 189.11C184.373 190.615 184.939 192.119 185.509 193.618C188.222 200.76 191.031 207.823 194.447 214.595L194.451 214.601L194.454 214.608C200.791 228.136 209.892 239.871 220.289 248.833L220.292 248.836C230.683 257.955 242.381 263.826 253.3 268.403C260.488 271.308 267.449 273.712 273.936 275.953C277.314 277.119 280.563 278.242 283.649 279.367C283.828 279.433 284.007 279.498 284.185 279.563C283.837 279.428 283.488 279.292 283.136 279.157L283.128 279.155C279.96 277.883 276.615 276.628 273.145 275.325C266.824 272.953 260.085 270.423 253.23 267.355C242.6 262.598 231.111 256.512 221.417 247.284C211.574 238.233 203.044 226.716 197.138 213.224C194.025 206.569 191.447 199.55 188.937 192.385C188.388 190.817 187.841 189.242 187.294 187.662C185.335 182.015 183.356 176.306 181.126 170.62L181.124 170.614C178.36 163.275 174.945 156.097 170.879 149.081L167.624 144.022C167.223 143.447 166.792 142.86 166.351 142.259C165.573 141.199 164.764 140.098 164.034 138.948L162.259 136.52L160.319 134.249L160.312 134.242L156.249 129.677C150.385 123.96 144.217 118.592 137.414 114.53L137.406 114.526C130.569 110.28 123.41 106.527 116.094 103.592L116.084 103.588L116.084 103.588C110.419 101.162 104.756 99.0109 99.1894 96.8963C97.6274 96.303 96.073 95.7126 94.5282 95.1197C87.4886 92.4182 80.654 89.6686 74.2637 86.3825C72.612 85.6363 71.0474 84.7685 69.5173 83.8885C69.1548 83.6801 68.7948 83.4713 68.4361 83.2632C67.2707 82.5873 66.1188 81.9192 64.9409 81.2974L64.918 81.2853L64.8964 81.2709C63.4252 80.2872 61.9623 79.3089 60.6635 78.4948L60.6536 78.4885L60.6439 78.4818L58.5213 77.0079L58.5135 77.0025L58.5059 76.9968L57.5262 76.2598L56.5466 75.5228L54.5872 74.0489L52.6279 72.5749C51.2933 71.571 49.9668 70.2405 48.8326 69.1029L48.8189 69.0892L46.8839 67.3107L45.9134 66.4995L45.896 66.485L45.88 66.4689L45.7167 66.3051L45.5534 66.1413L45.5184 66.1063L45.4911 66.0651L45.1916 65.6146L0.776031 1.43505Z" stroke="white" stroke-opacity="0.015"/>
</svg>
