<svg width="424" height="447" viewBox="0 0 424 447" fill="none" xmlns="http://www.w3.org/2000/svg">
<mask id="path-1-inside-1" fill="white">
<path d="M423.004 446.626C421.861 443.351 420.554 439.748 419.248 435.817C415.983 426.81 412.227 415.51 405.859 403.718C402.594 397.822 398.675 391.763 393.777 385.867C392.471 384.393 391.164 383.083 390.021 381.609C388.715 380.135 387.246 378.825 385.776 377.515C383 374.731 379.572 372.274 376.306 369.654C369.448 364.904 361.938 360.646 353.774 356.88C345.61 353.113 336.956 350.165 328.139 346.726C319.322 343.45 310.342 339.847 301.851 335.098C299.728 333.952 297.606 332.805 295.483 331.331L292.381 329.366L290.911 328.383L289.442 327.237C287.483 325.599 285.523 324.289 283.727 322.651C281.931 320.85 279.972 319.212 278.176 317.411C271.155 310.205 265.277 301.689 260.542 292.354C255.807 283.019 252.214 273.029 248.622 262.875C245.03 252.721 241.438 242.24 236.376 232.086C235.07 229.63 233.764 227.173 232.294 224.716C230.825 222.26 229.355 219.967 227.723 217.511C225.927 215.218 224.294 212.761 222.498 210.632L216.946 204.409L210.578 198.513C208.456 196.712 206.17 194.91 203.884 193.272C201.598 191.635 199.149 190.161 196.863 188.523C194.414 187.049 191.965 185.739 189.515 184.265C179.555 179.024 169.106 175.258 158.982 171.327C148.859 167.56 139.062 163.794 130.082 158.881C125.51 156.424 121.265 153.804 117.346 150.856C115.387 149.382 113.591 147.908 111.632 146.27C109.672 144.469 107.876 142.667 105.917 141.029C104.284 139.228 102.815 137.427 101.182 135.789C99.549 133.987 98.2428 131.858 96.7733 130.057L95.6303 128.583L94.6507 127.109L92.6913 123.997C91.3851 122.032 90.2422 119.903 89.0992 117.774C84.6907 109.258 81.2618 100.414 78.1595 91.5707C75.0573 82.727 72.1183 73.8834 68.5262 65.3673C64.934 56.8512 60.6887 48.9902 55.7904 41.6205C53.1779 38.0176 50.4022 34.2508 47.7898 31.6305C47.1366 30.9754 46.4835 30.1566 45.8304 29.5015L44.8508 28.3551L44.6875 28.1913L44.3609 27.8638L44.0344 27.5362L43.5445 27.0449C42.075 25.571 40.6055 24.2608 39.136 22.9507C33.258 17.71 26.8901 13.4519 20.6855 9.84899C13.5013 5.75471 6.48026 2.64307 0.275696 0.186505L0.275695 14.2708C5.01077 16.2361 9.74588 18.3651 14.6443 20.9854C20.1957 24.0971 25.9105 27.7 31.1354 32.2856C32.4416 33.432 33.7478 34.7422 35.054 35.8886L35.8705 36.7074L36.8501 37.8538C37.5032 38.5089 38.1563 39.3277 38.8094 39.9828C41.7484 42.9307 43.7078 45.7148 45.9937 48.8265C50.4022 55.2135 54.4842 62.4194 57.913 70.2804C61.5052 78.1414 64.4442 86.6575 67.873 95.6649C71.3019 104.509 74.894 113.844 79.9556 122.851C81.2619 125.144 82.4048 127.437 83.8743 129.566L85.9969 132.841L87.1399 134.479L88.2828 136.116C89.9156 138.245 91.3851 140.374 93.3444 142.34L96.1202 145.288L97.4264 146.761L98.0795 147.58L98.4061 147.908L98.5694 148.072L98.8959 148.399C100.855 150.201 102.815 151.838 104.611 153.64C106.57 155.441 109.019 157.079 111.142 158.717C115.714 161.828 120.285 164.776 125.184 167.233C134.98 172.31 145.267 175.913 155.39 179.516C165.514 183.119 175.8 186.558 185.27 191.471C187.556 192.781 190.005 193.927 192.291 195.238C194.577 196.712 196.863 198.022 198.986 199.496C201.108 201.133 203.231 202.607 205.353 204.245L211.231 209.486L216.783 215.545C218.416 217.511 220.049 219.64 221.681 221.769C223.151 223.898 224.62 226.19 226.09 228.483C227.396 230.776 228.702 233.069 230.009 235.525C234.907 245.024 238.662 255.178 242.418 265.332C246.173 275.485 250.092 285.639 255.153 295.302C260.215 304.8 266.583 313.644 274.094 321.014C276.053 322.815 278.012 324.453 279.808 326.254C281.768 327.892 283.89 329.53 286.013 331.004L287.646 332.15L289.279 333.133L292.544 335.262C294.667 336.736 296.953 337.882 299.075 339.028C308.056 343.778 317.199 347.217 326.016 350.329C334.833 353.604 343.65 356.388 351.651 359.827C359.815 363.267 367.326 367.361 374.02 371.946C377.286 374.403 380.551 376.696 383.327 379.48C384.796 380.79 386.266 382.1 387.572 383.41C388.878 384.884 390.185 386.195 391.491 387.505C396.389 393.073 400.471 398.969 403.737 404.701C410.268 416.328 414.187 427.465 417.615 436.308C419.085 440.239 420.391 443.678 421.534 446.954L423.004 446.954L423.004 446.626Z"/>
</mask>
<path d="M423.004 446.626C421.861 443.351 420.554 439.748 419.248 435.817C415.983 426.81 412.227 415.51 405.859 403.718C402.594 397.822 398.675 391.763 393.777 385.867C392.471 384.393 391.164 383.083 390.021 381.609C388.715 380.135 387.246 378.825 385.776 377.515C383 374.731 379.572 372.274 376.306 369.654C369.448 364.904 361.938 360.646 353.774 356.88C345.61 353.113 336.956 350.165 328.139 346.726C319.322 343.45 310.342 339.847 301.851 335.098C299.728 333.952 297.606 332.805 295.483 331.331L292.381 329.366L290.911 328.383L289.442 327.237C287.483 325.599 285.523 324.289 283.727 322.651C281.931 320.85 279.972 319.212 278.176 317.411C271.155 310.205 265.277 301.689 260.542 292.354C255.807 283.019 252.214 273.029 248.622 262.875C245.03 252.721 241.438 242.24 236.376 232.086C235.07 229.63 233.764 227.173 232.294 224.716C230.825 222.26 229.355 219.967 227.723 217.511C225.927 215.218 224.294 212.761 222.498 210.632L216.946 204.409L210.578 198.513C208.456 196.712 206.17 194.91 203.884 193.272C201.598 191.635 199.149 190.161 196.863 188.523C194.414 187.049 191.965 185.739 189.515 184.265C179.555 179.024 169.106 175.258 158.982 171.327C148.859 167.56 139.062 163.794 130.082 158.881C125.51 156.424 121.265 153.804 117.346 150.856C115.387 149.382 113.591 147.908 111.632 146.27C109.672 144.469 107.876 142.667 105.917 141.029C104.284 139.228 102.815 137.427 101.182 135.789C99.549 133.987 98.2428 131.858 96.7733 130.057L95.6303 128.583L94.6507 127.109L92.6913 123.997C91.3851 122.032 90.2422 119.903 89.0992 117.774C84.6907 109.258 81.2618 100.414 78.1595 91.5707C75.0573 82.727 72.1183 73.8834 68.5262 65.3673C64.934 56.8512 60.6887 48.9902 55.7904 41.6205C53.1779 38.0176 50.4022 34.2508 47.7898 31.6305C47.1366 30.9754 46.4835 30.1566 45.8304 29.5015L44.8508 28.3551L44.6875 28.1913L44.3609 27.8638L44.0344 27.5362L43.5445 27.0449C42.075 25.571 40.6055 24.2608 39.136 22.9507C33.258 17.71 26.8901 13.4519 20.6855 9.84899C13.5013 5.75471 6.48026 2.64307 0.275696 0.186505L0.275695 14.2708C5.01077 16.2361 9.74588 18.3651 14.6443 20.9854C20.1957 24.0971 25.9105 27.7 31.1354 32.2856C32.4416 33.432 33.7478 34.7422 35.054 35.8886L35.8705 36.7074L36.8501 37.8538C37.5032 38.5089 38.1563 39.3277 38.8094 39.9828C41.7484 42.9307 43.7078 45.7148 45.9937 48.8265C50.4022 55.2135 54.4842 62.4194 57.913 70.2804C61.5052 78.1414 64.4442 86.6575 67.873 95.6649C71.3019 104.509 74.894 113.844 79.9556 122.851C81.2619 125.144 82.4048 127.437 83.8743 129.566L85.9969 132.841L87.1399 134.479L88.2828 136.116C89.9156 138.245 91.3851 140.374 93.3444 142.34L96.1202 145.288L97.4264 146.761L98.0795 147.58L98.4061 147.908L98.5694 148.072L98.8959 148.399C100.855 150.201 102.815 151.838 104.611 153.64C106.57 155.441 109.019 157.079 111.142 158.717C115.714 161.828 120.285 164.776 125.184 167.233C134.98 172.31 145.267 175.913 155.39 179.516C165.514 183.119 175.8 186.558 185.27 191.471C187.556 192.781 190.005 193.927 192.291 195.238C194.577 196.712 196.863 198.022 198.986 199.496C201.108 201.133 203.231 202.607 205.353 204.245L211.231 209.486L216.783 215.545C218.416 217.511 220.049 219.64 221.681 221.769C223.151 223.898 224.62 226.19 226.09 228.483C227.396 230.776 228.702 233.069 230.009 235.525C234.907 245.024 238.662 255.178 242.418 265.332C246.173 275.485 250.092 285.639 255.153 295.302C260.215 304.8 266.583 313.644 274.094 321.014C276.053 322.815 278.012 324.453 279.808 326.254C281.768 327.892 283.89 329.53 286.013 331.004L287.646 332.15L289.279 333.133L292.544 335.262C294.667 336.736 296.953 337.882 299.075 339.028C308.056 343.778 317.199 347.217 326.016 350.329C334.833 353.604 343.65 356.388 351.651 359.827C359.815 363.267 367.326 367.361 374.02 371.946C377.286 374.403 380.551 376.696 383.327 379.48C384.796 380.79 386.266 382.1 387.572 383.41C388.878 384.884 390.185 386.195 391.491 387.505C396.389 393.073 400.471 398.969 403.737 404.701C410.268 416.328 414.187 427.465 417.615 436.308C419.085 440.239 420.391 443.678 421.534 446.954L423.004 446.954L423.004 446.626Z" stroke="white" stroke-opacity="0.015" stroke-width="2" mask="url(#path-1-inside-1)"/>
</svg>
