<svg width="352" height="364" viewBox="0 0 352 364" fill="none" xmlns="http://www.w3.org/2000/svg">
<path d="M333.966 343.936C335.337 345.196 336.627 346.382 337.899 347.613C337.432 347.2 336.959 346.786 336.481 346.368L336.285 346.196C335.326 345.357 334.35 344.501 333.376 343.605L333.367 343.597L333.358 343.589L333.353 343.585C332.38 342.772 331.393 341.947 330.241 341.121C329.253 340.296 328.107 339.474 326.979 338.666C325.993 337.821 325.001 337.208 323.95 336.557C323.75 336.433 323.548 336.308 323.343 336.18L323.323 336.167L323.301 336.156C322.39 335.699 321.572 335.167 320.692 334.595C320.337 334.365 319.972 334.128 319.587 333.887C317.699 332.703 315.718 331.684 313.734 330.664C312.952 330.262 312.17 329.86 311.392 329.447L311.385 329.443L311.377 329.439C305.646 326.647 299.425 324.02 292.876 321.721C286.182 319.264 279.325 316.808 272.304 314.351C265.292 311.734 257.97 308.796 250.816 305.045C250.197 304.707 249.59 304.393 248.988 304.082C247.803 303.47 246.641 302.87 245.463 302.117L245.451 302.11C243.828 301.133 242.041 299.993 240.247 298.848C239.321 298.198 238.413 297.508 237.468 296.79C236.743 296.24 235.997 295.673 235.204 295.094C235.203 295.094 235.202 295.093 235.202 295.093L232.607 293.141C232.605 293.14 232.603 293.138 232.602 293.137C232.221 292.831 231.874 292.484 231.506 292.114L231.497 292.105C231.135 291.742 230.751 291.357 230.321 291.012C228.703 289.714 227.247 288.416 225.628 286.791C224.169 285.328 222.708 283.701 221.237 282.061L221.22 282.041L221.2 282.024C219.613 280.591 218.336 278.834 217.025 277.025C216.567 276.394 216.103 275.798 215.644 275.209C214.75 274.062 213.879 272.945 213.133 271.662L213.122 271.643L213.109 271.624C207.915 264.299 204.013 256.149 200.425 247.806C197.802 241.706 195.442 235.436 193.084 229.171C192.217 226.869 191.351 224.568 190.472 222.276C187.202 213.749 183.599 205.368 179.008 197.474C174.417 189.581 169.167 182.503 162.602 175.918L162.602 175.918L162.593 175.909C156.032 169.658 148.651 164.228 140.774 159.948C132.899 155.506 124.376 152.219 115.886 149.107L115.883 149.106C113.145 148.122 110.412 147.172 107.687 146.224C101.778 144.17 95.9064 142.129 90.1033 139.778L90.0955 139.775C81.6269 136.508 73.3347 132.593 65.6997 127.542L65.6882 127.534L65.6764 127.527C63.7342 126.391 61.7975 125.096 60.0263 123.642L60.0181 123.635L60.0097 123.629C59.5276 123.266 59.0508 122.917 58.5844 122.575C57.1222 121.505 55.7638 120.51 54.675 119.417L54.6657 119.408L54.6559 119.399C53.8466 118.669 53.0774 117.978 52.3092 117.289L52.2873 117.269C51.5146 116.576 50.7426 115.883 49.9303 115.15L49.6133 114.832L49.2868 114.504L49.1486 114.366L48.68 113.739L48.6587 113.711L48.6337 113.685L47.5027 112.551L47.4907 112.539L45.2229 110.102C45.2221 110.101 45.2214 110.1 45.2206 110.099C39.3693 103.578 34.3321 96.4056 30.434 89.0742L30.4275 89.0626C26.3634 81.8883 23.2714 74.5451 20.499 67.3478L20.4976 67.3441C17.7222 60.3031 15.1111 53.5916 12.6634 47.0448C10.2078 40.4768 7.58752 34.5631 4.8024 29.1404L4.79501 29.1261L4.78671 29.1122C4.16821 28.0782 3.57904 27.0153 2.98959 25.9521C2.88382 25.7612 2.77804 25.5704 2.67209 25.3798C2.00262 24.175 1.32715 22.9783 0.612456 21.8533L0.612457 2.10097C1.12878 2.73605 1.64172 3.39084 2.15433 4.11065L2.16714 4.12865L2.18152 4.14545C2.9487 5.0432 3.612 5.93801 4.34784 6.93069C4.53833 7.18765 4.73367 7.45117 4.93692 7.723C5.90195 9.0136 6.70764 10.3061 7.52545 11.6185L9.96768 15.5375C9.96875 15.5393 9.96979 15.5411 9.97086 15.5429C10.7773 16.9185 11.5049 18.3372 12.2386 19.7887C12.3212 19.952 12.4039 20.1158 12.4868 20.28C13.1372 21.5688 13.7998 22.8815 14.5266 24.1944C17.454 30.2313 20.0583 36.598 22.5017 43.297C23.5975 46.3011 24.6672 49.3575 25.7498 52.4507C27.073 56.2313 28.4154 60.0669 29.8483 63.9295C32.302 70.9841 35.0858 77.8837 38.6908 84.7872C42.139 91.7035 46.5704 98.2873 51.8196 104.375L51.8314 104.389L51.8442 104.401C53.1382 105.699 54.4344 107.162 55.7428 108.638L55.7613 108.659L55.7819 108.678C56.5928 109.41 57.3638 110.142 58.1401 110.88L58.1428 110.882C58.9138 111.615 59.6899 112.353 60.5073 113.091C61.7106 114.296 62.8413 115.165 63.9815 116.041C64.4096 116.37 64.839 116.7 65.2741 117.049L65.2795 117.053C65.4402 117.178 65.6032 117.306 65.7685 117.435C67.1042 118.481 68.5899 119.644 70.2067 120.677C81.6611 128.744 95.3848 133.972 109.513 139.354C112.378 140.445 115.26 141.543 118.143 142.672C126.787 146.108 135.416 149.864 143.713 154.597C151.999 159.322 159.636 165.189 166.462 172.035C172.962 178.881 178.812 186.869 183.362 195.181L183.366 195.188C188.079 203.501 191.496 212.311 194.596 220.985C195.526 223.586 196.434 226.185 197.338 228.774C202.457 243.425 207.46 257.743 215.537 270.042C216.536 271.874 217.858 273.695 219.168 275.337C219.598 275.876 220.005 276.427 220.419 276.987C220.629 277.271 220.841 277.557 221.058 277.844C221.692 278.686 222.358 279.523 223.114 280.282C223.601 280.825 224.083 281.344 224.555 281.854C225.528 282.902 226.462 283.909 227.332 285L227.358 285.033L227.39 285.061C228.859 286.371 230.482 287.836 231.94 289.299L231.96 289.318L231.982 289.336C232.365 289.643 232.713 289.992 233.083 290.363L233.092 290.372C233.454 290.735 233.838 291.12 234.267 291.465L234.276 291.471L234.284 291.478L236.722 293.271C236.724 293.272 236.726 293.273 236.727 293.275C236.986 293.477 237.251 293.685 237.521 293.896C238.771 294.877 240.125 295.939 241.477 296.888L241.486 296.895L241.496 296.901C241.99 297.216 242.469 297.518 242.938 297.813C244.187 298.598 245.361 299.337 246.539 300.164L246.562 300.18L246.586 300.193C248.384 301.177 250.171 302.155 251.793 303.131L251.8 303.135L251.807 303.139C258.858 307.086 265.904 310.044 272.93 312.83L272.933 312.831C274.428 313.41 275.901 313.982 277.356 314.547C282.895 316.698 288.173 318.748 293.348 320.694C299.853 323.141 306.037 326.078 311.748 328.86C314.524 330.334 317.281 331.799 319.873 333.424C320.519 333.829 321.125 334.234 321.738 334.644L321.739 334.645C322.35 335.053 322.968 335.467 323.628 335.88C323.843 336.015 324.052 336.144 324.255 336.27C325.31 336.924 326.232 337.495 327.16 338.292C328.305 339.277 329.299 340.108 330.46 340.94C331.583 341.745 332.541 342.546 333.5 343.507L333.507 343.515L333.515 343.522L333.966 343.936Z" stroke="white" stroke-opacity="0.015"/>
</svg>
