<svg width="459" height="482" viewBox="0 0 459 482" fill="none" xmlns="http://www.w3.org/2000/svg">
<mask id="path-1-inside-1" fill="white">
<path d="M458.088 481.626C456.456 478.514 454.66 475.075 452.863 471.309C448.618 461.81 444.7 449.691 439.638 436.098C437.189 429.219 434.086 422.013 430.331 414.808C429.351 413.006 428.372 411.205 427.229 409.403C426.086 407.602 424.943 405.8 423.8 403.999C421.187 400.559 418.575 396.793 415.473 393.681C409.431 386.966 402.247 380.743 393.92 375.666C385.593 370.589 376.449 366.331 366.816 362.728C357.182 358.962 347.386 355.522 337.589 351.264C327.792 347.006 318.322 341.766 309.995 334.887L308.362 333.577L306.893 332.103L303.79 329.155L302.321 327.681C301.994 327.354 301.504 326.699 301.015 326.207L298.239 323.096C296.279 321.131 294.81 318.838 293.014 316.545C291.218 314.416 289.912 311.959 288.442 309.503C282.564 299.84 278.319 289.195 274.4 278.223C270.481 267.25 266.726 255.786 261.501 244.813C260.358 242.029 258.725 239.409 257.256 236.625C255.786 234.004 253.99 231.384 252.521 228.764C250.725 226.143 248.765 223.687 246.969 221.23L240.928 214.516C232.274 205.672 221.824 198.63 211.048 193.225C200.108 187.821 188.842 183.891 177.903 179.633C166.963 175.538 156.513 171.116 147.206 165.057C144.92 163.583 142.471 162.109 140.512 160.471C138.389 158.834 136.267 157.36 134.307 155.231L131.205 152.283L130.062 151.136L129.899 150.973L128.592 149.499L125.98 146.551L124.674 145.077L123.531 143.439C117 135.087 112.101 125.588 108.019 115.926C103.937 106.263 100.835 96.2731 97.243 86.4469C93.6509 76.6206 89.5689 67.1219 84.5073 58.4421C83.201 56.313 81.7315 54.184 80.4253 52.055C78.9558 49.926 77.323 47.9607 75.8535 45.9955C75.0371 44.8491 74.384 44.194 73.5676 43.2114C72.7512 42.3925 72.0981 41.5737 71.2817 40.591L70.1388 39.2809L69.6489 38.6258L69.3224 38.2982C69.3224 38.2982 68.8325 37.8069 68.9958 37.9707L68.8325 37.8069C68.0161 36.9881 67.0364 36.1692 66.2201 35.3504C62.7912 32.0749 59.1991 29.2908 55.607 26.5067C53.8109 25.1966 51.8516 24.0502 50.0555 22.74C48.2594 21.4298 46.3001 20.611 44.504 19.4646C36.9932 15.3703 29.6457 12.0949 22.788 9.47456C14.4608 6.19915 6.94998 3.57881 0.255554 0.958476L0.255554 14.879C5.97031 17.008 12.0116 18.9733 18.2162 21.4298C24.9106 23.8864 31.7683 26.8343 38.626 30.4372C40.2588 31.4199 42.0549 32.2387 43.6877 33.3851C45.3204 34.5315 46.9532 35.5141 48.7493 36.6605C52.0149 39.1171 55.2804 41.4099 58.3827 44.3578C59.1991 45.0128 60.0155 45.8317 60.6686 46.4868L60.8319 46.6506C60.9952 46.8143 60.8319 46.6506 60.8319 46.6506L60.9952 46.8143L61.6483 47.4694L62.7913 48.7796C63.6076 49.5984 64.424 50.4173 65.0771 51.2361C65.8935 52.055 66.7099 52.8739 67.363 53.6927C68.6692 55.3304 69.9755 57.1319 71.2817 58.7696C72.5879 60.5711 73.7309 62.5363 75.0371 64.5016C79.7722 72.3626 83.8542 81.0424 87.4463 90.5412C91.2017 100.04 94.4672 110.03 98.8758 120.184C103.284 130.337 108.836 140.491 116.183 149.662L117.489 151.464L118.959 153.102L121.898 156.377L123.368 158.015L123.531 158.179L123.857 158.506L124.184 158.834L125 159.489L128.103 162.273C130.062 164.238 132.674 166.04 135.124 167.841C137.573 169.806 140.185 171.28 142.634 172.918C152.921 179.141 164.024 183.727 175.127 187.657C186.23 191.588 197.333 195.355 207.783 200.268C218.232 205.181 228.029 211.568 236.193 219.593L242.234 225.98C243.867 228.272 245.663 230.402 247.459 232.694C248.929 235.151 250.725 237.444 252.194 240.064C253.5 242.684 255.133 245.141 256.276 247.761C261.501 258.243 265.257 269.379 269.502 280.352C273.584 291.324 278.319 302.461 284.523 312.287C286.156 314.744 287.626 317.2 289.585 319.493C291.381 321.786 293.014 324.242 295.136 326.207L298.076 329.319C298.565 329.81 298.892 330.302 299.708 330.957L301.341 332.431L304.443 335.215L306.076 336.689L307.872 337.999C317.016 345.205 326.813 350.446 336.936 354.54C346.896 358.798 357.019 361.91 366.489 365.513C376.123 369.115 385.103 372.882 393.267 377.795C401.594 382.545 408.615 388.604 414.656 394.991C417.759 398.267 420.371 401.706 422.984 404.981C424.126 406.783 425.269 408.42 426.412 410.222C427.555 412.023 428.535 413.825 429.515 415.463C433.433 422.505 436.536 429.547 439.148 436.425C444.373 450.018 448.455 461.974 453.027 471.472C454.823 475.239 456.619 478.678 458.252 481.626L458.088 481.626Z"/>
</mask>
<path d="M458.088 481.626C456.456 478.514 454.66 475.075 452.863 471.309C448.618 461.81 444.7 449.691 439.638 436.098C437.189 429.219 434.086 422.013 430.331 414.808C429.351 413.006 428.372 411.205 427.229 409.403C426.086 407.602 424.943 405.8 423.8 403.999C421.187 400.559 418.575 396.793 415.473 393.681C409.431 386.966 402.247 380.743 393.92 375.666C385.593 370.589 376.449 366.331 366.816 362.728C357.182 358.962 347.386 355.522 337.589 351.264C327.792 347.006 318.322 341.766 309.995 334.887L308.362 333.577L306.893 332.103L303.79 329.155L302.321 327.681C301.994 327.354 301.504 326.699 301.015 326.207L298.239 323.096C296.279 321.131 294.81 318.838 293.014 316.545C291.218 314.416 289.912 311.959 288.442 309.503C282.564 299.84 278.319 289.195 274.4 278.223C270.481 267.25 266.726 255.786 261.501 244.813C260.358 242.029 258.725 239.409 257.256 236.625C255.786 234.004 253.99 231.384 252.521 228.764C250.725 226.143 248.765 223.687 246.969 221.23L240.928 214.516C232.274 205.672 221.824 198.63 211.048 193.225C200.108 187.821 188.842 183.891 177.903 179.633C166.963 175.538 156.513 171.116 147.206 165.057C144.92 163.583 142.471 162.109 140.512 160.471C138.389 158.834 136.267 157.36 134.307 155.231L131.205 152.283L130.062 151.136L129.899 150.973L128.592 149.499L125.98 146.551L124.674 145.077L123.531 143.439C117 135.087 112.101 125.588 108.019 115.926C103.937 106.263 100.835 96.2731 97.243 86.4469C93.6509 76.6206 89.5689 67.1219 84.5073 58.4421C83.201 56.313 81.7315 54.184 80.4253 52.055C78.9558 49.926 77.323 47.9607 75.8535 45.9955C75.0371 44.8491 74.384 44.194 73.5676 43.2114C72.7512 42.3925 72.0981 41.5737 71.2817 40.591L70.1388 39.2809L69.6489 38.6258L69.3224 38.2982C69.3224 38.2982 68.8325 37.8069 68.9958 37.9707L68.8325 37.8069C68.0161 36.9881 67.0364 36.1692 66.2201 35.3504C62.7912 32.0749 59.1991 29.2908 55.607 26.5067C53.8109 25.1966 51.8516 24.0502 50.0555 22.74C48.2594 21.4298 46.3001 20.611 44.504 19.4646C36.9932 15.3703 29.6457 12.0949 22.788 9.47456C14.4608 6.19915 6.94998 3.57881 0.255554 0.958476L0.255554 14.879C5.97031 17.008 12.0116 18.9733 18.2162 21.4298C24.9106 23.8864 31.7683 26.8343 38.626 30.4372C40.2588 31.4199 42.0549 32.2387 43.6877 33.3851C45.3204 34.5315 46.9532 35.5141 48.7493 36.6605C52.0149 39.1171 55.2804 41.4099 58.3827 44.3578C59.1991 45.0128 60.0155 45.8317 60.6686 46.4868L60.8319 46.6506C60.9952 46.8143 60.8319 46.6506 60.8319 46.6506L60.9952 46.8143L61.6483 47.4694L62.7913 48.7796C63.6076 49.5984 64.424 50.4173 65.0771 51.2361C65.8935 52.055 66.7099 52.8739 67.363 53.6927C68.6692 55.3304 69.9755 57.1319 71.2817 58.7696C72.5879 60.5711 73.7309 62.5363 75.0371 64.5016C79.7722 72.3626 83.8542 81.0424 87.4463 90.5412C91.2017 100.04 94.4672 110.03 98.8758 120.184C103.284 130.337 108.836 140.491 116.183 149.662L117.489 151.464L118.959 153.102L121.898 156.377L123.368 158.015L123.531 158.179L123.857 158.506L124.184 158.834L125 159.489L128.103 162.273C130.062 164.238 132.674 166.04 135.124 167.841C137.573 169.806 140.185 171.28 142.634 172.918C152.921 179.141 164.024 183.727 175.127 187.657C186.23 191.588 197.333 195.355 207.783 200.268C218.232 205.181 228.029 211.568 236.193 219.593L242.234 225.98C243.867 228.272 245.663 230.402 247.459 232.694C248.929 235.151 250.725 237.444 252.194 240.064C253.5 242.684 255.133 245.141 256.276 247.761C261.501 258.243 265.257 269.379 269.502 280.352C273.584 291.324 278.319 302.461 284.523 312.287C286.156 314.744 287.626 317.2 289.585 319.493C291.381 321.786 293.014 324.242 295.136 326.207L298.076 329.319C298.565 329.81 298.892 330.302 299.708 330.957L301.341 332.431L304.443 335.215L306.076 336.689L307.872 337.999C317.016 345.205 326.813 350.446 336.936 354.54C346.896 358.798 357.019 361.91 366.489 365.513C376.123 369.115 385.103 372.882 393.267 377.795C401.594 382.545 408.615 388.604 414.656 394.991C417.759 398.267 420.371 401.706 422.984 404.981C424.126 406.783 425.269 408.42 426.412 410.222C427.555 412.023 428.535 413.825 429.515 415.463C433.433 422.505 436.536 429.547 439.148 436.425C444.373 450.018 448.455 461.974 453.027 471.472C454.823 475.239 456.619 478.678 458.252 481.626L458.088 481.626Z" stroke="white" stroke-opacity="0.015" stroke-width="2" mask="url(#path-1-inside-1)"/>
</svg>
