<svg width="94" height="114" viewBox="0 0 94 114" fill="none" xmlns="http://www.w3.org/2000/svg">
<path d="M92.3246 113.125L92.1981 113.125C91.8927 112.445 91.5799 111.727 91.2554 110.983C90.7752 109.882 90.2693 108.722 89.7237 107.535C88.9053 105.402 87.9252 103.109 86.9498 100.826C86.0698 98.5792 85.1119 96.2157 84.1155 93.7572L84.0521 93.6008C83.0315 91.0825 81.9712 88.4646 80.911 85.7653L80.9111 85.7652L80.9061 85.7533C80.6242 85.0867 80.342 84.4172 80.0589 83.7452C78.05 78.9778 75.9876 74.0834 73.5482 69.1894C70.9202 63.5892 67.4762 57.9983 63.8771 52.7474L63.8712 52.7389L63.8651 52.7307L60.9261 48.8002L60.9163 48.7872L60.9058 48.7748C60.4153 48.2008 59.8842 47.5862 59.3542 46.9728L59.3528 46.9712C58.8233 46.3584 58.2949 45.7469 57.8072 45.1762L56.3413 43.3791L56.3255 43.3598L56.3079 43.3421L54.5118 41.5407L50.9197 37.9377L50.9068 37.9248L50.893 37.9128L47.3057 34.8053L45.5143 33.1719L45.4969 33.156L45.478 33.1418L43.5187 31.6679L43.5017 31.6551L43.4837 31.6438C42.8519 31.2477 42.2161 30.7698 41.5594 30.2758L41.5501 30.2689C40.9055 29.7839 40.2404 29.2836 39.5713 28.8636C38.098 27.8786 36.7883 27.0576 35.4848 26.2404L35.4831 26.2393L35.4831 26.2393L35.4772 26.2357C30.0669 22.9468 24.4916 20.1507 18.7516 17.8476C13.1838 15.5482 7.45599 13.5787 2.06719 11.777C1.83795 11.7003 1.64643 11.6236 1.44173 11.5415L1.43774 11.5399C1.33112 11.4971 1.22082 11.4528 1.10244 11.4079L1.10244 1.03524L5.30502 2.72122C5.30665 2.72191 5.30827 2.7226 5.30989 2.72329C6.33465 3.15933 7.36993 3.59487 8.4149 4.03448C12.8751 5.91083 17.5116 7.86137 22.2576 10.2416L22.2575 10.2417L22.2677 10.2465C28.1169 13.0169 33.9678 16.4399 39.4945 20.3523C39.9367 20.6852 40.3918 21.0477 40.8601 21.4208C41.7215 22.107 42.6277 22.8291 43.5816 23.4678C44.8664 24.4353 46.1546 25.5655 47.4601 26.7113L47.46 26.7114L47.4692 26.7191L49.4112 28.3423L51.1913 30.1276L54.9344 33.8821L58.1849 37.6315L59.8083 39.5854L61.4249 41.6933C61.921 42.4385 62.4565 43.1408 62.9807 43.8284L62.9854 43.8345C63.5176 44.5326 64.0383 45.2159 64.5177 45.9372L64.5254 45.9487L64.5337 45.9598C65.1308 46.7583 65.6518 47.5961 66.1994 48.4766C66.5433 49.0296 66.8977 49.5994 67.288 50.187C70.8636 56.0567 73.7896 61.9266 76.2285 67.7975C78.6729 73.6818 80.7907 79.401 82.5822 84.9551L82.5836 84.9593C83.3155 87.1618 84.0222 89.3428 84.7134 91.4763C85.7135 94.5631 86.6814 97.5503 87.6469 100.359L87.6508 100.37L87.6553 100.381C88.1398 101.596 88.5443 102.773 88.9319 103.918C88.9735 104.041 89.015 104.164 89.0564 104.287C89.3987 105.301 89.7339 106.293 90.102 107.254C90.3356 107.863 90.5679 108.455 90.7956 109.036C91.3475 110.444 91.8725 111.784 92.3246 113.125Z" stroke="white" stroke-opacity="0.015"/>
</svg>
