<svg width="327" height="313" viewBox="0 0 327 313" fill="none" xmlns="http://www.w3.org/2000/svg">
<path d="M304.395 298.291C305.037 298.599 305.67 298.904 306.294 299.217C305.947 299.052 305.598 298.887 305.249 298.721C304.336 298.29 303.419 297.856 302.518 297.405L302.51 297.401L302.502 297.397C295.25 294.079 286.907 291.156 277.965 288.024C275.4 287.125 272.785 286.209 270.133 285.262L270.131 285.261C264.093 283.133 257.909 280.848 251.729 277.911L251.719 277.907L251.709 277.902C249.407 276.93 247.111 275.688 244.789 274.432C244.012 274.011 243.231 273.588 242.446 273.174C241.551 272.675 240.669 272.123 239.738 271.54C239.151 271.173 238.545 270.793 237.904 270.407C237.336 270.028 236.742 269.671 236.154 269.318C235.972 269.208 235.79 269.099 235.609 268.99C234.838 268.521 234.083 268.042 233.372 267.487L233.363 267.481L233.355 267.475C221.493 259 210.607 247.265 202.971 233.089L202.971 233.089L202.966 233.079C197.315 223.131 193.224 212.3 189.106 201.396C187.409 196.903 185.708 192.398 183.891 187.937L183.89 187.935C180.784 180.392 177.344 172.832 173.079 165.758C168.81 158.676 163.886 152.587 157.825 146.343L157.812 146.33L157.799 146.318L153.39 142.387C151.911 141.069 150.268 139.75 148.622 138.593C145.925 136.459 142.863 134.57 139.884 132.733C139.408 132.439 138.933 132.147 138.463 131.855L138.453 131.849L138.444 131.843C131.394 127.897 123.859 124.612 116.173 121.659L116.168 121.657C111.926 120.073 107.643 118.579 103.361 117.085C92.1024 113.157 80.8488 109.232 70.3491 103.67C69.7295 103.331 69.121 103.017 68.5186 102.706C67.3339 102.094 66.1721 101.494 64.993 100.741C64.0923 100.167 63.2329 99.6329 62.3765 99.1011L62.3753 99.1004C61.5177 98.5679 60.6631 98.0372 59.7681 97.466L59.7538 97.4569L59.739 97.4488C58.8746 96.9758 58.0412 96.38 57.2092 95.749C56.9601 95.5601 56.7097 95.3668 56.4585 95.173C55.8856 94.731 55.3091 94.2861 54.7378 93.8844C54.1607 93.4219 53.5594 92.9762 52.9753 92.5432C52.7288 92.3605 52.4853 92.18 52.248 92.0015C51.4348 91.3898 50.6831 90.7933 50.0564 90.1647L50.046 90.1543L50.0351 90.1445C49.2996 89.4887 48.6049 88.874 47.9111 88.26C47.2206 87.6488 46.5308 87.0384 45.801 86.3877L45.3214 85.9067L44.9673 86.2597L45.3213 85.9067L45.1581 85.7429L44.8315 85.4154L44.5186 85.1015L43.5513 83.9696L43.5453 83.9626L43.5391 83.9559L41.5798 81.8268L39.6327 79.7116L39.6204 79.6978L38.6673 78.5819L37.8637 77.4536L37.8558 77.4425L37.8473 77.4318C36.544 75.7978 35.4034 74.3269 34.2607 72.8532L34.2595 72.8516L34.2494 72.8387L34.2386 72.8264C33.6157 72.1236 33.104 71.3362 32.5947 70.5189C32.5277 70.4114 32.4607 70.3032 32.3934 70.1946C31.9608 69.4966 31.5173 68.7808 31.0124 68.1263C30.6336 67.4947 30.2297 66.8845 29.8366 66.2907C29.7184 66.1123 29.6013 65.9354 29.4861 65.7598C28.9779 64.9849 28.5016 64.2274 28.1072 63.4362L28.1004 63.4226L28.0928 63.4093C26.2946 60.294 24.5117 57.2042 23.0543 53.9559L23.0491 53.9443L23.0433 53.933C20.4417 48.8446 18.4665 43.8653 16.5229 38.9656C16.0373 37.7415 15.5537 36.5223 15.0628 35.3076C14.0736 32.7209 13.1217 30.1851 12.1924 27.7094C8.83554 18.7669 5.77267 10.6077 2.30923 3.65985L1.57449 2.18592L1.20016 1.43504L13.7749 1.43504C16.7075 8.45602 19.3687 16.0265 22.1811 24.027C23.0689 26.5525 23.9718 29.1209 24.903 31.7284L24.905 31.7338L25.0963 32.2505C27.162 37.8304 29.3986 43.8719 32.0982 49.6083C33.2532 52.5824 34.8966 55.5495 36.5197 58.48L36.5241 58.4878C36.9423 59.3256 37.4004 60.0765 37.8492 60.7927C37.9232 60.9108 37.9968 61.0277 38.0699 61.1438C38.4451 61.7399 38.8071 62.3148 39.1417 62.9189L39.1479 62.9302L39.1547 62.9411C39.3597 63.2701 39.5705 63.6312 39.7913 64.0094C40.4082 65.0663 41.1027 66.2561 41.9654 67.2489C42.3302 67.7362 42.706 68.2102 43.0829 68.6856C43.7502 69.5273 44.421 70.3735 45.0407 71.3058L45.0555 71.328L45.0725 71.3485L45.8889 72.3311L46.7053 73.3138L46.7129 73.3228L46.7208 73.3316L48.5169 75.2968L50.305 77.2534L51.0768 78.1823L51.2142 78.458L51.2504 78.5305L51.3076 78.588L51.4709 78.7517L51.9607 79.243L51.9657 79.248C53.2691 80.5553 54.5838 81.874 56.0641 83.1937C57.3185 84.3121 58.4575 85.1962 59.6623 86.1313C59.8837 86.3032 60.1074 86.4768 60.3345 86.6539C60.7791 87.0008 61.2051 87.3586 61.6323 87.7174C62.5586 88.4954 63.4903 89.278 64.6295 89.9635C65.4309 90.4459 66.1944 90.9696 66.9719 91.5032L66.9785 91.5078C67.7469 92.0351 68.5291 92.5719 69.3543 93.069C70.1084 93.5724 70.9401 94.0307 71.7733 94.4791C71.8988 94.5466 72.0243 94.6139 72.1497 94.6812C72.8667 95.0657 73.5792 95.4478 74.2628 95.8593L74.2692 95.863C83.6641 101.331 94.2267 105.324 105.138 109.45C109.633 111.149 114.186 112.871 118.742 114.727C126.56 117.994 134.207 121.585 141.686 125.987C142.457 126.514 143.225 127.032 143.99 127.547C146.805 129.445 149.577 131.314 152.253 133.486L152.263 133.494L152.273 133.502C154.077 134.818 155.829 136.098 157.257 137.69L157.272 137.706L157.288 137.721L162.172 142.294C167.701 148.33 173.386 155.664 177.605 162.989C181.833 170.493 185.252 178.328 188.184 186.171C189.871 190.684 191.44 195.207 192.995 199.69C196.839 210.771 200.598 221.607 205.843 231.427C212.9 245.419 223.073 256.937 234.555 265.658C236.039 266.815 237.52 267.805 238.985 268.785L238.991 268.789L239.008 268.8L239.025 268.81C239.739 269.208 240.457 269.687 241.195 270.181L241.204 270.187C241.93 270.672 242.675 271.171 243.425 271.589C246.37 273.394 249.32 275.038 252.436 276.518C258.499 279.641 264.558 282.104 270.436 284.397L270.442 284.399C271.949 284.966 273.441 285.524 274.918 286.077C284.977 289.84 294.306 293.33 302.397 297.316C303.07 297.654 303.737 297.975 304.395 298.291Z" stroke="white" stroke-opacity="0.015"/>
</svg>
