<svg xmlns="http://www.w3.org/2000/svg" width="28" height="28" fill="none" viewBox="0 0 28 28">
    <path fill="#E3B873" d="M26.406 21.143c-.582-.409-1.253-.629-1.931-.665-2.555-1.673-4.229-2.929-5.206-3.906l-3.002-3.001 1.822-2.04c.345.196.716.324 1.087.377.28.047.466.047.653.047.373 0 .466 0 .84.326-.187.14-.28.373-.28.606 0 .234.093.514.28.7L22.3 15.22c.233.28.606.42.98.42.373 0 .746-.14.979-.467l3.312-3.312c.28-.233.42-.606.42-.98 0-.372-.14-.699-.42-.979L25.939 8.27c-.186-.187-.42-.28-.653-.28-.233 0-.466.14-.653.28-.373-.327-.373-.42-.373-.793 0-.187 0-.42-.093-.7-.094-.653-.42-1.306-.933-1.819l-1.68-1.68c-.979-.979-1.445-1.445-2.705-2.005-2.705-1.26-5.457-1.026-9.468.793-.233.094-.327.28-.28.513.046.234.233.374.466.374h.607c2.052 0 3.125 0 4.99 1.865.817.817.841 2.07.109 2.991-.099.015-.174.06-.248.134l-2.072 2.313-1.567-1.566C9.665 6.968 8.454 5.34 7.522 3.526c-.049-.918-.417-1.776-1.08-2.44C5.65.295 4.53-.078 3.41.015c-.14.047-.28.14-.326.233-.093.14-.093.327 0 .467L4.39 3.046c-.28.606-.933.98-1.586.933l-1.353-2.24c-.046-.14-.233-.232-.373-.232-.14-.047-.28.046-.373.186-1.12 1.68-.7 3.918.98 5.084.578.413 1.23.643 1.89.69l.022.01c1.819.933 3.452 2.145 5.177 3.871l1.706 1.667L.565 24.082c-.373.373-.56.886-.56 1.4 0 .512.187.979.56 1.352l.653.653c.373.326.84.513 1.306.513.467 0 .98-.186 1.353-.56l9.904-11.085 2.876 2.876c.979.979 2.237 2.702 3.913 5.217.06.898.428 1.736 1.078 2.386.7.7 1.633 1.073 2.612 1.073h.373c.14 0 .28-.094.373-.233.094-.14.094-.327 0-.467l-1.352-2.285c.326-.607.933-.98 1.632-.933l1.306 2.239c.047.14.233.233.373.233.187-.047.327-.093.42-.233 1.12-1.68.653-3.919-.98-5.085zM15.77 4.072c-1.493-1.446-2.612-1.912-3.872-2.052 2.66-.84 4.618-.793 6.577.093 1.12.466 1.493.84 2.472 1.82l1.68 1.678c.373.373.606.84.652 1.306.047.233.047.42.047.56 0 .513.047.886.606 1.446.187.186.467.28.7.28.28 0 .513-.094.653-.28l1.633 1.632c.093.094.14.187.14.327s-.047.233-.14.326l-3.312 3.312c-.187.187-.466.187-.653 0l-1.633-1.633c.187-.14.28-.373.234-.652 0-.234-.094-.514-.28-.7-.56-.56-.933-.607-1.446-.607-.14 0-.327 0-.56-.046-.513-.047-.933-.28-1.306-.653l-2.006-2.006c1.027-1.26.933-3.032-.186-4.151zM1.125 2.952l.98 1.68c.093.14.233.233.373.233h.233c1.073.047 2.052-.513 2.519-1.446l.093-.233c.093-.14.093-.28 0-.42L4.297.994c.56.093 1.073.373 1.492.793.481.52.79 1.18.807 1.887-.009.036-.014.075-.014.118 0 .216-.026.427-.074.63-.176.675-.598 1.264-1.185 1.656-.933.606-2.192.606-3.125-.047-.98-.7-1.4-1.959-1.073-3.078zm8.302 7.743C8.028 9.25 6.63 8.13 5.137 7.244c.232-.094.512-.234.745-.373.7-.467 1.167-1.073 1.446-1.82.887 1.493 2.006 2.892 3.405 4.292l1.602 1.602-1.256 1.402-1.652-1.652zM3.224 26.741c-.373.373-.98.42-1.353.046l-.653-.606c-.186-.187-.28-.42-.28-.653 0-.28.094-.513.327-.746l.264-.296.669.669c.093.093.186.14.326.14s.233-.047.327-.14c.186-.187.186-.467 0-.653l-.706-.706.617-.69.742.743c.093.093.186.14.326.14s.233-.047.327-.14c.186-.187.186-.467 0-.653l-.779-.779L15.376 8.994l1.959 1.96-1.925 2.153c-.055.023-.104.059-.152.107l-1.866 2.099c-.053.053-.09.114-.114.178L3.224 26.741zm11.195-11.1l1.276-1.43 3.014 3.014c.84.887 2.286 2.006 4.385 3.405-.28.094-.56.234-.84.42-.578.362-.988.864-1.274 1.42l-.012.023-.05.1c-.023.049-.044.097-.065.146l-.043.1-.005.014c-.015.036-.03.073-.043.11-.265-.39-.52-.756-.765-1.101l.625-.625c.186-.187.186-.467 0-.653-.187-.187-.467-.187-.653 0l-.52.52c-.194-.263-.381-.511-.562-.745l.429-.428c.186-.187.186-.467 0-.653-.187-.187-.467-.187-.653 0l-.356.356c-.343-.413-.66-.765-.95-1.056l-2.938-2.938zm12.5 9.327l-.98-1.679c-.093-.14-.233-.233-.373-.233h-.233c-1.073-.094-2.053.513-2.519 1.446l-.093.233c-.094.14-.094.28 0 .42l1.026 1.772c-.56-.093-1.073-.373-1.493-.793-.472-.51-.777-1.155-.805-1.847.008-.034.012-.07.012-.112 0-.59.188-1.144.515-1.613.2-.279.452-.524.745-.719.466-.326.98-.466 1.539-.466.56 0 1.12.186 1.586.513.98.7 1.4 1.959 1.073 3.078z"/>
</svg>
