<svg width="637" height="560" viewBox="0 0 637 560" fill="none" xmlns="http://www.w3.org/2000/svg">
<g opacity="0.05">
<g clip-path="url(#clip0)">
<path d="M111.093 356.647H70.0771V552.669H111.093V356.647Z" fill="#333333"/>
<path d="M99.7827 346.709H81.139V357.765H99.7827V346.709Z" fill="#333333"/>
<path d="M95.9297 340.249H85.1164V346.585H95.9297V340.249Z" fill="#333333"/>
<path d="M89.8394 356.274L90.5852 249.443L91.2067 356.274H89.8394Z" fill="#333333"/>
<path opacity="0.09" d="M92.6981 371.429H88.348V375.777H92.6981V371.429Z" fill="white"/>
<path opacity="0.33" d="M92.6981 385.218H88.348V389.566H92.6981V385.218Z" fill="white"/>
<path opacity="0.37" d="M92.6981 399.131H88.348V403.478H92.6981V399.131Z" fill="white"/>
<path opacity="0.14" d="M92.6981 412.919H88.348V417.267H92.6981V412.919Z" fill="white"/>
<path opacity="0.3" d="M92.6981 426.832H88.348V431.18H92.6981V426.832Z" fill="white"/>
<path opacity="0.16" d="M92.6981 440.621H88.348V444.969H92.6981V440.621Z" fill="white"/>
<path opacity="0.34" d="M92.6981 454.534H88.348V458.881H92.6981V454.534Z" fill="white"/>
<path opacity="0.29" d="M92.6981 468.323H88.348V472.67H92.6981V468.323Z" fill="white"/>
<path opacity="0.12" d="M92.6981 482.235H88.348V486.583H92.6981V482.235Z" fill="white"/>
<path d="M36.1456 400.994H-92.3715V572.048H36.1456V400.994Z" fill="#4D4D4D"/>
<path d="M2.46272 408.075H-4.37329V414.907H2.46272V408.075Z" fill="white"/>
<path d="M11.536 408.075H4.69995V414.907H11.536V408.075Z" fill="white"/>
<path d="M2.46272 417.019H-4.37329V423.851H2.46272V417.019Z" fill="white"/>
<path d="M11.536 417.019H4.69995V423.851H11.536V417.019Z" fill="white"/>
<path d="M2.46272 425.963H-4.37329V432.795H2.46272V425.963Z" fill="white"/>
<path d="M11.536 425.963H4.69995V432.795H11.536V425.963Z" fill="white"/>
<path d="M2.46272 434.783H-4.37329V441.615H2.46272V434.783Z" fill="white"/>
<path d="M11.536 434.783H4.69995V441.615H11.536V434.783Z" fill="white"/>
<path d="M2.46272 443.727H-4.37329V450.559H2.46272V443.727Z" fill="white"/>
<path d="M11.536 443.727H4.69995V450.559H11.536V443.727Z" fill="white"/>
<path d="M2.46272 452.671H-4.37329V459.503H2.46272V452.671Z" fill="white"/>
<path d="M11.536 452.671H4.69995V459.503H11.536V452.671Z" fill="white"/>
<path d="M2.46272 461.615H-4.37329V468.447H2.46272V461.615Z" fill="white"/>
<path d="M11.536 461.615H4.69995V468.447H11.536V461.615Z" fill="white"/>
<path d="M2.46272 470.559H-4.37329V477.391H2.46272V470.559Z" fill="white"/>
<path d="M11.536 470.559H4.69995V477.391H11.536V470.559Z" fill="white"/>
<path d="M2.46272 479.378H-4.37329V486.211H2.46272V479.378Z" fill="white"/>
<path d="M11.536 479.378H4.69995V486.211H11.536V479.378Z" fill="white"/>
<path d="M2.46272 488.322H-4.37329V495.154H2.46272V488.322Z" fill="white"/>
<path d="M11.536 488.322H4.69995V495.154H11.536V488.322Z" fill="white"/>
<path d="M2.46272 497.266H-4.37329V504.099H2.46272V497.266Z" fill="white"/>
<path d="M11.536 497.266H4.69995V504.099H11.536V497.266Z" fill="white"/>
<path d="M2.46272 506.21H-4.37329V513.043H2.46272V506.21Z" fill="white"/>
<path d="M11.536 506.21H4.69995V513.043H11.536V506.21Z" fill="white"/>
<path d="M2.46272 515.154H-4.37329V521.987H2.46272V515.154Z" fill="white"/>
<path d="M11.536 515.154H4.69995V521.987H11.536V515.154Z" fill="white"/>
<path d="M2.46272 523.974H-4.37329V530.806H2.46272V523.974Z" fill="white"/>
<path d="M11.536 523.974H4.69995V530.806H11.536V523.974Z" fill="white"/>
<path d="M20.6093 523.974H13.7733V530.806H20.6093V523.974Z" fill="white"/>
<path d="M2.46272 532.918H-4.37329V539.75H2.46272V532.918Z" fill="white"/>
<path d="M11.536 532.918H4.69995V539.75H11.536V532.918Z" fill="white"/>
<path d="M20.6093 532.918H13.7733V539.75H20.6093V532.918Z" fill="white"/>
<path d="M2.46272 541.862H-4.37329V548.694H2.46272V541.862Z" fill="white"/>
<path d="M11.536 541.862H4.69995V548.694H11.536V541.862Z" fill="white"/>
<path d="M20.6093 541.862H13.7733V548.694H20.6093V541.862Z" fill="white"/>
<path d="M2.46272 550.806H-4.37329V557.638H2.46272V550.806Z" fill="white"/>
<path d="M11.536 550.806H4.69995V557.638H11.536V550.806Z" fill="white"/>
<path d="M20.6093 550.806H13.7733V557.638H20.6093V550.806Z" fill="white"/>
<path d="M2.46272 559.75H-4.37329V566.582H2.46272V559.75Z" fill="white"/>
<path d="M11.536 559.75H4.69995V566.582H11.536V559.75Z" fill="white"/>
<path d="M20.6093 559.75H13.7733V566.582H20.6093V559.75Z" fill="white"/>
<path d="M17.1291 383.603H-73.3549V400.994H17.1291V383.603Z" fill="#4D4D4D"/>
<path opacity="0.19" d="M20.6093 408.075H13.7733V414.907H20.6093V408.075Z" fill="white"/>
<path opacity="0.24" d="M20.6093 417.019H13.7733V423.851H20.6093V417.019Z" fill="white"/>
<path opacity="0.29" d="M20.6093 425.963H13.7733V432.795H20.6093V425.963Z" fill="white"/>
<path opacity="0.39" d="M20.6093 434.782H13.7733V441.615H20.6093V434.782Z" fill="white"/>
<path opacity="0.21" d="M20.6093 443.727H13.7733V450.559H20.6093V443.727Z" fill="white"/>
<path opacity="0.48" d="M20.6093 452.67H13.7733V459.503H20.6093V452.67Z" fill="white"/>
<path opacity="0.32" d="M20.6093 461.615H13.7733V468.447H20.6093V461.615Z" fill="white"/>
<path opacity="0.13" d="M20.6093 470.559H13.7733V477.391H20.6093V470.559Z" fill="white"/>
<path opacity="0.19" d="M20.6093 479.378H13.7733V486.21H20.6093V479.378Z" fill="white"/>
<path opacity="0.03" d="M20.6093 488.322H13.7733V495.154H20.6093V488.322Z" fill="white"/>
<path opacity="0.36" d="M20.6093 497.266H13.7733V504.099H20.6093V497.266Z" fill="white"/>
<path opacity="0.25" d="M20.6093 506.21H13.7733V513.042H20.6093V506.21Z" fill="white"/>
<path d="M20.6093 515.154H13.7733V521.987H20.6093V515.154Z" fill="white"/>
<path d="M296.66 478.633H255.644V574.657H296.66V478.633Z" fill="#333333"/>
<path d="M274.288 473.788H255.644V479.254H274.288V473.788Z" fill="#333333"/>
<path d="M266.457 470.683H255.644V473.788H266.457V470.683Z" fill="#333333"/>
<path opacity="0.06" d="M279.508 485.341H272.796V490.31H279.508V485.341Z" fill="white"/>
<path opacity="0.12" d="M279.508 497.639H272.796V502.608H279.508V497.639Z" fill="white"/>
<path opacity="0.19" d="M279.508 522.235H272.796V527.204H279.508V522.235Z" fill="white"/>
<path opacity="0.14" d="M279.508 546.831H272.796V551.8H279.508V546.831Z" fill="white"/>
<path opacity="0.1" d="M279.508 559.129H272.796V564.098H279.508V559.129Z" fill="white"/>
<path d="M193.747 489.068H137.567V540.496H193.747V489.068Z" fill="#333333"/>
<path d="M184.922 484.471H146.516V506.583H184.922V484.471Z" fill="#333333"/>
<path d="M197.848 521.49H141.669V572.918H197.848V521.49Z" fill="#333333"/>
<path d="M188.9 516.893H150.494V539.005H188.9V516.893Z" fill="#333333"/>
<path d="M272.672 514.657H216.492V573.911H272.672V514.657Z" fill="#333333"/>
<path d="M263.847 509.44H225.441V535.03H263.847V509.44Z" fill="#333333"/>
<path d="M460.724 532.67H404.545V589.936H460.724V532.67Z" fill="#333333"/>
<path d="M451.9 527.576H413.494V552.297H451.9V527.576Z" fill="#333333"/>
<path d="M338.919 414.41H276.152V573.787H338.919V414.41Z" fill="#333333"/>
<path opacity="0.46" d="M294.423 421.615H279.259V424.472H294.423V421.615Z" fill="#E6E6E6"/>
<path opacity="0.34" d="M315.179 421.615H300.016V424.472H315.179V421.615Z" fill="#E6E6E6"/>
<path opacity="0.52" d="M335.812 421.615H320.648V424.472H335.812V421.615Z" fill="#E6E6E6"/>
<path opacity="0.54" d="M294.423 428.199H279.259V431.056H294.423V428.199Z" fill="#E6E6E6"/>
<path opacity="0.3" d="M315.179 428.199H300.016V431.056H315.179V428.199Z" fill="#E6E6E6"/>
<path opacity="0.06" d="M335.812 428.199H320.648V431.056H335.812V428.199Z" fill="#E6E6E6"/>
<path opacity="0.15" d="M294.423 434.782H279.259V437.64H294.423V434.782Z" fill="#E6E6E6"/>
<path opacity="0.42" d="M315.179 434.782H300.016V437.64H315.179V434.782Z" fill="#E6E6E6"/>
<path opacity="0.48" d="M335.812 434.782H320.648V437.64H335.812V434.782Z" fill="#E6E6E6"/>
<path opacity="0.18" d="M294.423 441.366H279.259V444.223H294.423V441.366Z" fill="#E6E6E6"/>
<path opacity="0.28" d="M335.812 441.366H320.648V444.223H335.812V441.366Z" fill="#E6E6E6"/>
<path opacity="0.29" d="M294.423 447.95H279.259V450.807H294.423V447.95Z" fill="#E6E6E6"/>
<path opacity="0.28" d="M315.179 447.95H300.016V450.807H315.179V447.95Z" fill="#E6E6E6"/>
<path opacity="0.56" d="M335.812 447.95H320.648V450.807H335.812V447.95Z" fill="#E6E6E6"/>
<path opacity="0.41" d="M294.423 454.534H279.259V457.391H294.423V454.534Z" fill="#E6E6E6"/>
<path opacity="0.16" d="M315.179 454.534H300.016V457.391H315.179V454.534Z" fill="#E6E6E6"/>
<path opacity="0.4" d="M335.812 454.534H320.648V457.391H335.812V454.534Z" fill="#E6E6E6"/>
<path opacity="0.1" d="M294.423 461.118H279.259V463.975H294.423V461.118Z" fill="#E6E6E6"/>
<path opacity="0.17" d="M315.179 461.118H300.016V463.975H315.179V461.118Z" fill="#E6E6E6"/>
<path opacity="0.08" d="M335.812 461.118H320.648V463.975H335.812V461.118Z" fill="#E6E6E6"/>
<path opacity="0.49" d="M294.423 467.701H279.259V470.559H294.423V467.701Z" fill="#E6E6E6"/>
<path opacity="0.58" d="M315.179 467.701H300.016V470.559H315.179V467.701Z" fill="#E6E6E6"/>
<path opacity="0.58" d="M335.812 467.701H320.648V470.559H335.812V467.701Z" fill="#E6E6E6"/>
<path opacity="0.26" d="M294.423 474.285H279.259V477.142H294.423V474.285Z" fill="#E6E6E6"/>
<path opacity="0.37" d="M315.179 474.285H300.016V477.142H315.179V474.285Z" fill="#E6E6E6"/>
<path opacity="0.34" d="M335.812 474.285H320.648V477.142H335.812V474.285Z" fill="#E6E6E6"/>
<path opacity="0.55" d="M294.423 480.869H279.259V483.726H294.423V480.869Z" fill="#E6E6E6"/>
<path opacity="0.12" d="M315.179 480.869H300.016V483.726H315.179V480.869Z" fill="#E6E6E6"/>
<path opacity="0.6" d="M335.812 480.869H320.648V483.726H335.812V480.869Z" fill="#E6E6E6"/>
<path opacity="0.02" d="M294.423 487.453H279.259V490.31H294.423V487.453Z" fill="#E6E6E6"/>
<path opacity="0.28" d="M315.179 487.453H300.016V490.31H315.179V487.453Z" fill="#E6E6E6"/>
<path opacity="0.21" d="M335.812 487.453H320.648V490.31H335.812V487.453Z" fill="#E6E6E6"/>
<path opacity="0.57" d="M294.423 494.037H279.259V496.894H294.423V494.037Z" fill="#E6E6E6"/>
<path opacity="0.38" d="M315.179 494.037H300.016V496.894H315.179V494.037Z" fill="#E6E6E6"/>
<path opacity="0.25" d="M335.812 494.037H320.648V496.894H335.812V494.037Z" fill="#E6E6E6"/>
<path opacity="0.15" d="M294.423 500.62H279.259V503.477H294.423V500.62Z" fill="#E6E6E6"/>
<path opacity="0.47" d="M315.179 500.62H300.016V503.477H315.179V500.62Z" fill="#E6E6E6"/>
<path opacity="0.3" d="M335.812 500.62H320.648V503.477H335.812V500.62Z" fill="#E6E6E6"/>
<path opacity="0.4" d="M294.423 507.204H279.259V510.061H294.423V507.204Z" fill="#E6E6E6"/>
<path opacity="0.39" d="M315.179 507.204H300.016V510.061H315.179V507.204Z" fill="#E6E6E6"/>
<path opacity="0.24" d="M335.812 507.204H320.648V510.061H335.812V507.204Z" fill="#E6E6E6"/>
<path opacity="0.46" d="M294.423 513.788H279.259V516.645H294.423V513.788Z" fill="#E6E6E6"/>
<path opacity="0.22" d="M315.179 513.788H300.016V516.645H315.179V513.788Z" fill="#E6E6E6"/>
<path opacity="0.11" d="M335.812 513.788H320.648V516.645H335.812V513.788Z" fill="#E6E6E6"/>
<path opacity="0.11" d="M315.179 520.372H300.016V523.229H315.179V520.372Z" fill="#E6E6E6"/>
<path opacity="0.02" d="M335.812 520.372H320.648V523.229H335.812V520.372Z" fill="#E6E6E6"/>
<path opacity="0.27" d="M294.423 526.955H279.259V529.812H294.423V526.955Z" fill="#E6E6E6"/>
<path opacity="0.21" d="M315.179 526.955H300.016V529.812H315.179V526.955Z" fill="#E6E6E6"/>
<path opacity="0.49" d="M335.812 526.955H320.648V529.812H335.812V526.955Z" fill="#E6E6E6"/>
<path opacity="0.6" d="M294.423 533.539H279.259V536.396H294.423V533.539Z" fill="#E6E6E6"/>
<path opacity="0.31" d="M315.179 533.539H300.016V536.396H315.179V533.539Z" fill="#E6E6E6"/>
<path opacity="0.22" d="M335.812 533.539H320.648V536.396H335.812V533.539Z" fill="#E6E6E6"/>
<path opacity="0.54" d="M294.423 540.123H279.259V542.98H294.423V540.123Z" fill="#E6E6E6"/>
<path opacity="0.6" d="M315.179 540.123H300.016V542.98H315.179V540.123Z" fill="#E6E6E6"/>
<path opacity="0.08" d="M335.812 540.123H320.648V542.98H335.812V540.123Z" fill="#E6E6E6"/>
<path opacity="0.55" d="M315.179 546.707H300.016V549.564H315.179V546.707Z" fill="#E6E6E6"/>
<path d="M335.812 546.707H320.648V549.564H335.812V546.707Z" fill="#E6E6E6"/>
<path opacity="0.6" d="M295.417 421.615H294.423V549.564H295.417V421.615Z" fill="#E6E6E6"/>
<path opacity="0.6" d="M320.648 421.615H319.654V549.564H320.648V421.615Z" fill="#E6E6E6"/>
<path d="M370.24 414.41H338.919V573.787H370.24V414.41Z" fill="#4D4D4D"/>
<path opacity="0.69" d="M365.642 421.615H342.026V424.472H365.642V421.615Z" fill="#E6E6E6"/>
<path opacity="0.79" d="M365.642 428.199H342.026V431.056H365.642V428.199Z" fill="#E6E6E6"/>
<path opacity="0.19" d="M365.642 434.782H342.026V437.64H365.642V434.782Z" fill="#E6E6E6"/>
<path opacity="0.88" d="M365.642 441.366H342.026V444.223H365.642V441.366Z" fill="#E6E6E6"/>
<path opacity="0.5" d="M365.642 447.95H342.026V450.807H365.642V447.95Z" fill="#E6E6E6"/>
<path opacity="0.25" d="M365.642 454.534H342.026V457.391H365.642V454.534Z" fill="#E6E6E6"/>
<path opacity="0.91" d="M365.642 461.118H342.026V463.975H365.642V461.118Z" fill="#E6E6E6"/>
<path opacity="0.02" d="M365.642 467.701H342.026V470.559H365.642V467.701Z" fill="#E6E6E6"/>
<path opacity="0.53" d="M365.642 474.285H342.026V477.142H365.642V474.285Z" fill="#E6E6E6"/>
<path opacity="0.65" d="M365.642 480.869H342.026V483.726H365.642V480.869Z" fill="#E6E6E6"/>
<path d="M365.642 487.453H342.026V490.31H365.642V487.453Z" fill="#E6E6E6"/>
<path opacity="0.8" d="M365.642 494.037H342.026V496.894H365.642V494.037Z" fill="#E6E6E6"/>
<path opacity="0.82" d="M365.642 500.62H342.026V503.477H365.642V500.62Z" fill="#E6E6E6"/>
<path opacity="0.75" d="M365.642 507.204H342.026V510.061H365.642V507.204Z" fill="#E6E6E6"/>
<path opacity="0.31" d="M365.642 513.788H342.026V516.645H365.642V513.788Z" fill="#E6E6E6"/>
<path opacity="0.22" d="M365.642 520.372H342.026V523.229H365.642V520.372Z" fill="#E6E6E6"/>
<path opacity="0.43" d="M365.642 526.955H342.026V529.812H365.642V526.955Z" fill="#E6E6E6"/>
<path opacity="0.68" d="M365.642 533.539H342.026V536.396H365.642V533.539Z" fill="#E6E6E6"/>
<path opacity="0.38" d="M365.642 540.123H342.026V542.98H365.642V540.123Z" fill="#E6E6E6"/>
<path opacity="0.84" d="M365.642 546.707H342.026V549.564H365.642V546.707Z" fill="#E6E6E6"/>
<path d="M287.214 405.963V414.41H327.857V405.963H287.214ZM296.287 411.677H292.061V408.82H296.287V411.677ZM302.875 411.677H298.773V408.82H302.875V411.677ZM309.586 411.677H305.485V408.82H309.586V411.677ZM316.298 411.677H312.072V408.82H316.298V411.677ZM323.01 411.677H318.784V408.82H323.01V411.677Z" fill="#333333"/>
<path d="M335.315 408.82H334.196V411.677H335.315V408.82Z" fill="#333333"/>
<path d="M327.857 405.963V414.41H346.998V405.963H327.857ZM335.315 411.677H331.213V408.82H335.315V411.677ZM344.139 411.677H340.038V408.82H344.139V411.677Z" fill="#4D4D4D"/>
<path d="M344.015 408.82H342.896V411.677H344.015V408.82Z" fill="#333333"/>
<path d="M347.246 584.594H262.728L347.246 522.235V584.594Z" fill="#333333"/>
<path d="M221.215 380.622H214.379V406.584H221.215V380.622Z" fill="#4D4D4D"/>
<path d="M214.504 380.622H207.543V406.584H214.504V380.622Z" fill="#333333"/>
<path d="M228.3 380.622H221.34V406.584H228.3V380.622Z" fill="#666666"/>
<path d="M248.435 424.348H229.046V572.421H248.435V424.348Z" fill="#666666"/>
<path d="M206.3 424.348H189.397V572.421H206.3V424.348Z" fill="#333333"/>
<path d="M229.046 424.348H206.176V572.421H229.046V424.348Z" fill="#4D4D4D"/>
<path opacity="0.6" d="M194.244 428.696H191.758V570.433H194.244V428.696Z" fill="#E6E6E6"/>
<path opacity="0.6" d="M199.091 428.696H196.606V570.433H199.091V428.696Z" fill="#E6E6E6"/>
<path opacity="0.6" d="M203.939 428.696H201.453V570.433H203.939V428.696Z" fill="#E6E6E6"/>
<path d="M232.899 428.696H230.413V570.433H232.899V428.696Z" fill="#E6E6E6"/>
<path d="M237.746 428.696H235.26V570.433H237.746V428.696Z" fill="#E6E6E6"/>
<path d="M247.192 428.696H244.706V570.433H247.192V428.696Z" fill="#E6E6E6"/>
<path d="M242.593 428.696H240.108V570.433H242.593V428.696Z" fill="#E6E6E6"/>
<path opacity="0.8" d="M209.035 570.433H226.187V428.696H209.035V570.433ZM211.769 431.18H223.452V567.949H211.769V431.18Z" fill="#E6E6E6"/>
<path opacity="0.8" d="M214.006 565.589H221.34V433.416H214.006V565.589ZM216.492 436.522H217.362H217.859H218.854V562.483H217.859H217.362H216.492V436.522Z" fill="#E6E6E6"/>
<path opacity="0.8" d="M217.859 436.521H217.362V562.483H217.859V436.521Z" fill="#E6E6E6"/>
<path d="M226.435 398.385H209.283V424.348H226.435V398.385Z" fill="#4D4D4D"/>
<path d="M226.435 398.385H209.283V424.348H226.435V398.385Z" fill="#4D4D4D"/>
<path d="M243.588 398.385H226.435V424.348H243.588V398.385Z" fill="#666666"/>
<path d="M209.283 398.385H192.131V424.348H209.283V398.385Z" fill="#333333"/>
<path d="M228.176 380.622H207.543L214.379 385.342H221.34L228.176 380.622Z" fill="#808080"/>
<path d="M596.948 371.056H587.004V400.249H596.948V371.056Z" fill="#4D4D4D"/>
<path d="M586.88 371.056H576.937V400.249H586.88V371.056Z" fill="#333333"/>
<path d="M606.891 371.056H596.948V400.249H606.891V371.056Z" fill="#666666"/>
<path d="M636.224 420.373H608.134V587.203H636.224V420.373Z" fill="#666666"/>
<path d="M575.072 420.373H550.711V587.203H575.072V420.373Z" fill="#333333"/>
<path d="M608.134 420.373H575.072V587.203H608.134V420.373Z" fill="#4D4D4D"/>
<path opacity="0.4" d="M557.671 425.342H554.067V584.967H557.671V425.342Z" fill="#E6E6E6"/>
<path opacity="0.4" d="M564.756 425.342H561.152V584.967H564.756V425.342Z" fill="#E6E6E6"/>
<path opacity="0.4" d="M571.841 425.342H568.236V584.967H571.841V425.342Z" fill="#E6E6E6"/>
<path d="M613.727 425.342H610.122V584.967H613.727V425.342Z" fill="#E6E6E6"/>
<path d="M620.811 425.342H617.207V584.967H620.811V425.342Z" fill="#E6E6E6"/>
<path d="M634.359 425.342H630.755V584.967H634.359V425.342Z" fill="#E6E6E6"/>
<path d="M627.772 425.342H624.167V584.967H627.772V425.342Z" fill="#E6E6E6"/>
<path d="M579.298 584.967H604.156V425.342H579.298V584.967ZM583.151 428.074H600.055V582.234H583.151V428.074Z" fill="#E6E6E6"/>
<path d="M586.258 579.626H596.948V430.683H586.258V579.626ZM589.987 434.161H591.354H591.976H593.343V576.147H591.976H591.354H589.987V434.161Z" fill="#E6E6E6"/>
<path d="M591.976 434.161H591.354V576.147H591.976V434.161Z" fill="#E6E6E6"/>
<path d="M604.405 391.18H579.547V420.373H604.405V391.18Z" fill="#4D4D4D"/>
<path d="M604.405 391.18H579.547V420.373H604.405V391.18Z" fill="#4D4D4D"/>
<path d="M629.263 391.18H604.405V420.373H629.263V391.18Z" fill="#666666"/>
<path d="M579.671 391.18H554.813V420.373H579.671V391.18Z" fill="#333333"/>
<path d="M607.015 371.056H576.937L587.004 376.398H596.948L607.015 371.056Z" fill="#808080"/>
<path d="M525.232 443.478H457.244V466.086H525.232V443.478Z" fill="#E6E6E6"/>
<path d="M483.967 443.478H457.244V466.086H483.967V443.478Z" fill="#B3B3B3"/>
<path d="M483.967 466.211H431.143V576.023H483.967V466.211Z" fill="#333333"/>
<path d="M566.496 466.211H483.967V576.023H566.496V466.211Z" fill="#4D4D4D"/>
<path d="M477.504 455.031H436.86V466.211H477.504V455.031Z" fill="#333333"/>
<path d="M554.191 455.031H496.147V466.211H554.191V455.031Z" fill="#4D4D4D"/>
<path d="M507.209 434.907H483.967V443.478H507.209V434.907Z" fill="#E6E6E6"/>
<path d="M495.526 426.211H483.967V434.782H495.526V426.211Z" fill="#4D4D4D"/>
<path d="M483.843 426.211H472.283V434.782H483.843V426.211Z" fill="#333333"/>
<path d="M483.967 434.907H466.193V443.478H483.967V434.907Z" fill="#B3B3B3"/>
<path d="M483.221 426.211L483.967 406.336L484.588 426.211H483.221Z" fill="#333333"/>
<path opacity="0.12" d="M447.798 470.683H443.448V475.031H447.798V470.683Z" fill="white"/>
<path opacity="0.25" d="M453.764 470.683H449.414V475.031H453.764V470.683Z" fill="white"/>
<path opacity="0.36" d="M459.73 470.683H455.38V475.031H459.73V470.683Z" fill="white"/>
<path opacity="0.12" d="M465.696 470.683H461.346V475.031H465.696V470.683Z" fill="white"/>
<path opacity="0.14" d="M471.662 470.683H467.312V475.031H471.662V470.683Z" fill="white"/>
<path opacity="0.28" d="M447.798 476.397H443.448V480.745H447.798V476.397Z" fill="white"/>
<path opacity="0.4" d="M453.764 476.397H449.414V480.745H453.764V476.397Z" fill="white"/>
<path opacity="0.16" d="M459.73 476.397H455.38V480.745H459.73V476.397Z" fill="white"/>
<path opacity="0.17" d="M471.662 476.397H467.312V480.745H471.662V476.397Z" fill="white"/>
<path opacity="0.27" d="M447.798 482.111H443.448V486.459H447.798V482.111Z" fill="white"/>
<path opacity="0.45" d="M453.764 482.111H449.414V486.459H453.764V482.111Z" fill="white"/>
<path opacity="0.45" d="M459.73 482.111H455.38V486.459H459.73V482.111Z" fill="white"/>
<path opacity="0.48" d="M465.696 482.111H461.346V486.459H465.696V482.111Z" fill="white"/>
<path opacity="0.25" d="M471.662 482.111H467.312V486.459H471.662V482.111Z" fill="white"/>
<path opacity="0.28" d="M447.798 487.825H443.448V492.173H447.798V487.825Z" fill="white"/>
<path opacity="0.13" d="M453.764 487.825H449.414V492.173H453.764V487.825Z" fill="white"/>
<path opacity="0.07" d="M459.73 487.825H455.38V492.173H459.73V487.825Z" fill="white"/>
<path opacity="0.39" d="M465.696 487.825H461.346V492.173H465.696V487.825Z" fill="white"/>
<path opacity="0.47" d="M471.662 487.825H467.312V492.173H471.662V487.825Z" fill="white"/>
<path opacity="0.28" d="M447.798 493.54H443.448V497.888H447.798V493.54Z" fill="white"/>
<path opacity="0.2" d="M453.764 493.54H449.414V497.888H453.764V493.54Z" fill="white"/>
<path opacity="0.04" d="M459.73 493.54H455.38V497.888H459.73V493.54Z" fill="white"/>
<path opacity="0.43" d="M465.696 493.54H461.346V497.888H465.696V493.54Z" fill="white"/>
<path opacity="0.48" d="M471.662 493.54H467.312V497.888H471.662V493.54Z" fill="white"/>
<path opacity="0.28" d="M447.798 499.254H443.448V503.602H447.798V499.254Z" fill="white"/>
<path opacity="0.19" d="M453.764 499.254H449.414V503.602H453.764V499.254Z" fill="white"/>
<path opacity="0.01" d="M459.73 499.254H455.38V503.602H459.73V499.254Z" fill="white"/>
<path opacity="0.27" d="M465.696 499.254H461.346V503.602H465.696V499.254Z" fill="white"/>
<path opacity="0.24" d="M471.662 499.254H467.312V503.602H471.662V499.254Z" fill="white"/>
<path opacity="0.07" d="M447.798 505.092H443.448V509.44H447.798V505.092Z" fill="white"/>
<path opacity="0.25" d="M453.764 505.092H449.414V509.44H453.764V505.092Z" fill="white"/>
<path opacity="0.26" d="M459.73 505.092H455.38V509.44H459.73V505.092Z" fill="white"/>
<path opacity="0.39" d="M465.696 505.092H461.346V509.44H465.696V505.092Z" fill="white"/>
<path opacity="0.22" d="M471.662 505.092H467.312V509.44H471.662V505.092Z" fill="white"/>
<path opacity="0.15" d="M447.798 510.807H443.448V515.154H447.798V510.807Z" fill="white"/>
<path opacity="0.23" d="M453.764 510.807H449.414V515.154H453.764V510.807Z" fill="white"/>
<path opacity="0.05" d="M459.73 510.807H455.38V515.154H459.73V510.807Z" fill="white"/>
<path opacity="0.2" d="M465.696 510.807H461.346V515.154H465.696V510.807Z" fill="white"/>
<path opacity="0.31" d="M471.662 510.807H467.312V515.154H471.662V510.807Z" fill="white"/>
<path opacity="0.15" d="M447.798 516.521H443.448V520.869H447.798V516.521Z" fill="white"/>
<path opacity="0.33" d="M453.764 516.521H449.414V520.869H453.764V516.521Z" fill="white"/>
<path opacity="0.46" d="M459.73 516.521H455.38V520.869H459.73V516.521Z" fill="white"/>
<path opacity="0.25" d="M465.696 516.521H461.346V520.869H465.696V516.521Z" fill="white"/>
<path opacity="0.43" d="M471.662 516.521H467.312V520.869H471.662V516.521Z" fill="white"/>
<path opacity="0.4" d="M447.798 522.235H443.448V526.583H447.798V522.235Z" fill="white"/>
<path opacity="0.39" d="M453.764 522.235H449.414V526.583H453.764V522.235Z" fill="white"/>
<path opacity="0.01" d="M459.73 522.235H455.38V526.583H459.73V522.235Z" fill="white"/>
<path opacity="0.12" d="M465.696 522.235H461.346V526.583H465.696V522.235Z" fill="white"/>
<path opacity="0.07" d="M471.662 522.235H467.312V526.583H471.662V522.235Z" fill="white"/>
<path opacity="0.07" d="M447.798 527.949H443.448V532.297H447.798V527.949Z" fill="white"/>
<path opacity="0.02" d="M453.764 527.949H449.414V532.297H453.764V527.949Z" fill="white"/>
<path opacity="0.12" d="M459.73 527.949H455.38V532.297H459.73V527.949Z" fill="white"/>
<path opacity="0.23" d="M465.696 527.949H461.346V532.297H465.696V527.949Z" fill="white"/>
<path opacity="0.26" d="M471.662 527.949H467.312V532.297H471.662V527.949Z" fill="white"/>
<path opacity="0.27" d="M447.798 533.664H443.448V538.011H447.798V533.664Z" fill="white"/>
<path opacity="0.38" d="M453.764 533.664H449.414V538.011H453.764V533.664Z" fill="white"/>
<path opacity="0.05" d="M459.73 533.664H455.38V538.011H459.73V533.664Z" fill="white"/>
<path opacity="0.45" d="M465.696 533.664H461.346V538.011H465.696V533.664Z" fill="white"/>
<path opacity="0.15" d="M471.662 533.664H467.312V538.011H471.662V533.664Z" fill="white"/>
<path opacity="0.06" d="M447.798 539.378H443.448V543.725H447.798V539.378Z" fill="white"/>
<path opacity="0.47" d="M453.764 539.378H449.414V543.725H453.764V539.378Z" fill="white"/>
<path opacity="0.15" d="M459.73 539.378H455.38V543.725H459.73V539.378Z" fill="white"/>
<path opacity="0.44" d="M465.696 539.378H461.346V543.725H465.696V539.378Z" fill="white"/>
<path opacity="0.14" d="M471.662 539.378H467.312V543.725H471.662V539.378Z" fill="white"/>
<path opacity="0.15" d="M447.798 545.092H443.448V549.44H447.798V545.092Z" fill="white"/>
<path opacity="0.43" d="M453.764 545.092H449.414V549.44H453.764V545.092Z" fill="white"/>
<path opacity="0.07" d="M459.73 545.092H455.38V549.44H459.73V545.092Z" fill="white"/>
<path opacity="0.47" d="M465.696 545.092H461.346V549.44H465.696V545.092Z" fill="white"/>
<path opacity="0.11" d="M471.662 545.092H467.312V549.44H471.662V545.092Z" fill="white"/>
<path opacity="0.07" d="M447.798 550.806H443.448V555.154H447.798V550.806Z" fill="white"/>
<path opacity="0.34" d="M453.764 550.806H449.414V555.154H453.764V550.806Z" fill="white"/>
<path opacity="0.5" d="M459.73 550.806H455.38V555.154H459.73V550.806Z" fill="white"/>
<path opacity="0.36" d="M465.696 550.806H461.346V555.154H465.696V550.806Z" fill="white"/>
<path opacity="0.34" d="M471.662 550.806H467.312V555.154H471.662V550.806Z" fill="white"/>
<path opacity="0.47" d="M447.798 556.521H443.448V560.868H447.798V556.521Z" fill="white"/>
<path opacity="0.41" d="M453.764 556.521H449.414V560.868H453.764V556.521Z" fill="white"/>
<path opacity="0.3" d="M459.73 556.521H455.38V560.868H459.73V556.521Z" fill="white"/>
<path opacity="0.33" d="M465.696 556.521H461.346V560.868H465.696V556.521Z" fill="white"/>
<path opacity="0.12" d="M471.662 556.521H467.312V560.868H471.662V556.521Z" fill="white"/>
<path opacity="0.3" d="M498.385 470.683H494.034V475.031H498.385V470.683Z" fill="white"/>
<path opacity="0.72" d="M504.102 470.683H499.752V475.031H504.102V470.683Z" fill="white"/>
<path opacity="0.7" d="M509.944 470.683H505.594V475.031H509.944V470.683Z" fill="white"/>
<path opacity="0.52" d="M515.785 470.683H511.435V475.031H515.785V470.683Z" fill="white"/>
<path opacity="0.2" d="M521.627 470.683H517.277V475.031H521.627V470.683Z" fill="white"/>
<path opacity="0.32" d="M527.344 470.683H522.994V475.031H527.344V470.683Z" fill="white"/>
<path opacity="0.13" d="M533.186 470.683H528.836V475.031H533.186V470.683Z" fill="white"/>
<path opacity="0.38" d="M539.028 470.683H534.678V475.031H539.028V470.683Z" fill="white"/>
<path opacity="0.61" d="M544.745 470.683H540.395V475.031H544.745V470.683Z" fill="white"/>
<path d="M550.587 470.683H546.237V475.031H550.587V470.683Z" fill="white"/>
<path opacity="0.91" d="M556.429 470.683H552.078V475.031H556.429V470.683Z" fill="white"/>
<path opacity="0.66" d="M498.385 476.397H494.034V480.745H498.385V476.397Z" fill="white"/>
<path opacity="0.31" d="M504.102 476.397H499.752V480.745H504.102V476.397Z" fill="white"/>
<path opacity="0.95" d="M509.944 476.397H505.594V480.745H509.944V476.397Z" fill="white"/>
<path opacity="0.7" d="M515.785 476.397H511.435V480.745H515.785V476.397Z" fill="white"/>
<path opacity="0.12" d="M521.627 476.397H517.277V480.745H521.627V476.397Z" fill="white"/>
<path opacity="0.24" d="M527.344 476.397H522.994V480.745H527.344V476.397Z" fill="white"/>
<path opacity="0.66" d="M533.186 476.397H528.836V480.745H533.186V476.397Z" fill="white"/>
<path opacity="0.71" d="M539.028 476.397H534.678V480.745H539.028V476.397Z" fill="white"/>
<path opacity="0.42" d="M544.745 476.397H540.395V480.745H544.745V476.397Z" fill="white"/>
<path opacity="0.09" d="M550.587 476.397H546.237V480.745H550.587V476.397Z" fill="white"/>
<path opacity="0.32" d="M556.429 476.397H552.078V480.745H556.429V476.397Z" fill="white"/>
<path opacity="0.65" d="M498.385 482.111H494.034V486.459H498.385V482.111Z" fill="white"/>
<path d="M504.102 482.111H499.752V486.459H504.102V482.111Z" fill="white"/>
<path d="M509.944 482.111H505.594V486.459H509.944V482.111Z" fill="white"/>
<path opacity="0.71" d="M515.785 482.111H511.435V486.459H515.785V482.111Z" fill="white"/>
<path opacity="0.2" d="M521.627 482.111H517.277V486.459H521.627V482.111Z" fill="white"/>
<path opacity="0.19" d="M527.344 482.111H522.994V486.459H527.344V482.111Z" fill="white"/>
<path opacity="0.62" d="M533.186 482.111H528.836V486.459H533.186V482.111Z" fill="white"/>
<path opacity="0.93" d="M539.028 482.111H534.678V486.459H539.028V482.111Z" fill="white"/>
<path opacity="0.56" d="M544.745 482.111H540.395V486.459H544.745V482.111Z" fill="white"/>
<path opacity="0.57" d="M550.587 482.111H546.237V486.459H550.587V482.111Z" fill="white"/>
<path opacity="0.52" d="M556.429 482.111H552.078V486.459H556.429V482.111Z" fill="white"/>
<path opacity="0.74" d="M498.385 487.825H494.034V492.173H498.385V487.825Z" fill="white"/>
<path opacity="0.56" d="M504.102 487.825H499.752V492.173H504.102V487.825Z" fill="white"/>
<path opacity="0.78" d="M509.944 487.825H505.594V492.173H509.944V487.825Z" fill="white"/>
<path opacity="0.41" d="M515.785 487.825H511.435V492.173H515.785V487.825Z" fill="white"/>
<path opacity="0.14" d="M521.627 487.825H517.277V492.173H521.627V487.825Z" fill="white"/>
<path opacity="0.28" d="M527.344 487.825H522.994V492.173H527.344V487.825Z" fill="white"/>
<path opacity="0.36" d="M533.186 487.825H528.836V492.173H533.186V487.825Z" fill="white"/>
<path opacity="0.14" d="M539.028 487.825H534.678V492.173H539.028V487.825Z" fill="white"/>
<path opacity="0.5" d="M544.745 487.825H540.395V492.173H544.745V487.825Z" fill="white"/>
<path opacity="0.98" d="M550.587 487.825H546.237V492.173H550.587V487.825Z" fill="white"/>
<path opacity="0.59" d="M556.429 487.825H552.078V492.173H556.429V487.825Z" fill="white"/>
<path opacity="0.07" d="M498.385 493.54H494.034V497.888H498.385V493.54Z" fill="white"/>
<path opacity="0.1" d="M504.102 493.54H499.752V497.888H504.102V493.54Z" fill="white"/>
<path opacity="0.88" d="M509.944 493.54H505.594V497.888H509.944V493.54Z" fill="white"/>
<path opacity="0.68" d="M515.785 493.54H511.435V497.888H515.785V493.54Z" fill="white"/>
<path opacity="0.81" d="M521.627 493.54H517.277V497.888H521.627V493.54Z" fill="white"/>
<path opacity="0.62" d="M527.344 493.54H522.994V497.888H527.344V493.54Z" fill="white"/>
<path opacity="0.97" d="M533.186 493.54H528.836V497.888H533.186V493.54Z" fill="white"/>
<path opacity="0.81" d="M539.028 493.54H534.678V497.888H539.028V493.54Z" fill="white"/>
<path opacity="0.79" d="M544.745 493.54H540.395V497.888H544.745V493.54Z" fill="white"/>
<path opacity="0.03" d="M550.587 493.54H546.237V497.888H550.587V493.54Z" fill="white"/>
<path opacity="0.95" d="M556.429 493.54H552.078V497.888H556.429V493.54Z" fill="white"/>
<path opacity="0.62" d="M498.385 499.254H494.034V503.602H498.385V499.254Z" fill="white"/>
<path opacity="0.22" d="M504.102 499.254H499.752V503.602H504.102V499.254Z" fill="white"/>
<path opacity="0.42" d="M509.944 499.254H505.594V503.602H509.944V499.254Z" fill="white"/>
<path opacity="0.56" d="M515.785 499.254H511.435V503.602H515.785V499.254Z" fill="white"/>
<path opacity="0.03" d="M521.627 499.254H517.277V503.602H521.627V499.254Z" fill="white"/>
<path opacity="0.64" d="M527.344 499.254H522.994V503.602H527.344V499.254Z" fill="white"/>
<path opacity="0.82" d="M533.186 499.254H528.836V503.602H533.186V499.254Z" fill="white"/>
<path opacity="0.52" d="M539.028 499.254H534.678V503.602H539.028V499.254Z" fill="white"/>
<path opacity="0.46" d="M544.745 499.254H540.395V503.602H544.745V499.254Z" fill="white"/>
<path opacity="0.27" d="M550.587 499.254H546.237V503.602H550.587V499.254Z" fill="white"/>
<path opacity="0.46" d="M556.429 499.254H552.078V503.602H556.429V499.254Z" fill="white"/>
<path opacity="0.66" d="M498.385 505.092H494.034V509.44H498.385V505.092Z" fill="white"/>
<path opacity="0.7" d="M504.102 505.092H499.752V509.44H504.102V505.092Z" fill="white"/>
<path opacity="0.94" d="M509.944 505.092H505.594V509.44H509.944V505.092Z" fill="white"/>
<path opacity="0.5" d="M515.785 505.092H511.435V509.44H515.785V505.092Z" fill="white"/>
<path opacity="0.12" d="M521.627 505.092H517.277V509.44H521.627V505.092Z" fill="white"/>
<path opacity="0.36" d="M527.344 505.092H522.994V509.44H527.344V505.092Z" fill="white"/>
<path opacity="0.51" d="M533.186 505.092H528.836V509.44H533.186V505.092Z" fill="white"/>
<path opacity="0.37" d="M539.028 505.092H534.678V509.44H539.028V505.092Z" fill="white"/>
<path opacity="0.66" d="M544.745 505.092H540.395V509.44H544.745V505.092Z" fill="white"/>
<path opacity="0.42" d="M550.587 505.092H546.237V509.44H550.587V505.092Z" fill="white"/>
<path opacity="0.5" d="M556.429 505.092H552.078V509.44H556.429V505.092Z" fill="white"/>
<path opacity="0.52" d="M498.385 510.807H494.034V515.154H498.385V510.807Z" fill="white"/>
<path opacity="0.61" d="M504.102 510.807H499.752V515.154H504.102V510.807Z" fill="white"/>
<path opacity="0.84" d="M509.944 510.807H505.594V515.154H509.944V510.807Z" fill="white"/>
<path opacity="0.89" d="M515.785 510.807H511.435V515.154H515.785V510.807Z" fill="white"/>
<path opacity="0.33" d="M521.627 510.807H517.277V515.154H521.627V510.807Z" fill="white"/>
<path opacity="0.25" d="M527.344 510.807H522.994V515.154H527.344V510.807Z" fill="white"/>
<path opacity="0.95" d="M533.186 510.807H528.836V515.154H533.186V510.807Z" fill="white"/>
<path opacity="0.09" d="M539.028 510.807H534.678V515.154H539.028V510.807Z" fill="white"/>
<path opacity="0.44" d="M544.745 510.807H540.395V515.154H544.745V510.807Z" fill="white"/>
<path opacity="0.51" d="M550.587 510.807H546.237V515.154H550.587V510.807Z" fill="white"/>
<path opacity="0.97" d="M556.429 510.807H552.078V515.154H556.429V510.807Z" fill="white"/>
<path opacity="0.26" d="M498.385 516.521H494.034V520.869H498.385V516.521Z" fill="white"/>
<path opacity="0.92" d="M504.102 516.521H499.752V520.869H504.102V516.521Z" fill="white"/>
<path opacity="0.33" d="M509.944 516.521H505.594V520.869H509.944V516.521Z" fill="white"/>
<path opacity="0.23" d="M515.785 516.521H511.435V520.869H515.785V516.521Z" fill="white"/>
<path opacity="0.42" d="M521.627 516.521H517.277V520.869H521.627V516.521Z" fill="white"/>
<path opacity="0.57" d="M527.344 516.521H522.994V520.869H527.344V516.521Z" fill="white"/>
<path opacity="0.73" d="M533.186 516.521H528.836V520.869H533.186V516.521Z" fill="white"/>
<path opacity="0.87" d="M539.028 516.521H534.678V520.869H539.028V516.521Z" fill="white"/>
<path opacity="0.22" d="M544.745 516.521H540.395V520.869H544.745V516.521Z" fill="white"/>
<path opacity="0.89" d="M550.587 516.521H546.237V520.869H550.587V516.521Z" fill="white"/>
<path opacity="0.73" d="M556.429 516.521H552.078V520.869H556.429V516.521Z" fill="white"/>
<path opacity="0.35" d="M498.385 522.235H494.034V526.583H498.385V522.235Z" fill="white"/>
<path opacity="0.81" d="M504.102 522.235H499.752V526.583H504.102V522.235Z" fill="white"/>
<path opacity="0.56" d="M509.944 522.235H505.594V526.583H509.944V522.235Z" fill="white"/>
<path opacity="0.81" d="M515.785 522.235H511.435V526.583H515.785V522.235Z" fill="white"/>
<path opacity="0.87" d="M521.627 522.235H517.277V526.583H521.627V522.235Z" fill="white"/>
<path opacity="0.39" d="M527.344 522.235H522.994V526.583H527.344V522.235Z" fill="white"/>
<path opacity="0.31" d="M533.186 522.235H528.836V526.583H533.186V522.235Z" fill="white"/>
<path opacity="0.98" d="M539.028 522.235H534.678V526.583H539.028V522.235Z" fill="white"/>
<path opacity="0.17" d="M544.745 522.235H540.395V526.583H544.745V522.235Z" fill="white"/>
<path opacity="0.06" d="M550.587 522.235H546.237V526.583H550.587V522.235Z" fill="white"/>
<path opacity="0.57" d="M556.429 522.235H552.078V526.583H556.429V522.235Z" fill="white"/>
<path opacity="0.67" d="M498.385 527.949H494.034V532.297H498.385V527.949Z" fill="white"/>
<path opacity="0.83" d="M504.102 527.949H499.752V532.297H504.102V527.949Z" fill="white"/>
<path opacity="0.99" d="M509.944 527.949H505.594V532.297H509.944V527.949Z" fill="white"/>
<path opacity="0.62" d="M515.785 527.949H511.435V532.297H515.785V527.949Z" fill="white"/>
<path opacity="0.87" d="M521.627 527.949H517.277V532.297H521.627V527.949Z" fill="white"/>
<path opacity="0.14" d="M527.344 527.949H522.994V532.297H527.344V527.949Z" fill="white"/>
<path opacity="0.12" d="M533.186 527.949H528.836V532.297H533.186V527.949Z" fill="white"/>
<path opacity="0.11" d="M539.028 527.949H534.678V532.297H539.028V527.949Z" fill="white"/>
<path opacity="0.39" d="M544.745 527.949H540.395V532.297H544.745V527.949Z" fill="white"/>
<path opacity="0.58" d="M550.587 527.949H546.237V532.297H550.587V527.949Z" fill="white"/>
<path opacity="0.54" d="M556.429 527.949H552.078V532.297H556.429V527.949Z" fill="white"/>
<path opacity="0.99" d="M498.385 533.664H494.034V538.011H498.385V533.664Z" fill="white"/>
<path opacity="0.28" d="M504.102 533.664H499.752V538.011H504.102V533.664Z" fill="white"/>
<path opacity="0.78" d="M509.944 533.664H505.594V538.011H509.944V533.664Z" fill="white"/>
<path opacity="0.65" d="M515.785 533.664H511.435V538.011H515.785V533.664Z" fill="white"/>
<path opacity="0.32" d="M521.627 533.664H517.277V538.011H521.627V533.664Z" fill="white"/>
<path opacity="0.55" d="M527.344 533.664H522.994V538.011H527.344V533.664Z" fill="white"/>
<path opacity="0.4" d="M533.186 533.664H528.836V538.011H533.186V533.664Z" fill="white"/>
<path opacity="0.22" d="M539.028 533.664H534.678V538.011H539.028V533.664Z" fill="white"/>
<path opacity="0.87" d="M544.745 533.664H540.395V538.011H544.745V533.664Z" fill="white"/>
<path opacity="0.02" d="M550.587 533.664H546.237V538.011H550.587V533.664Z" fill="white"/>
<path opacity="0.39" d="M556.429 533.664H552.078V538.011H556.429V533.664Z" fill="white"/>
<path opacity="0.89" d="M498.385 539.378H494.034V543.725H498.385V539.378Z" fill="white"/>
<path opacity="0.97" d="M504.102 539.378H499.752V543.725H504.102V539.378Z" fill="white"/>
<path opacity="0.79" d="M509.944 539.378H505.594V543.725H509.944V539.378Z" fill="white"/>
<path opacity="0.41" d="M515.785 539.378H511.435V543.725H515.785V539.378Z" fill="white"/>
<path opacity="0.13" d="M521.627 539.378H517.277V543.725H521.627V539.378Z" fill="white"/>
<path opacity="0.9" d="M527.344 539.378H522.994V543.725H527.344V539.378Z" fill="white"/>
<path opacity="0.98" d="M533.186 539.378H528.836V543.725H533.186V539.378Z" fill="white"/>
<path opacity="0.67" d="M539.028 539.378H534.678V543.725H539.028V539.378Z" fill="white"/>
<path opacity="0.65" d="M544.745 539.378H540.395V543.725H544.745V539.378Z" fill="white"/>
<path opacity="0.89" d="M550.587 539.378H546.237V543.725H550.587V539.378Z" fill="white"/>
<path opacity="0.98" d="M556.429 539.378H552.078V543.725H556.429V539.378Z" fill="white"/>
<path opacity="0.29" d="M498.385 545.092H494.034V549.44H498.385V545.092Z" fill="white"/>
<path opacity="0.74" d="M504.102 545.092H499.752V549.44H504.102V545.092Z" fill="white"/>
<path opacity="0.64" d="M509.944 545.092H505.594V549.44H509.944V545.092Z" fill="white"/>
<path opacity="0.65" d="M515.785 545.092H511.435V549.44H515.785V545.092Z" fill="white"/>
<path opacity="0.07" d="M521.627 545.092H517.277V549.44H521.627V545.092Z" fill="white"/>
<path opacity="0.16" d="M527.344 545.092H522.994V549.44H527.344V545.092Z" fill="white"/>
<path opacity="0.84" d="M533.186 545.092H528.836V549.44H533.186V545.092Z" fill="white"/>
<path opacity="0.88" d="M539.028 545.092H534.678V549.44H539.028V545.092Z" fill="white"/>
<path opacity="0.57" d="M544.745 545.092H540.395V549.44H544.745V545.092Z" fill="white"/>
<path opacity="0.31" d="M550.587 545.092H546.237V549.44H550.587V545.092Z" fill="white"/>
<path opacity="0.03" d="M556.429 545.092H552.078V549.44H556.429V545.092Z" fill="white"/>
<path opacity="0.3" d="M498.385 550.806H494.034V555.154H498.385V550.806Z" fill="white"/>
<path opacity="0.59" d="M504.102 550.806H499.752V555.154H504.102V550.806Z" fill="white"/>
<path opacity="0.93" d="M509.944 550.806H505.594V555.154H509.944V550.806Z" fill="white"/>
<path opacity="0.06" d="M515.785 550.806H511.435V555.154H515.785V550.806Z" fill="white"/>
<path opacity="0.74" d="M521.627 550.806H517.277V555.154H521.627V550.806Z" fill="white"/>
<path opacity="0.22" d="M527.344 550.806H522.994V555.154H527.344V550.806Z" fill="white"/>
<path opacity="0.51" d="M533.186 550.806H528.836V555.154H533.186V550.806Z" fill="white"/>
<path opacity="0.7" d="M539.028 550.806H534.678V555.154H539.028V550.806Z" fill="white"/>
<path opacity="0.47" d="M544.745 550.806H540.395V555.154H544.745V550.806Z" fill="white"/>
<path opacity="0.08" d="M550.587 550.806H546.237V555.154H550.587V550.806Z" fill="white"/>
<path opacity="0.93" d="M556.429 550.806H552.078V555.154H556.429V550.806Z" fill="white"/>
<path opacity="0.81" d="M498.385 556.521H494.034V560.868H498.385V556.521Z" fill="white"/>
<path opacity="0.9" d="M504.102 556.521H499.752V560.868H504.102V556.521Z" fill="white"/>
<path opacity="0.55" d="M509.944 556.521H505.594V560.868H509.944V556.521Z" fill="white"/>
<path opacity="0.14" d="M515.785 556.521H511.435V560.868H515.785V556.521Z" fill="white"/>
<path opacity="0.66" d="M521.627 556.521H517.277V560.868H521.627V556.521Z" fill="white"/>
<path opacity="0.92" d="M527.344 556.521H522.994V560.868H527.344V556.521Z" fill="white"/>
<path opacity="0.4" d="M533.186 556.521H528.836V560.868H533.186V556.521Z" fill="white"/>
<path opacity="0.6" d="M539.028 556.521H534.678V560.868H539.028V556.521Z" fill="white"/>
<path opacity="0.99" d="M544.745 556.521H540.395V560.868H544.745V556.521Z" fill="white"/>
<path opacity="0.68" d="M550.587 556.521H546.237V560.868H550.587V556.521Z" fill="white"/>
<path opacity="0.01" d="M556.429 556.521H552.078V560.868H556.429V556.521Z" fill="white"/>
<path d="M424.928 442.733H383.912V571.178H424.928V442.733Z" fill="#333333"/>
<path d="M402.556 436.273H383.912V443.478H402.556V436.273Z" fill="#333333"/>
<path d="M394.726 432.05H383.912V436.273H394.726V432.05Z" fill="#333333"/>
<path opacity="0.25" d="M407.652 451.801H400.94V458.509H407.652V451.801Z" fill="white"/>
<path opacity="0.15" d="M407.652 468.322H400.94V475.03H407.652V468.322Z" fill="white"/>
<path opacity="0.19" d="M407.652 501.241H400.94V507.949H407.652V501.241Z" fill="white"/>
<path opacity="0.17" d="M407.652 517.638H400.94V524.346H407.652V517.638Z" fill="white"/>
<path opacity="0.22" d="M407.652 534.036H400.94V540.744H407.652V534.036Z" fill="white"/>
<path d="M407.652 550.557H400.94V557.265H407.652V550.557Z" fill="white"/>
<path d="M394.477 514.285H356.071V525.589H394.477V514.285Z" fill="#333333"/>
<path d="M413.618 514.285H394.477V525.589H413.618V514.285Z" fill="#4D4D4D"/>
<path d="M356.071 514.285L368.003 508.571L394.477 514.285H356.071Z" fill="#333333"/>
<path d="M368.003 508.571L394.477 514.285H413.618L368.003 508.571Z" fill="#4D4D4D"/>
<path d="M403.426 522.235H347.246V573.663H403.426V522.235Z" fill="#333333"/>
<path d="M422.07 522.235H403.426V573.663H422.07V522.235Z" fill="#4D4D4D"/>
<path opacity="0.81" d="M417.72 525.837H407.652V529.564H417.72V525.837Z" fill="white"/>
<path opacity="0.76" d="M417.72 532.67H407.652V536.396H417.72V532.67Z" fill="white"/>
<path opacity="0.32" d="M417.72 539.502H407.652V543.228H417.72V539.502Z" fill="white"/>
<path opacity="0.49" d="M417.72 546.458H407.652V550.185H417.72V546.458Z" fill="white"/>
<path opacity="0.1" d="M366.263 525.837H356.195V529.564H366.263V525.837Z" fill="white"/>
<path opacity="0.04" d="M380.308 525.837H370.24V529.564H380.308V525.837Z" fill="white"/>
<path opacity="0.07" d="M394.477 525.837H384.41V529.564H394.477V525.837Z" fill="white"/>
<path opacity="0.06" d="M366.263 532.67H356.195V536.396H366.263V532.67Z" fill="white"/>
<path opacity="0.44" d="M380.308 532.67H370.24V536.396H380.308V532.67Z" fill="white"/>
<path opacity="0.24" d="M394.477 532.67H384.41V536.396H394.477V532.67Z" fill="white"/>
<path opacity="0.55" d="M366.263 539.502H356.195V543.228H366.263V539.502Z" fill="white"/>
<path opacity="0.02" d="M380.308 539.502H370.24V543.228H380.308V539.502Z" fill="white"/>
<path opacity="0.14" d="M394.477 539.502H384.41V543.228H394.477V539.502Z" fill="white"/>
<path opacity="0.43" d="M366.263 546.458H356.195V550.185H366.263V546.458Z" fill="white"/>
<path opacity="0.41" d="M380.308 546.458H370.24V550.185H380.308V546.458Z" fill="white"/>
<path opacity="0.46" d="M394.477 546.458H384.41V550.185H394.477V546.458Z" fill="white"/>
<path opacity="0.45" d="M366.263 553.291H356.195V557.017H366.263V553.291Z" fill="white"/>
<path opacity="0.33" d="M380.308 553.291H370.24V557.017H380.308V553.291Z" fill="white"/>
<path opacity="0.05" d="M394.477 553.291H384.41V557.017H394.477V553.291Z" fill="white"/>
<path d="M130.11 470.807H95.3082V578.011H130.11V470.807Z" fill="#333333"/>
<path d="M169.759 470.807H130.234V578.011H169.759V470.807Z" fill="#4D4D4D"/>
<path d="M130.11 479.875H95.3082V481.739H130.11V479.875Z" fill="#4D4D4D"/>
<path d="M169.759 479.875H130.234V481.739H169.759V479.875Z" fill="#333333"/>
<path opacity="0.47" d="M101.896 483.85H98.167V487.577H101.896V483.85Z" fill="white"/>
<path opacity="0.26" d="M106.992 483.85H103.263V487.577H106.992V483.85Z" fill="white"/>
<path opacity="0.32" d="M112.088 483.85H108.359V487.577H112.088V483.85Z" fill="white"/>
<path opacity="0.25" d="M117.184 483.85H113.455V487.577H117.184V483.85Z" fill="white"/>
<path opacity="0.12" d="M127.375 483.85H123.647V487.577H127.375V483.85Z" fill="white"/>
<path opacity="0.32" d="M101.896 488.943H98.167V492.67H101.896V488.943Z" fill="white"/>
<path opacity="0.22" d="M112.088 488.943H108.359V492.67H112.088V488.943Z" fill="white"/>
<path opacity="0.47" d="M117.184 488.943H113.455V492.67H117.184V488.943Z" fill="white"/>
<path opacity="0.22" d="M122.28 488.943H118.551V492.67H122.28V488.943Z" fill="white"/>
<path opacity="0.32" d="M127.375 488.943H123.647V492.67H127.375V488.943Z" fill="white"/>
<path opacity="0.37" d="M101.896 494.037H98.167V497.763H101.896V494.037Z" fill="white"/>
<path opacity="0.34" d="M106.992 494.037H103.263V497.763H106.992V494.037Z" fill="white"/>
<path opacity="0.18" d="M112.088 494.037H108.359V497.763H112.088V494.037Z" fill="white"/>
<path opacity="0.28" d="M117.184 494.037H113.455V497.763H117.184V494.037Z" fill="white"/>
<path opacity="0.2" d="M127.375 494.037H123.647V497.763H127.375V494.037Z" fill="white"/>
<path opacity="0.18" d="M101.896 499.13H98.167V502.856H101.896V499.13Z" fill="white"/>
<path opacity="0.33" d="M112.088 499.13H108.359V502.856H112.088V499.13Z" fill="white"/>
<path opacity="0.05" d="M117.184 499.13H113.455V502.856H117.184V499.13Z" fill="white"/>
<path opacity="0.08" d="M122.28 499.13H118.551V502.856H122.28V499.13Z" fill="white"/>
<path opacity="0.08" d="M117.184 504.223H113.455V507.949H117.184V504.223Z" fill="white"/>
<path opacity="0.02" d="M122.28 504.223H118.551V507.949H122.28V504.223Z" fill="white"/>
<path opacity="0.03" d="M101.896 509.316H98.167V513.043H101.896V509.316Z" fill="white"/>
<path opacity="0.46" d="M106.992 509.316H103.263V513.043H106.992V509.316Z" fill="white"/>
<path opacity="0.05" d="M112.088 509.316H108.359V513.043H112.088V509.316Z" fill="white"/>
<path opacity="0.2" d="M117.184 509.316H113.455V513.043H117.184V509.316Z" fill="white"/>
<path opacity="0.23" d="M122.28 509.316H118.551V513.043H122.28V509.316Z" fill="white"/>
<path opacity="0.17" d="M101.896 514.409H98.167V518.136H101.896V514.409Z" fill="white"/>
<path opacity="0.08" d="M106.992 514.409H103.263V518.136H106.992V514.409Z" fill="white"/>
<path opacity="0.14" d="M112.088 514.409H108.359V518.136H112.088V514.409Z" fill="white"/>
<path opacity="0.24" d="M122.28 514.409H118.551V518.136H122.28V514.409Z" fill="white"/>
<path opacity="0.28" d="M101.896 519.502H98.167V523.229H101.896V519.502Z" fill="white"/>
<path opacity="0.3" d="M106.992 519.502H103.263V523.229H106.992V519.502Z" fill="white"/>
<path opacity="0.23" d="M112.088 519.502H108.359V523.229H112.088V519.502Z" fill="white"/>
<path opacity="0.02" d="M117.184 519.502H113.455V523.229H117.184V519.502Z" fill="white"/>
<path opacity="0.04" d="M122.28 519.502H118.551V523.229H122.28V519.502Z" fill="white"/>
<path opacity="0.3" d="M127.375 519.502H123.647V523.229H127.375V519.502Z" fill="white"/>
<path opacity="0.08" d="M106.992 524.471H103.263V528.198H106.992V524.471Z" fill="white"/>
<path opacity="0.4" d="M127.375 524.471H123.647V528.198H127.375V524.471Z" fill="white"/>
<path opacity="0.31" d="M101.896 529.564H98.167V533.291H101.896V529.564Z" fill="white"/>
<path opacity="0.31" d="M106.992 529.564H103.263V533.291H106.992V529.564Z" fill="white"/>
<path opacity="0.12" d="M112.088 529.564H108.359V533.291H112.088V529.564Z" fill="white"/>
<path opacity="0.19" d="M122.28 529.564H118.551V533.291H122.28V529.564Z" fill="white"/>
<path opacity="0.43" d="M127.375 529.564H123.647V533.291H127.375V529.564Z" fill="white"/>
<path opacity="0.12" d="M101.896 534.657H98.167V538.384H101.896V534.657Z" fill="white"/>
<path opacity="0.42" d="M117.184 534.657H113.455V538.384H117.184V534.657Z" fill="white"/>
<path opacity="0.31" d="M127.375 534.657H123.647V538.384H127.375V534.657Z" fill="white"/>
<path opacity="0.23" d="M101.896 539.75H98.167V543.477H101.896V539.75Z" fill="white"/>
<path opacity="0.31" d="M117.184 539.75H113.455V543.477H117.184V539.75Z" fill="white"/>
<path opacity="0.33" d="M127.375 539.75H123.647V543.477H127.375V539.75Z" fill="white"/>
<path opacity="0.49" d="M101.896 544.844H98.167V548.57H101.896V544.844Z" fill="white"/>
<path opacity="0.06" d="M106.992 544.844H103.263V548.57H106.992V544.844Z" fill="white"/>
<path opacity="0.17" d="M117.184 544.844H113.455V548.57H117.184V544.844Z" fill="white"/>
<path opacity="0.01" d="M122.28 544.844H118.551V548.57H122.28V544.844Z" fill="white"/>
<path opacity="0.48" d="M127.375 544.844H123.647V548.57H127.375V544.844Z" fill="white"/>
<path opacity="0.05" d="M101.896 549.937H98.167V553.663H101.896V549.937Z" fill="white"/>
<path opacity="0.23" d="M106.992 549.937H103.263V553.663H106.992V549.937Z" fill="white"/>
<path opacity="0.28" d="M112.088 549.937H108.359V553.663H112.088V549.937Z" fill="white"/>
<path opacity="0.02" d="M117.184 549.937H113.455V553.663H117.184V549.937Z" fill="white"/>
<path opacity="0.17" d="M122.28 549.937H118.551V553.663H122.28V549.937Z" fill="white"/>
<path opacity="0.42" d="M127.375 549.937H123.647V553.663H127.375V549.937Z" fill="white"/>
<path opacity="0.13" d="M101.896 555.03H98.167V558.756H101.896V555.03Z" fill="white"/>
<path opacity="0.11" d="M112.088 555.03H108.359V558.756H112.088V555.03Z" fill="white"/>
<path opacity="0.02" d="M117.184 555.03H113.455V558.756H117.184V555.03Z" fill="white"/>
<path opacity="0.3" d="M127.375 555.03H123.647V558.756H127.375V555.03Z" fill="white"/>
<path opacity="0.08" d="M122.28 483.85H118.551V487.577H122.28V483.85Z" fill="white"/>
<path opacity="0.1" d="M106.992 488.943H103.263V492.67H106.992V488.943Z" fill="white"/>
<path opacity="0.08" d="M122.28 494.037H118.551V497.763H122.28V494.037Z" fill="white"/>
<path opacity="0.1" d="M106.992 499.13H103.263V502.856H106.992V499.13Z" fill="white"/>
<path opacity="0.01" d="M127.375 499.13H123.647V502.856H127.375V499.13Z" fill="white"/>
<path opacity="0.17" d="M101.896 504.223H98.167V507.949H101.896V504.223Z" fill="white"/>
<path opacity="0.01" d="M106.992 504.223H103.263V507.949H106.992V504.223Z" fill="white"/>
<path opacity="0.15" d="M112.088 504.223H108.359V507.949H112.088V504.223Z" fill="white"/>
<path opacity="0.12" d="M127.375 504.223H123.647V507.949H127.375V504.223Z" fill="white"/>
<path opacity="0.13" d="M117.184 514.409H113.455V518.136H117.184V514.409Z" fill="white"/>
<path opacity="0.07" d="M127.375 514.409H123.647V518.136H127.375V514.409Z" fill="white"/>
<path opacity="0.13" d="M101.896 524.471H98.167V528.198H101.896V524.471Z" fill="white"/>
<path opacity="0.02" d="M112.088 524.471H108.359V528.198H112.088V524.471Z" fill="white"/>
<path opacity="0.02" d="M117.184 524.471H113.455V528.198H117.184V524.471Z" fill="white"/>
<path opacity="0.14" d="M122.28 524.471H118.551V528.198H122.28V524.471Z" fill="white"/>
<path opacity="0.09" d="M112.088 534.657H108.359V538.384H112.088V534.657Z" fill="white"/>
<path opacity="0.02" d="M122.28 534.657H118.551V538.384H122.28V534.657Z" fill="white"/>
<path opacity="0.19" d="M112.088 539.75H108.359V543.477H112.088V539.75Z" fill="white"/>
<path opacity="0.06" d="M122.28 539.75H118.551V543.477H122.28V539.75Z" fill="white"/>
<path opacity="0.16" d="M112.088 544.844H108.359V548.57H112.088V544.844Z" fill="white"/>
<path opacity="0.19" d="M106.992 555.03H103.263V558.756H106.992V555.03Z" fill="white"/>
<path opacity="0.04" d="M122.28 555.03H118.551V558.756H122.28V555.03Z" fill="white"/>
<g opacity="0.7">
<path opacity="0.7" d="M137.692 481.739H133.839V573.29H137.692V481.739Z" fill="#E6E6E6"/>
<path opacity="0.7" d="M144.279 481.739H140.426V573.29H144.279V481.739Z" fill="#E6E6E6"/>
<path opacity="0.7" d="M150.991 481.739H147.138V573.29H150.991V481.739Z" fill="#E6E6E6"/>
<path opacity="0.7" d="M157.702 481.739H153.849V573.29H157.702V481.739Z" fill="#E6E6E6"/>
<path opacity="0.7" d="M164.414 481.739H160.561V573.29H164.414V481.739Z" fill="#E6E6E6"/>
</g>
<path d="M52.5521 418.261L44.846 397.888L65.4784 418.261H52.5521Z" fill="#4D4D4D"/>
<path d="M34.5298 418.261L44.846 397.888L52.5521 418.261H34.5298Z" fill="#333333"/>
<path d="M52.5521 418.261H34.5298V440H52.5521V418.261Z" fill="#333333"/>
<path d="M65.4783 418.261H52.5521V440H65.4783V418.261Z" fill="#4D4D4D"/>
<path d="M70.8229 516.024H16.259V578.508H70.8229V516.024Z" fill="#333333"/>
<path d="M63.3654 471.304H23.8408V516.024H63.3654V471.304Z" fill="#333333"/>
<path d="M57.648 426.584H29.5582V471.304H57.648V426.584Z" fill="#333333"/>
<path d="M76.9131 426.584H57.5237V471.304H76.9131V426.584Z" fill="#4D4D4D"/>
<path d="M104.381 516.024H70.8229V578.508H104.381V516.024Z" fill="#4D4D4D"/>
<path d="M88.8451 471.304H63.3654V516.024H88.8451V471.304Z" fill="#4D4D4D"/>
<path opacity="0.53" d="M70.2014 429.813H64.3597V435.652H70.2014V429.813Z" fill="white"/>
<path opacity="0.34" d="M70.2014 437.143H64.3597V442.981H70.2014V437.143Z" fill="white"/>
<path opacity="0.9" d="M70.2014 444.347H64.3597V450.186H70.2014V444.347Z" fill="white"/>
<path opacity="0.14" d="M70.2014 451.552H64.3597V457.391H70.2014V451.552Z" fill="white"/>
<path d="M70.2014 458.881H64.3597V464.72H70.2014V458.881Z" fill="white"/>
<path opacity="0.29" d="M74.5517 475.155H68.71V480.993H74.5517V475.155Z" fill="white"/>
<path opacity="0.81" d="M83.5006 475.155H77.6589V480.993H83.5006V475.155Z" fill="white"/>
<path opacity="0.18" d="M74.5517 482.484H68.71V488.322H74.5517V482.484Z" fill="white"/>
<path opacity="0.41" d="M83.5006 482.484H77.6589V488.322H83.5006V482.484Z" fill="white"/>
<path opacity="0.03" d="M83.5006 489.937H77.6589V495.775H83.5006V489.937Z" fill="white"/>
<path opacity="0.85" d="M74.5517 497.39H68.71V503.229H74.5517V497.39Z" fill="white"/>
<path opacity="0.06" d="M83.5006 497.39H77.6589V503.229H83.5006V497.39Z" fill="white"/>
<path opacity="0.94" d="M74.5517 504.719H68.71V510.558H74.5517V504.719Z" fill="white"/>
<path opacity="0.25" d="M83.5006 504.719H77.6589V510.558H83.5006V504.719Z" fill="white"/>
<path opacity="0.6" d="M82.7548 519.875H76.9131V525.713H82.7548V519.875Z" fill="white"/>
<path opacity="0.83" d="M90.5852 519.875H84.7435V525.713H90.5852V519.875Z" fill="white"/>
<path opacity="0.74" d="M98.4155 519.875H92.5739V525.713H98.4155V519.875Z" fill="white"/>
<path opacity="0.35" d="M90.5852 526.955H84.7435V532.794H90.5852V526.955Z" fill="white"/>
<path opacity="0.54" d="M98.4155 526.955H92.5739V532.794H98.4155V526.955Z" fill="white"/>
<path opacity="0.2" d="M82.7548 534.036H76.9131V539.874H82.7548V534.036Z" fill="white"/>
<path opacity="0.04" d="M90.5852 534.036H84.7435V539.874H90.5852V534.036Z" fill="white"/>
<path opacity="0.86" d="M98.4155 534.036H92.5739V539.874H98.4155V534.036Z" fill="white"/>
<path opacity="0.06" d="M82.7548 541.117H76.9131V546.955H82.7548V541.117Z" fill="white"/>
<path opacity="0.01" d="M90.5852 541.117H84.7435V546.955H90.5852V541.117Z" fill="white"/>
<path opacity="0.39" d="M98.4155 541.117H92.5739V546.955H98.4155V541.117Z" fill="white"/>
<path opacity="0.1" d="M82.7548 548.322H76.9131V554.16H82.7548V548.322Z" fill="white"/>
<path d="M90.5852 548.322H84.7435V554.16H90.5852V548.322Z" fill="white"/>
<path opacity="0.62" d="M98.4155 548.322H92.5739V554.16H98.4155V548.322Z" fill="white"/>
<path opacity="0.48" d="M82.7548 555.651H76.9131V561.489H82.7548V555.651Z" fill="white"/>
<path opacity="0.27" d="M90.5852 555.651H84.7435V561.489H90.5852V555.651Z" fill="white"/>
<path opacity="0.42" d="M98.4155 555.651H92.5739V561.489H98.4155V555.651Z" fill="white"/>
<path opacity="0.27" d="M27.9424 519.875H22.1007V525.713H27.9424V519.875Z" fill="white"/>
<path opacity="0.11" d="M34.5298 475.155H28.6881V480.993H34.5298V475.155Z" fill="white"/>
<path opacity="0.41" d="M39.1286 429.813H33.2869V435.652H39.1286V429.813Z" fill="white"/>
<path opacity="0.38" d="M46.4618 429.813H40.6201V435.652H46.4618V429.813Z" fill="white"/>
<path opacity="0.02" d="M53.9193 429.813H48.0776V435.652H53.9193V429.813Z" fill="white"/>
<path opacity="0.46" d="M39.1286 437.143H33.2869V442.981H39.1286V437.143Z" fill="white"/>
<path opacity="0.31" d="M46.4618 437.143H40.6201V442.981H46.4618V437.143Z" fill="white"/>
<path opacity="0.61" d="M53.9193 437.143H48.0776V442.981H53.9193V437.143Z" fill="white"/>
<path opacity="0.03" d="M39.1286 444.347H33.2869V450.186H39.1286V444.347Z" fill="white"/>
<path opacity="0.03" d="M46.4618 444.347H40.6201V450.186H46.4618V444.347Z" fill="white"/>
<path opacity="0.46" d="M53.9193 444.347H48.0776V450.186H53.9193V444.347Z" fill="white"/>
<path opacity="0.32" d="M39.1286 451.552H33.2869V457.391H39.1286V451.552Z" fill="white"/>
<path opacity="0.14" d="M46.4618 451.552H40.6201V457.391H46.4618V451.552Z" fill="white"/>
<path opacity="0.3" d="M53.9193 451.552H48.0776V457.391H53.9193V451.552Z" fill="white"/>
<path opacity="0.04" d="M39.1286 458.881H33.2869V464.72H39.1286V458.881Z" fill="white"/>
<path opacity="0.64" d="M46.4618 458.881H40.6201V464.72H46.4618V458.881Z" fill="white"/>
<path opacity="0.05" d="M53.9193 458.881H48.0776V464.72H53.9193V458.881Z" fill="white"/>
<path opacity="0.15" d="M41.9873 475.155H36.1456V480.993H41.9873V475.155Z" fill="white"/>
<path opacity="0.15" d="M49.4448 475.155H43.6031V480.993H49.4448V475.155Z" fill="white"/>
<path opacity="0.52" d="M56.778 475.155H50.9363V480.993H56.778V475.155Z" fill="white"/>
<path opacity="0.58" d="M34.5298 482.484H28.6881V488.322H34.5298V482.484Z" fill="white"/>
<path opacity="0.62" d="M41.9873 482.484H36.1456V488.322H41.9873V482.484Z" fill="white"/>
<path opacity="0.04" d="M49.4448 482.484H43.6031V488.322H49.4448V482.484Z" fill="white"/>
<path opacity="0.06" d="M56.778 482.484H50.9363V488.322H56.778V482.484Z" fill="white"/>
<path opacity="0.3" d="M34.5298 489.937H28.6881V495.775H34.5298V489.937Z" fill="white"/>
<path opacity="0.01" d="M41.9873 489.937H36.1456V495.775H41.9873V489.937Z" fill="white"/>
<path opacity="0.37" d="M49.4448 489.937H43.6031V495.775H49.4448V489.937Z" fill="white"/>
<path opacity="0.62" d="M56.778 489.937H50.9363V495.775H56.778V489.937Z" fill="white"/>
<path opacity="0.54" d="M34.5298 497.39H28.6881V503.229H34.5298V497.39Z" fill="white"/>
<path opacity="0.21" d="M41.9873 497.39H36.1456V503.229H41.9873V497.39Z" fill="white"/>
<path opacity="0.41" d="M49.4448 497.39H43.6031V503.229H49.4448V497.39Z" fill="white"/>
<path opacity="0.1" d="M56.778 497.39H50.9363V503.229H56.778V497.39Z" fill="white"/>
<path opacity="0.17" d="M34.5298 504.719H28.6881V510.558H34.5298V504.719Z" fill="white"/>
<path opacity="0.17" d="M41.9873 504.719H36.1456V510.558H41.9873V504.719Z" fill="white"/>
<path opacity="0.13" d="M49.4448 504.719H43.6031V510.558H49.4448V504.719Z" fill="white"/>
<path opacity="0.5" d="M56.778 504.719H50.9363V510.558H56.778V504.719Z" fill="white"/>
<path opacity="0.06" d="M35.3999 519.875H29.5582V525.713H35.3999V519.875Z" fill="white"/>
<path opacity="0.27" d="M42.733 519.875H36.8914V525.713H42.733V519.875Z" fill="white"/>
<path opacity="0.51" d="M50.1906 519.875H44.3489V525.713H50.1906V519.875Z" fill="white"/>
<path opacity="0.42" d="M57.648 519.875H51.8063V525.713H57.648V519.875Z" fill="white"/>
<path opacity="0.64" d="M64.9812 519.875H59.1395V525.713H64.9812V519.875Z" fill="white"/>
<path opacity="0.29" d="M27.9424 526.955H22.1007V532.794H27.9424V526.955Z" fill="white"/>
<path opacity="0.6" d="M35.3999 526.955H29.5582V532.794H35.3999V526.955Z" fill="white"/>
<path opacity="0.2" d="M42.733 526.955H36.8914V532.794H42.733V526.955Z" fill="white"/>
<path opacity="0.24" d="M50.1906 526.955H44.3489V532.794H50.1906V526.955Z" fill="white"/>
<path opacity="0.62" d="M57.648 526.955H51.8063V532.794H57.648V526.955Z" fill="white"/>
<path opacity="0.62" d="M64.9812 526.955H59.1395V532.794H64.9812V526.955Z" fill="white"/>
<path opacity="0.25" d="M27.9424 534.036H22.1007V539.874H27.9424V534.036Z" fill="white"/>
<path opacity="0.36" d="M35.3999 534.036H29.5582V539.874H35.3999V534.036Z" fill="white"/>
<path opacity="0.16" d="M42.733 534.036H36.8914V539.874H42.733V534.036Z" fill="white"/>
<path opacity="0.1" d="M50.1906 534.036H44.3489V539.874H50.1906V534.036Z" fill="white"/>
<path opacity="0.04" d="M57.648 534.036H51.8063V539.874H57.648V534.036Z" fill="white"/>
<path opacity="0.44" d="M64.9812 534.036H59.1395V539.874H64.9812V534.036Z" fill="white"/>
<path opacity="0.68" d="M27.9424 541.117H22.1007V546.955H27.9424V541.117Z" fill="white"/>
<path opacity="0.01" d="M35.3999 541.117H29.5582V546.955H35.3999V541.117Z" fill="white"/>
<path opacity="0.29" d="M42.733 541.117H36.8914V546.955H42.733V541.117Z" fill="white"/>
<path opacity="0.66" d="M50.1906 541.117H44.3489V546.955H50.1906V541.117Z" fill="white"/>
<path opacity="0.12" d="M57.648 541.117H51.8063V546.955H57.648V541.117Z" fill="white"/>
<path opacity="0.34" d="M64.9812 541.117H59.1395V546.955H64.9812V541.117Z" fill="white"/>
<path opacity="0.36" d="M27.9424 548.322H22.1007V554.16H27.9424V548.322Z" fill="white"/>
<path opacity="0.5" d="M35.3999 548.322H29.5582V554.16H35.3999V548.322Z" fill="white"/>
<path opacity="0.07" d="M42.733 548.322H36.8914V554.16H42.733V548.322Z" fill="white"/>
<path opacity="0.64" d="M50.1906 548.322H44.3489V554.16H50.1906V548.322Z" fill="white"/>
<path opacity="0.4" d="M57.648 548.322H51.8063V554.16H57.648V548.322Z" fill="white"/>
<path opacity="0.27" d="M64.9812 548.322H59.1395V554.16H64.9812V548.322Z" fill="white"/>
<path opacity="0.09" d="M27.9424 555.651H22.1007V561.489H27.9424V555.651Z" fill="white"/>
<path opacity="0.47" d="M35.3999 555.651H29.5582V561.489H35.3999V555.651Z" fill="white"/>
<path opacity="0.57" d="M42.733 555.651H36.8914V561.489H42.733V555.651Z" fill="white"/>
<path opacity="0.12" d="M50.1906 555.651H44.3489V561.489H50.1906V555.651Z" fill="white"/>
<path opacity="0.23" d="M57.648 555.651H51.8063V561.489H57.648V555.651Z" fill="white"/>
<path opacity="0.36" d="M64.9812 555.651H59.1395V561.489H64.9812V555.651Z" fill="white"/>
<path d="M189.645 573.29H112.336L189.645 505.962V573.29Z" fill="#333333"/>
<path d="M23.8408 574.657H-83.2982L23.8408 481.49V574.657Z" fill="#333333"/>
<path d="M181.069 557.887H158.448V564.843H181.069V557.887Z" fill="#4D4D4D"/>
<path d="M178.459 559.998H160.934L167.024 549.812H172.369L178.459 559.998Z" fill="#4D4D4D"/>
<path d="M84.3707 567.7C84.3707 572.545 80.5176 576.52 75.7946 576.52C71.0715 576.52 67.2184 572.545 67.2184 567.7C67.2184 562.855 71.0715 558.88 75.7946 558.88C80.5176 558.756 84.3707 562.731 84.3707 567.7Z" fill="#333333"/>
<path d="M315.179 563.849C315.179 567.079 312.569 569.812 309.462 569.812C306.355 569.812 303.745 567.203 303.745 563.849C303.745 560.62 306.355 557.887 309.462 557.887C312.569 557.887 315.179 560.62 315.179 563.849Z" fill="#333333"/>
<path d="M114.946 564.222C114.946 567.576 112.336 570.309 108.98 570.309C105.749 570.309 103.014 567.576 103.014 564.222C103.014 560.868 105.624 558.135 108.98 558.135C112.336 558.135 114.946 560.868 114.946 564.222Z" fill="#333333"/>
</g>
</g>
<defs>
<clipPath id="clip0">
<rect x="-174.776" y="0.998535" width="811" height="559" fill="white"/>
</clipPath>
</defs>
</svg>
