<svg width="637" height="560" viewBox="0 0 637 560" fill="none" xmlns="http://www.w3.org/2000/svg">
<g opacity="0.05">
<g clip-path="url(#clip0)">
<path d="M525.907 356.647H566.923V552.669H525.907V356.647Z" fill="#333333"/>
<path d="M537.217 346.709H555.861V357.765H537.217V346.709Z" fill="#333333"/>
<path d="M541.07 340.249H551.884V346.585H541.07V340.249Z" fill="#333333"/>
<path d="M547.161 356.274L546.415 249.443L545.793 356.274H547.161Z" fill="#333333"/>
<path opacity="0.09" d="M544.302 371.429H548.652V375.777H544.302V371.429Z" fill="white"/>
<path opacity="0.33" d="M544.302 385.218H548.652V389.566H544.302V385.218Z" fill="white"/>
<path opacity="0.37" d="M544.302 399.131H548.652V403.478H544.302V399.131Z" fill="white"/>
<path opacity="0.14" d="M544.302 412.919H548.652V417.267H544.302V412.919Z" fill="white"/>
<path opacity="0.3" d="M544.302 426.832H548.652V431.18H544.302V426.832Z" fill="white"/>
<path opacity="0.16" d="M544.302 440.621H548.652V444.969H544.302V440.621Z" fill="white"/>
<path opacity="0.34" d="M544.302 454.534H548.652V458.881H544.302V454.534Z" fill="white"/>
<path opacity="0.29" d="M544.302 468.323H548.652V472.67H544.302V468.323Z" fill="white"/>
<path opacity="0.12" d="M544.302 482.235H548.652V486.583H544.302V482.235Z" fill="white"/>
<path d="M600.854 400.994H729.371V572.048H600.854V400.994Z" fill="#4D4D4D"/>
<path d="M634.537 408.075H641.373V414.907H634.537V408.075Z" fill="white"/>
<path d="M625.464 408.075H632.3V414.907H625.464V408.075Z" fill="white"/>
<path d="M634.537 417.019H641.373V423.851H634.537V417.019Z" fill="white"/>
<path d="M625.464 417.019H632.3V423.851H625.464V417.019Z" fill="white"/>
<path d="M634.537 425.963H641.373V432.795H634.537V425.963Z" fill="white"/>
<path d="M625.464 425.963H632.3V432.795H625.464V425.963Z" fill="white"/>
<path d="M634.537 434.783H641.373V441.615H634.537V434.783Z" fill="white"/>
<path d="M625.464 434.783H632.3V441.615H625.464V434.783Z" fill="white"/>
<path d="M634.537 443.727H641.373V450.559H634.537V443.727Z" fill="white"/>
<path d="M625.464 443.727H632.3V450.559H625.464V443.727Z" fill="white"/>
<path d="M634.537 452.671H641.373V459.503H634.537V452.671Z" fill="white"/>
<path d="M625.464 452.671H632.3V459.503H625.464V452.671Z" fill="white"/>
<path d="M634.537 461.615H641.373V468.447H634.537V461.615Z" fill="white"/>
<path d="M625.464 461.615H632.3V468.447H625.464V461.615Z" fill="white"/>
<path d="M634.537 470.559H641.373V477.391H634.537V470.559Z" fill="white"/>
<path d="M625.464 470.559H632.3V477.391H625.464V470.559Z" fill="white"/>
<path d="M634.537 479.378H641.373V486.211H634.537V479.378Z" fill="white"/>
<path d="M625.464 479.378H632.3V486.211H625.464V479.378Z" fill="white"/>
<path d="M634.537 488.322H641.373V495.154H634.537V488.322Z" fill="white"/>
<path d="M625.464 488.322H632.3V495.154H625.464V488.322Z" fill="white"/>
<path d="M634.537 497.266H641.373V504.099H634.537V497.266Z" fill="white"/>
<path d="M625.464 497.266H632.3V504.099H625.464V497.266Z" fill="white"/>
<path d="M634.537 506.21H641.373V513.043H634.537V506.21Z" fill="white"/>
<path d="M625.464 506.21H632.3V513.043H625.464V506.21Z" fill="white"/>
<path d="M634.537 515.154H641.373V521.987H634.537V515.154Z" fill="white"/>
<path d="M625.464 515.154H632.3V521.987H625.464V515.154Z" fill="white"/>
<path d="M634.537 523.974H641.373V530.806H634.537V523.974Z" fill="white"/>
<path d="M625.464 523.974H632.3V530.806H625.464V523.974Z" fill="white"/>
<path d="M616.391 523.974H623.227V530.806H616.391V523.974Z" fill="white"/>
<path d="M634.537 532.918H641.373V539.75H634.537V532.918Z" fill="white"/>
<path d="M625.464 532.918H632.3V539.75H625.464V532.918Z" fill="white"/>
<path d="M616.391 532.918H623.227V539.75H616.391V532.918Z" fill="white"/>
<path d="M634.537 541.862H641.373V548.694H634.537V541.862Z" fill="white"/>
<path d="M625.464 541.862H632.3V548.694H625.464V541.862Z" fill="white"/>
<path d="M616.391 541.862H623.227V548.694H616.391V541.862Z" fill="white"/>
<path d="M634.537 550.806H641.373V557.638H634.537V550.806Z" fill="white"/>
<path d="M625.464 550.806H632.3V557.638H625.464V550.806Z" fill="white"/>
<path d="M616.391 550.806H623.227V557.638H616.391V550.806Z" fill="white"/>
<path d="M634.537 559.75H641.373V566.582H634.537V559.75Z" fill="white"/>
<path d="M625.464 559.75H632.3V566.582H625.464V559.75Z" fill="white"/>
<path d="M616.391 559.75H623.227V566.582H616.391V559.75Z" fill="white"/>
<path d="M619.871 383.603H710.355V400.994H619.871V383.603Z" fill="#4D4D4D"/>
<path opacity="0.19" d="M616.391 408.075H623.227V414.907H616.391V408.075Z" fill="white"/>
<path opacity="0.24" d="M616.391 417.019H623.227V423.851H616.391V417.019Z" fill="white"/>
<path opacity="0.29" d="M616.391 425.963H623.227V432.795H616.391V425.963Z" fill="white"/>
<path opacity="0.39" d="M616.391 434.782H623.227V441.615H616.391V434.782Z" fill="white"/>
<path opacity="0.21" d="M616.391 443.727H623.227V450.559H616.391V443.727Z" fill="white"/>
<path opacity="0.48" d="M616.391 452.67H623.227V459.503H616.391V452.67Z" fill="white"/>
<path opacity="0.32" d="M616.391 461.615H623.227V468.447H616.391V461.615Z" fill="white"/>
<path opacity="0.13" d="M616.391 470.559H623.227V477.391H616.391V470.559Z" fill="white"/>
<path opacity="0.19" d="M616.391 479.378H623.227V486.21H616.391V479.378Z" fill="white"/>
<path opacity="0.03" d="M616.391 488.322H623.227V495.154H616.391V488.322Z" fill="white"/>
<path opacity="0.36" d="M616.391 497.266H623.227V504.099H616.391V497.266Z" fill="white"/>
<path opacity="0.25" d="M616.391 506.21H623.227V513.042H616.391V506.21Z" fill="white"/>
<path d="M616.391 515.154H623.227V521.987H616.391V515.154Z" fill="white"/>
<path d="M340.34 478.633H381.356V574.657H340.34V478.633Z" fill="#333333"/>
<path d="M362.712 473.788H381.356V479.254H362.712V473.788Z" fill="#333333"/>
<path d="M370.543 470.683H381.356V473.788H370.543V470.683Z" fill="#333333"/>
<path opacity="0.06" d="M357.492 485.341H364.204V490.31H357.492V485.341Z" fill="white"/>
<path opacity="0.12" d="M357.492 497.639H364.204V502.608H357.492V497.639Z" fill="white"/>
<path opacity="0.19" d="M357.492 522.235H364.204V527.204H357.492V522.235Z" fill="white"/>
<path opacity="0.14" d="M357.492 546.831H364.204V551.8H357.492V546.831Z" fill="white"/>
<path opacity="0.1" d="M357.492 559.129H364.204V564.098H357.492V559.129Z" fill="white"/>
<path d="M443.253 489.068H499.433V540.496H443.253V489.068Z" fill="#333333"/>
<path d="M452.078 484.471H490.484V506.583H452.078V484.471Z" fill="#333333"/>
<path d="M439.152 521.49H495.331V572.918H439.152V521.49Z" fill="#333333"/>
<path d="M448.1 516.893H486.506V539.005H448.1V516.893Z" fill="#333333"/>
<path d="M364.328 514.657H420.508V573.911H364.328V514.657Z" fill="#333333"/>
<path d="M373.153 509.44H411.559V535.03H373.153V509.44Z" fill="#333333"/>
<path d="M176.276 532.67H232.455V589.936H176.276V532.67Z" fill="#333333"/>
<path d="M185.1 527.576H223.506V552.297H185.1V527.576Z" fill="#333333"/>
<path d="M298.081 414.41H360.848V573.787H298.081V414.41Z" fill="#333333"/>
<path opacity="0.46" d="M342.577 421.615H357.741V424.472H342.577V421.615Z" fill="#E6E6E6"/>
<path opacity="0.34" d="M321.821 421.615H336.984V424.472H321.821V421.615Z" fill="#E6E6E6"/>
<path opacity="0.52" d="M301.188 421.615H316.352V424.472H301.188V421.615Z" fill="#E6E6E6"/>
<path opacity="0.54" d="M342.577 428.199H357.741V431.056H342.577V428.199Z" fill="#E6E6E6"/>
<path opacity="0.3" d="M321.821 428.199H336.984V431.056H321.821V428.199Z" fill="#E6E6E6"/>
<path opacity="0.06" d="M301.188 428.199H316.352V431.056H301.188V428.199Z" fill="#E6E6E6"/>
<path opacity="0.15" d="M342.577 434.782H357.741V437.64H342.577V434.782Z" fill="#E6E6E6"/>
<path opacity="0.42" d="M321.821 434.782H336.984V437.64H321.821V434.782Z" fill="#E6E6E6"/>
<path opacity="0.48" d="M301.188 434.782H316.352V437.64H301.188V434.782Z" fill="#E6E6E6"/>
<path opacity="0.18" d="M342.577 441.366H357.741V444.223H342.577V441.366Z" fill="#E6E6E6"/>
<path opacity="0.28" d="M301.188 441.366H316.352V444.223H301.188V441.366Z" fill="#E6E6E6"/>
<path opacity="0.29" d="M342.577 447.95H357.741V450.807H342.577V447.95Z" fill="#E6E6E6"/>
<path opacity="0.28" d="M321.821 447.95H336.984V450.807H321.821V447.95Z" fill="#E6E6E6"/>
<path opacity="0.56" d="M301.188 447.95H316.352V450.807H301.188V447.95Z" fill="#E6E6E6"/>
<path opacity="0.41" d="M342.577 454.534H357.741V457.391H342.577V454.534Z" fill="#E6E6E6"/>
<path opacity="0.16" d="M321.821 454.534H336.984V457.391H321.821V454.534Z" fill="#E6E6E6"/>
<path opacity="0.4" d="M301.188 454.534H316.352V457.391H301.188V454.534Z" fill="#E6E6E6"/>
<path opacity="0.1" d="M342.577 461.118H357.741V463.975H342.577V461.118Z" fill="#E6E6E6"/>
<path opacity="0.17" d="M321.821 461.118H336.984V463.975H321.821V461.118Z" fill="#E6E6E6"/>
<path opacity="0.08" d="M301.188 461.118H316.352V463.975H301.188V461.118Z" fill="#E6E6E6"/>
<path opacity="0.49" d="M342.577 467.701H357.741V470.559H342.577V467.701Z" fill="#E6E6E6"/>
<path opacity="0.58" d="M321.821 467.701H336.984V470.559H321.821V467.701Z" fill="#E6E6E6"/>
<path opacity="0.58" d="M301.188 467.701H316.352V470.559H301.188V467.701Z" fill="#E6E6E6"/>
<path opacity="0.26" d="M342.577 474.285H357.741V477.142H342.577V474.285Z" fill="#E6E6E6"/>
<path opacity="0.37" d="M321.821 474.285H336.984V477.142H321.821V474.285Z" fill="#E6E6E6"/>
<path opacity="0.34" d="M301.188 474.285H316.352V477.142H301.188V474.285Z" fill="#E6E6E6"/>
<path opacity="0.55" d="M342.577 480.869H357.741V483.726H342.577V480.869Z" fill="#E6E6E6"/>
<path opacity="0.12" d="M321.821 480.869H336.984V483.726H321.821V480.869Z" fill="#E6E6E6"/>
<path opacity="0.6" d="M301.188 480.869H316.352V483.726H301.188V480.869Z" fill="#E6E6E6"/>
<path opacity="0.02" d="M342.577 487.453H357.741V490.31H342.577V487.453Z" fill="#E6E6E6"/>
<path opacity="0.28" d="M321.821 487.453H336.984V490.31H321.821V487.453Z" fill="#E6E6E6"/>
<path opacity="0.21" d="M301.188 487.453H316.352V490.31H301.188V487.453Z" fill="#E6E6E6"/>
<path opacity="0.57" d="M342.577 494.037H357.741V496.894H342.577V494.037Z" fill="#E6E6E6"/>
<path opacity="0.38" d="M321.821 494.037H336.984V496.894H321.821V494.037Z" fill="#E6E6E6"/>
<path opacity="0.25" d="M301.188 494.037H316.352V496.894H301.188V494.037Z" fill="#E6E6E6"/>
<path opacity="0.15" d="M342.577 500.62H357.741V503.477H342.577V500.62Z" fill="#E6E6E6"/>
<path opacity="0.47" d="M321.821 500.62H336.984V503.477H321.821V500.62Z" fill="#E6E6E6"/>
<path opacity="0.3" d="M301.188 500.62H316.352V503.477H301.188V500.62Z" fill="#E6E6E6"/>
<path opacity="0.4" d="M342.577 507.204H357.741V510.061H342.577V507.204Z" fill="#E6E6E6"/>
<path opacity="0.39" d="M321.821 507.204H336.984V510.061H321.821V507.204Z" fill="#E6E6E6"/>
<path opacity="0.24" d="M301.188 507.204H316.352V510.061H301.188V507.204Z" fill="#E6E6E6"/>
<path opacity="0.46" d="M342.577 513.788H357.741V516.645H342.577V513.788Z" fill="#E6E6E6"/>
<path opacity="0.22" d="M321.821 513.788H336.984V516.645H321.821V513.788Z" fill="#E6E6E6"/>
<path opacity="0.11" d="M301.188 513.788H316.352V516.645H301.188V513.788Z" fill="#E6E6E6"/>
<path opacity="0.11" d="M321.821 520.372H336.984V523.229H321.821V520.372Z" fill="#E6E6E6"/>
<path opacity="0.02" d="M301.188 520.372H316.352V523.229H301.188V520.372Z" fill="#E6E6E6"/>
<path opacity="0.27" d="M342.577 526.955H357.741V529.812H342.577V526.955Z" fill="#E6E6E6"/>
<path opacity="0.21" d="M321.821 526.955H336.984V529.812H321.821V526.955Z" fill="#E6E6E6"/>
<path opacity="0.49" d="M301.188 526.955H316.352V529.812H301.188V526.955Z" fill="#E6E6E6"/>
<path opacity="0.6" d="M342.577 533.539H357.741V536.396H342.577V533.539Z" fill="#E6E6E6"/>
<path opacity="0.31" d="M321.821 533.539H336.984V536.396H321.821V533.539Z" fill="#E6E6E6"/>
<path opacity="0.22" d="M301.188 533.539H316.352V536.396H301.188V533.539Z" fill="#E6E6E6"/>
<path opacity="0.54" d="M342.577 540.123H357.741V542.98H342.577V540.123Z" fill="#E6E6E6"/>
<path opacity="0.6" d="M321.821 540.123H336.984V542.98H321.821V540.123Z" fill="#E6E6E6"/>
<path opacity="0.08" d="M301.188 540.123H316.352V542.98H301.188V540.123Z" fill="#E6E6E6"/>
<path opacity="0.55" d="M321.821 546.707H336.984V549.564H321.821V546.707Z" fill="#E6E6E6"/>
<path d="M301.188 546.707H316.352V549.564H301.188V546.707Z" fill="#E6E6E6"/>
<path opacity="0.6" d="M341.583 421.615H342.577V549.564H341.583V421.615Z" fill="#E6E6E6"/>
<path opacity="0.6" d="M316.352 421.615H317.346V549.564H316.352V421.615Z" fill="#E6E6E6"/>
<path d="M266.76 414.41H298.081V573.787H266.76V414.41Z" fill="#4D4D4D"/>
<path opacity="0.69" d="M271.358 421.615H294.974V424.472H271.358V421.615Z" fill="#E6E6E6"/>
<path opacity="0.79" d="M271.358 428.199H294.974V431.056H271.358V428.199Z" fill="#E6E6E6"/>
<path opacity="0.19" d="M271.358 434.782H294.974V437.64H271.358V434.782Z" fill="#E6E6E6"/>
<path opacity="0.88" d="M271.358 441.366H294.974V444.223H271.358V441.366Z" fill="#E6E6E6"/>
<path opacity="0.5" d="M271.358 447.95H294.974V450.807H271.358V447.95Z" fill="#E6E6E6"/>
<path opacity="0.25" d="M271.358 454.534H294.974V457.391H271.358V454.534Z" fill="#E6E6E6"/>
<path opacity="0.91" d="M271.358 461.118H294.974V463.975H271.358V461.118Z" fill="#E6E6E6"/>
<path opacity="0.02" d="M271.358 467.701H294.974V470.559H271.358V467.701Z" fill="#E6E6E6"/>
<path opacity="0.53" d="M271.358 474.285H294.974V477.142H271.358V474.285Z" fill="#E6E6E6"/>
<path opacity="0.65" d="M271.358 480.869H294.974V483.726H271.358V480.869Z" fill="#E6E6E6"/>
<path d="M271.358 487.453H294.974V490.31H271.358V487.453Z" fill="#E6E6E6"/>
<path opacity="0.8" d="M271.358 494.037H294.974V496.894H271.358V494.037Z" fill="#E6E6E6"/>
<path opacity="0.82" d="M271.358 500.62H294.974V503.477H271.358V500.62Z" fill="#E6E6E6"/>
<path opacity="0.75" d="M271.358 507.204H294.974V510.061H271.358V507.204Z" fill="#E6E6E6"/>
<path opacity="0.31" d="M271.358 513.788H294.974V516.645H271.358V513.788Z" fill="#E6E6E6"/>
<path opacity="0.22" d="M271.358 520.372H294.974V523.229H271.358V520.372Z" fill="#E6E6E6"/>
<path opacity="0.43" d="M271.358 526.955H294.974V529.812H271.358V526.955Z" fill="#E6E6E6"/>
<path opacity="0.68" d="M271.358 533.539H294.974V536.396H271.358V533.539Z" fill="#E6E6E6"/>
<path opacity="0.38" d="M271.358 540.123H294.974V542.98H271.358V540.123Z" fill="#E6E6E6"/>
<path opacity="0.84" d="M271.358 546.707H294.974V549.564H271.358V546.707Z" fill="#E6E6E6"/>
<path d="M349.786 405.963V414.41H309.143V405.963H349.786ZM340.713 411.677H344.939V408.82H340.713V411.677ZM334.125 411.677H338.227V408.82H334.125V411.677ZM327.414 411.677H331.515V408.82H327.414V411.677ZM320.702 411.677H324.928V408.82H320.702V411.677ZM313.99 411.677H318.216V408.82H313.99V411.677Z" fill="#333333"/>
<path d="M301.685 408.82H302.804V411.677H301.685V408.82Z" fill="#333333"/>
<path d="M309.143 405.963V414.41H290.002V405.963H309.143ZM301.685 411.677H305.787V408.82H301.685V411.677ZM292.861 411.677H296.962V408.82H292.861V411.677Z" fill="#4D4D4D"/>
<path d="M292.985 408.82H294.104V411.677H292.985V408.82Z" fill="#333333"/>
<path d="M289.754 584.594H374.272L289.754 522.235V584.594Z" fill="#333333"/>
<path d="M415.785 380.622H422.621V406.584H415.785V380.622Z" fill="#4D4D4D"/>
<path d="M422.496 380.622H429.457V406.584H422.496V380.622Z" fill="#333333"/>
<path d="M408.7 380.622H415.66V406.584H408.7V380.622Z" fill="#666666"/>
<path d="M388.565 424.348H407.954V572.421H388.565V424.348Z" fill="#666666"/>
<path d="M430.7 424.348H447.603V572.421H430.7V424.348Z" fill="#333333"/>
<path d="M407.954 424.348H430.824V572.421H407.954V424.348Z" fill="#4D4D4D"/>
<path opacity="0.6" d="M442.756 428.696H445.242V570.433H442.756V428.696Z" fill="#E6E6E6"/>
<path opacity="0.6" d="M437.909 428.696H440.394V570.433H437.909V428.696Z" fill="#E6E6E6"/>
<path opacity="0.6" d="M433.061 428.696H435.547V570.433H433.061V428.696Z" fill="#E6E6E6"/>
<path d="M404.101 428.696H406.587V570.433H404.101V428.696Z" fill="#E6E6E6"/>
<path d="M399.254 428.696H401.74V570.433H399.254V428.696Z" fill="#E6E6E6"/>
<path d="M389.808 428.696H392.294V570.433H389.808V428.696Z" fill="#E6E6E6"/>
<path d="M394.407 428.696H396.892V570.433H394.407V428.696Z" fill="#E6E6E6"/>
<path opacity="0.8" d="M427.965 570.433H410.813V428.696H427.965V570.433ZM425.231 431.18H413.548V567.949H425.231V431.18Z" fill="#E6E6E6"/>
<path opacity="0.8" d="M422.994 565.589H415.66V433.416H422.994V565.589ZM420.508 436.522H419.638H419.141H418.146V562.483H419.141H419.638H420.508V436.522Z" fill="#E6E6E6"/>
<path opacity="0.8" d="M419.141 436.521H419.638V562.483H419.141V436.521Z" fill="#E6E6E6"/>
<path d="M410.565 398.385H427.717V424.348H410.565V398.385Z" fill="#4D4D4D"/>
<path d="M410.565 398.385H427.717V424.348H410.565V398.385Z" fill="#4D4D4D"/>
<path d="M393.412 398.385H410.565V424.348H393.412V398.385Z" fill="#666666"/>
<path d="M427.717 398.385H444.869V424.348H427.717V398.385Z" fill="#333333"/>
<path d="M408.824 380.622H429.457L422.621 385.342H415.66L408.824 380.622Z" fill="#808080"/>
<path d="M40.0525 371.056H49.9958V400.249H40.0525V371.056Z" fill="#4D4D4D"/>
<path d="M50.1201 371.056H60.0634V400.249H50.1201V371.056Z" fill="#333333"/>
<path d="M30.1091 371.056H40.0525V400.249H30.1091V371.056Z" fill="#666666"/>
<path d="M0.776489 420.373H28.8663V587.203H0.776489V420.373Z" fill="#666666"/>
<path d="M61.9278 420.373H86.2888V587.203H61.9278V420.373Z" fill="#333333"/>
<path d="M28.8663 420.373H61.9278V587.203H28.8663V420.373Z" fill="#4D4D4D"/>
<path opacity="0.4" d="M79.3286 425.342H82.9329V584.967H79.3286V425.342Z" fill="#E6E6E6"/>
<path opacity="0.4" d="M72.2439 425.342H75.8484V584.967H72.2439V425.342Z" fill="#E6E6E6"/>
<path opacity="0.4" d="M65.1593 425.342H68.7638V584.967H65.1593V425.342Z" fill="#E6E6E6"/>
<path d="M23.2731 425.342H26.8776V584.967H23.2731V425.342Z" fill="#E6E6E6"/>
<path d="M16.1886 425.342H19.793V584.967H16.1886V425.342Z" fill="#E6E6E6"/>
<path d="M2.64087 425.342H6.2453V584.967H2.64087V425.342Z" fill="#E6E6E6"/>
<path d="M9.22827 425.342H12.8328V584.967H9.22827V425.342Z" fill="#E6E6E6"/>
<path d="M57.7018 584.967H32.8436V425.342H57.7018V584.967ZM53.8489 428.074H36.9452V582.234H53.8489V428.074Z" fill="#E6E6E6"/>
<path d="M50.7416 579.626H40.0525V430.683H50.7416V579.626ZM47.0128 434.161H45.6456H45.0241H43.657V576.147H45.0241H45.6456H47.0128V434.161Z" fill="#E6E6E6"/>
<path d="M45.0241 434.161H45.6456V576.147H45.0241V434.161Z" fill="#E6E6E6"/>
<path d="M32.595 391.18H57.4532V420.373H32.595V391.18Z" fill="#4D4D4D"/>
<path d="M32.595 391.18H57.4532V420.373H32.595V391.18Z" fill="#4D4D4D"/>
<path d="M7.73676 391.18H32.595V420.373H7.73676V391.18Z" fill="#666666"/>
<path d="M57.329 391.18H82.1873V420.373H57.329V391.18Z" fill="#333333"/>
<path d="M29.9849 371.056H60.0634L49.9958 376.398H40.0525L29.9849 371.056Z" fill="#808080"/>
<path d="M111.768 443.478H179.756V466.086H111.768V443.478Z" fill="#E6E6E6"/>
<path d="M153.033 443.478H179.756V466.086H153.033V443.478Z" fill="#B3B3B3"/>
<path d="M153.033 466.211H205.857V576.023H153.033V466.211Z" fill="#333333"/>
<path d="M70.5038 466.211H153.033V576.023H70.5038V466.211Z" fill="#4D4D4D"/>
<path d="M159.496 455.031H200.14V466.211H159.496V455.031Z" fill="#333333"/>
<path d="M82.8087 455.031H140.853V466.211H82.8087V455.031Z" fill="#4D4D4D"/>
<path d="M129.791 434.907H153.033V443.478H129.791V434.907Z" fill="#E6E6E6"/>
<path d="M141.474 426.211H153.033V434.782H141.474V426.211Z" fill="#4D4D4D"/>
<path d="M153.157 426.211H164.717V434.782H153.157V426.211Z" fill="#333333"/>
<path d="M153.033 434.907H170.807V443.478H153.033V434.907Z" fill="#B3B3B3"/>
<path d="M153.779 426.211L153.033 406.336L152.412 426.211H153.779Z" fill="#333333"/>
<path opacity="0.12" d="M189.202 470.683H193.552V475.031H189.202V470.683Z" fill="white"/>
<path opacity="0.25" d="M183.236 470.683H187.586V475.031H183.236V470.683Z" fill="white"/>
<path opacity="0.36" d="M177.27 470.683H181.62V475.031H177.27V470.683Z" fill="white"/>
<path opacity="0.12" d="M171.304 470.683H175.654V475.031H171.304V470.683Z" fill="white"/>
<path opacity="0.14" d="M165.338 470.683H169.688V475.031H165.338V470.683Z" fill="white"/>
<path opacity="0.28" d="M189.202 476.397H193.552V480.745H189.202V476.397Z" fill="white"/>
<path opacity="0.4" d="M183.236 476.397H187.586V480.745H183.236V476.397Z" fill="white"/>
<path opacity="0.16" d="M177.27 476.397H181.62V480.745H177.27V476.397Z" fill="white"/>
<path opacity="0.17" d="M165.338 476.397H169.688V480.745H165.338V476.397Z" fill="white"/>
<path opacity="0.27" d="M189.202 482.111H193.552V486.459H189.202V482.111Z" fill="white"/>
<path opacity="0.45" d="M183.236 482.111H187.586V486.459H183.236V482.111Z" fill="white"/>
<path opacity="0.45" d="M177.27 482.111H181.62V486.459H177.27V482.111Z" fill="white"/>
<path opacity="0.48" d="M171.304 482.111H175.654V486.459H171.304V482.111Z" fill="white"/>
<path opacity="0.25" d="M165.338 482.111H169.688V486.459H165.338V482.111Z" fill="white"/>
<path opacity="0.28" d="M189.202 487.825H193.552V492.173H189.202V487.825Z" fill="white"/>
<path opacity="0.13" d="M183.236 487.825H187.586V492.173H183.236V487.825Z" fill="white"/>
<path opacity="0.07" d="M177.27 487.825H181.62V492.173H177.27V487.825Z" fill="white"/>
<path opacity="0.39" d="M171.304 487.825H175.654V492.173H171.304V487.825Z" fill="white"/>
<path opacity="0.47" d="M165.338 487.825H169.688V492.173H165.338V487.825Z" fill="white"/>
<path opacity="0.28" d="M189.202 493.54H193.552V497.888H189.202V493.54Z" fill="white"/>
<path opacity="0.2" d="M183.236 493.54H187.586V497.888H183.236V493.54Z" fill="white"/>
<path opacity="0.04" d="M177.27 493.54H181.62V497.888H177.27V493.54Z" fill="white"/>
<path opacity="0.43" d="M171.304 493.54H175.654V497.888H171.304V493.54Z" fill="white"/>
<path opacity="0.48" d="M165.338 493.54H169.688V497.888H165.338V493.54Z" fill="white"/>
<path opacity="0.28" d="M189.202 499.254H193.552V503.602H189.202V499.254Z" fill="white"/>
<path opacity="0.19" d="M183.236 499.254H187.586V503.602H183.236V499.254Z" fill="white"/>
<path opacity="0.01" d="M177.27 499.254H181.62V503.602H177.27V499.254Z" fill="white"/>
<path opacity="0.27" d="M171.304 499.254H175.654V503.602H171.304V499.254Z" fill="white"/>
<path opacity="0.24" d="M165.338 499.254H169.688V503.602H165.338V499.254Z" fill="white"/>
<path opacity="0.07" d="M189.202 505.092H193.552V509.44H189.202V505.092Z" fill="white"/>
<path opacity="0.25" d="M183.236 505.092H187.586V509.44H183.236V505.092Z" fill="white"/>
<path opacity="0.26" d="M177.27 505.092H181.62V509.44H177.27V505.092Z" fill="white"/>
<path opacity="0.39" d="M171.304 505.092H175.654V509.44H171.304V505.092Z" fill="white"/>
<path opacity="0.22" d="M165.338 505.092H169.688V509.44H165.338V505.092Z" fill="white"/>
<path opacity="0.15" d="M189.202 510.807H193.552V515.154H189.202V510.807Z" fill="white"/>
<path opacity="0.23" d="M183.236 510.807H187.586V515.154H183.236V510.807Z" fill="white"/>
<path opacity="0.05" d="M177.27 510.807H181.62V515.154H177.27V510.807Z" fill="white"/>
<path opacity="0.2" d="M171.304 510.807H175.654V515.154H171.304V510.807Z" fill="white"/>
<path opacity="0.31" d="M165.338 510.807H169.688V515.154H165.338V510.807Z" fill="white"/>
<path opacity="0.15" d="M189.202 516.521H193.552V520.869H189.202V516.521Z" fill="white"/>
<path opacity="0.33" d="M183.236 516.521H187.586V520.869H183.236V516.521Z" fill="white"/>
<path opacity="0.46" d="M177.27 516.521H181.62V520.869H177.27V516.521Z" fill="white"/>
<path opacity="0.25" d="M171.304 516.521H175.654V520.869H171.304V516.521Z" fill="white"/>
<path opacity="0.43" d="M165.338 516.521H169.688V520.869H165.338V516.521Z" fill="white"/>
<path opacity="0.4" d="M189.202 522.235H193.552V526.583H189.202V522.235Z" fill="white"/>
<path opacity="0.39" d="M183.236 522.235H187.586V526.583H183.236V522.235Z" fill="white"/>
<path opacity="0.01" d="M177.27 522.235H181.62V526.583H177.27V522.235Z" fill="white"/>
<path opacity="0.12" d="M171.304 522.235H175.654V526.583H171.304V522.235Z" fill="white"/>
<path opacity="0.07" d="M165.338 522.235H169.688V526.583H165.338V522.235Z" fill="white"/>
<path opacity="0.07" d="M189.202 527.949H193.552V532.297H189.202V527.949Z" fill="white"/>
<path opacity="0.02" d="M183.236 527.949H187.586V532.297H183.236V527.949Z" fill="white"/>
<path opacity="0.12" d="M177.27 527.949H181.62V532.297H177.27V527.949Z" fill="white"/>
<path opacity="0.23" d="M171.304 527.949H175.654V532.297H171.304V527.949Z" fill="white"/>
<path opacity="0.26" d="M165.338 527.949H169.688V532.297H165.338V527.949Z" fill="white"/>
<path opacity="0.27" d="M189.202 533.664H193.552V538.011H189.202V533.664Z" fill="white"/>
<path opacity="0.38" d="M183.236 533.664H187.586V538.011H183.236V533.664Z" fill="white"/>
<path opacity="0.05" d="M177.27 533.664H181.62V538.011H177.27V533.664Z" fill="white"/>
<path opacity="0.45" d="M171.304 533.664H175.654V538.011H171.304V533.664Z" fill="white"/>
<path opacity="0.15" d="M165.338 533.664H169.688V538.011H165.338V533.664Z" fill="white"/>
<path opacity="0.06" d="M189.202 539.378H193.552V543.725H189.202V539.378Z" fill="white"/>
<path opacity="0.47" d="M183.236 539.378H187.586V543.725H183.236V539.378Z" fill="white"/>
<path opacity="0.15" d="M177.27 539.378H181.62V543.725H177.27V539.378Z" fill="white"/>
<path opacity="0.44" d="M171.304 539.378H175.654V543.725H171.304V539.378Z" fill="white"/>
<path opacity="0.14" d="M165.338 539.378H169.688V543.725H165.338V539.378Z" fill="white"/>
<path opacity="0.15" d="M189.202 545.092H193.552V549.44H189.202V545.092Z" fill="white"/>
<path opacity="0.43" d="M183.236 545.092H187.586V549.44H183.236V545.092Z" fill="white"/>
<path opacity="0.07" d="M177.27 545.092H181.62V549.44H177.27V545.092Z" fill="white"/>
<path opacity="0.47" d="M171.304 545.092H175.654V549.44H171.304V545.092Z" fill="white"/>
<path opacity="0.11" d="M165.338 545.092H169.688V549.44H165.338V545.092Z" fill="white"/>
<path opacity="0.07" d="M189.202 550.806H193.552V555.154H189.202V550.806Z" fill="white"/>
<path opacity="0.34" d="M183.236 550.806H187.586V555.154H183.236V550.806Z" fill="white"/>
<path opacity="0.5" d="M177.27 550.806H181.62V555.154H177.27V550.806Z" fill="white"/>
<path opacity="0.36" d="M171.304 550.806H175.654V555.154H171.304V550.806Z" fill="white"/>
<path opacity="0.34" d="M165.338 550.806H169.688V555.154H165.338V550.806Z" fill="white"/>
<path opacity="0.47" d="M189.202 556.521H193.552V560.868H189.202V556.521Z" fill="white"/>
<path opacity="0.41" d="M183.236 556.521H187.586V560.868H183.236V556.521Z" fill="white"/>
<path opacity="0.3" d="M177.27 556.521H181.62V560.868H177.27V556.521Z" fill="white"/>
<path opacity="0.33" d="M171.304 556.521H175.654V560.868H171.304V556.521Z" fill="white"/>
<path opacity="0.12" d="M165.338 556.521H169.688V560.868H165.338V556.521Z" fill="white"/>
<path opacity="0.3" d="M138.615 470.683H142.966V475.031H138.615V470.683Z" fill="white"/>
<path opacity="0.72" d="M132.898 470.683H137.248V475.031H132.898V470.683Z" fill="white"/>
<path opacity="0.7" d="M127.056 470.683H131.406V475.031H127.056V470.683Z" fill="white"/>
<path opacity="0.52" d="M121.215 470.683H125.565V475.031H121.215V470.683Z" fill="white"/>
<path opacity="0.2" d="M115.373 470.683H119.723V475.031H115.373V470.683Z" fill="white"/>
<path opacity="0.32" d="M109.656 470.683H114.006V475.031H109.656V470.683Z" fill="white"/>
<path opacity="0.13" d="M103.814 470.683H108.164V475.031H103.814V470.683Z" fill="white"/>
<path opacity="0.38" d="M97.9722 470.683H102.322V475.031H97.9722V470.683Z" fill="white"/>
<path opacity="0.61" d="M92.2548 470.683H96.605V475.031H92.2548V470.683Z" fill="white"/>
<path d="M86.4131 470.683H90.7634V475.031H86.4131V470.683Z" fill="white"/>
<path opacity="0.91" d="M80.5715 470.683H84.9216V475.031H80.5715V470.683Z" fill="white"/>
<path opacity="0.66" d="M138.615 476.397H142.966V480.745H138.615V476.397Z" fill="white"/>
<path opacity="0.31" d="M132.898 476.397H137.248V480.745H132.898V476.397Z" fill="white"/>
<path opacity="0.95" d="M127.056 476.397H131.406V480.745H127.056V476.397Z" fill="white"/>
<path opacity="0.7" d="M121.215 476.397H125.565V480.745H121.215V476.397Z" fill="white"/>
<path opacity="0.12" d="M115.373 476.397H119.723V480.745H115.373V476.397Z" fill="white"/>
<path opacity="0.24" d="M109.656 476.397H114.006V480.745H109.656V476.397Z" fill="white"/>
<path opacity="0.66" d="M103.814 476.397H108.164V480.745H103.814V476.397Z" fill="white"/>
<path opacity="0.71" d="M97.9722 476.397H102.322V480.745H97.9722V476.397Z" fill="white"/>
<path opacity="0.42" d="M92.2548 476.397H96.605V480.745H92.2548V476.397Z" fill="white"/>
<path opacity="0.09" d="M86.4131 476.397H90.7634V480.745H86.4131V476.397Z" fill="white"/>
<path opacity="0.32" d="M80.5715 476.397H84.9216V480.745H80.5715V476.397Z" fill="white"/>
<path opacity="0.65" d="M138.615 482.111H142.966V486.459H138.615V482.111Z" fill="white"/>
<path d="M132.898 482.111H137.248V486.459H132.898V482.111Z" fill="white"/>
<path d="M127.056 482.111H131.406V486.459H127.056V482.111Z" fill="white"/>
<path opacity="0.71" d="M121.215 482.111H125.565V486.459H121.215V482.111Z" fill="white"/>
<path opacity="0.2" d="M115.373 482.111H119.723V486.459H115.373V482.111Z" fill="white"/>
<path opacity="0.19" d="M109.656 482.111H114.006V486.459H109.656V482.111Z" fill="white"/>
<path opacity="0.62" d="M103.814 482.111H108.164V486.459H103.814V482.111Z" fill="white"/>
<path opacity="0.93" d="M97.9722 482.111H102.322V486.459H97.9722V482.111Z" fill="white"/>
<path opacity="0.56" d="M92.2548 482.111H96.605V486.459H92.2548V482.111Z" fill="white"/>
<path opacity="0.57" d="M86.4131 482.111H90.7634V486.459H86.4131V482.111Z" fill="white"/>
<path opacity="0.52" d="M80.5715 482.111H84.9216V486.459H80.5715V482.111Z" fill="white"/>
<path opacity="0.74" d="M138.615 487.825H142.966V492.173H138.615V487.825Z" fill="white"/>
<path opacity="0.56" d="M132.898 487.825H137.248V492.173H132.898V487.825Z" fill="white"/>
<path opacity="0.78" d="M127.056 487.825H131.406V492.173H127.056V487.825Z" fill="white"/>
<path opacity="0.41" d="M121.215 487.825H125.565V492.173H121.215V487.825Z" fill="white"/>
<path opacity="0.14" d="M115.373 487.825H119.723V492.173H115.373V487.825Z" fill="white"/>
<path opacity="0.28" d="M109.656 487.825H114.006V492.173H109.656V487.825Z" fill="white"/>
<path opacity="0.36" d="M103.814 487.825H108.164V492.173H103.814V487.825Z" fill="white"/>
<path opacity="0.14" d="M97.9722 487.825H102.322V492.173H97.9722V487.825Z" fill="white"/>
<path opacity="0.5" d="M92.2548 487.825H96.605V492.173H92.2548V487.825Z" fill="white"/>
<path opacity="0.98" d="M86.4131 487.825H90.7634V492.173H86.4131V487.825Z" fill="white"/>
<path opacity="0.59" d="M80.5715 487.825H84.9216V492.173H80.5715V487.825Z" fill="white"/>
<path opacity="0.07" d="M138.615 493.54H142.966V497.888H138.615V493.54Z" fill="white"/>
<path opacity="0.1" d="M132.898 493.54H137.248V497.888H132.898V493.54Z" fill="white"/>
<path opacity="0.88" d="M127.056 493.54H131.406V497.888H127.056V493.54Z" fill="white"/>
<path opacity="0.68" d="M121.215 493.54H125.565V497.888H121.215V493.54Z" fill="white"/>
<path opacity="0.81" d="M115.373 493.54H119.723V497.888H115.373V493.54Z" fill="white"/>
<path opacity="0.62" d="M109.656 493.54H114.006V497.888H109.656V493.54Z" fill="white"/>
<path opacity="0.97" d="M103.814 493.54H108.164V497.888H103.814V493.54Z" fill="white"/>
<path opacity="0.81" d="M97.9722 493.54H102.322V497.888H97.9722V493.54Z" fill="white"/>
<path opacity="0.79" d="M92.2548 493.54H96.605V497.888H92.2548V493.54Z" fill="white"/>
<path opacity="0.03" d="M86.4131 493.54H90.7634V497.888H86.4131V493.54Z" fill="white"/>
<path opacity="0.95" d="M80.5715 493.54H84.9216V497.888H80.5715V493.54Z" fill="white"/>
<path opacity="0.62" d="M138.615 499.254H142.966V503.602H138.615V499.254Z" fill="white"/>
<path opacity="0.22" d="M132.898 499.254H137.248V503.602H132.898V499.254Z" fill="white"/>
<path opacity="0.42" d="M127.056 499.254H131.406V503.602H127.056V499.254Z" fill="white"/>
<path opacity="0.56" d="M121.215 499.254H125.565V503.602H121.215V499.254Z" fill="white"/>
<path opacity="0.03" d="M115.373 499.254H119.723V503.602H115.373V499.254Z" fill="white"/>
<path opacity="0.64" d="M109.656 499.254H114.006V503.602H109.656V499.254Z" fill="white"/>
<path opacity="0.82" d="M103.814 499.254H108.164V503.602H103.814V499.254Z" fill="white"/>
<path opacity="0.52" d="M97.9722 499.254H102.322V503.602H97.9722V499.254Z" fill="white"/>
<path opacity="0.46" d="M92.2548 499.254H96.605V503.602H92.2548V499.254Z" fill="white"/>
<path opacity="0.27" d="M86.4131 499.254H90.7634V503.602H86.4131V499.254Z" fill="white"/>
<path opacity="0.46" d="M80.5715 499.254H84.9216V503.602H80.5715V499.254Z" fill="white"/>
<path opacity="0.66" d="M138.615 505.092H142.966V509.44H138.615V505.092Z" fill="white"/>
<path opacity="0.7" d="M132.898 505.092H137.248V509.44H132.898V505.092Z" fill="white"/>
<path opacity="0.94" d="M127.056 505.092H131.406V509.44H127.056V505.092Z" fill="white"/>
<path opacity="0.5" d="M121.215 505.092H125.565V509.44H121.215V505.092Z" fill="white"/>
<path opacity="0.12" d="M115.373 505.092H119.723V509.44H115.373V505.092Z" fill="white"/>
<path opacity="0.36" d="M109.656 505.092H114.006V509.44H109.656V505.092Z" fill="white"/>
<path opacity="0.51" d="M103.814 505.092H108.164V509.44H103.814V505.092Z" fill="white"/>
<path opacity="0.37" d="M97.9722 505.092H102.322V509.44H97.9722V505.092Z" fill="white"/>
<path opacity="0.66" d="M92.2548 505.092H96.605V509.44H92.2548V505.092Z" fill="white"/>
<path opacity="0.42" d="M86.4131 505.092H90.7634V509.44H86.4131V505.092Z" fill="white"/>
<path opacity="0.5" d="M80.5715 505.092H84.9216V509.44H80.5715V505.092Z" fill="white"/>
<path opacity="0.52" d="M138.615 510.807H142.966V515.154H138.615V510.807Z" fill="white"/>
<path opacity="0.61" d="M132.898 510.807H137.248V515.154H132.898V510.807Z" fill="white"/>
<path opacity="0.84" d="M127.056 510.807H131.406V515.154H127.056V510.807Z" fill="white"/>
<path opacity="0.89" d="M121.215 510.807H125.565V515.154H121.215V510.807Z" fill="white"/>
<path opacity="0.33" d="M115.373 510.807H119.723V515.154H115.373V510.807Z" fill="white"/>
<path opacity="0.25" d="M109.656 510.807H114.006V515.154H109.656V510.807Z" fill="white"/>
<path opacity="0.95" d="M103.814 510.807H108.164V515.154H103.814V510.807Z" fill="white"/>
<path opacity="0.09" d="M97.9722 510.807H102.322V515.154H97.9722V510.807Z" fill="white"/>
<path opacity="0.44" d="M92.2548 510.807H96.605V515.154H92.2548V510.807Z" fill="white"/>
<path opacity="0.51" d="M86.4131 510.807H90.7634V515.154H86.4131V510.807Z" fill="white"/>
<path opacity="0.97" d="M80.5715 510.807H84.9216V515.154H80.5715V510.807Z" fill="white"/>
<path opacity="0.26" d="M138.615 516.521H142.966V520.869H138.615V516.521Z" fill="white"/>
<path opacity="0.92" d="M132.898 516.521H137.248V520.869H132.898V516.521Z" fill="white"/>
<path opacity="0.33" d="M127.056 516.521H131.406V520.869H127.056V516.521Z" fill="white"/>
<path opacity="0.23" d="M121.215 516.521H125.565V520.869H121.215V516.521Z" fill="white"/>
<path opacity="0.42" d="M115.373 516.521H119.723V520.869H115.373V516.521Z" fill="white"/>
<path opacity="0.57" d="M109.656 516.521H114.006V520.869H109.656V516.521Z" fill="white"/>
<path opacity="0.73" d="M103.814 516.521H108.164V520.869H103.814V516.521Z" fill="white"/>
<path opacity="0.87" d="M97.9722 516.521H102.322V520.869H97.9722V516.521Z" fill="white"/>
<path opacity="0.22" d="M92.2548 516.521H96.605V520.869H92.2548V516.521Z" fill="white"/>
<path opacity="0.89" d="M86.4131 516.521H90.7634V520.869H86.4131V516.521Z" fill="white"/>
<path opacity="0.73" d="M80.5715 516.521H84.9216V520.869H80.5715V516.521Z" fill="white"/>
<path opacity="0.35" d="M138.615 522.235H142.966V526.583H138.615V522.235Z" fill="white"/>
<path opacity="0.81" d="M132.898 522.235H137.248V526.583H132.898V522.235Z" fill="white"/>
<path opacity="0.56" d="M127.056 522.235H131.406V526.583H127.056V522.235Z" fill="white"/>
<path opacity="0.81" d="M121.215 522.235H125.565V526.583H121.215V522.235Z" fill="white"/>
<path opacity="0.87" d="M115.373 522.235H119.723V526.583H115.373V522.235Z" fill="white"/>
<path opacity="0.39" d="M109.656 522.235H114.006V526.583H109.656V522.235Z" fill="white"/>
<path opacity="0.31" d="M103.814 522.235H108.164V526.583H103.814V522.235Z" fill="white"/>
<path opacity="0.98" d="M97.9722 522.235H102.322V526.583H97.9722V522.235Z" fill="white"/>
<path opacity="0.17" d="M92.2548 522.235H96.605V526.583H92.2548V522.235Z" fill="white"/>
<path opacity="0.06" d="M86.4131 522.235H90.7634V526.583H86.4131V522.235Z" fill="white"/>
<path opacity="0.57" d="M80.5715 522.235H84.9216V526.583H80.5715V522.235Z" fill="white"/>
<path opacity="0.67" d="M138.615 527.949H142.966V532.297H138.615V527.949Z" fill="white"/>
<path opacity="0.83" d="M132.898 527.949H137.248V532.297H132.898V527.949Z" fill="white"/>
<path opacity="0.99" d="M127.056 527.949H131.406V532.297H127.056V527.949Z" fill="white"/>
<path opacity="0.62" d="M121.215 527.949H125.565V532.297H121.215V527.949Z" fill="white"/>
<path opacity="0.87" d="M115.373 527.949H119.723V532.297H115.373V527.949Z" fill="white"/>
<path opacity="0.14" d="M109.656 527.949H114.006V532.297H109.656V527.949Z" fill="white"/>
<path opacity="0.12" d="M103.814 527.949H108.164V532.297H103.814V527.949Z" fill="white"/>
<path opacity="0.11" d="M97.9722 527.949H102.322V532.297H97.9722V527.949Z" fill="white"/>
<path opacity="0.39" d="M92.2548 527.949H96.605V532.297H92.2548V527.949Z" fill="white"/>
<path opacity="0.58" d="M86.4131 527.949H90.7634V532.297H86.4131V527.949Z" fill="white"/>
<path opacity="0.54" d="M80.5715 527.949H84.9216V532.297H80.5715V527.949Z" fill="white"/>
<path opacity="0.99" d="M138.615 533.664H142.966V538.011H138.615V533.664Z" fill="white"/>
<path opacity="0.28" d="M132.898 533.664H137.248V538.011H132.898V533.664Z" fill="white"/>
<path opacity="0.78" d="M127.056 533.664H131.406V538.011H127.056V533.664Z" fill="white"/>
<path opacity="0.65" d="M121.215 533.664H125.565V538.011H121.215V533.664Z" fill="white"/>
<path opacity="0.32" d="M115.373 533.664H119.723V538.011H115.373V533.664Z" fill="white"/>
<path opacity="0.55" d="M109.656 533.664H114.006V538.011H109.656V533.664Z" fill="white"/>
<path opacity="0.4" d="M103.814 533.664H108.164V538.011H103.814V533.664Z" fill="white"/>
<path opacity="0.22" d="M97.9722 533.664H102.322V538.011H97.9722V533.664Z" fill="white"/>
<path opacity="0.87" d="M92.2548 533.664H96.605V538.011H92.2548V533.664Z" fill="white"/>
<path opacity="0.02" d="M86.4131 533.664H90.7634V538.011H86.4131V533.664Z" fill="white"/>
<path opacity="0.39" d="M80.5715 533.664H84.9216V538.011H80.5715V533.664Z" fill="white"/>
<path opacity="0.89" d="M138.615 539.378H142.966V543.725H138.615V539.378Z" fill="white"/>
<path opacity="0.97" d="M132.898 539.378H137.248V543.725H132.898V539.378Z" fill="white"/>
<path opacity="0.79" d="M127.056 539.378H131.406V543.725H127.056V539.378Z" fill="white"/>
<path opacity="0.41" d="M121.215 539.378H125.565V543.725H121.215V539.378Z" fill="white"/>
<path opacity="0.13" d="M115.373 539.378H119.723V543.725H115.373V539.378Z" fill="white"/>
<path opacity="0.9" d="M109.656 539.378H114.006V543.725H109.656V539.378Z" fill="white"/>
<path opacity="0.98" d="M103.814 539.378H108.164V543.725H103.814V539.378Z" fill="white"/>
<path opacity="0.67" d="M97.9722 539.378H102.322V543.725H97.9722V539.378Z" fill="white"/>
<path opacity="0.65" d="M92.2548 539.378H96.605V543.725H92.2548V539.378Z" fill="white"/>
<path opacity="0.89" d="M86.4131 539.378H90.7634V543.725H86.4131V539.378Z" fill="white"/>
<path opacity="0.98" d="M80.5715 539.378H84.9216V543.725H80.5715V539.378Z" fill="white"/>
<path opacity="0.29" d="M138.615 545.092H142.966V549.44H138.615V545.092Z" fill="white"/>
<path opacity="0.74" d="M132.898 545.092H137.248V549.44H132.898V545.092Z" fill="white"/>
<path opacity="0.64" d="M127.056 545.092H131.406V549.44H127.056V545.092Z" fill="white"/>
<path opacity="0.65" d="M121.215 545.092H125.565V549.44H121.215V545.092Z" fill="white"/>
<path opacity="0.07" d="M115.373 545.092H119.723V549.44H115.373V545.092Z" fill="white"/>
<path opacity="0.16" d="M109.656 545.092H114.006V549.44H109.656V545.092Z" fill="white"/>
<path opacity="0.84" d="M103.814 545.092H108.164V549.44H103.814V545.092Z" fill="white"/>
<path opacity="0.88" d="M97.9722 545.092H102.322V549.44H97.9722V545.092Z" fill="white"/>
<path opacity="0.57" d="M92.2548 545.092H96.605V549.44H92.2548V545.092Z" fill="white"/>
<path opacity="0.31" d="M86.4131 545.092H90.7634V549.44H86.4131V545.092Z" fill="white"/>
<path opacity="0.03" d="M80.5715 545.092H84.9216V549.44H80.5715V545.092Z" fill="white"/>
<path opacity="0.3" d="M138.615 550.806H142.966V555.154H138.615V550.806Z" fill="white"/>
<path opacity="0.59" d="M132.898 550.806H137.248V555.154H132.898V550.806Z" fill="white"/>
<path opacity="0.93" d="M127.056 550.806H131.406V555.154H127.056V550.806Z" fill="white"/>
<path opacity="0.06" d="M121.215 550.806H125.565V555.154H121.215V550.806Z" fill="white"/>
<path opacity="0.74" d="M115.373 550.806H119.723V555.154H115.373V550.806Z" fill="white"/>
<path opacity="0.22" d="M109.656 550.806H114.006V555.154H109.656V550.806Z" fill="white"/>
<path opacity="0.51" d="M103.814 550.806H108.164V555.154H103.814V550.806Z" fill="white"/>
<path opacity="0.7" d="M97.9722 550.806H102.322V555.154H97.9722V550.806Z" fill="white"/>
<path opacity="0.47" d="M92.2548 550.806H96.605V555.154H92.2548V550.806Z" fill="white"/>
<path opacity="0.08" d="M86.4131 550.806H90.7634V555.154H86.4131V550.806Z" fill="white"/>
<path opacity="0.93" d="M80.5715 550.806H84.9216V555.154H80.5715V550.806Z" fill="white"/>
<path opacity="0.81" d="M138.615 556.521H142.966V560.868H138.615V556.521Z" fill="white"/>
<path opacity="0.9" d="M132.898 556.521H137.248V560.868H132.898V556.521Z" fill="white"/>
<path opacity="0.55" d="M127.056 556.521H131.406V560.868H127.056V556.521Z" fill="white"/>
<path opacity="0.14" d="M121.215 556.521H125.565V560.868H121.215V556.521Z" fill="white"/>
<path opacity="0.66" d="M115.373 556.521H119.723V560.868H115.373V556.521Z" fill="white"/>
<path opacity="0.92" d="M109.656 556.521H114.006V560.868H109.656V556.521Z" fill="white"/>
<path opacity="0.4" d="M103.814 556.521H108.164V560.868H103.814V556.521Z" fill="white"/>
<path opacity="0.6" d="M97.9722 556.521H102.322V560.868H97.9722V556.521Z" fill="white"/>
<path opacity="0.99" d="M92.2548 556.521H96.605V560.868H92.2548V556.521Z" fill="white"/>
<path opacity="0.68" d="M86.4131 556.521H90.7634V560.868H86.4131V556.521Z" fill="white"/>
<path opacity="0.01" d="M80.5715 556.521H84.9216V560.868H80.5715V556.521Z" fill="white"/>
<path d="M212.072 442.733H253.088V571.178H212.072V442.733Z" fill="#333333"/>
<path d="M234.444 436.273H253.088V443.478H234.444V436.273Z" fill="#333333"/>
<path d="M242.274 432.05H253.088V436.273H242.274V432.05Z" fill="#333333"/>
<path opacity="0.25" d="M229.348 451.801H236.06V458.509H229.348V451.801Z" fill="white"/>
<path opacity="0.15" d="M229.348 468.322H236.06V475.03H229.348V468.322Z" fill="white"/>
<path opacity="0.19" d="M229.348 501.241H236.06V507.949H229.348V501.241Z" fill="white"/>
<path opacity="0.17" d="M229.348 517.638H236.06V524.346H229.348V517.638Z" fill="white"/>
<path opacity="0.22" d="M229.348 534.036H236.06V540.744H229.348V534.036Z" fill="white"/>
<path d="M229.348 550.557H236.06V557.265H229.348V550.557Z" fill="white"/>
<path d="M242.523 514.285H280.929V525.589H242.523V514.285Z" fill="#333333"/>
<path d="M223.382 514.285H242.523V525.589H223.382V514.285Z" fill="#4D4D4D"/>
<path d="M280.929 514.285L268.997 508.571L242.523 514.285H280.929Z" fill="#333333"/>
<path d="M268.997 508.571L242.523 514.285H223.382L268.997 508.571Z" fill="#4D4D4D"/>
<path d="M233.574 522.235H289.754V573.663H233.574V522.235Z" fill="#333333"/>
<path d="M214.93 522.235H233.574V573.663H214.93V522.235Z" fill="#4D4D4D"/>
<path opacity="0.81" d="M219.28 525.837H229.348V529.564H219.28V525.837Z" fill="white"/>
<path opacity="0.76" d="M219.28 532.67H229.348V536.396H219.28V532.67Z" fill="white"/>
<path opacity="0.32" d="M219.28 539.502H229.348V543.228H219.28V539.502Z" fill="white"/>
<path opacity="0.49" d="M219.28 546.458H229.348V550.185H219.28V546.458Z" fill="white"/>
<path opacity="0.1" d="M270.737 525.837H280.805V529.564H270.737V525.837Z" fill="white"/>
<path opacity="0.04" d="M256.692 525.837H266.76V529.564H256.692V525.837Z" fill="white"/>
<path opacity="0.07" d="M242.523 525.837H252.59V529.564H242.523V525.837Z" fill="white"/>
<path opacity="0.06" d="M270.737 532.67H280.805V536.396H270.737V532.67Z" fill="white"/>
<path opacity="0.44" d="M256.692 532.67H266.76V536.396H256.692V532.67Z" fill="white"/>
<path opacity="0.24" d="M242.523 532.67H252.59V536.396H242.523V532.67Z" fill="white"/>
<path opacity="0.55" d="M270.737 539.502H280.805V543.228H270.737V539.502Z" fill="white"/>
<path opacity="0.02" d="M256.692 539.502H266.76V543.228H256.692V539.502Z" fill="white"/>
<path opacity="0.14" d="M242.523 539.502H252.59V543.228H242.523V539.502Z" fill="white"/>
<path opacity="0.43" d="M270.737 546.458H280.805V550.185H270.737V546.458Z" fill="white"/>
<path opacity="0.41" d="M256.692 546.458H266.76V550.185H256.692V546.458Z" fill="white"/>
<path opacity="0.46" d="M242.523 546.458H252.59V550.185H242.523V546.458Z" fill="white"/>
<path opacity="0.45" d="M270.737 553.291H280.805V557.017H270.737V553.291Z" fill="white"/>
<path opacity="0.33" d="M256.692 553.291H266.76V557.017H256.692V553.291Z" fill="white"/>
<path opacity="0.05" d="M242.523 553.291H252.59V557.017H242.523V553.291Z" fill="white"/>
<path d="M506.89 470.807H541.692V578.011H506.89V470.807Z" fill="#333333"/>
<path d="M467.241 470.807H506.766V578.011H467.241V470.807Z" fill="#4D4D4D"/>
<path d="M506.89 479.875H541.692V481.739H506.89V479.875Z" fill="#4D4D4D"/>
<path d="M467.241 479.875H506.766V481.739H467.241V479.875Z" fill="#333333"/>
<path opacity="0.47" d="M535.104 483.85H538.833V487.577H535.104V483.85Z" fill="white"/>
<path opacity="0.26" d="M530.008 483.85H533.737V487.577H530.008V483.85Z" fill="white"/>
<path opacity="0.32" d="M524.912 483.85H528.641V487.577H524.912V483.85Z" fill="white"/>
<path opacity="0.25" d="M519.816 483.85H523.545V487.577H519.816V483.85Z" fill="white"/>
<path opacity="0.12" d="M509.625 483.85H513.353V487.577H509.625V483.85Z" fill="white"/>
<path opacity="0.32" d="M535.104 488.943H538.833V492.67H535.104V488.943Z" fill="white"/>
<path opacity="0.22" d="M524.912 488.943H528.641V492.67H524.912V488.943Z" fill="white"/>
<path opacity="0.47" d="M519.816 488.943H523.545V492.67H519.816V488.943Z" fill="white"/>
<path opacity="0.22" d="M514.72 488.943H518.449V492.67H514.72V488.943Z" fill="white"/>
<path opacity="0.32" d="M509.625 488.943H513.353V492.67H509.625V488.943Z" fill="white"/>
<path opacity="0.37" d="M535.104 494.037H538.833V497.763H535.104V494.037Z" fill="white"/>
<path opacity="0.34" d="M530.008 494.037H533.737V497.763H530.008V494.037Z" fill="white"/>
<path opacity="0.18" d="M524.912 494.037H528.641V497.763H524.912V494.037Z" fill="white"/>
<path opacity="0.28" d="M519.816 494.037H523.545V497.763H519.816V494.037Z" fill="white"/>
<path opacity="0.2" d="M509.625 494.037H513.353V497.763H509.625V494.037Z" fill="white"/>
<path opacity="0.18" d="M535.104 499.13H538.833V502.856H535.104V499.13Z" fill="white"/>
<path opacity="0.33" d="M524.912 499.13H528.641V502.856H524.912V499.13Z" fill="white"/>
<path opacity="0.05" d="M519.816 499.13H523.545V502.856H519.816V499.13Z" fill="white"/>
<path opacity="0.08" d="M514.72 499.13H518.449V502.856H514.72V499.13Z" fill="white"/>
<path opacity="0.08" d="M519.816 504.223H523.545V507.949H519.816V504.223Z" fill="white"/>
<path opacity="0.02" d="M514.72 504.223H518.449V507.949H514.72V504.223Z" fill="white"/>
<path opacity="0.03" d="M535.104 509.316H538.833V513.043H535.104V509.316Z" fill="white"/>
<path opacity="0.46" d="M530.008 509.316H533.737V513.043H530.008V509.316Z" fill="white"/>
<path opacity="0.05" d="M524.912 509.316H528.641V513.043H524.912V509.316Z" fill="white"/>
<path opacity="0.2" d="M519.816 509.316H523.545V513.043H519.816V509.316Z" fill="white"/>
<path opacity="0.23" d="M514.72 509.316H518.449V513.043H514.72V509.316Z" fill="white"/>
<path opacity="0.17" d="M535.104 514.409H538.833V518.136H535.104V514.409Z" fill="white"/>
<path opacity="0.08" d="M530.008 514.409H533.737V518.136H530.008V514.409Z" fill="white"/>
<path opacity="0.14" d="M524.912 514.409H528.641V518.136H524.912V514.409Z" fill="white"/>
<path opacity="0.24" d="M514.72 514.409H518.449V518.136H514.72V514.409Z" fill="white"/>
<path opacity="0.28" d="M535.104 519.502H538.833V523.229H535.104V519.502Z" fill="white"/>
<path opacity="0.3" d="M530.008 519.502H533.737V523.229H530.008V519.502Z" fill="white"/>
<path opacity="0.23" d="M524.912 519.502H528.641V523.229H524.912V519.502Z" fill="white"/>
<path opacity="0.02" d="M519.816 519.502H523.545V523.229H519.816V519.502Z" fill="white"/>
<path opacity="0.04" d="M514.72 519.502H518.449V523.229H514.72V519.502Z" fill="white"/>
<path opacity="0.3" d="M509.625 519.502H513.353V523.229H509.625V519.502Z" fill="white"/>
<path opacity="0.08" d="M530.008 524.471H533.737V528.198H530.008V524.471Z" fill="white"/>
<path opacity="0.4" d="M509.625 524.471H513.353V528.198H509.625V524.471Z" fill="white"/>
<path opacity="0.31" d="M535.104 529.564H538.833V533.291H535.104V529.564Z" fill="white"/>
<path opacity="0.31" d="M530.008 529.564H533.737V533.291H530.008V529.564Z" fill="white"/>
<path opacity="0.12" d="M524.912 529.564H528.641V533.291H524.912V529.564Z" fill="white"/>
<path opacity="0.19" d="M514.72 529.564H518.449V533.291H514.72V529.564Z" fill="white"/>
<path opacity="0.43" d="M509.625 529.564H513.353V533.291H509.625V529.564Z" fill="white"/>
<path opacity="0.12" d="M535.104 534.657H538.833V538.384H535.104V534.657Z" fill="white"/>
<path opacity="0.42" d="M519.816 534.657H523.545V538.384H519.816V534.657Z" fill="white"/>
<path opacity="0.31" d="M509.625 534.657H513.353V538.384H509.625V534.657Z" fill="white"/>
<path opacity="0.23" d="M535.104 539.75H538.833V543.477H535.104V539.75Z" fill="white"/>
<path opacity="0.31" d="M519.816 539.75H523.545V543.477H519.816V539.75Z" fill="white"/>
<path opacity="0.33" d="M509.625 539.75H513.353V543.477H509.625V539.75Z" fill="white"/>
<path opacity="0.49" d="M535.104 544.844H538.833V548.57H535.104V544.844Z" fill="white"/>
<path opacity="0.06" d="M530.008 544.844H533.737V548.57H530.008V544.844Z" fill="white"/>
<path opacity="0.17" d="M519.816 544.844H523.545V548.57H519.816V544.844Z" fill="white"/>
<path opacity="0.01" d="M514.72 544.844H518.449V548.57H514.72V544.844Z" fill="white"/>
<path opacity="0.48" d="M509.625 544.844H513.353V548.57H509.625V544.844Z" fill="white"/>
<path opacity="0.05" d="M535.104 549.937H538.833V553.663H535.104V549.937Z" fill="white"/>
<path opacity="0.23" d="M530.008 549.937H533.737V553.663H530.008V549.937Z" fill="white"/>
<path opacity="0.28" d="M524.912 549.937H528.641V553.663H524.912V549.937Z" fill="white"/>
<path opacity="0.02" d="M519.816 549.937H523.545V553.663H519.816V549.937Z" fill="white"/>
<path opacity="0.17" d="M514.72 549.937H518.449V553.663H514.72V549.937Z" fill="white"/>
<path opacity="0.42" d="M509.625 549.937H513.353V553.663H509.625V549.937Z" fill="white"/>
<path opacity="0.13" d="M535.104 555.03H538.833V558.756H535.104V555.03Z" fill="white"/>
<path opacity="0.11" d="M524.912 555.03H528.641V558.756H524.912V555.03Z" fill="white"/>
<path opacity="0.02" d="M519.816 555.03H523.545V558.756H519.816V555.03Z" fill="white"/>
<path opacity="0.3" d="M509.625 555.03H513.353V558.756H509.625V555.03Z" fill="white"/>
<path opacity="0.08" d="M514.72 483.85H518.449V487.577H514.72V483.85Z" fill="white"/>
<path opacity="0.1" d="M530.008 488.943H533.737V492.67H530.008V488.943Z" fill="white"/>
<path opacity="0.08" d="M514.72 494.037H518.449V497.763H514.72V494.037Z" fill="white"/>
<path opacity="0.1" d="M530.008 499.13H533.737V502.856H530.008V499.13Z" fill="white"/>
<path opacity="0.01" d="M509.625 499.13H513.353V502.856H509.625V499.13Z" fill="white"/>
<path opacity="0.17" d="M535.104 504.223H538.833V507.949H535.104V504.223Z" fill="white"/>
<path opacity="0.01" d="M530.008 504.223H533.737V507.949H530.008V504.223Z" fill="white"/>
<path opacity="0.15" d="M524.912 504.223H528.641V507.949H524.912V504.223Z" fill="white"/>
<path opacity="0.12" d="M509.625 504.223H513.353V507.949H509.625V504.223Z" fill="white"/>
<path opacity="0.13" d="M519.816 514.409H523.545V518.136H519.816V514.409Z" fill="white"/>
<path opacity="0.07" d="M509.625 514.409H513.353V518.136H509.625V514.409Z" fill="white"/>
<path opacity="0.13" d="M535.104 524.471H538.833V528.198H535.104V524.471Z" fill="white"/>
<path opacity="0.02" d="M524.912 524.471H528.641V528.198H524.912V524.471Z" fill="white"/>
<path opacity="0.02" d="M519.816 524.471H523.545V528.198H519.816V524.471Z" fill="white"/>
<path opacity="0.14" d="M514.72 524.471H518.449V528.198H514.72V524.471Z" fill="white"/>
<path opacity="0.09" d="M524.912 534.657H528.641V538.384H524.912V534.657Z" fill="white"/>
<path opacity="0.02" d="M514.72 534.657H518.449V538.384H514.72V534.657Z" fill="white"/>
<path opacity="0.19" d="M524.912 539.75H528.641V543.477H524.912V539.75Z" fill="white"/>
<path opacity="0.06" d="M514.72 539.75H518.449V543.477H514.72V539.75Z" fill="white"/>
<path opacity="0.16" d="M524.912 544.844H528.641V548.57H524.912V544.844Z" fill="white"/>
<path opacity="0.19" d="M530.008 555.03H533.737V558.756H530.008V555.03Z" fill="white"/>
<path opacity="0.04" d="M514.72 555.03H518.449V558.756H514.72V555.03Z" fill="white"/>
<g opacity="0.7">
<path opacity="0.7" d="M499.308 481.739H503.161V573.29H499.308V481.739Z" fill="#E6E6E6"/>
<path opacity="0.7" d="M492.721 481.739H496.574V573.29H492.721V481.739Z" fill="#E6E6E6"/>
<path opacity="0.7" d="M486.009 481.739H489.862V573.29H486.009V481.739Z" fill="#E6E6E6"/>
<path opacity="0.7" d="M479.298 481.739H483.151V573.29H479.298V481.739Z" fill="#E6E6E6"/>
<path opacity="0.7" d="M472.586 481.739H476.439V573.29H472.586V481.739Z" fill="#E6E6E6"/>
</g>
<path d="M584.448 418.261L592.154 397.888L571.522 418.261H584.448Z" fill="#4D4D4D"/>
<path d="M602.47 418.261L592.154 397.888L584.448 418.261H602.47Z" fill="#333333"/>
<path d="M584.448 418.261H602.47V440H584.448V418.261Z" fill="#333333"/>
<path d="M571.522 418.261H584.448V440H571.522V418.261Z" fill="#4D4D4D"/>
<path d="M566.177 516.024H620.741V578.508H566.177V516.024Z" fill="#333333"/>
<path d="M573.635 471.304H613.159V516.024H573.635V471.304Z" fill="#333333"/>
<path d="M579.352 426.584H607.442V471.304H579.352V426.584Z" fill="#333333"/>
<path d="M560.087 426.584H579.476V471.304H560.087V426.584Z" fill="#4D4D4D"/>
<path d="M532.619 516.024H566.177V578.508H532.619V516.024Z" fill="#4D4D4D"/>
<path d="M548.155 471.304H573.635V516.024H548.155V471.304Z" fill="#4D4D4D"/>
<path opacity="0.53" d="M566.799 429.813H572.64V435.652H566.799V429.813Z" fill="white"/>
<path opacity="0.34" d="M566.799 437.143H572.64V442.981H566.799V437.143Z" fill="white"/>
<path opacity="0.9" d="M566.799 444.347H572.64V450.186H566.799V444.347Z" fill="white"/>
<path opacity="0.14" d="M566.799 451.552H572.64V457.391H566.799V451.552Z" fill="white"/>
<path d="M566.799 458.881H572.64V464.72H566.799V458.881Z" fill="white"/>
<path opacity="0.29" d="M562.448 475.155H568.29V480.993H562.448V475.155Z" fill="white"/>
<path opacity="0.81" d="M553.499 475.155H559.341V480.993H553.499V475.155Z" fill="white"/>
<path opacity="0.18" d="M562.448 482.484H568.29V488.322H562.448V482.484Z" fill="white"/>
<path opacity="0.41" d="M553.499 482.484H559.341V488.322H553.499V482.484Z" fill="white"/>
<path opacity="0.03" d="M553.499 489.937H559.341V495.775H553.499V489.937Z" fill="white"/>
<path opacity="0.85" d="M562.448 497.39H568.29V503.229H562.448V497.39Z" fill="white"/>
<path opacity="0.06" d="M553.499 497.39H559.341V503.229H553.499V497.39Z" fill="white"/>
<path opacity="0.94" d="M562.448 504.719H568.29V510.558H562.448V504.719Z" fill="white"/>
<path opacity="0.25" d="M553.499 504.719H559.341V510.558H553.499V504.719Z" fill="white"/>
<path opacity="0.6" d="M554.245 519.875H560.087V525.713H554.245V519.875Z" fill="white"/>
<path opacity="0.83" d="M546.415 519.875H552.256V525.713H546.415V519.875Z" fill="white"/>
<path opacity="0.74" d="M538.585 519.875H544.426V525.713H538.585V519.875Z" fill="white"/>
<path opacity="0.35" d="M546.415 526.955H552.256V532.794H546.415V526.955Z" fill="white"/>
<path opacity="0.54" d="M538.585 526.955H544.426V532.794H538.585V526.955Z" fill="white"/>
<path opacity="0.2" d="M554.245 534.036H560.087V539.874H554.245V534.036Z" fill="white"/>
<path opacity="0.04" d="M546.415 534.036H552.256V539.874H546.415V534.036Z" fill="white"/>
<path opacity="0.86" d="M538.585 534.036H544.426V539.874H538.585V534.036Z" fill="white"/>
<path opacity="0.06" d="M554.245 541.117H560.087V546.955H554.245V541.117Z" fill="white"/>
<path opacity="0.01" d="M546.415 541.117H552.256V546.955H546.415V541.117Z" fill="white"/>
<path opacity="0.39" d="M538.585 541.117H544.426V546.955H538.585V541.117Z" fill="white"/>
<path opacity="0.1" d="M554.245 548.322H560.087V554.16H554.245V548.322Z" fill="white"/>
<path d="M546.415 548.322H552.256V554.16H546.415V548.322Z" fill="white"/>
<path opacity="0.62" d="M538.585 548.322H544.426V554.16H538.585V548.322Z" fill="white"/>
<path opacity="0.48" d="M554.245 555.651H560.087V561.489H554.245V555.651Z" fill="white"/>
<path opacity="0.27" d="M546.415 555.651H552.256V561.489H546.415V555.651Z" fill="white"/>
<path opacity="0.42" d="M538.585 555.651H544.426V561.489H538.585V555.651Z" fill="white"/>
<path opacity="0.27" d="M609.058 519.875H614.899V525.713H609.058V519.875Z" fill="white"/>
<path opacity="0.11" d="M602.47 475.155H608.312V480.993H602.47V475.155Z" fill="white"/>
<path opacity="0.41" d="M597.871 429.813H603.713V435.652H597.871V429.813Z" fill="white"/>
<path opacity="0.38" d="M590.538 429.813H596.38V435.652H590.538V429.813Z" fill="white"/>
<path opacity="0.02" d="M583.081 429.813H588.922V435.652H583.081V429.813Z" fill="white"/>
<path opacity="0.46" d="M597.871 437.143H603.713V442.981H597.871V437.143Z" fill="white"/>
<path opacity="0.31" d="M590.538 437.143H596.38V442.981H590.538V437.143Z" fill="white"/>
<path opacity="0.61" d="M583.081 437.143H588.922V442.981H583.081V437.143Z" fill="white"/>
<path opacity="0.03" d="M597.871 444.347H603.713V450.186H597.871V444.347Z" fill="white"/>
<path opacity="0.03" d="M590.538 444.347H596.38V450.186H590.538V444.347Z" fill="white"/>
<path opacity="0.46" d="M583.081 444.347H588.922V450.186H583.081V444.347Z" fill="white"/>
<path opacity="0.32" d="M597.871 451.552H603.713V457.391H597.871V451.552Z" fill="white"/>
<path opacity="0.14" d="M590.538 451.552H596.38V457.391H590.538V451.552Z" fill="white"/>
<path opacity="0.3" d="M583.081 451.552H588.922V457.391H583.081V451.552Z" fill="white"/>
<path opacity="0.04" d="M597.871 458.881H603.713V464.72H597.871V458.881Z" fill="white"/>
<path opacity="0.64" d="M590.538 458.881H596.38V464.72H590.538V458.881Z" fill="white"/>
<path opacity="0.05" d="M583.081 458.881H588.922V464.72H583.081V458.881Z" fill="white"/>
<path opacity="0.15" d="M595.013 475.155H600.854V480.993H595.013V475.155Z" fill="white"/>
<path opacity="0.15" d="M587.555 475.155H593.397V480.993H587.555V475.155Z" fill="white"/>
<path opacity="0.52" d="M580.222 475.155H586.064V480.993H580.222V475.155Z" fill="white"/>
<path opacity="0.58" d="M602.47 482.484H608.312V488.322H602.47V482.484Z" fill="white"/>
<path opacity="0.62" d="M595.013 482.484H600.854V488.322H595.013V482.484Z" fill="white"/>
<path opacity="0.04" d="M587.555 482.484H593.397V488.322H587.555V482.484Z" fill="white"/>
<path opacity="0.06" d="M580.222 482.484H586.064V488.322H580.222V482.484Z" fill="white"/>
<path opacity="0.3" d="M602.47 489.937H608.312V495.775H602.47V489.937Z" fill="white"/>
<path opacity="0.01" d="M595.013 489.937H600.854V495.775H595.013V489.937Z" fill="white"/>
<path opacity="0.37" d="M587.555 489.937H593.397V495.775H587.555V489.937Z" fill="white"/>
<path opacity="0.62" d="M580.222 489.937H586.064V495.775H580.222V489.937Z" fill="white"/>
<path opacity="0.54" d="M602.47 497.39H608.312V503.229H602.47V497.39Z" fill="white"/>
<path opacity="0.21" d="M595.013 497.39H600.854V503.229H595.013V497.39Z" fill="white"/>
<path opacity="0.41" d="M587.555 497.39H593.397V503.229H587.555V497.39Z" fill="white"/>
<path opacity="0.1" d="M580.222 497.39H586.064V503.229H580.222V497.39Z" fill="white"/>
<path opacity="0.17" d="M602.47 504.719H608.312V510.558H602.47V504.719Z" fill="white"/>
<path opacity="0.17" d="M595.013 504.719H600.854V510.558H595.013V504.719Z" fill="white"/>
<path opacity="0.13" d="M587.555 504.719H593.397V510.558H587.555V504.719Z" fill="white"/>
<path opacity="0.5" d="M580.222 504.719H586.064V510.558H580.222V504.719Z" fill="white"/>
<path opacity="0.06" d="M601.6 519.875H607.442V525.713H601.6V519.875Z" fill="white"/>
<path opacity="0.27" d="M594.267 519.875H600.109V525.713H594.267V519.875Z" fill="white"/>
<path opacity="0.51" d="M586.809 519.875H592.651V525.713H586.809V519.875Z" fill="white"/>
<path opacity="0.42" d="M579.352 519.875H585.194V525.713H579.352V519.875Z" fill="white"/>
<path opacity="0.64" d="M572.019 519.875H577.861V525.713H572.019V519.875Z" fill="white"/>
<path opacity="0.29" d="M609.058 526.955H614.899V532.794H609.058V526.955Z" fill="white"/>
<path opacity="0.6" d="M601.6 526.955H607.442V532.794H601.6V526.955Z" fill="white"/>
<path opacity="0.2" d="M594.267 526.955H600.109V532.794H594.267V526.955Z" fill="white"/>
<path opacity="0.24" d="M586.809 526.955H592.651V532.794H586.809V526.955Z" fill="white"/>
<path opacity="0.62" d="M579.352 526.955H585.194V532.794H579.352V526.955Z" fill="white"/>
<path opacity="0.62" d="M572.019 526.955H577.861V532.794H572.019V526.955Z" fill="white"/>
<path opacity="0.25" d="M609.058 534.036H614.899V539.874H609.058V534.036Z" fill="white"/>
<path opacity="0.36" d="M601.6 534.036H607.442V539.874H601.6V534.036Z" fill="white"/>
<path opacity="0.16" d="M594.267 534.036H600.109V539.874H594.267V534.036Z" fill="white"/>
<path opacity="0.1" d="M586.809 534.036H592.651V539.874H586.809V534.036Z" fill="white"/>
<path opacity="0.04" d="M579.352 534.036H585.194V539.874H579.352V534.036Z" fill="white"/>
<path opacity="0.44" d="M572.019 534.036H577.861V539.874H572.019V534.036Z" fill="white"/>
<path opacity="0.68" d="M609.058 541.117H614.899V546.955H609.058V541.117Z" fill="white"/>
<path opacity="0.01" d="M601.6 541.117H607.442V546.955H601.6V541.117Z" fill="white"/>
<path opacity="0.29" d="M594.267 541.117H600.109V546.955H594.267V541.117Z" fill="white"/>
<path opacity="0.66" d="M586.809 541.117H592.651V546.955H586.809V541.117Z" fill="white"/>
<path opacity="0.12" d="M579.352 541.117H585.194V546.955H579.352V541.117Z" fill="white"/>
<path opacity="0.34" d="M572.019 541.117H577.861V546.955H572.019V541.117Z" fill="white"/>
<path opacity="0.36" d="M609.058 548.322H614.899V554.16H609.058V548.322Z" fill="white"/>
<path opacity="0.5" d="M601.6 548.322H607.442V554.16H601.6V548.322Z" fill="white"/>
<path opacity="0.07" d="M594.267 548.322H600.109V554.16H594.267V548.322Z" fill="white"/>
<path opacity="0.64" d="M586.809 548.322H592.651V554.16H586.809V548.322Z" fill="white"/>
<path opacity="0.4" d="M579.352 548.322H585.194V554.16H579.352V548.322Z" fill="white"/>
<path opacity="0.27" d="M572.019 548.322H577.861V554.16H572.019V548.322Z" fill="white"/>
<path opacity="0.09" d="M609.058 555.651H614.899V561.489H609.058V555.651Z" fill="white"/>
<path opacity="0.47" d="M601.6 555.651H607.442V561.489H601.6V555.651Z" fill="white"/>
<path opacity="0.57" d="M594.267 555.651H600.109V561.489H594.267V555.651Z" fill="white"/>
<path opacity="0.12" d="M586.809 555.651H592.651V561.489H586.809V555.651Z" fill="white"/>
<path opacity="0.23" d="M579.352 555.651H585.194V561.489H579.352V555.651Z" fill="white"/>
<path opacity="0.36" d="M572.019 555.651H577.861V561.489H572.019V555.651Z" fill="white"/>
<path d="M447.355 573.29H524.664L447.355 505.962V573.29Z" fill="#333333"/>
<path d="M613.159 574.657H720.298L613.159 481.49V574.657Z" fill="#333333"/>
<path d="M455.931 557.887H478.552V564.843H455.931V557.887Z" fill="#4D4D4D"/>
<path d="M458.541 559.998H476.066L469.976 549.812H464.631L458.541 559.998Z" fill="#4D4D4D"/>
<path d="M552.629 567.7C552.629 572.545 556.482 576.52 561.205 576.52C565.929 576.52 569.782 572.545 569.782 567.7C569.782 562.855 565.929 558.88 561.205 558.88C556.482 558.756 552.629 562.731 552.629 567.7Z" fill="#333333"/>
<path d="M321.821 563.849C321.821 567.079 324.431 569.812 327.538 569.812C330.645 569.812 333.255 567.203 333.255 563.849C333.255 560.62 330.645 557.887 327.538 557.887C324.431 557.887 321.821 560.62 321.821 563.849Z" fill="#333333"/>
<path d="M522.054 564.222C522.054 567.576 524.664 570.309 528.02 570.309C531.251 570.309 533.986 567.576 533.986 564.222C533.986 560.868 531.376 558.135 528.02 558.135C524.664 558.135 522.054 560.868 522.054 564.222Z" fill="#333333"/>
</g>
</g>
<defs>
<clipPath id="clip0">
<rect width="811" height="559" transform="matrix(-1 0 0 1 811.776 0.998535)" fill="white"/>
</clipPath>
</defs>
</svg>
